<svg width="320" height="200" viewBox="0 0 320 200" fill="none" xmlns="http://www.w3.org/2000/svg">
<g clip-path="url(#clip0)">
<path d="M320 0H0V200H320V0Z" fill="#D3F4CF"/>
<path d="M2.10004 219.4C55.0089 219.4 97.9001 165.943 97.9001 100C97.9001 34.0572 55.0089 -19.4 2.10004 -19.4C-50.8088 -19.4 -93.7 34.0572 -93.7 100C-93.7 165.943 -50.8088 219.4 2.10004 219.4Z" fill="#E5FCE3"/>
<path d="M161.2 78.9V67H157.2C157 67.4 156.7 67.8 156.4 68.2C153.5 71.7 148.6 74.9 145.1 77.5L141.7 73.7C144.8 71.5 148.5 68.8 150.9 66.1H142.5V61.1H152.3V57.8H143V52.8H158.2V61.6H161.3V52.4H167.2V78.9H161.2Z" fill="#00599F"/>
<path d="M185.9 78.9V73.1H181V78.9H175.1V73.1H170.2V68.1H196.7V73.1H191.8V78.9H185.9ZM171.6 66.2V52.9H195.3V66.3H171.6V66.2ZM189.4 57.9H177.5V61.2H189.4V57.9Z" fill="#00599F"/>
<path d="M218.2 78.9V74L215.7 76.5H200V52.9H205.9V71.6H218.3V52.4H224.2V78.9H218.2Z" fill="#00599F"/>
<path d="M246.7 78.9V74.6L244.1 77.2H228.1V52.7H244.1V57.7H234V62.3H243.3V67.3H234V72H246.7V52.4H252.6V78.9H246.7Z" fill="#00599F"/>
<path d="M147.4 108.4V103.6H141.8V101.9H155.2V103.6H149.6V108.4H147.4ZM148.5 100.9C145.2 100.9 143.2 99.6 143.2 97.6C143.2 95.6 145.3 94.3 148.5 94.3C151.8 94.3 153.8 95.6 153.8 97.6C153.8 99.6 151.8 100.9 148.5 100.9ZM148.5 96C146.6 96 145.5 96.7 145.5 97.6C145.5 98.5 146.6 99.2 148.5 99.2C150.4 99.2 151.5 98.5 151.5 97.6C151.5 96.7 150.4 96 148.5 96Z" fill="#303030"/>
<path d="M165.3 104.5C163.8 104.9 161 105 158.5 105C158 105 157.4 105 157 105V98.7H161.6V96.6H157V94.9H163.8V100.5H159.3V103.3C160.7 103.3 163.4 103.3 165.1 102.9L165.3 104.5ZM168.4 93.6V108.4H166.2V93.6H168.4Z" fill="#303030"/>
<path d="M180.4 104.7C179.3 104.9 177.1 105 175.6 105.1C174 105.2 172.2 105.2 170.8 105.2L170.6 103.3C172.3 103.3 173.8 103.3 175.3 103.3C177.3 103.2 179.1 103.1 180.2 103L180.4 104.7ZM175.4 94.6C177.7 94.6 179.5 96 179.5 98.1C179.5 100.3 177.7 101.6 175.4 101.6C173.1 101.6 171.4 100.2 171.4 98.1C171.4 96 173.1 94.6 175.4 94.6ZM175.4 99.9C176.4 99.9 177.3 99.2 177.3 98.1C177.3 97 176.4 96.3 175.4 96.3C174.4 96.3 173.5 97 173.5 98.1C173.5 99.2 174.4 99.9 175.4 99.9ZM183.1 108.4H180.9V93.6H183.1V108.4Z" fill="#303030"/>
<path d="M189.2 106.5V104.8H202.6V106.5H189.2ZM201.2 102.1C199.4 101.7 196.7 100.3 195.8 98.2C195 100.4 192.4 101.8 190.5 102.1L189.5 100.3C191.9 100 194.6 98.2 194.6 95.5V94.6H197V95.5C197 98.2 199.7 100 202.1 100.3L201.2 102.1Z" fill="#303030"/>
<path d="M206.3 103.1C206.5 103.1 206.8 103.1 207 103.1C208.6 103.1 210.8 102.9 212.1 102.7C212.1 103.3 212.2 103.8 212.3 104.4C210.5 104.7 208.4 104.9 206.2 104.9C205.5 104.9 204.8 104.9 204.1 104.9V94.9H210.9V96.6H206.3V98.8H210.7V100.6H206.3V103.1ZM215.2 99.1H217.1V100.9H215.2V108.4H213V93.6H215.2V99.1Z" fill="#303030"/>
<path d="M231.3 106.6H217.9V104.9H231.3V106.6ZM221.8 99.7V101.2H229.8V102.9H219.6V94.8H229.6V96.5H221.8V98H229.2V99.7H221.8Z" fill="#303030"/>
<path d="M236.3 94.5C238.5 94.5 240.2 95.9 240.2 97.9C240.2 100 238.5 101.4 236.3 101.4C234.1 101.4 232.4 100 232.4 97.9C232.4 95.9 234.1 94.5 236.3 94.5ZM236.3 99.6C237.3 99.6 238.1 98.9 238.1 97.9C238.1 96.9 237.3 96.2 236.3 96.2C235.3 96.2 234.5 96.9 234.5 97.9C234.5 98.9 235.2 99.6 236.3 99.6ZM234.6 108.2V102.3H236.8V103.6H242.3V102.3H244.5V108.2H234.6ZM242.4 105.3H236.9V106.5H242.4V105.3ZM242.3 101.7V98.7H240.6V96.9H242.3V93.6H244.5V101.7H242.3Z" fill="#303030"/>
<path d="M255.3 94.6C257.8 94.6 259.2 96.8 259.2 99.9C259.2 102.9 257.8 105.2 255.3 105.2C252.9 105.2 251.4 103 251.4 99.9C251.4 96.8 252.8 94.6 255.3 94.6ZM255.3 96.5C254.3 96.5 253.5 97.7 253.5 99.9C253.5 102.1 254.3 103.3 255.3 103.3C256.4 103.3 257.1 102.1 257.1 99.9C257.1 97.7 256.3 96.5 255.3 96.5ZM261.1 108.4V93.6H263.3V108.4H261.1Z" fill="#303030"/>
<path d="M269.3 94.6C271.7 94.6 273.2 96.8 273.2 99.9C273.2 102.9 271.7 105.2 269.3 105.2C266.9 105.2 265.4 103 265.4 99.9C265.4 96.8 266.9 94.6 269.3 94.6ZM269.3 96.5C268.3 96.5 267.5 97.7 267.5 99.9C267.5 102.1 268.3 103.3 269.3 103.3C270.4 103.3 271.1 102.1 271.1 99.9C271.1 97.7 270.4 96.5 269.3 96.5ZM278.9 98.9H276.9V101.5H278.9V103.3H276.9V108.4H274.7V93.6H276.9V97.1H278.9V98.9Z" fill="#303030"/>
<path d="M287.5 95.1C287.4 99.4 285.6 103.2 280.8 105.8L279.6 104.1C282.8 102.6 284.9 99.7 285.2 96.9H280.5V95.1H287.5ZM289.8 108.4V93.6H292V108.4H289.8Z" fill="#303030"/>
<path d="M294.6 105.3H296.9L295.7 108.7H294L294.6 105.3Z" fill="#303030"/>
<path d="M146.2 125.3V125.9H152.1V124.7H154.3V130.1H144V124.7H145.6V123.4C144.2 123.4 142.8 123.5 142 123.5L141.7 121.8C143.3 121.8 144.9 121.8 146.6 121.7C148.3 121.6 150 121.5 151.3 121.4L151.5 123.1C150.1 123.3 149.2 123.4 147.8 123.4V125.3H146.2ZM150 120.9C148.8 120.8 147.2 119.9 146.6 118.9C146 120.1 144.6 121.1 143 121.4L142 119.7C144.4 119.2 145.4 118 145.4 116.8V116.2H147.7V116.9C147.7 118.1 149.3 119.3 150.9 119.5L150 120.9ZM152 127.6H146.1V128.5H152V127.6ZM154.2 124.2H152V115.6H154.2V124.2Z" fill="#303030"/>
<path d="M156.2 128.5V126.8H169.6V128.5H156.2ZM168.2 124.1C166.4 123.7 163.7 122.3 162.8 120.2C162 122.4 159.4 123.8 157.5 124.1L156.5 122.3C158.9 122 161.6 120.2 161.6 117.5V116.6H164V117.5C164 120.2 166.7 122 169.1 122.3L168.2 124.1Z" fill="#303030"/>
<path d="M178 129.7V122.9H177.1C176.9 125.2 176 127.5 173.9 127.5C171.5 127.5 170.7 124.7 170.7 122C170.7 119.4 171.6 116.6 173.9 116.6C176 116.6 176.9 118.7 177.1 120.9H178.1V115.8H180.1V129.6H178V129.7ZM173.9 118.7C173 118.7 172.7 120.3 172.7 122C172.7 123.8 173 125.3 173.9 125.3C174.8 125.3 175.1 123.7 175.1 122C175.1 120.3 174.8 118.7 173.9 118.7ZM181.1 130.4V115.6H183.1V130.4H181.1Z" fill="#303030"/>
<path d="M192.6 127C191.4 126.3 189.7 124.8 189.2 123.3C188.8 124.8 187.1 126.7 185.8 127.4L184.4 125.7C186.9 124.2 188 122 188 118.9V116.9H190.3V118.9C190.3 122 191.5 124 193.8 125.3L192.6 127ZM195 130.4V122.4H192.3V120.6H195V115.6H197.2V130.4H195Z" fill="#303030"/>
<path d="M211.3 127.1C210.1 126.4 208.4 124.7 207.9 123.2C207.5 124.8 205.8 126.7 204.5 127.5L203.2 125.8C205.7 124.3 206.8 122.1 206.8 118.9V118.8H204V117H212V118.8H209C209 122 210.2 124.1 212.5 125.3L211.3 127.1ZM215.2 121.2H217.2V123H215.2V130.4H213V115.6H215.2V121.2Z" fill="#303030"/>
<path d="M220.9 130.4V125.5H217.9V123.8H231.3V125.5H228.2V130.4H226V125.5H223.1V130.4H220.9ZM224.6 122.8C221.4 122.8 219.3 121.5 219.3 119.5C219.3 117.5 221.4 116.2 224.6 116.2C227.8 116.2 229.9 117.5 229.9 119.5C229.9 121.4 227.8 122.8 224.6 122.8ZM224.6 117.9C222.7 117.9 221.6 118.6 221.6 119.5C221.6 120.4 222.8 121.1 224.6 121.1C226.4 121.1 227.6 120.4 227.6 119.5C227.6 118.6 226.4 117.9 224.6 117.9Z" fill="#303030"/>
<path d="M240.1 122.1V122.9H245.7V124.6H232.3V122.9H237.9V122.1H234V118.3H241.7V117.7H234V116H243.9V119.8H236.2V120.4H244.1V122.1H240.1ZM234 130.2V125.1H236.2V126.1H241.8V125.2H244V130.3H234V130.2ZM241.8 127.7H236.2V128.5H241.8V127.7Z" fill="#303030"/>
<path d="M253 117.4C253 118.7 252.9 119.9 252.6 121.1H254.1V116H256.1V129.9H254.1V123H251.9C251 124.8 249.6 126.4 247.6 127.6L246.3 126C249.2 124.3 250.6 122 250.9 119.3H247.2V117.6H253V117.4ZM257.2 130.4V115.6H259.3V130.4H257.2Z" fill="#303030"/>
<path d="M261.6 116.6H264.1L263.8 125H261.9L261.6 116.6ZM261.7 126.5H263.9V128.6H261.7V126.5Z" fill="#303030"/>
<path d="M178.5 164.7H149.8C145.1 164.7 141.3 160.9 141.3 156.2C141.3 151.5 145.1 147.7 149.8 147.7H178.5C183.2 147.7 187 151.5 187 156.2C187 160.9 183.2 164.7 178.5 164.7Z" fill="#E5FCE3"/>
<path d="M148.5 158.6H147.7V152.6H151.7V153.7H149V157.6C149.1 157.6 149.2 157.6 149.3 157.6C150.2 157.6 151.3 157.5 152.1 157.3C152.2 157.7 152.2 158 152.2 158.3C151.5 158.5 150 158.6 148.5 158.6ZM153.4 160.7V155.9H151.4V154.8H153.4V151.8H154.7V160.7H153.4Z" fill="#08C879"/>
<path d="M156 159.6V158.5H159.4V157H157V152.4H158.3V153.7H161.8V152.4H163.1V157H160.7V158.6H164.1V159.7H156V159.6ZM161.8 154.7H158.3V155.9H161.8V154.7Z" fill="#08C879"/>
<path d="M165.3 159.2L164.5 158.2C166.4 157.3 167.7 155.6 167.9 153.9H165.1V152.8H169.3C169.3 155.4 168.2 157.6 165.3 159.2ZM170.7 160.7V151.8H172V160.7H170.7Z" fill="#08C879"/>
<path d="M179 159.6C178.8 159.6 178.7 159.5 178.6 159.4C178.4 159.2 178.4 158.8 178.6 158.6L180.9 156.3L178.5 153.9C178.3 153.7 178.3 153.3 178.5 153.1C178.7 152.9 179.1 152.9 179.3 153.1L182.1 155.9C182.3 156.1 182.3 156.5 182.1 156.7L179.4 159.4C179.3 159.5 179.1 159.6 179 159.6Z" fill="#08C879"/>
<path d="M181.7 156.8H175.6C175.3 156.8 175 156.5 175 156.2C175 155.9 175.3 155.6 175.6 155.6H181.7C182 155.6 182.3 155.9 182.3 156.2C182.3 156.6 182.1 156.8 181.7 156.8Z" fill="#08C879"/>
<path d="M39.4002 49.1C34.8002 48 31.3002 44.4 30.1002 39.8L30.0002 39.1L29.8002 39.9C28.7002 44.5 25.1002 48 20.5002 49.2L19.7002 49.4L20.5002 49.6C25.1002 50.7 28.6002 54.3 29.8002 58.9L30.0002 59.7L30.2002 58.9C31.3002 54.3 34.9002 50.8 39.5002 49.6L40.3002 49.4L39.4002 49.1Z" fill="#FFD221"/>
<path d="M54.0002 140.9C49.4002 139.8 45.9002 136.2 44.7002 131.6L44.5002 130.8L44.3002 131.6C43.2002 136.2 39.6002 139.7 35.0002 140.9L34.2002 141.1L35.0002 141.3C39.6002 142.4 43.1002 146 44.3002 150.6L44.5002 151.4L44.7002 150.6C45.8002 146 49.4002 142.5 54.0002 141.3L54.8002 141.1L54.0002 140.9Z" fill="#488EFF"/>
<path d="M125.1 110.5C121.2 109.5 118.2 106.5 117.2 102.6L117 101.9L116.8 102.6C115.8 106.5 112.8 109.5 108.9 110.5L108.2 110.7L108.9 110.9C112.8 111.9 115.8 114.9 116.8 118.8L117 119.5L117.2 118.8C118.2 114.9 121.2 111.9 125.1 110.9L125.8 110.7L125.1 110.5Z" fill="#00599F"/>
<path d="M78.5001 107.8H40.9001C36.7001 107.8 33.3001 104.4 33.3001 100.2V68.6H26.0001C21.8001 68.6 18.4001 72 18.4001 76.2V110C18.4001 114.2 21.8001 117.6 26.0001 117.6L21.3001 136.1L47.8001 117.6H85.4001C87.2001 117.6 88.9001 117 90.2001 115.9L78.5001 107.8Z" fill="#00599F"/>
<path d="M100.3 58.7H40.9001C36.7001 58.7 33.3 62.1 33.3 66.3V100.1C33.3 104.3 36.7001 107.7 40.9001 107.7H78.5L105 126.2L100.3 107.7C104.5 107.7 107.9 104.3 107.9 100.1V66.3C107.9 62.1 104.5 58.7 100.3 58.7Z" fill="#08C879"/>
<path d="M57.9986 84.4856C59.1822 81.6282 57.8253 78.3523 54.9679 77.1687C52.1105 75.9851 48.8345 77.342 47.6509 80.1994C46.4673 83.0568 47.8242 86.3327 50.6817 87.5163C53.5391 88.7 56.815 87.3431 57.9986 84.4856Z" fill="#FFD221"/>
<path d="M75.8031 84.4917C76.9867 81.6343 75.6298 78.3584 72.7723 77.1748C69.9149 75.9912 66.639 77.3481 65.4554 80.2055C64.2718 83.0629 65.6287 86.3388 68.4861 87.5225C71.3435 88.7061 74.6194 87.3492 75.8031 84.4917Z" fill="#FFD221"/>
<path d="M88.4 88C91.4928 88 94 85.4928 94 82.4C94 79.3072 91.4928 76.8 88.4 76.8C85.3073 76.8 82.8 79.3072 82.8 82.4C82.8 85.4928 85.3073 88 88.4 88Z" fill="#FFD221"/>
<path d="M68.4001 129.8C65.9001 129.2 63.9001 127.2 63.2001 124.6L63.1001 124.2L63.0001 124.6C62.4001 127.1 60.4001 129.1 57.8001 129.8L57.4001 129.9L57.8001 130C60.3001 130.6 62.3001 132.6 63.0001 135.2L63.1001 135.6L63.2001 135.2C63.8001 132.7 65.8001 130.7 68.4001 130L68.8001 129.9L68.4001 129.8Z" fill="#488EFF"/>
</g>
<defs>
<clipPath id="clip0">
<rect width="320" height="200" fill="white"/>
</clipPath>
</defs>
</svg>
