<svg width="320" height="200" viewBox="0 0 320 200" fill="none" xmlns="http://www.w3.org/2000/svg">
<g clip-path="url(#clip0)">
<path d="M44.1 17.7C43.1 19.1 41.8 20.2 40.3 21C38.8 21.8 37.1 22.3 35.2 22.5L34 18.6C35.4 18.5 36.7 18.1 37.8 17.3C38.9 16.5 39.8 15.5 40.4 14.2C41 12.9 41.4 11.4 41.4 9.69995H46.7C46.8 11.4 47.1 12.8 47.7 14.2C48.3 15.6 49.2 16.6 50.3 17.3C51.4 18.1 52.7 18.5 54.1 18.6L53 22.5C51.1 22.4 49.4 21.9 47.9 21C46.4 20.1 45.1 19 44.1 17.7ZM34 30.1V25.9H54.2V30.1H34Z" fill="black"/>
<path d="M69.5001 17.7V21.9H62.8001V25.8H70.1001V30H57.6001V9.79998H69.6001V14H62.9001V17.7H69.5001ZM77.2001 17.7H79.3001V21.9H77.2001V30.9H71.9001V9.59998H77.2001V17.7Z" fill="black"/>
<path d="M101.1 30.1H80.8999V26.1H101.1V30.1ZM86.7999 14.9H100.3V18.9H86.7999V19.9H100.6V23.9H81.5999V9.89996H100.6V13.9H86.7999V14.9Z" fill="black"/>
<path d="M124.1 9.59998V21.2H118.8V17.6H116.8C116.5 18.8 115.8 19.8 114.7 20.4C113.6 21.1 112.3 21.4 110.7 21.4C108.7 21.4 107.2 20.9 106.1 20C105 19 104.4 17.7 104.4 16V15.2C104.4 13.5 105 12.1 106.1 11.2C107.2 10.2 108.8 9.79998 110.7 9.79998C112.3 9.79998 113.6 10.1 114.6 10.7C115.6 11.3 116.4 12.2 116.7 13.4H118.7V9.59998H124.1ZM118.9 23.1V22.1H124.1V30.9H105.1V22.1H110.4V23.1H118.9ZM111.7 14.8C111.7 14.5 111.6 14.2 111.4 14.1C111.2 14 111 13.8 110.7 13.8C110.4 13.8 110.2 13.9 110 14.1C109.8 14.3 109.7 14.5 109.7 14.8V16.2C109.7 16.5 109.8 16.7 110 16.9C110.2 17.1 110.4 17.2 110.7 17.2C111 17.2 111.3 17.1 111.4 16.9C111.5 16.7 111.7 16.5 111.7 16.2V14.8ZM118.9 27.5V26.4H110.4V27.5H118.9Z" fill="black"/>
<path d="M138.4 11.5C139.5 12.6 140 14.2 140 16.3V23.7C140 25.8 139.5 27.4 138.4 28.5C137.3 29.6 135.8 30.1 133.7 30.1C131.6 30.1 130.1 29.6 129 28.5C127.9 27.4 127.4 25.8 127.4 23.7V16.3C127.4 14.2 127.9 12.6 129 11.5C130.1 10.4 131.6 9.89997 133.7 9.89997C135.8 9.79997 137.4 10.4 138.4 11.5ZM132.7 15.1V24.8C132.7 25.5 133 25.9 133.7 25.9C134.4 25.9 134.7 25.5 134.7 24.8V15.1C134.7 14.4 134.4 14 133.7 14C133 14 132.7 14.4 132.7 15.1ZM147.1 9.59998V30.9H141.8V9.59998H147.1Z" fill="black"/>
<path d="M178.5 9.59998V30.9H173.2V21.9H171.5V24.3C171.5 26.4 171 27.9 169.9 29C168.8 30.1 167.3 30.6 165.2 30.6C163.1 30.6 161.6 30.1 160.5 29C159.4 27.9 158.9 26.4 158.9 24.3V15.9C158.9 13.8 159.4 12.3 160.5 11.2C161.6 10.1 163.1 9.59998 165.2 9.59998C167.3 9.59998 168.8 10.1 169.9 11.2C171 12.3 171.5 13.8 171.5 15.9V17.7H173.2V9.59998H178.5ZM166.2 14.8C166.2 14.1 165.9 13.8 165.2 13.8C164.5 13.8 164.2 14.1 164.2 14.8V25.4C164.2 26.1 164.5 26.4 165.2 26.4C165.9 26.4 166.2 26.1 166.2 25.4V14.8Z" fill="black"/>
<path d="M193.7 21.9H187.1V25.8H194.3V30H181.8V17.7H188.5V14.1H181.8V9.89997H193.7V21.9ZM201.4 9.59998V30.9H196.1V25.3H194.2V21.1H196.1V17.7H194.2V13.5H196.1V9.59998H201.4Z" fill="black"/>
<path d="M225 20.2H217.5V21H224.4V27.3H210.6V28.1H224.7V30.9H205.3V24.6H219.1V23.8H205.3V21H212.2V20.2H204.7V17.1H225V20.2ZM208.6 16.3C207.6 16.3 206.8 16 206.2 15.4C205.6 14.8 205.3 14 205.3 13.1C205.3 12.1 205.6 11.3 206.2 10.8C206.8 10.2 207.6 9.89996 208.6 9.89996H221.1C222.1 9.89996 222.9 10.2 223.5 10.8C224.1 11.4 224.4 12.2 224.4 13.1C224.4 14.1 224.1 14.9 223.5 15.4C222.9 16 222.1 16.3 221.1 16.3H208.6ZM211.1 12.6C211 12.6 210.9 12.6 210.8 12.7C210.7 12.8 210.7 12.9 210.7 13.1C210.7 13.2 210.7 13.3 210.8 13.4C210.9 13.5 211 13.5 211.1 13.5H218.7C218.8 13.5 219 13.5 219.1 13.4C219.2 13.3 219.2 13.2 219.2 13.1C219.2 13 219.2 12.8 219.1 12.7C219 12.6 218.9 12.6 218.7 12.6H211.1Z" fill="black"/>
<path d="M246.6 14.1H245.2V18H246.9V22.2H236.8V9.89997H246.7V14.1H246.6ZM243.7 23.3V26.7H257.5V30.9H238.5V23.3H243.7ZM240.6 18H241.9V14.1H240.6V18ZM257.5 23.9H253V18.9H252.2V23.4H247.7V9.59998H252.2V14.4H253V9.59998H257.5V23.9Z" fill="black"/>
<path d="M270.4 14.9C270.4 15.6 270.4 16.2 270.3 16.7C270.2 17.2 270.1 17.8 269.9 18.2C269.7 18.7 269.5 19.2 269.2 19.6C268.9 20.1 268.6 20.6 268.2 21.1C267.7 21.8 267.3 22.3 267.1 22.8C266.9 23.3 266.7 23.8 266.7 24.5H262.2C262.2 23.9 262.2 23.3 262.3 22.8C262.4 22.3 262.5 21.8 262.7 21.4C262.9 21 263.1 20.6 263.3 20.2C263.5 19.8 263.8 19.4 264.1 19C264.4 18.6 264.6 18.3 264.8 17.9C265 17.6 265.1 17.3 265.3 17C265.4 16.7 265.5 16.4 265.6 16C265.7 15.7 265.7 15.3 265.7 14.9C265.7 14.5 265.5 14.3 265.1 14.3C264.7 14.3 264.5 14.5 264.5 14.9V16.4L260 16.7L259.7 14.8C259.7 13.2 260.2 12 261.1 11.1C262 10.2 263.3 9.79999 265 9.79999C266.7 9.79999 268 10.2 268.9 11.1C269.9 12.1 270.4 13.3 270.4 14.9ZM264.5 25.9C265.2 25.9 265.9 26.1 266.4 26.6C266.9 27.1 267.1 27.7 267.1 28.5C267.1 29.3 266.9 29.9 266.4 30.4C265.9 30.9 265.3 31.1 264.5 31.1C263.8 31.1 263.1 30.8 262.6 30.3C262.1 29.8 261.8 29.2 261.8 28.4C261.8 27.6 262.1 27 262.6 26.5C263.1 26 263.8 25.9 264.5 25.9Z" fill="black"/>
<path d="M320 0H0V200H320V0Z" fill="#FCFAF2"/>
<path d="M60 7.5V192.5" stroke="#1A1718" stroke-width="0.25" stroke-miterlimit="10"/>
<path d="M90 7.5V192.5" stroke="#1A1718" stroke-width="0.25" stroke-miterlimit="10"/>
<path d="M120 7.5V192.5" stroke="#1A1718" stroke-width="0.25" stroke-miterlimit="10"/>
<path d="M30 7.5V192.5" stroke="#1A1718" stroke-width="0.25" stroke-miterlimit="10"/>
<path d="M312.2 55H0" stroke="#1A1718" stroke-width="0.25" stroke-miterlimit="10"/>
<path d="M312.2 85H0" stroke="#1A1718" stroke-width="0.25" stroke-miterlimit="10"/>
<path d="M312.2 145H0" stroke="#1A1718" stroke-width="0.25" stroke-miterlimit="10"/>
<path d="M312.2 175H0" stroke="#1A1718" stroke-width="0.25" stroke-miterlimit="10"/>
<path d="M312.2 25H0" stroke="#1A1718" stroke-width="0.25" stroke-miterlimit="10"/>
<path d="M180 7.5V192.5" stroke="#1A1718" stroke-width="0.25" stroke-miterlimit="10"/>
<path d="M210 7.5V192.5" stroke="#1A1718" stroke-width="0.25" stroke-miterlimit="10"/>
<path d="M240 7.5V192.5" stroke="#1A1718" stroke-width="0.25" stroke-miterlimit="10"/>
<path d="M270 7.5V192.5" stroke="#1A1718" stroke-width="0.25" stroke-miterlimit="10"/>
<path d="M300 7.5V192.5" stroke="#1A1718" stroke-width="0.25" stroke-miterlimit="10"/>
<path d="M150 7.5V192.5" stroke="#1A1718" stroke-width="0.25" stroke-miterlimit="10"/>
<path d="M270 25H30V55H270V25Z" fill="#FFE6BB" stroke="#1A1718" stroke-width="0.25" stroke-miterlimit="10"/>
<path d="M309.6 77.6H10.3V115H309.6V77.6Z" fill="#B5D2F4"/>
<path d="M18.5 108.5C17.9 108.5 17.5 108.1 17.5 107.5V65.2C17.5 64.6 17.9 64.2 18.5 64.2H37.4C41.3 64.2 44.6 64.6 47.2 65.4C49.9 66.2 52.1 67.6 53.8 69.4C55.4 71.2 56.6 73.6 57.3 76.4C58 79.1 58.3 82.5 58.3 86.3C58.3 90.1 58 93.5 57.3 96.3C56.6 99.1 55.4 101.5 53.8 103.3C52.1 105.1 49.9 106.5 47.2 107.3C44.6 108.1 41.3 108.5 37.4 108.5H18.5ZM37.6 95.6C39.7 95.6 40.7 95.3 41.2 95.1C41.8 94.8 41.9 93.8 41.9 93V79.6C41.9 78.8 41.8 77.8 41.2 77.5C40.7 77.3 39.8 77 37.6 77H33V95.6H37.6Z" fill="#153F7C"/>
<path d="M37.4 65.2C41.2 65.2 44.4 65.6 46.9 66.4C49.5 67.2 51.5 68.4 53 70.1C54.5 71.8 55.6 74 56.3 76.6C57 79.3 57.3 82.5 57.3 86.3C57.3 90.1 57 93.3 56.3 96C55.6 98.7 54.5 100.9 53 102.6C51.5 104.3 49.4 105.5 46.9 106.3C44.3 107.1 41.2 107.5 37.4 107.5H18.5V65.2H37.4ZM32 96.6H37.6C39.5 96.6 40.8 96.4 41.6 96C42.4 95.6 42.8 94.6 42.8 93V79.6C42.8 78.1 42.4 77.1 41.6 76.6C40.8 76.2 39.4 76 37.6 76H32V96.6ZM37.4 63.2H18.5C17.4 63.2 16.5 64.1 16.5 65.2V107.5C16.5 108.6 17.4 109.5 18.5 109.5H37.4C41.4 109.5 44.8 109.1 47.5 108.2C50.4 107.3 52.8 105.9 54.5 103.9C56.3 102 57.5 99.5 58.3 96.5C59 93.7 59.3 90.2 59.3 86.3C59.3 82.4 58.9 78.9 58.3 76.1C57.6 73.1 56.3 70.6 54.5 68.7C52.7 66.7 50.4 65.3 47.5 64.4C44.8 63.6 41.4 63.2 37.4 63.2ZM34 78H37.6C39.6 78 40.4 78.3 40.6 78.4C40.6 78.5 40.8 78.8 40.8 79.6V93C40.8 93.8 40.7 94.1 40.6 94.2C40.3 94.3 39.5 94.6 37.6 94.6H34V78Z" fill="#B5D2F4"/>
<path d="M62.1001 108.5C61.5001 108.5 61.1001 108.1 61.1001 107.5V65.2C61.1001 64.6 61.5001 64.2 62.1001 64.2H75.6001C76.2001 64.2 76.6001 64.6 76.6001 65.2V107.5C76.6001 108.1 76.2001 108.5 75.6001 108.5H62.1001Z" fill="#153F7C"/>
<path d="M75.6001 65.2V107.5H62.1001V65.2H75.6001ZM75.6001 63.2H62.1001C61.0001 63.2 60.1001 64.1 60.1001 65.2V107.5C60.1001 108.6 61.0001 109.5 62.1001 109.5H75.6001C76.7001 109.5 77.6001 108.6 77.6001 107.5V65.2C77.6001 64.1 76.7001 63.2 75.6001 63.2Z" fill="#B5D2F4"/>
<path d="M91.2001 108.5C90.6001 108.5 90.2001 108.1 90.2001 107.5V96.2L78.1001 65.6C78.0001 65.3 78.0001 64.9 78.2001 64.7C78.4001 64.4 78.7001 64.3 79.0001 64.3H93.9001C94.4001 64.3 94.8001 64.6 94.9001 65.1L97.9001 77.1L101 65.1C101.1 64.7 101.5 64.3 102 64.3H116.9C117.2 64.3 117.5 64.5 117.7 64.7C117.9 65 117.9 65.3 117.8 65.6L105.7 96.2V107.5C105.7 108.1 105.3 108.5 104.7 108.5H91.2001Z" fill="#153F7C"/>
<path d="M116.9 65.2L104.7 96V107.5H91.2001V96L79.0001 65.2H93.9001L97.6001 80.1H98.1001L101.9 65.2H116.9ZM116.9 63.2H102C101.1 63.2 100.3 63.8 100.1 64.7L98.0001 72.9L96.0001 64.7C95.8001 63.8 95.0001 63.2 94.1001 63.2H79.0001C78.3001 63.2 77.7001 63.5 77.3001 64.1C76.9001 64.6 76.9001 65.3 77.1001 66L89.1001 96.4V107.5C89.1001 108.6 90.0001 109.5 91.1001 109.5H104.6C105.7 109.5 106.6 108.6 106.6 107.5V96.3L118.6 65.9C118.8 65.3 118.8 64.6 118.4 64C118.1 63.5 117.5 63.2 116.9 63.2Z" fill="#B5D2F4"/>
<path d="M120.2 106.8C119.6 106.8 119.2 106.4 119.2 105.8V97.3C119.2 96.7 119.6 96.3 120.2 96.3H160.8C161.4 96.3 161.8 96.7 161.8 97.3V105.8C161.8 106.4 161.4 106.8 160.8 106.8H120.2ZM122.5 91.5C122.1 91.5 121.7 91.2 121.5 90.8L119.2 82.9C119.1 82.6 119.2 82.3 119.3 82C119.5 81.8 119.8 81.6 120.1 81.6C122.8 81.4 125.1 80.6 127.2 79.1C129.3 77.6 130.9 75.6 132.2 73.1C133.4 70.6 134.1 67.7 134.2 64.5C134.2 64 134.7 63.5 135.2 63.5H145.8C146.3 63.5 146.8 63.9 146.8 64.5C146.9 67.7 147.6 70.6 148.8 73.1C150 75.6 151.7 77.6 153.7 79.1C155.8 80.6 158.1 81.4 160.8 81.6C161.1 81.6 161.4 81.8 161.6 82C161.8 82.2 161.8 82.6 161.7 82.9L159.4 90.8C159.3 91.2 158.9 91.5 158.4 91.5H158.3C154.4 91.2 150.8 90.1 147.6 88.4C144.8 86.9 142.3 84.9 140.3 82.4C138.3 84.8 135.9 86.8 133 88.4C130.1 90.1 126.5 91.2 122.5 91.5C122.6 91.5 122.5 91.5 122.5 91.5Z" fill="#153F7C"/>
<path d="M145.8 64.6C145.9 67.9 146.6 70.9 147.9 73.6C149.2 76.2 151 78.4 153.2 79.9C155.4 81.5 158 82.4 160.8 82.5L158.5 90.4C154.7 90.1 151.3 89.1 148.2 87.4C145.1 85.7 142.5 83.5 140.5 80.7C138.4 83.5 135.9 85.7 132.8 87.4C129.7 89.1 126.3 90.1 122.5 90.4L120.2 82.5C123.1 82.3 125.6 81.4 127.8 79.9C130 78.3 131.8 76.2 133.1 73.6C134.4 71 135.1 68 135.2 64.6H145.8ZM160.8 97.3V105.8H120.2V97.3H160.8ZM145.8 62.6H135.2C134.1 62.6 133.2 63.5 133.2 64.5C133.1 67.5 132.5 70.3 131.3 72.7C130.2 75 128.6 76.9 126.7 78.3C124.8 79.7 122.6 80.4 120.1 80.6C119.5 80.6 118.9 81 118.6 81.4C118.3 81.9 118.1 82.5 118.3 83.1L120.6 91C120.8 91.9 121.6 92.5 122.5 92.5C122.6 92.5 122.6 92.5 122.7 92.5C126.7 92.2 130.4 91.1 133.8 89.3C136.4 87.9 138.7 86.1 140.6 84C142.5 86.1 144.8 87.9 147.4 89.3C150.7 91.1 154.5 92.2 158.5 92.5C158.6 92.5 158.6 92.5 158.7 92.5C159.6 92.5 160.4 91.9 160.6 91L162.9 83.1C163.1 82.5 163 81.9 162.6 81.4C162.3 80.9 161.7 80.6 161.1 80.6C158.6 80.4 156.4 79.7 154.5 78.3C152.6 76.9 151 75 149.9 72.7C148.7 70.3 148.1 67.6 148 64.5C147.8 63.5 146.9 62.6 145.8 62.6ZM160.8 95.3H120.2C119.1 95.3 118.2 96.2 118.2 97.3V105.8C118.2 106.9 119.1 107.8 120.2 107.8H160.8C161.9 107.8 162.8 106.9 162.8 105.8V97.3C162.8 96.2 161.9 95.3 160.8 95.3Z" fill="#B5D2F4"/>
<path d="M196.4 108.5C195.8 108.5 195.4 108.1 195.4 107.5V64.6C195.4 64 195.8 63.6 196.4 63.6H207C207.6 63.6 208 64 208 64.6V79.9H211.2C211.8 79.9 212.2 80.3 212.2 80.9V89.4C212.2 90 211.8 90.4 211.2 90.4H208V107.5C208 108.1 207.6 108.5 207 108.5H196.4ZM167.6 106.8C167 106.8 166.6 106.4 166.6 105.8V65.1C166.6 64.5 167 64.1 167.6 64.1H191.7C192.3 64.1 192.7 64.5 192.7 65.1V73.6C192.7 74.2 192.3 74.6 191.7 74.6H179.2V80H191.7C192.3 80 192.7 80.4 192.7 81V89.5C192.7 90.1 192.3 90.5 191.7 90.5H179.2V96.4H192.8C193.4 96.4 193.8 96.8 193.8 97.4V105.9C193.8 106.5 193.4 106.9 192.8 106.9H167.6V106.8Z" fill="#153F7C"/>
<path d="M207 64.6V80.9H211.2V89.4H207V107.5H196.4V64.6H207ZM191.6 65.1V73.6H178.1V81H191.6V89.5H178.1V97.4H192.7V105.9H167.5V65.1H191.6ZM207 62.6H196.4C195.3 62.6 194.4 63.5 194.4 64.6V96.2C194 95.7 193.4 95.3 192.7 95.3H180.1V91.4H191.6C192.7 91.4 193.6 90.5 193.6 89.4V80.9C193.6 79.8 192.7 78.9 191.6 78.9H180.1V75.5H191.6C192.7 75.5 193.6 74.6 193.6 73.5V65C193.6 63.9 192.7 63 191.6 63H167.5C166.4 63 165.5 63.9 165.5 65V105.7C165.5 106.8 166.4 107.7 167.5 107.7H192.7C193.4 107.7 194 107.3 194.4 106.8V107.4C194.4 108.5 195.3 109.4 196.4 109.4H207C208.1 109.4 209 108.5 209 107.4V91.4H211.2C212.3 91.4 213.2 90.5 213.2 89.4V80.9C213.2 79.8 212.3 78.9 211.2 78.9H209V64.6C209 63.5 208.1 62.6 207 62.6Z" fill="#B5D2F4"/>
<path d="M214.6 106.8C214 106.8 213.6 106.4 213.6 105.8V97.8C213.6 97.2 214 96.8 214.6 96.8H255.2C255.8 96.8 256.2 97.2 256.2 97.8V105.8C256.2 106.4 255.8 106.8 255.2 106.8H214.6ZM215.8 94.3C215.2 94.3 214.8 93.9 214.8 93.3V65.2C214.8 64.6 215.2 64.2 215.8 64.2H254.1C254.7 64.2 255.1 64.6 255.1 65.2V73.2C255.1 73.8 254.7 74.2 254.1 74.2H227.4H253.6C254.2 74.2 254.6 74.6 254.6 75.2V83.2C254.6 83.8 254.2 84.2 253.6 84.2H227.4H254.1C254.7 84.2 255.1 84.6 255.1 85.2V93.2C255.1 93.8 254.7 94.2 254.1 94.2H215.8V94.3Z" fill="#153F7C"/>
<path d="M254.1 65.2V73.2H226.4V75.2H253.6V83.2H226.4V85.2H254.1V93.2H215.8V65.2H254.1ZM255.2 97.8V105.8H214.6V97.8H255.2ZM254.1 63.2H215.8C214.7 63.2 213.8 64.1 213.8 65.2V93.3C213.8 94.4 214.7 95.3 215.8 95.3H254.1C255.2 95.3 256.1 94.4 256.1 93.3V85.3C256.1 84.7 255.9 84.2 255.5 83.8C255.6 83.6 255.6 83.4 255.6 83.2V75.2C255.6 75 255.6 74.8 255.5 74.6C255.9 74.2 256.1 73.7 256.1 73.1V65.1C256.1 64.1 255.2 63.2 254.1 63.2ZM255.2 95.8H214.6C213.5 95.8 212.6 96.7 212.6 97.8V105.8C212.6 106.9 213.5 107.8 214.6 107.8H255.2C256.3 107.8 257.2 106.9 257.2 105.8V97.8C257.2 96.7 256.3 95.8 255.2 95.8Z" fill="#B5D2F4"/>
<path d="M263.2 108.5C262.6 108.5 262.2 108.1 262.2 107.5V89.7C262.2 89.1 262.6 88.7 263.2 88.7H269.7C267.7 88.2 266.1 87.3 264.7 86.1C262.2 84 261 81 261 77.3V75.6C261 71.9 262.2 68.9 264.7 66.8C267.1 64.7 270.5 63.7 274.7 63.7C278 63.7 280.8 64.4 283.1 65.7C285.2 67 286.7 68.7 287.6 70.9H290V64.5C290 63.9 290.4 63.5 291 63.5H301.6C302.2 63.5 302.6 63.9 302.6 64.5V88C302.6 88.4 302.4 88.7 302.1 88.9C302.4 89.1 302.6 89.4 302.6 89.8V107.5C302.6 108.1 302.2 108.5 301.6 108.5H263.2ZM290 99.7V99.6H274.8V99.7H290ZM290 90.8V89.7C290 89.3 290.2 89 290.5 88.8C290.2 88.6 290 88.3 290 87.9V81.6H287.7C286.9 83.9 285.4 85.8 283.3 87.1C281 88.5 278.2 89.2 274.8 89.3C274.9 89.4 274.9 89.6 274.9 89.7V90.8H290ZM274.6 74.1C274.1 74.1 273.9 74.3 273.9 74.3C273.8 74.4 273.7 74.5 273.7 75V77.8C273.7 78.2 273.8 78.4 273.9 78.5C274 78.6 274.2 78.7 274.6 78.7C275.1 78.7 275.3 78.5 275.3 78.5C275.4 78.4 275.5 78.3 275.5 77.7V74.9C275.5 74.5 275.4 74.3 275.3 74.1C275.3 74.2 275 74.1 274.6 74.1Z" fill="#153F7C"/>
<path d="M301.5 64.5V88H290.9V80.7H286.9C286.2 83.1 284.8 85 282.7 86.4C280.6 87.7 277.9 88.4 274.6 88.4C270.6 88.4 267.5 87.4 265.3 85.5C263.1 83.6 261.9 80.9 261.9 77.4V75.7C261.9 72.2 263 69.5 265.3 67.6C267.5 65.7 270.6 64.7 274.6 64.7C277.8 64.7 280.4 65.3 282.5 66.6C284.6 67.9 286 69.7 286.8 72H290.9V64.6H301.5V64.5ZM274.6 79.8C275.2 79.8 275.7 79.6 276.1 79.3C276.4 78.9 276.6 78.5 276.6 77.9V75.1C276.6 74.5 276.4 74 276.1 73.6C275.8 73.3 275.3 73.1 274.6 73.1C274 73.1 273.5 73.3 273.2 73.6C272.8 73.9 272.7 74.4 272.7 75.1V77.9C272.7 78.5 272.9 79 273.2 79.3C273.6 79.7 274 79.8 274.6 79.8ZM301.5 89.7V107.4H263.2V89.7H273.8V91.8H291V89.7H301.5ZM273.8 100.7H291V98.6H273.8V100.7ZM301.5 62.5H290.9C289.8 62.5 288.9 63.4 288.9 64.5V69.9H288.2C287.2 67.8 285.7 66.1 283.6 64.8C281.2 63.4 278.2 62.6 274.7 62.6C270.2 62.6 266.7 63.7 264.1 66C261.4 68.3 260.1 71.6 260.1 75.6V77.3C260.1 81.3 261.5 84.6 264.1 86.9C264.4 87.2 264.8 87.4 265.1 87.7H263.3C262.2 87.7 261.3 88.6 261.3 89.7V107.4C261.3 108.5 262.2 109.4 263.3 109.4H301.6C302.7 109.4 303.6 108.5 303.6 107.4V89.7C303.6 89.4 303.5 89.1 303.4 88.8C303.5 88.5 303.6 88.2 303.6 87.9V64.5C303.5 63.4 302.6 62.5 301.5 62.5ZM288.3 82.6H288.9V88C288.9 88.3 289 88.7 289.1 88.9C289 89.1 288.9 89.4 288.9 89.7V89.8H279.3C280.9 89.4 282.4 88.8 283.7 88C285.9 86.7 287.4 84.9 288.3 82.6Z" fill="#B5D2F4"/>
<path d="M312.2 115H0" stroke="#1A1718" stroke-width="0.25" stroke-miterlimit="10"/>
<path d="M297.2 38.2H295.5C295.4 37.5 295.2 36.8 295 36.2L296.4 35.4L297 34.7L295.6 32.2L294.7 32.3L293.3 33.1C292.9 32.6 292.4 32.1 291.8 31.6L292.6 30.2L292.7 29.3L290.2 27.9L289.5 28.5L288.7 29.9C288.1 29.7 287.4 29.5 286.7 29.4V27.7L286.4 26.8H283.5L283.2 27.7V29.4C282.5 29.5 281.8 29.7 281.2 29.9L280.4 28.5L279.7 27.9L277.2 29.3L277.3 30.2L278.1 31.6C277.6 32 277.1 32.5 276.6 33.1L275.2 32.3L274.3 32.2L272.9 34.7L273.5 35.4L274.9 36.2C274.7 36.8 274.5 37.5 274.4 38.2H272.7L271.8 38.5V41.4L272.7 41.7H274.4C274.5 42.4 274.7 43.1 274.9 43.7L273.5 44.5L272.9 45.2L274.3 47.7L275.2 47.6L276.6 46.8C277 47.3 277.5 47.8 278.1 48.3L277.3 49.7L277.2 50.6L279.7 52L280.4 51.4L281.2 50C281.8 50.2 282.5 50.4 283.2 50.5V52.2L283.5 53.1H286.4L286.7 52.2V50.5C287.4 50.4 288.1 50.2 288.7 50L289.5 51.4L290.2 52L292.7 50.6L292.6 49.7L291.8 48.3C292.3 47.9 292.8 47.4 293.3 46.8L294.7 47.6L295.6 47.7L297 45.2L296.4 44.5L295 43.7C295.2 43.1 295.4 42.4 295.5 41.7H297.2L298.1 41.4V38.5L297.2 38.2ZM285 44.1C282.7 44.1 280.9 42.3 280.9 40C280.9 37.7 282.7 35.9 285 35.9C287.3 35.9 289.1 37.7 289.1 40C289.1 42.3 287.3 44.1 285 44.1Z" fill="#D6D7D8" stroke="#1A1718" stroke-width="0.25" stroke-miterlimit="10"/>
<path d="M285 31.8C280.5 31.8 276.8 35.5 276.8 40C276.8 44.5 280.5 48.2 285 48.2C289.5 48.2 293.2 44.5 293.2 40C293.2 35.5 289.5 31.8 285 31.8ZM285 44.1C282.7 44.1 280.9 42.2 280.9 40C280.9 37.7 282.8 35.9 285 35.9C287.2 35.9 289.1 37.8 289.1 40C289.1 42.3 287.3 44.1 285 44.1Z" fill="#808183" stroke="#1A1718" stroke-width="0.25" stroke-miterlimit="10"/>
<path d="M285 33.2C281.2 33.2 278.2 36.3 278.2 40C278.2 43.7 281.3 46.8 285 46.8C288.7 46.8 291.8 43.7 291.8 40C291.8 36.3 288.8 33.2 285 33.2ZM285 44.6C282.5 44.6 280.4 42.6 280.4 40C280.4 37.5 282.4 35.4 285 35.4C287.6 35.4 289.6 37.4 289.6 40C289.6 42.5 287.5 44.6 285 44.6Z" fill="#696A6C" stroke="#1A1718" stroke-width="0.25" stroke-miterlimit="10"/>
<path d="M285 35.4C282.5 35.4 280.4 37.4 280.4 40C280.4 42.5 282.4 44.6 285 44.6C287.6 44.6 289.6 42.6 289.6 40C289.6 37.5 287.5 35.4 285 35.4ZM285 41.8C284 41.8 283.2 41 283.2 40C283.2 39 284 38.2 285 38.2C286 38.2 286.8 39 286.8 40C286.8 41 286 41.8 285 41.8Z" fill="#D6D7D8" stroke="#1A1718" stroke-width="0.25" stroke-miterlimit="10"/>
<path d="M285 35.4C282.5 35.4 280.4 37.4 280.4 40C280.4 42.5 282.4 44.6 285 44.6C287.6 44.6 289.6 42.6 289.6 40C289.6 37.5 287.5 35.4 285 35.4ZM285 41.8C284 41.8 283.2 41 283.2 40C283.2 39 284 38.2 285 38.2C286 38.2 286.8 39 286.8 40C286.8 41 286 41.8 285 41.8Z" fill="#D6D7D8" stroke="#1A1718" stroke-width="0.25" stroke-miterlimit="10"/>
<path d="M285 35.4C282.5 35.4 280.4 37.4 280.4 40C280.4 42.5 282.4 44.6 285 44.6C287.6 44.6 289.6 42.6 289.6 40C289.6 37.5 287.5 35.4 285 35.4ZM285 41.8C284 41.8 283.2 41 283.2 40C283.2 39 284 38.2 285 38.2C286 38.2 286.8 39 286.8 40C286.8 41 286 41.8 285 41.8Z" fill="#D6D7D8" stroke="#1A1718" stroke-width="0.25" stroke-miterlimit="10"/>
<path d="M87.9 120.3H2.69995V131.4H87.9V120.3Z" fill="#FCFAF2"/>
<path d="M87.8999 128.6H22.2V139.7H87.8999V128.6Z" fill="#FCFAF2"/>
<path d="M297.1 119.3H122.5V143.5H297.1V119.3Z" fill="#FCFAF2"/>
<path d="M297 149.2H157.8V173.4H297V149.2Z" fill="#FCFAF2"/>
<path d="M0 55L15 25" stroke="#1A1718" stroke-width="0.25" stroke-miterlimit="10"/>
<path d="M145.6 125.8V133.4H143.6L145.4 135.2C145.2 139 141.7 142.8 135.7 142.8C129.7 142.8 125.2 137.8 123.4 134.5C122.7 133.2 122.3 131.9 122.3 129.9C122.3 124.7 126.1 121.2 131.3 121.2C133.5 121.2 135 121.8 135.9 122.6V121.5H141.6L145.6 125.8ZM136.4 130.6C136 133 135.3 133.8 133.9 133.8C132.2 133.8 131.5 132.7 131.5 129.9C131.5 127.4 132.5 126.3 133.9 126.3C135.5 126.3 136 127.3 136.5 129.4H141.4V121.8H136.2V123.3H136C135.1 122.2 133.3 121.5 131.2 121.5C126.3 121.5 122.4 125.1 122.4 129.9C122.4 135.4 126.5 138.7 132.6 138.7C138.3 138.7 141.3 135 141.4 131.1L136.4 130.6Z" fill="#153F7C" stroke="#153F7C" stroke-width="0.5" stroke-miterlimit="10"/>
<path d="M177.7 133.9V142.5H155.5L151.7 138.5V133.2H154.6V129.8L151.7 126.7V121.4H165.7L169.8 125.7V129.6H173.7L177.7 133.9ZM152 138.3H173.4V130H167.9V133.6H162.9V126.6H165.5V121.8H152V126.6H154.9V133.6H152V138.3Z" fill="#153F7C" stroke="#153F7C" stroke-width="0.5" stroke-miterlimit="10"/>
<path d="M202.1 137.7V142.5H187.5L183.7 138.5V133.2H186.7V129.8L183.7 126.7V121.4H198L202.1 125.7V130.6H199.5V134.9L202.1 137.7ZM184 138.3H197.8V133.5H194.9V126.5H197.8V121.7H184V126.5H186.9V133.5H184V138.3Z" fill="#153F7C" stroke="#153F7C" stroke-width="0.5" stroke-miterlimit="10"/>
<path d="M231.1 125.8V133.4H229.1L230.9 135.2C230.7 139 227.2 142.8 221.2 142.8C215.2 142.8 210.7 137.8 208.9 134.5C208.2 133.2 207.8 131.9 207.8 129.9C207.8 124.7 211.6 121.2 216.8 121.2C219 121.2 220.5 121.8 221.4 122.6V121.5H227.1L231.1 125.8ZM221.9 130.6C221.5 133 220.8 133.8 219.4 133.8C217.7 133.8 217 132.7 217 129.9C217 127.4 218 126.3 219.4 126.3C221 126.3 221.5 127.3 222 129.4H226.9V121.8H221.7V123.3H221.6C220.7 122.2 218.9 121.5 216.8 121.5C211.9 121.5 208 125.1 208 129.9C208 135.4 212.1 138.7 218.2 138.7C223.9 138.7 226.9 135 227 131.1L221.9 130.6Z" fill="#153F7C" stroke="#153F7C" stroke-width="0.5" stroke-miterlimit="10"/>
<path d="M269.1 137.5V142.5H241.1L237.3 138.5V133.2H240.3V129.8L237.3 126.7V121.4H263.1L266.7 125.2V130.6H263.5L261.8 132.1L263.1 133.1H265.1L269.1 137.5ZM250.9 138.3H264.8V133.5H262.8L257.3 129.3L260.5 126.5H262.9V121.7H251.2V126.5H253L248.4 129.7V126.5H250.4V121.7H237.5V126.5H240.4V133.5H237.5V138.3H250.1V133.5H248.4V130.3L252.6 133.5H250.9V138.3Z" fill="#153F7C" stroke="#153F7C" stroke-width="0.5" stroke-miterlimit="10"/>
<path d="M225.4 163.7V171.8H203.1L199.2 167.8V162.6H202.1V159.2L199.2 156.1V150.8H221.3L225.4 155V161.7H223.5L225.4 163.7ZM199.5 167.6H221.1V159.6H215V162.8H210.4V161.2H213.6V157.3H210.4V155.7H215V158.3H221.1V151H199.5V155.8H202.4V162.8H199.5V167.6Z" fill="#153F7C" stroke="#153F7C" stroke-width="0.5" stroke-miterlimit="10"/>
<path d="M256.3 172C252.8 172 250.6 171 249.2 169.3V171.7H235.5L231.7 167.7V162.4H234.7V159L231.7 155.9V150.7H248.4C250.9 150.7 253 151.3 254.3 152.3C258 155.4 259.5 156.9 259.5 159.4C259.5 160.5 259.1 161.4 258.5 162L261.9 165.5C262.1 166.1 262.2 166.9 262.2 167.4C262.1 170 260.4 172 256.3 172ZM257.8 161.8L255.1 161.7C255.2 162.5 254.9 163 254.4 163C253.9 163 253.6 162.8 253.4 162C253.1 160.8 252.5 160 251.1 159.7V159.5C253.3 159.1 255.4 157.8 255.4 155.7C255.4 152 251.7 151 248.2 151H231.8V155.8H234.7V162.8H231.8V167.6H245.1V162.8H242.6V161.1H243.9C244.6 161.1 245.3 161.3 245.6 163C246 166.1 247.7 168.1 252.2 168.1C255.8 168.1 257.8 166.1 257.8 163.1C257.9 162.7 257.9 162.2 257.8 161.8ZM244.1 158.7H242.8V155.8H244.2C245.8 155.8 246.5 156.1 246.5 157.2C246.5 158.2 245.8 158.7 244.1 158.7Z" fill="#153F7C" stroke="#153F7C" stroke-width="0.5" stroke-miterlimit="10"/>
<path d="M293.3 163.7V171.8H271L267.1 167.8V162.6H270V159.2L267.1 156.1V150.8H289.2L293.3 155V161.7H291.4L293.3 163.7ZM267.4 167.6H289V159.6H282.9V162.8H278.3V161.2H281.5V157.3H278.3V155.7H282.9V158.3H289V151H267.4V155.8H270.3V162.8H267.4V167.6Z" fill="#153F7C" stroke="#153F7C" stroke-width="0.5" stroke-miterlimit="10"/>
<path d="M193 167V171.7H166.1L162.3 167.7V162.4H165.3V159L162.3 155.9V150.6H188.9L193 154.8V159.8H190.4V164.1L193 167ZM176.1 167.6H188.7V162.8H185.8V155.8H188.7V151H176.1V155.8H177.9V157.7H173.5V155.8H175.3V151H162.7V155.8H165.6V162.8H162.7V167.6H175.3V162.8H173.5V160.5H177.9V162.8H176.1V167.6Z" fill="#153F7C" stroke="#153F7C" stroke-width="0.5" stroke-miterlimit="10"/>
<path d="M294.3 131.8V134.7L276 142.2L273 139.2V132.5L276.8 131.3L273 127.4V120.6L290.6 128L294.3 131.8ZM273.4 138.6L290.2 131.5V128.3L273.4 121.2V127.1L282.5 129.8L273.4 132.7V138.6Z" fill="#153F7C" stroke="#153F7C" stroke-width="0.5" stroke-miterlimit="10"/>
<path d="M123.4 158.7V170.9L130.2 170C130.2 170 133 172.2 134.8 172.3C136.6 172.4 139.3 172.6 140.8 171.7C142.3 170.7 142 158.2 141.9 158.2C141.8 158.2 138.8 157 138.3 156.5C137.8 156.1 137.2 154.8 138.1 152.7C139 150.7 137.3 147.8 136 147.3C134.7 146.8 132.4 147 132.7 148.9C133 150.8 133.7 152.6 133.1 153.9C132.5 155.1 132.1 156.1 130.9 157.1C129.7 158.1 129 159.1 129 159.1L123.4 158.4V158.7Z" fill="#FFE780" stroke="#1A1718" stroke-width="0.25" stroke-miterlimit="10"/>
<path d="M137.8 158C139.2 157.6 140.2 157.5 143.4 157.5C146.7 157.6 146.5 159.8 146.4 160.2C146.3 160.6 146 161.4 143.7 161.7C141.4 162.1 138.2 161.9 137.4 161.7C136.6 161.5 136.2 160.3 136.5 159.3C136.8 158.4 137.4 158.1 137.8 158Z" fill="#FFE780" stroke="#1A1718" stroke-width="0.25" stroke-miterlimit="10"/>
<path d="M141.2 162C141.2 162 143.8 162 144.5 161.9C145.1 161.8 146.3 162 146.6 162.9C146.9 163.8 146.8 165.6 143.8 165.6C140.7 165.6 138.5 165.8 137.6 165.2C136.7 164.6 136.6 163.3 137.1 162.5C137.5 161.8 140.7 162 141.2 162Z" fill="#FFE780" stroke="#1A1718" stroke-width="0.25" stroke-miterlimit="10"/>
<path d="M138.1 165.6C138.1 165.6 140.6 166 143.8 165.6C147 165.2 146.3 169 144.4 169.3C142.5 169.5 140.4 169.6 139.4 169.4C138.5 169.3 137.2 168.7 137.1 167.5C136.9 166.4 137.7 165.6 138.1 165.6Z" fill="#FFE780" stroke="#1A1718" stroke-width="0.25" stroke-miterlimit="10"/>
<path d="M138.2 169.2C138 169.2 137.5 169.6 137.5 170.4C137.5 171.2 137.4 172.2 139.4 172.6C141.5 172.9 143.5 172.4 144 172C144.4 171.6 144.8 170.2 144 169.5C143.6 169.2 142.7 169.5 141.2 169.5C139.7 169.5 138.2 169.2 138.2 169.2Z" fill="#FFE780" stroke="#1A1718" stroke-width="0.25" stroke-miterlimit="10"/>
<path d="M90 115.1L120 145.1" stroke="#1A1718" stroke-width="0.25" stroke-miterlimit="10"/>
<path d="M30 25H15V55H30V25Z" fill="#DBF9C7" stroke="#1A1718" stroke-width="0.25" stroke-miterlimit="10"/>
<path d="M18.5999 33.8C19.3999 33.8 20.0999 33.7 20.0999 33.2C20.0999 32.1 15.9999 33.2 15.9999 30.9C15.9999 29.2 18.1999 29.2 18.8999 29.2C19.4999 29.2 20.4999 29.3 20.9999 29.5C21.2999 29.6 21.3999 29.8 21.3999 30C21.3999 30.1 21.3999 30.2 21.2999 30.3C21.1999 30.5 20.9999 30.6 20.7999 30.6C20.6999 30.6 20.5999 30.6 20.5999 30.6C20.2999 30.5 19.3999 30.3 18.8999 30.3C18.3999 30.3 17.4999 30.3 17.4999 30.8C17.4999 31.8 21.5999 30.6 21.5999 33.1C21.5999 34.9 19.6999 34.9 18.5999 34.9C17.6999 34.9 16.9999 34.8 16.2999 34.6C15.9999 34.5 15.8999 34.3 15.8999 34.1C15.8999 33.7 16.1999 33.4 16.6999 33.5C17.2999 33.7 18.0999 33.8 18.5999 33.8Z" fill="#61C680"/>
<path d="M27.5999 32.5H24.1999V34.2C24.1999 34.7 23.7999 35 23.3999 35C22.9999 35 22.5999 34.7 22.5999 34.2V30C22.5999 29.5 22.9999 29.3 23.3999 29.3C23.7999 29.3 24.1999 29.6 24.1999 30V31.5H27.5999V30C27.5999 29.5 27.9999 29.3 28.3999 29.3C28.7999 29.3 29.1999 29.6 29.1999 30V34.2C29.1999 34.7 28.7999 35 28.3999 35C27.9999 35 27.5999 34.7 27.5999 34.2V32.5Z" fill="#61C680"/>
<path d="M17.3 42.8C16.9 42.8 16.5 42.5 16.5 42V38C16.5 37.5 16.8 37.2 17.3 37.2H21.5C21.8 37.2 22 37.4 22 37.7C22 38 21.8 38.2 21.5 38.2H18V39.3H21C21.3 39.3 21.5 39.5 21.5 39.8C21.5 40.1 21.3 40.3 21 40.3H18V41.6H21.6C21.9 41.6 22.1 41.8 22.1 42.1C22.1 42.4 21.9 42.6 21.6 42.6H17.3V42.8Z" fill="#61C680"/>
<path d="M24 42.8C23.6 42.8 23.2 42.5 23.2 42V38C23.2 37.5 23.5 37.2 24 37.2H28.2C28.5 37.2 28.7 37.4 28.7 37.7C28.7 38 28.5 38.2 28.2 38.2H24.7999V39.3H27.7C28 39.3 28.2 39.5 28.2 39.8C28.2 40.1 28 40.3 27.7 40.3H24.7999V41.6H28.4C28.7 41.6 28.9 41.8 28.9 42.1C28.9 42.4 28.7 42.6 28.4 42.6H24V42.8Z" fill="#61C680"/>
<path d="M17.8998 48.7V50.1C17.8998 50.6 17.5998 50.9 17.0998 50.9C16.6998 50.9 16.2998 50.6 16.2998 50.1V46C16.2998 45.5 16.6998 45.3 17.0998 45.3H19.7998C21.1998 45.3 22.2998 45.7 22.2998 47.1C22.2998 48.5 21.0998 48.9 19.7998 48.9H17.8998V48.7ZM17.8998 46.3V47.7H19.7998C20.3998 47.7 20.7998 47.5 20.7998 47C20.7998 46.5 20.3998 46.3 19.7998 46.3H17.8998Z" fill="#61C680"/>
<path d="M25.9998 49.8C26.7998 49.8 27.4998 49.7 27.4998 49.2C27.4998 48.1 23.3998 49.2 23.3998 46.9C23.3998 45.2 25.5998 45.2 26.2998 45.2C26.8998 45.2 27.8998 45.3 28.3998 45.5C28.6998 45.6 28.7998 45.8 28.7998 46C28.7998 46.1 28.7998 46.2 28.6998 46.3C28.5998 46.5 28.3998 46.6 28.1998 46.6C28.0998 46.6 27.9998 46.6 27.9998 46.6C27.6998 46.5 26.7998 46.3 26.2998 46.3C25.7998 46.3 24.8998 46.3 24.8998 46.8C24.8998 47.8 28.9998 46.6 28.9998 49.1C28.9998 50.9 27.0998 50.9 25.9998 50.9C25.0998 50.9 24.3998 50.8 23.6998 50.6C23.3998 50.5 23.2998 50.3 23.2998 50.1C23.2998 49.7 23.5998 49.4 24.0998 49.5C24.6998 49.7 25.4998 49.8 25.9998 49.8Z" fill="#61C680"/>
<path d="M32.3999 150.8V170.8C32.3999 170.8 32.3999 172.4 33.1999 172.5C33.9999 172.6 53.5999 167.4 53.5999 167.4L54.0999 148.5C54.0999 148.5 53.8999 148.2 52.5999 148.5C51.1999 148.8 41.7999 150.6 41.7999 150.6C41.7999 150.6 41.6999 150.4 41.5999 149.7C41.4999 149 41.6999 148.6 39.9999 149C38.3999 149.3 32.3999 150.3 32.3999 150.8Z" fill="url(#paint0_linear)" stroke="#1A1718" stroke-width="0.25" stroke-miterlimit="10"/>
<path d="M33.7 172.4C33.7 172.4 34.5 163.6 35.9 160.4C37.3 157.2 37.1 158 39.4 157.5C41.6 157 57.7 153.3 57.9 153.5C58.1 153.7 56.7 157.4 56.4 158.7C56.1 160 55.2 163.6 55.2 164.8C55.1 166 55.3 167.5 53.4 167.9C51.5 168.3 35.4 172.2 33.7 172.4Z" fill="#D3DBE2" stroke="#1A1718" stroke-width="0.25" stroke-miterlimit="10"/>
<path d="M90 175L97.5 167.5L105 175L112.5 167.5L120 175H90Z" fill="#CEF4B5" stroke="#1A1718" stroke-width="0.25" stroke-miterlimit="10"/>
<path d="M7.3 127.1C7.4 127.1 7.5 127.1 7.6 127.2C7.7 127.3 7.7 127.3 7.7 127.4C7.7 127.5 7.7 127.6 7.6 127.6C7.5 127.7 7.5 127.7 7.3 127.7H4.4C4.3 127.7 4.2 127.7 4.1 127.6C4 127.5 4 127.5 4 127.4C4 127.3 4 127.2 4.1 127.2C4.2 127.2 4.2 127.1 4.4 127.1H5.1V124.4H4.4C4.3 124.4 4.2 124.4 4.1 124.3C4 124.2 4 124.2 4 124.1C4 124 4 123.9 4.1 123.9C4.2 123.9 4.3 123.8 4.4 123.8H5.1V123.5C5.1 123 5.3 122.6 5.6 122.3C5.9 122.1 6.4 121.9 7.1 121.9C7.4 121.9 7.7 121.9 7.8 122C8 122.1 8 122.2 8 122.3C8 122.4 8 122.5 7.9 122.5C7.8 122.5 7.7 122.6 7.6 122.6C7.5 122.6 7.4 122.6 7.2 122.5C7 122.4 6.8 122.4 6.7 122.4C6.4 122.4 6.1 122.5 6 122.6C5.9 122.7 5.8 123 5.8 123.3V123.5H7.4C7.5 123.5 7.6 123.5 7.7 123.6C7.8 123.7 7.8 123.7 7.8 123.8C7.8 123.9 7.8 124 7.7 124C7.6 124.1 7.5 124.1 7.4 124.1H5.9V126.8H7.3V127.1Z" fill="#153F7C"/>
<path d="M13.7 125.7C13.7 126.3 13.5 126.8 13.1 127.2C12.7 127.6 12.1 127.8 11.4 127.8C10.7 127.8 10.2 127.6 9.7 127.2C9.2 126.8 9 126.3 9 125.7C9 125.1 9.2 124.6 9.6 124.2C10 123.8 10.6 123.6 11.3 123.6C12 123.6 12.5 123.8 13 124.2C13.5 124.6 13.7 125.1 13.7 125.7ZM11.3 127.2C11.8 127.2 12.1 127.1 12.4 126.8C12.7 126.5 12.8 126.2 12.8 125.7C12.8 125.2 12.7 124.9 12.4 124.6C12.1 124.3 11.7 124.2 11.3 124.2C10.9 124.2 10.5 124.3 10.2 124.6C9.9 124.9 9.8 125.3 9.8 125.7C9.8 126.1 9.9 126.5 10.2 126.8C10.5 127.1 10.9 127.2 11.3 127.2Z" fill="#153F7C"/>
<path d="M16.3 127.1H17.8C17.9 127.1 18 127.1 18.1 127.2C18.2 127.2 18.2 127.3 18.2 127.4C18.2 127.5 18.2 127.6 18.1 127.6C18 127.6 18 127.7 17.8 127.7H14.9C14.8 127.7 14.7 127.7 14.6 127.6C14.5 127.5 14.5 127.5 14.5 127.4C14.5 127.3 14.5 127.2 14.6 127.2C14.7 127.2 14.8 127.1 14.9 127.1H15.7V124.3H15.4C15.1 124.3 14.9 124.3 14.9 124.2C14.9 124.1 14.8 124.1 14.8 124C14.8 123.9 14.8 123.8 14.9 123.8C15 123.7 15 123.7 15.2 123.7H16.2C16.3 123.7 16.3 123.7 16.4 123.7L16.5 123.8V124.5C16.8 124.2 17.1 123.9 17.4 123.7C17.7 123.5 18 123.4 18.4 123.4C18.7 123.4 18.9 123.5 19 123.6C19.2 123.7 19.2 123.8 19.2 124C19.2 124.1 19.2 124.2 19.1 124.3C19 124.4 18.9 124.4 18.8 124.4C18.7 124.4 18.6 124.4 18.5 124.3C18.3 124.2 18.2 124.2 18.1 124.2C17.9 124.2 17.6 124.3 17.4 124.4C17.1 124.6 16.9 124.8 16.6 125.2V127.1H16.3Z" fill="#153F7C"/>
<path d="M24.2001 128.8H24.4001C24.6001 128.8 24.8001 128.8 24.8001 128.9C24.9001 128.9 24.9001 129 24.9001 129.1C24.9001 129.2 24.9001 129.3 24.8001 129.3C24.7001 129.3 24.7001 129.4 24.5001 129.4H22.5001C22.4001 129.4 22.3001 129.4 22.2001 129.3C22.1001 129.2 22.1001 129.2 22.1001 129.1C22.1001 129 22.1001 128.9 22.2001 128.9C22.3001 128.8 22.3001 128.8 22.5001 128.8H23.5001L24.2001 127.4L22.6001 124.2C22.4001 124.2 22.3001 124.2 22.2001 124.1C22.1001 124.1 22.1001 124 22.1001 123.9C22.1001 123.8 22.1001 123.7 22.2001 123.7C22.3001 123.7 22.3001 123.6 22.5001 123.6H23.7001C23.9001 123.6 24.0001 123.6 24.0001 123.7C24.0001 123.8 24.1001 123.8 24.1001 123.9C24.1001 124 24.1001 124.1 24.0001 124.1C23.9001 124.1 23.8001 124.2 23.6001 124.2H23.4001L24.6001 126.6L25.8001 124.2H25.6001C25.4001 124.2 25.3001 124.2 25.2001 124.1C25.1001 124.1 25.1001 124 25.1001 123.9C25.1001 123.8 25.1001 123.7 25.2001 123.7C25.3001 123.7 25.4001 123.6 25.5001 123.6H26.6001C26.7001 123.6 26.8001 123.6 26.9001 123.7C27.0001 123.8 27.0001 123.8 27.0001 123.9C27.0001 124 27.0001 124.1 26.9001 124.1C26.8001 124.1 26.7001 124.2 26.6001 124.2L24.2001 128.8Z" fill="#153F7C"/>
<path d="M32.3002 125.7C32.3002 126.3 32.1002 126.8 31.7002 127.2C31.3002 127.6 30.7002 127.8 30.0002 127.8C29.3002 127.8 28.8002 127.6 28.3002 127.2C27.8002 126.8 27.7002 126.3 27.7002 125.7C27.7002 125.1 27.9002 124.6 28.3002 124.2C28.7002 123.8 29.3002 123.6 30.0002 123.6C30.7002 123.6 31.2002 123.8 31.7002 124.2C32.2002 124.6 32.3002 125.1 32.3002 125.7ZM29.9002 127.2C30.4002 127.2 30.7002 127.1 31.0002 126.8C31.3002 126.5 31.4002 126.2 31.4002 125.7C31.4002 125.2 31.3002 124.9 31.0002 124.6C30.7002 124.3 30.3002 124.2 29.9002 124.2C29.5002 124.2 29.1002 124.3 28.8002 124.6C28.5002 124.9 28.4002 125.3 28.4002 125.7C28.4002 126.1 28.5002 126.5 28.8002 126.8C29.1002 127.1 29.5002 127.2 29.9002 127.2Z" fill="#153F7C"/>
<path d="M34.3 126.1C34.3 126.5 34.4 126.7 34.5 126.9C34.6 127.1 34.9001 127.2 35.2001 127.2C35.5001 127.2 35.8 127.1 36 126.9C36.2 126.7 36.3 126.4 36.3 126.1V124.3H35.7001C35.6001 124.3 35.5 124.3 35.5 124.2C35.4 124.2 35.4001 124.1 35.4001 124C35.4001 123.9 35.4 123.8 35.5 123.8C35.6 123.7 35.6 123.7 35.8 123.7H36.7001C36.8001 123.7 36.9001 123.7 36.9001 123.8C36.9001 123.8 37 124 37 124.2V127.2H37.2001C37.3001 127.2 37.4 127.2 37.5 127.3C37.6 127.3 37.6 127.4 37.6 127.5C37.6 127.6 37.6 127.7 37.5 127.7C37.4 127.7 37.4001 127.8 37.2001 127.8H36.5C36.4 127.8 36.4 127.8 36.3 127.8C36.2 127.8 36.2001 127.7 36.2001 127.7V127.4C35.9001 127.6 35.7 127.8 35.5 127.8C35.3 127.9 35.1001 127.9 34.9001 127.9C34.4001 127.9 34.1 127.8 33.8 127.5C33.6 127.2 33.4001 126.9 33.4001 126.3V124.3H33.3C33.1 124.3 33.0001 124.3 32.9001 124.2C32.8001 124.2 32.8 124.1 32.8 124C32.8 123.9 32.8001 123.8 32.9001 123.8C33.0001 123.7 33.0001 123.7 33.2001 123.7H34C34.1 123.7 34.2001 123.7 34.2001 123.8C34.2001 123.8 34.3 123.9 34.3 124.1V126.1Z" fill="#153F7C"/>
<path d="M40.3 127.1H41.8C41.9 127.1 42 127.1 42.1 127.2C42.2 127.2 42.2 127.3 42.2 127.4C42.2 127.5 42.2 127.6 42.1 127.6C42 127.6 42 127.7 41.8 127.7H38.9C38.8 127.7 38.7 127.7 38.6 127.6C38.5 127.5 38.5 127.5 38.5 127.4C38.5 127.3 38.5 127.2 38.6 127.2C38.7 127.2 38.8 127.1 38.9 127.1H39.7V124.3H39.4C39.1 124.3 38.9 124.3 38.9 124.2C38.9 124.1 38.8 124.1 38.8 124C38.8 123.9 38.8 123.8 38.9 123.8C39 123.7 39 123.7 39.2 123.7H40.2C40.3 123.7 40.3 123.7 40.4 123.7L40.5 123.8V124.5C40.8 124.2 41.1 123.9 41.4 123.7C41.7 123.5 42 123.4 42.4 123.4C42.7 123.4 42.9 123.5 43 123.6C43.2 123.7 43.2 123.8 43.2 124C43.2 124.1 43.2 124.2 43.1 124.3C43 124.4 42.9 124.4 42.8 124.4C42.7 124.4 42.6 124.4 42.5 124.3C42.3 124.2 42.2 124.2 42.1 124.2C41.9 124.2 41.6 124.3 41.4 124.4C41.1 124.6 40.9 124.8 40.6 125.2V127.1H40.3Z" fill="#153F7C"/>
<path d="M46.6 127.4V126.6C46.6 126.5 46.6 126.4 46.7 126.3C46.7 126.2 46.8 126.2 46.9 126.2C47 126.2 47.1 126.3 47.2 126.4C47.2 126.5 47.3 126.6 47.3 126.6C47.4 126.8 47.6 126.9 47.8 127C48 127.1 48.3 127.1 48.6 127.1C48.9 127.1 49.2 127 49.3 126.9C49.4 126.8 49.6 126.6 49.6 126.4C49.6 126.2 49.5 126 49.4 126C49.2 125.9 49 125.9 48.6 125.9H48.4C47.8 125.9 47.3 125.8 47 125.6C46.7 125.4 46.5 125.1 46.5 124.7C46.5 124.3 46.7 124 47 123.8C47.3 123.6 47.7 123.5 48.3 123.5C48.5 123.5 48.8 123.5 49 123.6C49.2 123.7 49.4 123.7 49.4 123.7C49.4 123.7 49.5 123.7 49.6 123.6C49.7 123.5 49.8 123.5 49.9 123.5C50 123.5 50.1 123.5 50.1 123.6C50.1 123.7 50.2 123.8 50.2 123.9V124.4C50.2 124.6 50.2 124.7 50.1 124.7C50.1 124.8 50 124.8 49.9 124.8C49.8 124.8 49.7 124.7 49.6 124.6C49.5 124.5 49.4 124.4 49.4 124.4C49.2 124.3 49.1 124.2 48.9 124.1C48.7 124 48.5 124 48.3 124C48 124 47.8 124.1 47.6 124.2C47.4 124.3 47.3 124.5 47.3 124.7C47.3 124.9 47.4 125 47.6 125.1C47.8 125.2 48.1 125.2 48.7 125.2C49.3 125.2 49.8 125.3 50 125.5C50.3 125.7 50.4 126 50.4 126.4C50.4 126.8 50.2 127.1 49.9 127.3C49.6 127.5 49.2 127.7 48.6 127.7C48.4 127.7 48.2 127.7 48 127.7C47.8 127.7 47.5 127.6 47.2 127.5C47.1 127.6 47 127.6 46.9 127.7C46.8 127.7 46.8 127.7 46.7 127.7C46.6 127.7 46.5 127.7 46.5 127.6C46.5 127.5 46.6 127.5 46.6 127.4Z" fill="#153F7C"/>
<path d="M55.2001 123.9C55.3001 123.9 55.4001 123.9 55.5001 124C55.6001 124 55.6001 124.1 55.6001 124.2C55.6001 124.3 55.6001 124.4 55.5001 124.4C55.4001 124.5 55.3001 124.5 55.2001 124.5H53.4001V126C53.4001 126.5 53.5001 126.8 53.6001 126.9C53.7001 127 53.9001 127.1 54.2001 127.1C54.5001 127.1 54.8001 127 55.2001 126.9C55.6001 126.8 55.8001 126.7 55.9001 126.7C56.0001 126.7 56.1001 126.7 56.1001 126.8C56.2001 126.9 56.2001 126.9 56.2001 127C56.2001 127.1 56.2001 127.2 56.1001 127.3C56.0001 127.4 55.9001 127.4 55.7001 127.5C55.4001 127.6 55.2001 127.7 54.9001 127.8C54.7001 127.9 54.5001 127.9 54.3001 127.9C54.0001 127.9 53.7001 127.8 53.4001 127.7C53.2001 127.6 53.0001 127.4 52.9001 127.2C52.8001 127.1 52.8001 127 52.8001 126.8C52.8001 126.6 52.8001 126.4 52.8001 126.1V126V124.5H52.0001C51.9001 124.5 51.8001 124.5 51.7001 124.4C51.6001 124.4 51.6001 124.3 51.6001 124.2C51.6001 124.1 51.6001 124 51.7001 124C51.8001 124 51.9001 123.9 52.2001 123.9H52.7001V123V122.8C52.7001 122.7 52.7001 122.6 52.8001 122.5C52.9001 122.4 52.9001 122.4 53.1001 122.4C53.2001 122.4 53.3001 122.4 53.4001 122.5C53.5001 122.6 53.5001 122.7 53.5001 123V123.9H55.2001Z" fill="#153F7C"/>
<path d="M60.4 127.1C60.2 127.3 59.8999 127.5 59.5999 127.6C59.2999 127.7 59 127.8 58.7 127.8C58.3 127.8 57.8999 127.7 57.5999 127.4C57.2999 127.2 57.2 126.8 57.2 126.5C57.2 126 57.4 125.7 57.7 125.4C58.1 125.1 58.6 125 59.2 125C59.4 125 59.5 125 59.7 125C59.9 125 60.1 125.1 60.2 125.1C60.2 124.8 60.1 124.5 60 124.4C59.9 124.3 59.6 124.2 59.2 124.2C59 124.2 58.7 124.3 58.4 124.4C58.1 124.5 57.8999 124.6 57.7999 124.6C57.6999 124.6 57.5999 124.6 57.5999 124.5C57.4999 124.4 57.5 124.3 57.5 124.2C57.5 124 57.7 123.9 58 123.8C58.3 123.7 58.7 123.6 59.2 123.6C59.7 123.6 60.1 123.7 60.4 124C60.7 124.3 60.7999 124.6 60.7999 125.2V127.2H61C61.2 127.2 61.3 127.2 61.4 127.3C61.5 127.4 61.5 127.4 61.5 127.5C61.5 127.6 61.5 127.7 61.4 127.7C61.3 127.7 61.2999 127.8 61.0999 127.8H60.4C60.3 127.8 60.3 127.8 60.2 127.7C60.1 127.6 60.0999 127.6 60.0999 127.5L60.4 127.1ZM60.2999 125.8C60.0999 125.7 59.9999 125.7 59.7999 125.7C59.5999 125.7 59.4999 125.7 59.2999 125.7C58.7999 125.7 58.5 125.8 58.2 125.9C57.9 126 57.7999 126.3 57.7999 126.5C57.7999 126.7 57.9 126.9 58 127C58.2 127.1 58.3999 127.2 58.5999 127.2C58.9999 127.2 59.2999 127.1 59.5999 126.9C59.8999 126.7 60.0999 126.5 60.0999 126.3V125.8H60.2999Z" fill="#153F7C"/>
<path d="M64.3 127.1H65.8C65.9 127.1 66 127.1 66.1 127.2C66.2 127.2 66.2 127.3 66.2 127.4C66.2 127.5 66.2 127.6 66.1 127.6C66 127.6 66 127.7 65.8 127.7H62.9C62.8 127.7 62.7 127.7 62.6 127.6C62.5 127.5 62.5 127.5 62.5 127.4C62.5 127.3 62.5 127.2 62.6 127.2C62.7 127.2 62.8 127.1 62.9 127.1H63.7V124.3H63.4C63.1 124.3 62.9 124.3 62.9 124.2C62.9 124.1 62.8 124.1 62.8 124C62.8 123.9 62.8 123.8 62.9 123.8C63 123.7 63 123.7 63.2 123.7H64.2C64.3 123.7 64.3 123.7 64.4 123.7L64.5 123.8V124.5C64.8 124.2 65.1 123.9 65.4 123.7C65.7 123.5 66 123.4 66.4 123.4C66.7 123.4 66.9 123.5 67 123.6C67.2 123.7 67.2 123.8 67.2 124C67.2 124.1 67.2 124.2 67.1 124.3C67 124.4 66.9 124.4 66.8 124.4C66.7 124.4 66.6 124.4 66.5 124.3C66.3 124.2 66.2 124.2 66.1 124.2C65.9 124.2 65.6 124.3 65.4 124.4C65.1 124.6 64.9 124.8 64.6 125.2V127.1H64.3Z" fill="#153F7C"/>
<path d="M71.3999 123.9C71.4999 123.9 71.5999 123.9 71.6999 124C71.7999 124 71.7999 124.1 71.7999 124.2C71.7999 124.3 71.7999 124.4 71.6999 124.4C71.5999 124.5 71.4999 124.5 71.3999 124.5H69.5999V126C69.5999 126.5 69.6999 126.8 69.7999 126.9C69.8999 127 70.0999 127.1 70.3999 127.1C70.6999 127.1 70.9999 127 71.3999 126.9C71.7999 126.8 71.9999 126.7 72.0999 126.7C72.1999 126.7 72.2999 126.7 72.2999 126.8C72.3999 126.9 72.3999 126.9 72.3999 127C72.3999 127.1 72.3999 127.2 72.2999 127.3C72.1999 127.4 72.0999 127.4 71.8999 127.5C71.5999 127.6 71.3999 127.7 71.0999 127.8C70.8999 127.9 70.6999 127.9 70.4999 127.9C70.1999 127.9 69.8999 127.8 69.5999 127.7C69.3999 127.6 69.1999 127.4 69.0999 127.2C68.9999 127.1 68.9999 127 68.9999 126.8C68.9999 126.6 68.9999 126.4 68.9999 126.1V126V124.5H68.2999C68.1999 124.5 68.0999 124.5 67.9999 124.4C67.8999 124.4 67.8999 124.3 67.8999 124.2C67.8999 124.1 67.8999 124 67.9999 124C68.0999 124 68.1999 123.9 68.4999 123.9H68.9999V123V122.8C68.9999 122.7 68.9999 122.6 69.0999 122.5C69.1999 122.4 69.1999 122.4 69.3999 122.4C69.4999 122.4 69.5999 122.4 69.6999 122.5C69.7999 122.6 69.7999 122.7 69.7999 123V123.9H71.3999Z" fill="#153F7C"/>
<path d="M74.5001 126.1C74.5001 126.5 74.6001 126.7 74.7001 126.9C74.8001 127.1 75.1001 127.2 75.4001 127.2C75.7001 127.2 76.0001 127.1 76.2001 126.9C76.4001 126.7 76.5001 126.4 76.5001 126.1V124.3H76.0001C75.9001 124.3 75.8001 124.3 75.8001 124.2C75.7001 124.2 75.7001 124.1 75.7001 124C75.7001 123.9 75.7001 123.8 75.8001 123.8C75.9001 123.7 75.9001 123.7 76.1001 123.7H77.0001C77.1001 123.7 77.2001 123.7 77.2001 123.8C77.2001 123.8 77.3001 124 77.3001 124.2V127.2H77.5001C77.6001 127.2 77.7001 127.2 77.8001 127.3C77.9001 127.3 77.9001 127.4 77.9001 127.5C77.9001 127.6 77.9001 127.7 77.8001 127.7C77.7001 127.7 77.7001 127.8 77.5001 127.8H76.8001C76.7001 127.8 76.7001 127.8 76.6001 127.8C76.5001 127.8 76.5001 127.7 76.5001 127.7V127.4C76.2001 127.6 76.0001 127.8 75.8001 127.8C75.6001 127.9 75.4001 127.9 75.2001 127.9C74.7001 127.9 74.4001 127.8 74.1001 127.5C73.9001 127.2 73.7001 126.9 73.7001 126.3V124.3H73.6001C73.4001 124.3 73.3001 124.3 73.2001 124.2C73.1001 124.2 73.1001 124.1 73.1001 124C73.1001 123.9 73.1001 123.8 73.2001 123.8C73.3001 123.7 73.3001 123.7 73.5001 123.7H74.2001C74.3001 123.7 74.4001 123.7 74.4001 123.8C74.4001 123.8 74.5001 123.9 74.5001 124.1V126.1Z" fill="#153F7C"/>
<path d="M79.8001 128.8H80.9001C81.0001 128.8 81.1001 128.8 81.2001 128.9C81.3001 129 81.3001 129 81.3001 129.1C81.3001 129.2 81.3001 129.3 81.2001 129.3C81.1001 129.3 81.0001 129.4 80.9001 129.4H79.0001C78.9001 129.4 78.8001 129.4 78.7001 129.3C78.6001 129.2 78.6001 129.2 78.6001 129.1C78.6001 129 78.6001 128.9 78.7001 128.9C78.8001 128.9 78.9001 128.8 79.1001 128.8H79.2001V124.2H79.1001C78.9001 124.2 78.8001 124.2 78.7001 124.1C78.6001 124.1 78.6001 124 78.6001 123.9C78.6001 123.8 78.6001 123.7 78.7001 123.7C78.8001 123.6 78.8001 123.6 79.0001 123.6H79.7001C79.8001 123.6 79.9001 123.6 79.9001 123.6L80.0001 123.7V124.1C80.2001 123.9 80.4001 123.7 80.7001 123.6C80.9001 123.5 81.2001 123.4 81.5001 123.4C82.1001 123.4 82.6001 123.6 83.0001 124C83.4001 124.4 83.6001 124.9 83.6001 125.5C83.6001 126.1 83.4001 126.6 83.0001 126.9C82.6001 127.2 82.1001 127.5 81.6001 127.5C81.3001 127.5 81.0001 127.4 80.7001 127.3C80.4001 127.2 80.2001 127 80.0001 126.8V128.8H79.8001ZM81.2001 127.1C81.6001 127.1 81.9001 127 82.2001 126.7C82.5001 126.4 82.6001 126.1 82.6001 125.7C82.6001 125.3 82.5001 125 82.2001 124.7C81.9001 124.4 81.6001 124.3 81.2001 124.3C80.8001 124.3 80.5001 124.4 80.2001 124.7C79.9001 125 79.8001 125.3 79.8001 125.7C79.8001 126.1 79.9001 126.4 80.2001 126.7C80.4001 126.9 80.8001 127.1 81.2001 127.1Z" fill="#153F7C"/>
<path d="M84.8 126.5C84.8 126.4 84.9 126.3 84.9 126.3C84.9 126.3 85 126.3 85.1 126.3H86.1H86.2C86.2 126.3 86.2 126.3 86.2 126.4C86.2 126.4 86.2 126.4 86.2 126.5C86.2 126.6 86.2 126.5 86.2 126.6L85 129C85 129 85 129.1 84.9 129.1C84.8 129.1 84.8 129.1 84.8 129.1C84.8 129.1 84.8 129.1 84.7 129.1L84.4 129C84.4 129 84.3 129 84.3 128.9C84.3 128.8 84.3 128.8 84.3 128.8V128.7L84.8 126.5Z" fill="#153F7C"/>
<path d="M28.9 137.7H28.2H28C27.9 137.7 27.7999 137.7 27.7999 137.6C27.7999 137.5 27.7 137.5 27.7 137.4C27.7 137.3 27.6999 137.2 27.7999 137.2C27.8999 137.2 28 137.1 28.2 137.1H28.2999V133.1H28.2C28 133.1 27.8999 133.1 27.7999 133C27.6999 133 27.7 132.9 27.7 132.8C27.7 132.7 27.6999 132.6 27.7999 132.6C27.8999 132.5 27.9 132.5 28.1 132.5H28.2999H29H30C30.7 132.5 31.3 132.7 31.7 133.2C32.1 133.7 32.4 134.3 32.4 135.1C32.4 135.5 32.3 135.9 32.2 136.2C32.1 136.5 31.9 136.8 31.7 137.1C31.5 137.3 31.1999 137.5 30.9 137.6C30.6 137.7 30.2 137.8 29.7 137.8C29.6 137.8 29.5 137.8 29.4 137.8C29.3 137.8 29 137.7 28.9 137.7ZM28.9 137.1C29 137.1 29.1 137.1 29.2 137.1C29.3 137.1 29.4 137.1 29.5 137.1C30.2 137.1 30.7 136.9 31.1 136.6C31.5 136.3 31.6 135.8 31.6 135.1C31.6 134.4 31.4 133.9 31.1 133.6C30.8 133.3 30.2 133.1 29.5 133.1C29.4 133.1 29.3 133.1 29.2 133.1C29.1 133.1 29.1 133.1 29 133.1V137.1H28.9Z" fill="#153F7C"/>
<path d="M36.7 137.1C36.9 137.1 37.1 137.1 37.1 137.2C37.2 137.2 37.2 137.3 37.2 137.4C37.2 137.5 37.2 137.6 37.1 137.6C37 137.6 36.9 137.7 36.7 137.7H34H33.8C33.7 137.7 33.6 137.7 33.6 137.6C33.6 137.5 33.5 137.5 33.5 137.4C33.5 137.3 33.5 137.2 33.6 137.2C33.7 137.2 33.8 137.1 34 137.1H35V133.1H34C33.8 133.1 33.6 133.1 33.6 133C33.5 133 33.5 132.9 33.5 132.8C33.5 132.7 33.5 132.6 33.6 132.6C33.7 132.5 33.7 132.5 33.9 132.5H34H36.7H36.9C37 132.5 37.1 132.5 37.1 132.6C37.2 132.7 37.2 132.7 37.2 132.8C37.2 132.9 37.2 133 37.1 133C37 133 36.9 133.1 36.7 133.1H35.7V137.1H36.7Z" fill="#153F7C"/>
<path d="M41.6999 137.1C41.8999 137.1 42.0999 137.1 42.0999 137.2C42.1999 137.2 42.1999 137.3 42.1999 137.4C42.1999 137.5 42.1999 137.6 42.0999 137.6C41.9999 137.6 41.8999 137.7 41.6999 137.7H39.5999C39.3999 137.7 39.2999 137.7 39.1999 137.6C39.0999 137.6 39.0999 137.5 39.0999 137.4C39.0999 137.3 39.0999 137.2 39.1999 137.2C39.2999 137.2 39.3999 137.1 39.5999 137.1H40.1999V135.6L38.6999 133.1H38.5999C38.3999 133.1 38.2999 133.1 38.1999 133C38.0999 132.9 38.0999 132.9 38.0999 132.8C38.0999 132.7 38.0999 132.6 38.1999 132.6C38.2999 132.5 38.2999 132.5 38.4999 132.5H38.6999H39.6999C39.8999 132.5 39.9999 132.5 39.9999 132.6C40.0999 132.6 40.0999 132.7 40.0999 132.8C40.0999 132.9 40.0999 133 39.9999 133C39.8999 133 39.7999 133.1 39.5999 133.1H39.4999L40.5999 135L41.6999 133.1H41.4999C41.2999 133.1 41.1999 133.1 41.1999 133C41.1999 132.9 41.0999 132.9 41.0999 132.8C41.0999 132.7 41.0999 132.6 41.1999 132.6C41.2999 132.6 41.3999 132.5 41.5999 132.5H41.6999H42.3999C42.5999 132.5 42.7999 132.5 42.7999 132.6C42.8999 132.6 42.8999 132.7 42.8999 132.8C42.8999 132.9 42.8999 133 42.7999 133C42.6999 133 42.5999 133.1 42.3999 133.1H42.2999L40.7999 135.7V137.1H41.6999Z" fill="#153F7C"/>
<path d="M46.6 137.4V136.6C46.6 136.5 46.6 136.4 46.7 136.3C46.7 136.2 46.8 136.2 46.9 136.2C47 136.2 47.1 136.3 47.2 136.4C47.2 136.5 47.3 136.6 47.3 136.6C47.4 136.8 47.6 136.9 47.8 137C48 137.1 48.3 137.1 48.6 137.1C48.9 137.1 49.2 137 49.3 136.9C49.4 136.8 49.6 136.6 49.6 136.4C49.6 136.2 49.5 136 49.4 136C49.2 135.9 49 135.9 48.6 135.9H48.4C47.8 135.9 47.3 135.8 47 135.6C46.7 135.4 46.5 135.1 46.5 134.7C46.5 134.3 46.7 134 47 133.8C47.3 133.6 47.7 133.5 48.3 133.5C48.5 133.5 48.8 133.5 49 133.6C49.2 133.7 49.4 133.7 49.4 133.7C49.4 133.7 49.5 133.7 49.6 133.6C49.7 133.5 49.8 133.5 49.9 133.5C50 133.5 50.1 133.5 50.1 133.6C50.1 133.7 50.2 133.8 50.2 133.9V134.4C50.2 134.6 50.2 134.7 50.1 134.7C50.1 134.8 50 134.8 49.9 134.8C49.8 134.8 49.7 134.7 49.6 134.6C49.5 134.5 49.4 134.4 49.4 134.4C49.2 134.3 49.1 134.2 48.9 134.1C48.7 134 48.5 134 48.3 134C48 134 47.8 134.1 47.6 134.2C47.4 134.3 47.3 134.5 47.3 134.7C47.3 134.9 47.4 135 47.6 135.1C47.8 135.2 48.1 135.2 48.7 135.2C49.3 135.2 49.8 135.3 50 135.5C50.3 135.7 50.4 136 50.4 136.4C50.4 136.8 50.2 137.1 49.9 137.3C49.6 137.5 49.2 137.7 48.6 137.7C48.4 137.7 48.2 137.7 48 137.7C47.8 137.7 47.5 137.6 47.2 137.5C47.1 137.6 47 137.6 46.9 137.7C46.8 137.7 46.8 137.8 46.7 137.8C46.6 137.8 46.5 137.8 46.5 137.7C46.7 137.6 46.6 137.5 46.6 137.4Z" fill="#153F7C"/>
<path d="M55.2001 133.9C55.3001 133.9 55.4001 133.9 55.5001 134C55.6001 134 55.6001 134.1 55.6001 134.2C55.6001 134.3 55.6001 134.4 55.5001 134.4C55.4001 134.5 55.3001 134.5 55.2001 134.5H53.4001V136C53.4001 136.5 53.5001 136.8 53.6001 136.9C53.7001 137 53.9001 137.1 54.2001 137.1C54.5001 137.1 54.8001 137 55.2001 136.9C55.6001 136.8 55.8001 136.7 55.9001 136.7C56.0001 136.7 56.1001 136.7 56.1001 136.8C56.2001 136.9 56.2001 136.9 56.2001 137C56.2001 137.1 56.2001 137.2 56.1001 137.3C56.0001 137.4 55.9001 137.4 55.7001 137.5C55.4001 137.6 55.2001 137.7 54.9001 137.7C54.7001 137.8 54.5001 137.8 54.3001 137.8C54.0001 137.8 53.7001 137.7 53.4001 137.6C53.2001 137.5 53.0001 137.3 52.9001 137.1C52.8001 137 52.8001 136.9 52.8001 136.7C52.8001 136.5 52.8001 136.3 52.8001 136V134.5H52.0001C51.9001 134.5 51.8001 134.5 51.7001 134.4C51.6001 134.4 51.6001 134.3 51.6001 134.2C51.6001 134.1 51.6001 134 51.7001 134C51.8001 134 51.9001 133.9 52.2001 133.9H52.7001V133V132.8C52.7001 132.7 52.7001 132.6 52.8001 132.5C52.9001 132.4 52.9001 132.4 53.1001 132.4C53.2001 132.4 53.3001 132.4 53.4001 132.5C53.5001 132.6 53.5001 132.7 53.5001 133V133.9H55.2001Z" fill="#153F7C"/>
<path d="M60.4 137.1C60.2 137.3 59.8999 137.5 59.5999 137.6C59.2999 137.7 59 137.8 58.7 137.8C58.3 137.8 57.8999 137.7 57.5999 137.4C57.2999 137.2 57.2 136.8 57.2 136.5C57.2 136 57.4 135.7 57.7 135.4C58.1 135.1 58.6 135 59.2 135C59.4 135 59.5 135 59.7 135C59.9 135 60.1 135.1 60.2 135.1C60.2 134.8 60.1 134.5 60 134.4C59.9 134.3 59.6 134.2 59.2 134.2C59 134.2 58.7 134.3 58.4 134.4C58.1 134.5 57.8999 134.6 57.7999 134.6C57.6999 134.6 57.5999 134.6 57.5999 134.5C57.4999 134.4 57.5 134.3 57.5 134.2C57.5 134 57.7 133.9 58 133.8C58.3 133.7 58.7 133.6 59.2 133.6C59.7 133.6 60.1 133.7 60.4 134C60.7 134.3 60.7999 134.6 60.7999 135.2V137.2H61C61.2 137.2 61.3 137.2 61.4 137.3C61.5 137.4 61.5 137.4 61.5 137.5C61.5 137.6 61.5 137.7 61.4 137.7C61.3 137.7 61.2999 137.8 61.0999 137.8H60.4C60.3 137.8 60.3 137.8 60.2 137.7C60.1 137.6 60.0999 137.6 60.0999 137.5L60.4 137.1ZM60.2999 135.8C60.0999 135.7 59.9999 135.7 59.7999 135.7C59.5999 135.7 59.4999 135.7 59.2999 135.7C58.7999 135.7 58.5 135.8 58.2 135.9C57.9 136 57.7999 136.3 57.7999 136.5C57.7999 136.7 57.9 136.9 58 137C58.2 137.1 58.3999 137.2 58.5999 137.2C58.9999 137.2 59.2999 137.1 59.5999 136.9C59.8999 136.7 60.0999 136.5 60.0999 136.3V135.8H60.2999Z" fill="#153F7C"/>
<path d="M64.3 137.1H65.8C65.9 137.1 66 137.1 66.1 137.2C66.2 137.2 66.2 137.3 66.2 137.4C66.2 137.5 66.2 137.6 66.1 137.6C66 137.6 66 137.7 65.8 137.7H62.9C62.8 137.7 62.7 137.7 62.6 137.6C62.5 137.5 62.5 137.5 62.5 137.4C62.5 137.3 62.5 137.2 62.6 137.2C62.7 137.2 62.8 137.1 62.9 137.1H63.7V134.3H63.4C63.1 134.3 62.9 134.3 62.9 134.2C62.8 134.2 62.8 134.1 62.8 134C62.8 133.9 62.8 133.8 62.9 133.8C63 133.7 63 133.7 63.2 133.7H64.2C64.3 133.7 64.3 133.7 64.4 133.7L64.5 133.8V134.5C64.8 134.2 65.1 133.9 65.4 133.7C65.7 133.5 66 133.4 66.4 133.4C66.7 133.4 66.9 133.5 67 133.6C67.2 133.7 67.2 133.8 67.2 134C67.2 134.1 67.2 134.2 67.1 134.3C67 134.4 66.9 134.4 66.8 134.4C66.7 134.4 66.6 134.4 66.5 134.3C66.3 134.2 66.2 134.2 66.1 134.2C65.9 134.2 65.6 134.3 65.4 134.4C65.1 134.6 64.9 134.8 64.6 135.2V137.1H64.3Z" fill="#153F7C"/>
<path d="M71.3999 133.9C71.4999 133.9 71.5999 133.9 71.6999 134C71.7999 134 71.7999 134.1 71.7999 134.2C71.7999 134.3 71.7999 134.4 71.6999 134.4C71.5999 134.5 71.4999 134.5 71.3999 134.5H69.5999V136C69.5999 136.5 69.6999 136.8 69.7999 136.9C69.8999 137 70.0999 137.1 70.3999 137.1C70.6999 137.1 70.9999 137 71.3999 136.9C71.7999 136.8 71.9999 136.7 72.0999 136.7C72.1999 136.7 72.2999 136.7 72.2999 136.8C72.3999 136.9 72.3999 136.9 72.3999 137C72.3999 137.1 72.3999 137.2 72.2999 137.3C72.1999 137.4 72.0999 137.4 71.8999 137.5C71.5999 137.6 71.3999 137.7 71.0999 137.7C70.8999 137.8 70.6999 137.8 70.4999 137.8C70.1999 137.8 69.8999 137.7 69.5999 137.6C69.3999 137.5 69.1999 137.3 69.0999 137.1C68.9999 137 68.9999 136.9 68.9999 136.7C68.9999 136.5 68.9999 136.3 68.9999 136V134.5H68.2999C68.1999 134.5 68.0999 134.5 67.9999 134.4C67.8999 134.4 67.8999 134.3 67.8999 134.2C67.8999 134.1 67.8999 134 67.9999 134C68.0999 134 68.1999 133.9 68.4999 133.9H68.9999V133V132.8C68.9999 132.7 68.9999 132.6 69.0999 132.5C69.1999 132.4 69.1999 132.4 69.3999 132.4C69.4999 132.4 69.5999 132.4 69.6999 132.5C69.7999 132.6 69.7999 132.7 69.7999 133V133.9H71.3999Z" fill="#153F7C"/>
<path d="M74.5001 136.1C74.5001 136.5 74.6001 136.7 74.7001 136.9C74.8001 137.1 75.1001 137.2 75.4001 137.2C75.7001 137.2 76.0001 137.1 76.2001 136.9C76.4001 136.7 76.5001 136.4 76.5001 136.1V134.3H76.0001C75.9001 134.3 75.8001 134.3 75.8001 134.2C75.8001 134.1 75.7001 134.1 75.7001 134C75.7001 133.9 75.7001 133.8 75.8001 133.8C75.9001 133.7 75.9001 133.7 76.1001 133.7H77.0001C77.1001 133.7 77.2001 133.7 77.2001 133.8C77.2001 133.8 77.3001 134 77.3001 134.2V137.2H77.5001C77.6001 137.2 77.7001 137.2 77.8001 137.3C77.9001 137.3 77.9001 137.4 77.9001 137.5C77.9001 137.6 77.9001 137.7 77.8001 137.7C77.7001 137.7 77.7001 137.8 77.5001 137.8H76.8001C76.7001 137.8 76.7001 137.8 76.6001 137.8C76.5001 137.8 76.5001 137.7 76.5001 137.7V137.4C76.2001 137.6 76.0001 137.8 75.8001 137.8C75.6001 137.9 75.4001 137.9 75.2001 137.9C74.7001 137.9 74.4001 137.8 74.1001 137.5C73.9001 137.2 73.7001 136.9 73.7001 136.3V134.3H73.6001C73.4001 134.3 73.3001 134.3 73.2001 134.2C73.1001 134.2 73.1001 134.1 73.1001 134C73.1001 133.9 73.1001 133.8 73.2001 133.8C73.3001 133.7 73.3001 133.7 73.5001 133.7H74.2001C74.3001 133.7 74.4001 133.7 74.4001 133.8C74.4001 133.8 74.5001 133.9 74.5001 134.1V136.1Z" fill="#153F7C"/>
<path d="M79.8001 138.8H80.9001C81.0001 138.8 81.1001 138.8 81.2001 138.9C81.3001 139 81.3001 139 81.3001 139.1C81.3001 139.2 81.3001 139.3 81.2001 139.3C81.1001 139.3 81.0001 139.4 80.9001 139.4H79.0001C78.9001 139.4 78.8001 139.4 78.7001 139.3C78.6001 139.2 78.6001 139.2 78.6001 139.1C78.6001 139 78.6001 138.9 78.7001 138.9C78.8001 138.9 78.9001 138.8 79.1001 138.8H79.2001V134.2H79.1001C78.9001 134.2 78.8001 134.2 78.7001 134.1C78.6001 134.1 78.6001 134 78.6001 133.9C78.6001 133.8 78.6001 133.7 78.7001 133.7C78.8001 133.6 78.8001 133.6 79.0001 133.6H79.7001C79.8001 133.6 79.9001 133.6 79.9001 133.6L80.0001 133.7V134.1C80.2001 133.9 80.4001 133.7 80.7001 133.6C80.9001 133.5 81.2001 133.4 81.5001 133.4C82.1001 133.4 82.6001 133.6 83.0001 134C83.4001 134.4 83.6001 134.9 83.6001 135.5C83.6001 136.1 83.4001 136.6 83.0001 136.9C82.6001 137.2 82.1001 137.5 81.6001 137.5C81.3001 137.5 81.0001 137.4 80.7001 137.3C80.4001 137.2 80.2001 137 80.0001 136.8V138.8H79.8001ZM81.2001 137.1C81.6001 137.1 81.9001 137 82.2001 136.7C82.5001 136.4 82.6001 136.1 82.6001 135.7C82.6001 135.3 82.5001 135 82.2001 134.7C81.9001 134.4 81.6001 134.3 81.2001 134.3C80.8001 134.3 80.5001 134.4 80.2001 134.7C79.9001 135 79.8001 135.3 79.8001 135.7C79.8001 136.1 79.9001 136.4 80.2001 136.7C80.5001 136.9 80.8001 137.1 81.2001 137.1Z" fill="#153F7C"/>
<path d="M84.5 137C84.5 136.8 84.6 136.6 84.7 136.4C84.8 136.2 85.1 136.2 85.3 136.2C85.6 136.2 85.8 136.3 85.9 136.4C86 136.5 86.1 136.7 86.1 137C86.1 137.3 86 137.4 85.9 137.6C85.8 137.8 85.5 137.8 85.3 137.8C85.1 137.8 84.8 137.7 84.7 137.6C84.6 137.5 84.5 137.2 84.5 137Z" fill="#153F7C"/>
<path d="M68.5999 171L62.2 160L68.5999 149H81.1999L87.5 160L81.1999 171H68.5999Z" fill="#FFE4F2"/>
<path d="M81.1 149.2L87.4 160L81.1 170.8H68.6L62.4 160L68.7 149.2H81.1ZM81.3 148.9H81.2H68.6H68.5L68.4 149L62.1 159.8L62 159.9L62.1 160L68.4 170.8L68.5 170.9H68.6H81.1H81.2L81.3 170.8L87.6 160L87.7 159.9L87.6 159.8L81.4 149L81.3 148.9Z" fill="#1A1718"/>
<path d="M65.5773 149.662L63.3257 150.962L78.4257 177.115L80.6773 175.815L65.5773 149.662Z" fill="#FFF0F9"/>
<path d="M62.1118 151.259L60.553 152.159L75.653 178.312L77.2118 177.412L62.1118 151.259Z" fill="#FFF0F9"/>
<path d="M105 161.4C107.872 161.4 110.2 159.072 110.2 156.2C110.2 153.328 107.872 151 105 151C102.128 151 99.8 153.328 99.8 156.2C99.8 159.072 102.128 161.4 105 161.4Z" fill="#FFE8D5" stroke="#1A1718" stroke-width="0.25" stroke-miterlimit="10"/>
<path d="M43.2999 37.5C42.2999 38.9 41 40 39.5 40.8C38 41.6 36.3 42.1 34.4 42.3L33.2999 38.4C34.6999 38.3 35.9999 37.9 37.0999 37.1C38.1999 36.3 39.1 35.3 39.7 34C40.3 32.7 40.7 31.2 40.7 29.5H46C46.1 31.2 46.4 32.6 47 34C47.6 35.4 48.4999 36.4 49.5999 37.1C50.6999 37.9 52 38.3 53.4 38.4L52.2999 42.3C50.4 42.2 48.7 41.7 47.2 40.8C45.6 40 44.2999 38.9 43.2999 37.5ZM33.2 49.9V45.7H53.4V49.9H33.2Z" fill="#153F7C"/>
<path d="M68.6999 37.6V41.8H62V45.7H69.3V49.9H56.7V29.7H68.6999V33.9H62V37.6H68.6999ZM76.3 37.6H78.4V41.8H76.3V50.8H71V29.5H76.3V37.6Z" fill="#153F7C"/>
<path d="M100.3 49.9001H80.0999V45.9001H100.3V49.9001ZM85.8999 34.8H99.3999V38.8H85.8999V39.8H99.6999V43.8H80.6999V29.8H99.6999V33.8H85.8999V34.8Z" fill="#153F7C"/>
<path d="M123.3 29.4V41H118V37.4H116C115.7 38.6 115 39.6 113.9 40.2C112.8 40.9 111.5 41.2 109.9 41.2C107.9 41.2 106.4 40.7 105.3 39.8C104.2 38.8 103.6 37.5 103.6 35.8V35C103.6 33.3 104.2 31.9 105.3 31C106.4 30 108 29.6 109.9 29.6C111.5 29.6 112.8 29.9 113.8 30.5C114.8 31.1 115.6 32 115.9 33.2H117.9V29.5H123.3V29.4ZM118.1 43V42H123.3V50.8H104.3V42H109.6V43H118.1ZM110.9 34.7C110.9 34.4 110.8 34.1 110.6 34C110.4 33.9 110.2 33.7 109.9 33.7C109.6 33.7 109.4 33.8 109.2 34C109 34.2 108.9 34.4 108.9 34.7V36.1C108.9 36.4 109 36.6 109.2 36.8C109.4 37 109.6 37.1 109.9 37.1C110.2 37.1 110.5 37 110.6 36.8C110.7 36.6 110.9 36.4 110.9 36.1V34.7ZM118.1 47.4V46.3H109.6V47.4H118.1Z" fill="#153F7C"/>
<path d="M137.6 31.3C138.7 32.4 139.2 34 139.2 36.1V43.5C139.2 45.6 138.7 47.2 137.6 48.3C136.5 49.4 135 49.9 132.9 49.9C130.8 49.9 129.3 49.4 128.2 48.3C127.1 47.2 126.6 45.6 126.6 43.5V36.1C126.6 34 127.1 32.4 128.2 31.3C129.3 30.2 130.8 29.7 132.9 29.7C135 29.7 136.5 30.3 137.6 31.3ZM131.9 35V44.7C131.9 45.4 132.2 45.8 132.9 45.8C133.6 45.8 133.9 45.4 133.9 44.7V35C133.9 34.3 133.6 33.9 132.9 33.9C132.2 33.9 131.9 34.3 131.9 35ZM146.3 29.5V50.8H141V29.5H146.3Z" fill="#153F7C"/>
<path d="M176.3 29.5V50.8H171V41.8H169.3V44.2C169.3 46.3 168.8 47.8 167.7 48.9C166.6 50 165.1 50.5 163 50.5C160.9 50.5 159.4 50 158.3 48.9C157.2 47.8 156.7 46.3 156.7 44.2V35.8C156.7 33.7 157.2 32.2 158.3 31.1C159.4 30 160.9 29.5 163 29.5C165.1 29.5 166.6 30 167.7 31.1C168.8 32.2 169.3 33.7 169.3 35.8V37.6H171V29.5H176.3ZM164 34.7C164 34 163.7 33.7 163 33.7C162.3 33.7 162 34 162 34.7V45.3C162 46 162.3 46.3 163 46.3C163.7 46.3 164 46 164 45.3V34.7Z" fill="#153F7C"/>
<path d="M191.6 41.8H185V45.7H192.2V49.9H179.7V37.6H186.4V34H179.7V29.8H191.6V41.8ZM199.3 29.5V50.8H194V45.2H192.1V41H194V37.6H192.1V33.4H194V29.5H199.3Z" fill="#153F7C"/>
<path d="M222.9 40.1H215.4V40.9H222.3V47.2H208.5V48H222.6V50.8H203.2V44.5H217V43.7H203.2V41H210.1V40.2H202.6V37H222.8V40.1H222.9ZM206.5 36.2C205.5 36.2 204.7 35.9 204.1 35.3C203.5 34.7 203.2 33.9 203.2 33C203.2 32 203.5 31.2 204.1 30.7C204.7 30.1 205.5 29.8 206.5 29.8H219C220 29.8 220.8 30.1 221.4 30.7C222 31.3 222.3 32.1 222.3 33C222.3 34 222 34.8 221.4 35.3C220.8 35.9 220 36.2 219 36.2H206.5ZM209 32.5C208.9 32.5 208.8 32.5 208.7 32.6C208.6 32.7 208.6 32.8 208.6 33C208.6 33.1 208.6 33.2 208.7 33.3C208.8 33.4 208.9 33.4 209 33.4H216.6C216.7 33.4 216.9 33.4 217 33.3C217.1 33.2 217.1 33.1 217.1 33C217.1 32.9 217.1 32.7 217 32.6C216.9 32.5 216.8 32.5 216.6 32.5H209Z" fill="#153F7C"/>
<path d="M242.8 34H241.4V37.9H243.1V42.1H233V29.8H242.9V34H242.8ZM239.9 43.2V46.6H253.7V50.8H234.7V43.2H239.9ZM236.8 37.9H238.1V34H236.8V37.9ZM253.7 43.8H249.2V38.8H248.4V43.3H243.9V29.5H248.4V34.3H249.2V29.5H253.7V43.8Z" fill="#153F7C"/>
<path d="M266.6 34.7C266.6 35.4 266.6 36 266.5 36.5C266.4 37 266.3 37.6 266.1 38C265.9 38.5 265.7 39 265.4 39.4C265.1 39.9 264.8 40.4 264.4 40.9C263.9 41.6 263.5 42.1 263.3 42.6C263.1 43.1 262.9 43.6 262.9 44.3H258.4C258.4 43.7 258.4 43.1 258.5 42.6C258.6 42.1 258.7 41.6 258.9 41.2C259.1 40.8 259.3 40.4 259.5 40C259.7 39.6 260 39.2 260.3 38.8C260.6 38.4 260.8 38.1 261 37.7C261.2 37.4 261.3 37.1 261.5 36.8C261.6 36.5 261.7 36.2 261.8 35.8C261.9 35.5 261.9 35.1 261.9 34.7C261.9 34.3 261.7 34.1 261.3 34.1C260.9 34.1 260.7 34.3 260.7 34.7V36.2L256.2 36.5L255.9 34.6C255.9 33 256.4 31.8 257.3 30.9C258.2 30 259.5 29.6 261.2 29.6C262.9 29.6 264.2 30 265.1 30.9C266.1 31.9 266.6 33.2 266.6 34.7ZM260.7 45.8C261.4 45.8 262.1 46 262.6 46.5C263.1 47 263.3 47.6 263.3 48.4C263.3 49.2 263.1 49.8 262.6 50.3C262.1 50.8 261.5 51 260.7 51C260 51 259.3 50.7 258.8 50.2C258.3 49.7 258 49.1 258 48.3C258 47.5 258.3 46.9 258.8 46.4C259.3 45.9 259.9 45.8 260.7 45.8Z" fill="#153F7C"/>
</g>
<defs>
<linearGradient id="paint0_linear" x1="42.3613" y1="150.562" x2="44.5203" y2="172.962" gradientUnits="userSpaceOnUse">
<stop stop-color="#D3DBE2"/>
<stop offset="0.9897" stop-color="#9DAAB2"/>
</linearGradient>
<clipPath id="clip0">
<rect width="320" height="200" fill="white"/>
</clipPath>
</defs>
</svg>
