<svg width="320" height="200" viewBox="0 0 320 200" fill="none" xmlns="http://www.w3.org/2000/svg">
<g clip-path="url(#clip0)">
<path d="M320 0H0V200H320V0Z" fill="#FCFAF2"/>
<path d="M60 7.90002V192.9" stroke="#1A1718" stroke-width="0.25" stroke-miterlimit="10"/>
<path d="M90 7.90002V192.9" stroke="#1A1718" stroke-width="0.25" stroke-miterlimit="10"/>
<path d="M120 7.90002V192.9" stroke="#1A1718" stroke-width="0.25" stroke-miterlimit="10"/>
<path d="M30 7.90002V192.9" stroke="#1A1718" stroke-width="0.25" stroke-miterlimit="10"/>
<path d="M312.2 55.4H0" stroke="#1A1718" stroke-width="0.25" stroke-miterlimit="10"/>
<path d="M312.2 85.4H0" stroke="#1A1718" stroke-width="0.25" stroke-miterlimit="10"/>
<path d="M312.2 145.4H0" stroke="#1A1718" stroke-width="0.25" stroke-miterlimit="10"/>
<path d="M312.2 175.4H0" stroke="#1A1718" stroke-width="0.25" stroke-miterlimit="10"/>
<path d="M312.2 25.4H0" stroke="#1A1718" stroke-width="0.25" stroke-miterlimit="10"/>
<path d="M180 7.90002V192.9" stroke="#1A1718" stroke-width="0.25" stroke-miterlimit="10"/>
<path d="M210 7.90002V192.9" stroke="#1A1718" stroke-width="0.25" stroke-miterlimit="10"/>
<path d="M240 7.90002V192.9" stroke="#1A1718" stroke-width="0.25" stroke-miterlimit="10"/>
<path d="M270 7.90002V192.9" stroke="#1A1718" stroke-width="0.25" stroke-miterlimit="10"/>
<path d="M300 7.90002V192.9" stroke="#1A1718" stroke-width="0.25" stroke-miterlimit="10"/>
<path d="M150 7.90002V192.9" stroke="#1A1718" stroke-width="0.25" stroke-miterlimit="10"/>
<path d="M270 25.4H30V55.4H270V25.4Z" fill="#FFE6BB" stroke="#1A1718" stroke-width="0.25" stroke-miterlimit="10"/>
<path d="M309.6 77.9H10.3V115.3H309.6V77.9Z" fill="#F4BAC5"/>
<path d="M43.3999 37.9C42.3999 39.3 41.0999 40.4 39.5999 41.2C38.0999 42 36.3999 42.5 34.4999 42.7L33.3999 38.8C34.7999 38.7 36.0999 38.3 37.1999 37.5C38.2999 36.7 39.1999 35.7 39.7999 34.4C40.3999 33.1 40.7999 31.6 40.7999 29.9H46.0999C46.1999 31.6 46.4999 33 47.0999 34.4C47.6999 35.8 48.5999 36.8 49.6999 37.5C50.7999 38.3 52.0999 38.7 53.4999 38.8L52.3999 42.7C50.4999 42.6 48.7999 42.1 47.2999 41.2C45.6999 40.4 44.4999 39.3 43.3999 37.9ZM33.3999 50.3V46.1H53.5999V50.3H33.3999Z" fill="#EF6788"/>
<path d="M68.7999 38V42.2H62.0999V46.1H69.3999V50.3H56.8999V30.1H68.8999V34.3H62.1999V38H68.7999ZM76.4999 38H78.5999V42.2H76.4999V51.2H71.1999V29.9H76.4999V38Z" fill="#EF6788"/>
<path d="M100.4 50.3H80.2998V46.3H100.5V50.3H100.4ZM86.0998 35.1H99.5998V39.1H86.0998V40.1H99.8998V44.1H80.8998V30.2H99.8998V34.2H86.0998V35.1Z" fill="#EF6788"/>
<path d="M123.4 29.8V41.4H118.1V37.8H116.1C115.8 39 115.1 40 114 40.6C112.9 41.3 111.6 41.6 110 41.6C108 41.6 106.5 41.1 105.4 40.2C104.3 39.2 103.7 37.9 103.7 36.2V35.4C103.7 33.7 104.3 32.3 105.4 31.4C106.5 30.4 108.1 30 110 30C111.6 30 112.9 30.3 113.9 30.9C114.9 31.5 115.7 32.4 116 33.6H118V29.9H123.4V29.8ZM118.2 43.4V42.4H123.4V51.2H104.4V42.4H109.7V43.4H118.2ZM111.1 35.1C111.1 34.8 111 34.5 110.8 34.4C110.6 34.3 110.4 34.1 110.1 34.1C109.8 34.1 109.6 34.2 109.4 34.4C109.2 34.6 109.1 34.8 109.1 35.1V36.5C109.1 36.8 109.2 37 109.4 37.2C109.6 37.4 109.8 37.5 110.1 37.5C110.4 37.5 110.7 37.4 110.8 37.2C110.9 37 111.1 36.8 111.1 36.5V35.1ZM118.2 47.8V46.7H109.7V47.8H118.2Z" fill="#EF6788"/>
<path d="M137.7 31.7C138.8 32.8 139.3 34.4 139.3 36.5V43.9C139.3 46 138.8 47.6 137.7 48.7C136.6 49.8 135.1 50.3 133 50.3C130.9 50.3 129.4 49.8 128.3 48.7C127.2 47.6 126.7 46 126.7 43.9V36.5C126.7 34.4 127.2 32.8 128.3 31.7C129.4 30.6 130.9 30.1 133 30.1C135.1 30.1 136.7 30.6 137.7 31.7ZM132 35.4V45.1C132 45.8 132.3 46.2 133 46.2C133.7 46.2 134 45.8 134 45.1V35.4C134 34.7 133.7 34.3 133 34.3C132.4 34.3 132 34.7 132 35.4ZM146.4 29.9V51.2H141.1V29.9H146.4Z" fill="#EF6788"/>
<path d="M168.9 41.1V42.6H171.4C172.7 42.6 173.7 43 174.6 43.8C175.4 44.6 175.8 45.6 175.8 46.9C175.8 48.2 175.4 49.2 174.6 50C173.8 50.8 172.7 51.2 171.4 51.2H161.2C159.9 51.2 158.9 50.8 158.1 50C157.3 49.2 156.9 48.2 156.9 46.9C156.9 45.6 157.3 44.6 158.1 43.8C158.9 43 160 42.6 161.2 42.6H163.7V41.1H156.3V37.2H176.5V41.1H168.9ZM170.5 36V34.1H156.7V30.2H175.7L175.4 36H170.5ZM170.5 46.8C170.5 46.7 170.4 46.5 170.3 46.4C170.2 46.3 170.1 46.2 169.9 46.2H162.5C162.4 46.2 162.2 46.3 162.1 46.4C162 46.5 161.9 46.6 161.9 46.8C161.9 47 162 47.1 162.1 47.2C162.2 47.3 162.3 47.4 162.5 47.4H169.9C170 47.4 170.2 47.3 170.3 47.2C170.5 47.1 170.5 47 170.5 46.8Z" fill="#EF6788"/>
<path d="M199.9 37.2V41.1H179.7V37.2H199.9ZM180.3 34.1V30.2H199.3L199 36H194V34.1H180.3ZM199.3 51.2H180.3V42.4H199.3V51.2ZM185.5 46.2V47.4H194V46.2H185.5Z" fill="#EF6788"/>
<path d="M215.8 30.4V33.2H203.2V30.4H206.9V29.3H212.2V30.4H215.8ZM212 33.5C213.1 33.5 214 33.8 214.6 34.3C215.3 34.9 215.6 35.6 215.6 36.5C215.6 37.4 215.3 38.2 214.6 38.8C213.9 39.4 213.1 39.7 212 39.7H207.1C206 39.7 205.1 39.4 204.5 38.8C203.8 38.2 203.5 37.5 203.5 36.5C203.5 35.6 203.8 34.8 204.5 34.3C205.2 33.7 206 33.5 207.1 33.5H212ZM209.1 47.2V48H223.2V51.1H203.9V44.1H217.7V43.3H203.9V40.2H222.9V47.2H209.1ZM210.8 37C210.9 37 211 37 211.1 36.9C211.2 36.8 211.2 36.7 211.2 36.6C211.2 36.5 211.2 36.4 211.1 36.3C211 36.2 210.9 36.2 210.8 36.2H208.4C208.3 36.2 208.2 36.2 208.1 36.3C208 36.4 208 36.5 208 36.6C208 36.7 208 36.8 208.1 36.9C208.2 37 208.3 37 208.4 37H210.8ZM222.8 33.1H224.9V36.7H222.8V39.6H217.6V29.9H222.8V33.1Z" fill="#EF6788"/>
<path d="M242.9 34.4H241.5V38.3H243.2V42.5H233V30.2H242.9V34.4ZM240 43.6V47H253.8V51.2H234.8V43.6H240ZM236.8 38.3H238.1V34.4H236.8V38.3ZM253.7 44.1H249.2V39.1H248.4V43.6H243.9V29.9H248.4V34.7H249.2V29.9H253.7V44.1Z" fill="#EF6788"/>
<path d="M266.6 35.1C266.6 35.8 266.6 36.4 266.5 36.9C266.4 37.4 266.3 38 266.1 38.4C265.9 38.9 265.7 39.4 265.4 39.8C265.1 40.3 264.8 40.8 264.4 41.3C263.9 42 263.5 42.5 263.3 43C263.1 43.5 262.9 44 262.9 44.7H258.4C258.4 44.1 258.4 43.5 258.5 43C258.6 42.5 258.7 42 258.9 41.6C259.1 41.2 259.3 40.8 259.5 40.4C259.7 40 260 39.6 260.3 39.2C260.6 38.8 260.8 38.5 261 38.1C261.2 37.8 261.3 37.5 261.5 37.2C261.6 36.9 261.7 36.6 261.8 36.2C261.9 35.9 261.9 35.5 261.9 35.1C261.9 34.7 261.7 34.5 261.3 34.5C260.9 34.5 260.7 34.7 260.7 35.1V36.6L256.2 36.9L255.9 35C255.9 33.4 256.4 32.2 257.3 31.3C258.2 30.4 259.5 30 261.2 30C262.9 30 264.2 30.4 265.1 31.3C266.2 32.3 266.6 33.5 266.6 35.1ZM260.7 46.2C261.4 46.2 262.1 46.4 262.6 46.9C263.1 47.4 263.3 48 263.3 48.8C263.3 49.6 263.1 50.2 262.6 50.7C262.1 51.2 261.5 51.4 260.7 51.4C260 51.4 259.3 51.1 258.8 50.6C258.3 50.1 258 49.5 258 48.7C258 47.9 258.3 47.3 258.8 46.8C259.3 46.3 260 46.2 260.7 46.2Z" fill="#EF6788"/>
<path d="M312.2 115.4H0" stroke="#1A1718" stroke-width="0.25" stroke-miterlimit="10"/>
<path d="M87.9 120.7H2.69995V131.8H87.9V120.7Z" fill="#FCFAF2"/>
<path d="M87.8999 128.9H22.2V140H87.8999V128.9Z" fill="#FCFAF2"/>
<path d="M297.1 119.7H122.5V143.9H297.1V119.7Z" fill="#FCFAF2"/>
<path d="M297 149.5H157.8V173.7H297V149.5Z" fill="#FCFAF2"/>
<path d="M0 55.4L15 25.4" stroke="#1A1718" stroke-width="0.25" stroke-miterlimit="10"/>
<path d="M145.6 126.2V133.8H143.6L145.4 135.6C145.2 139.4 141.7 143.2 135.7 143.2C129.7 143.2 125.2 138.2 123.4 134.9C122.7 133.6 122.3 132.3 122.3 130.3C122.3 125.1 126.1 121.6 131.3 121.6C133.5 121.6 135 122.2 135.9 123V121.9H141.6L145.6 126.2ZM136.4 130.9C136 133.3 135.3 134.1 133.9 134.1C132.2 134.1 131.5 133 131.5 130.2C131.5 127.7 132.5 126.6 133.9 126.6C135.5 126.6 136 127.6 136.5 129.7H141.4V122.1H136.2V123.6H136C135.1 122.5 133.3 121.8 131.2 121.8C126.3 121.8 122.4 125.4 122.4 130.2C122.4 135.7 126.5 139 132.6 139C138.3 139 141.3 135.3 141.4 131.4L136.4 130.9Z" fill="#EF6788" stroke="#EF6788" stroke-width="0.5" stroke-miterlimit="10"/>
<path d="M177.7 134.3V142.9H155.5L151.7 138.9V133.6H154.6V130.2L151.7 127.1V121.8H165.7L169.8 126.1V130H173.7L177.7 134.3ZM152 138.7H173.4V130.4H167.9V134H162.9V127H165.5V122.2H152V127H154.9V134H152V138.7Z" fill="#EF6788" stroke="#EF6788" stroke-width="0.5" stroke-miterlimit="10"/>
<path d="M202.1 138.1V142.9H187.5L183.7 138.9V133.6H186.7V130.2L183.7 127.1V121.8H198L202.1 126.1V131H199.5V135.3L202.1 138.1ZM184 138.7H197.8V133.9H194.9V126.9H197.8V122.1H184V126.9H186.9V133.9H184V138.7Z" fill="#EF6788" stroke="#EF6788" stroke-width="0.5" stroke-miterlimit="10"/>
<path d="M231.1 126.2V133.8H229.1L230.9 135.6C230.7 139.4 227.2 143.2 221.2 143.2C215.2 143.2 210.7 138.2 208.9 134.9C208.2 133.6 207.8 132.3 207.8 130.3C207.8 125.1 211.6 121.6 216.8 121.6C219 121.6 220.5 122.2 221.4 123V121.9H227.1L231.1 126.2ZM221.9 130.9C221.5 133.3 220.8 134.1 219.4 134.1C217.7 134.1 217 133 217 130.2C217 127.7 218 126.6 219.4 126.6C221 126.6 221.5 127.6 222 129.7H226.9V122.1H221.7V123.6H221.6C220.7 122.5 218.9 121.8 216.8 121.8C211.9 121.8 208 125.4 208 130.2C208 135.7 212.1 139 218.2 139C223.9 139 226.9 135.3 227 131.4L221.9 130.9Z" fill="#EF6788" stroke="#EF6788" stroke-width="0.5" stroke-miterlimit="10"/>
<path d="M269.1 137.9V142.9H241.1L237.3 138.9V133.6H240.3V130.2L237.3 127.1V121.8H263.1L266.7 125.6V131H263.5L261.8 132.5L263.1 133.5H265.1L269.1 137.9ZM250.9 138.7H264.8V133.9H262.8L257.3 129.7L260.5 126.9H262.9V122.1H251.2V126.9H253L248.4 130.1V126.9H250.4V122.1H237.5V126.9H240.4V133.9H237.5V138.7H250.1V133.9H248.4V130.7L252.6 133.9H250.9V138.7Z" fill="#EF6788" stroke="#EF6788" stroke-width="0.5" stroke-miterlimit="10"/>
<path d="M225.4 164V172.1H203.1L199.2 168.1V162.9H202.1V159.5L199.2 156.4V151.1H221.3L225.4 155.3V162H223.5L225.4 164ZM199.5 167.9H221.1V159.9H215V163.1H210.4V161.5H213.6V157.6H210.4V156H215V158.6H221.1V151.2H199.5V156H202.4V163H199.5V167.9Z" fill="#EF6788" stroke="#EF6788" stroke-width="0.5" stroke-miterlimit="10"/>
<path d="M256.3 172.4C252.8 172.4 250.6 171.4 249.2 169.7V172.1H235.5L231.7 168.1V162.8H234.7V159.4L231.7 156.3V151.1H248.4C250.9 151.1 253 151.7 254.3 152.7C258 155.8 259.5 157.3 259.5 159.8C259.5 160.9 259.1 161.8 258.5 162.4L261.9 165.9C262.1 166.5 262.2 167.3 262.2 167.8C262.1 170.4 260.4 172.4 256.3 172.4ZM257.8 162.2L255.1 162.1C255.2 162.9 254.9 163.4 254.4 163.4C253.9 163.4 253.6 163.2 253.4 162.4C253.1 161.2 252.5 160.4 251.1 160.1V159.9C253.3 159.5 255.4 158.2 255.4 156.1C255.4 152.4 251.7 151.4 248.2 151.4H231.8V156.2H234.7V163.2H231.8V168H245.1V163.2H242.6V161.5H243.9C244.6 161.5 245.3 161.7 245.6 163.4C246 166.5 247.7 168.5 252.2 168.5C255.8 168.5 257.8 166.5 257.8 163.5C257.9 163.1 257.9 162.6 257.8 162.2ZM244.1 159.1H242.8V156.2H244.2C245.8 156.2 246.5 156.5 246.5 157.6C246.5 158.6 245.8 159.1 244.1 159.1Z" fill="#EF6788" stroke="#EF6788" stroke-width="0.5" stroke-miterlimit="10"/>
<path d="M293.3 164V172.1H271L267.1 168.1V162.9H270V159.5L267.1 156.4V151.1H289.2L293.3 155.3V162H291.4L293.3 164ZM267.4 167.9H289V159.9H282.9V163.1H278.3V161.5H281.5V157.6H278.3V156H282.9V158.6H289V151.2H267.4V156H270.3V163H267.4V167.9Z" fill="#EF6788" stroke="#EF6788" stroke-width="0.5" stroke-miterlimit="10"/>
<path d="M193 167.4V172.1H166.1L162.3 168.1V162.8H165.3V159.4L162.3 156.3V151H188.9L193 155.2V160.2H190.4V164.5L193 167.4ZM176.1 167.9H188.7V163.1H185.8V156.1H188.7V151.3H176.1V156.1H177.9V158H173.5V156.1H175.3V151.3H162.7V156.1H165.6V163.1H162.7V167.9H175.3V163.1H173.5V160.8H177.9V163.1H176.1V167.9Z" fill="#EF6788" stroke="#EF6788" stroke-width="0.5" stroke-miterlimit="10"/>
<path d="M294.3 132.2V135.1L276 142.6L273 139.6V132.9L276.8 131.7L273 127.8V121L290.6 128.4L294.3 132.2ZM273.4 139L290.2 131.9V128.7L273.4 121.6V127.5L282.5 130.2L273.4 133.1V139Z" fill="#EF6788" stroke="#EF6788" stroke-width="0.5" stroke-miterlimit="10"/>
<path d="M123.4 159.1V171.3L130.2 170.4C130.2 170.4 133 172.6 134.8 172.7C136.6 172.8 139.3 173 140.8 172.1C142.3 171.1 142 158.6 141.9 158.6C141.8 158.6 138.8 157.4 138.3 156.9C137.8 156.5 137.2 155.2 138.1 153.1C139 151.1 137.3 148.2 136 147.7C134.7 147.2 132.4 147.4 132.7 149.3C133 151.2 133.7 153 133.1 154.3C132.5 155.5 132.1 156.5 130.9 157.5C129.7 158.5 129 159.5 129 159.5L123.4 158.8V159.1Z" fill="#FFE780" stroke="#1A1718" stroke-width="0.25" stroke-miterlimit="10"/>
<path d="M137.8 158.4C139.2 158 140.2 157.9 143.4 157.9C146.7 158 146.5 160.2 146.4 160.6C146.3 161 146 161.8 143.7 162.1C141.4 162.5 138.2 162.3 137.4 162.1C136.6 161.9 136.2 160.7 136.5 159.7C136.8 158.7 137.4 158.5 137.8 158.4Z" fill="#FFE780" stroke="#1A1718" stroke-width="0.25" stroke-miterlimit="10"/>
<path d="M141.2 162.4C141.2 162.4 143.8 162.4 144.5 162.3C145.1 162.2 146.3 162.4 146.6 163.3C146.9 164.2 146.8 166 143.8 166C140.7 166 138.5 166.2 137.6 165.6C136.7 165 136.6 163.7 137.1 162.9C137.5 162.2 140.7 162.4 141.2 162.4Z" fill="#FFE780" stroke="#1A1718" stroke-width="0.25" stroke-miterlimit="10"/>
<path d="M138.1 166C138.1 166 140.6 166.4 143.8 166C147 165.6 146.3 169.4 144.4 169.7C142.5 169.9 140.4 170 139.4 169.8C138.5 169.7 137.2 169.1 137.1 167.9C136.9 166.8 137.7 165.9 138.1 166Z" fill="#FFE780" stroke="#1A1718" stroke-width="0.25" stroke-miterlimit="10"/>
<path d="M138.2 169.5C138 169.5 137.5 169.9 137.5 170.7C137.5 171.5 137.4 172.5 139.4 172.9C141.5 173.2 143.5 172.7 144 172.3C144.4 171.9 144.8 170.5 144 169.8C143.6 169.5 142.7 169.8 141.2 169.8C139.7 169.8 138.2 169.5 138.2 169.5Z" fill="#FFE780" stroke="#1A1718" stroke-width="0.25" stroke-miterlimit="10"/>
<path d="M90 115.4L120 145.4" stroke="#1A1718" stroke-width="0.25" stroke-miterlimit="10"/>
<path d="M30 25.4H15V55.4H30V25.4Z" fill="#DBF9C7" stroke="#1A1718" stroke-width="0.25" stroke-miterlimit="10"/>
<path d="M18.5999 34.2C19.3999 34.2 20.0999 34.1 20.0999 33.6C20.0999 32.5 15.9999 33.6 15.9999 31.3C15.9999 29.6 18.1999 29.6 18.8999 29.6C19.4999 29.6 20.4999 29.7 20.9999 29.9C21.2999 30 21.3999 30.2 21.3999 30.4C21.3999 30.5 21.3999 30.6 21.2999 30.7C21.1999 30.9 20.9999 31 20.7999 31C20.6999 31 20.5999 31 20.5999 31C20.2999 30.9 19.3999 30.7 18.8999 30.7C18.3999 30.7 17.4999 30.7 17.4999 31.2C17.4999 32.2 21.5999 31 21.5999 33.5C21.5999 35.3 19.6999 35.3 18.5999 35.3C17.6999 35.3 16.9999 35.2 16.2999 35C15.9999 34.9 15.8999 34.7 15.8999 34.5C15.8999 34.1 16.1999 33.8 16.6999 33.9C17.2999 34.1 18.0999 34.2 18.5999 34.2Z" fill="#61C680"/>
<path d="M27.5999 32.8H24.1999V34.5C24.1999 35 23.7999 35.3 23.3999 35.3C22.9999 35.3 22.5999 35 22.5999 34.5V30.3C22.5999 29.8 22.9999 29.6 23.3999 29.6C23.7999 29.6 24.1999 29.9 24.1999 30.3V31.8H27.5999V30.3C27.5999 29.8 27.9999 29.6 28.3999 29.6C28.7999 29.6 29.1999 29.9 29.1999 30.3V34.5C29.1999 35 28.7999 35.3 28.3999 35.3C27.9999 35.3 27.5999 35 27.5999 34.5V32.8Z" fill="#61C680"/>
<path d="M17.3 43.1C16.9 43.1 16.5 42.8 16.5 42.3V38.3C16.5 37.8 16.8 37.5 17.3 37.5H21.5C21.8 37.5 22 37.7 22 38C22 38.3 21.8 38.5 21.5 38.5H18V39.6H21C21.3 39.6 21.5 39.8 21.5 40.1C21.5 40.4 21.3 40.6 21 40.6H18V41.9H21.6C21.9 41.9 22.1 42.1 22.1 42.4C22.1 42.7 21.9 42.9 21.6 42.9H17.3V43.1Z" fill="#61C680"/>
<path d="M24 43.1C23.6 43.1 23.2 42.8 23.2 42.3V38.3C23.2 37.8 23.5 37.5 24 37.5H28.2C28.5 37.5 28.7 37.7 28.7 38C28.7 38.3 28.5 38.5 28.2 38.5H24.7999V39.6H27.7C28 39.6 28.2 39.8 28.2 40.1C28.2 40.4 28 40.6 27.7 40.6H24.7999V41.9H28.4C28.7 41.9 28.9 42.1 28.9 42.4C28.9 42.7 28.7 42.9 28.4 42.9H24V43.1Z" fill="#61C680"/>
<path d="M17.8998 49.0999V50.5C17.8998 51 17.5998 51.2999 17.0998 51.2999C16.6998 51.2999 16.2998 51 16.2998 50.5V46.4C16.2998 45.9 16.6998 45.7 17.0998 45.7H19.7998C21.1998 45.7 22.2998 46.1 22.2998 47.5C22.2998 48.9 21.0998 49.2999 19.7998 49.2999H17.8998V49.0999ZM17.8998 46.5999V48H19.7998C20.3998 48 20.7998 47.7999 20.7998 47.2999C20.7998 46.7999 20.3998 46.5999 19.7998 46.5999H17.8998Z" fill="#61C680"/>
<path d="M25.9998 50.2C26.7998 50.2 27.4998 50.1 27.4998 49.6C27.4998 48.5 23.3998 49.6 23.3998 47.3C23.3998 45.6 25.5998 45.6 26.2998 45.6C26.8998 45.6 27.8998 45.7 28.3998 45.9C28.6998 46 28.7998 46.2 28.7998 46.4C28.7998 46.5 28.7998 46.6 28.6998 46.7C28.5998 46.9 28.3998 47 28.1998 47C28.0998 47 27.9998 47 27.9998 47C27.6998 46.9 26.7998 46.7 26.2998 46.7C25.7998 46.7 24.8998 46.7 24.8998 47.2C24.8998 48.2 28.9998 47 28.9998 49.5C28.9998 51.3 27.0998 51.3 25.9998 51.3C25.0998 51.3 24.3998 51.2 23.6998 51C23.3998 50.9 23.2998 50.7 23.2998 50.5C23.2998 50.1 23.5998 49.8 24.0998 49.9C24.6998 50.1 25.4998 50.2 25.9998 50.2Z" fill="#61C680"/>
<path d="M32.3999 151.2V171.2C32.3999 171.2 32.3999 172.8 33.1999 172.9C33.9999 173 53.5999 167.8 53.5999 167.8L54.0999 148.9C54.0999 148.9 53.8999 148.6 52.5999 148.9C51.1999 149.2 41.7999 151 41.7999 151C41.7999 151 41.6999 150.8 41.5999 150.1C41.4999 149.4 41.6999 149 39.9999 149.4C38.3999 149.6 32.3999 150.7 32.3999 151.2Z" fill="url(#paint0_linear)" stroke="#1A1718" stroke-width="0.25" stroke-miterlimit="10"/>
<path d="M33.7 172.8C33.7 172.8 34.5 164 35.9 160.8C37.3 157.6 37.1 158.4 39.4 157.9C41.7 157.4 57.7 153.7 57.9 153.9C58.1 154.1 56.7 157.8 56.4 159.1C56.2 160.4 55.2 164 55.2 165.2C55.1 166.4 55.3 167.9 53.4 168.3C51.6 168.8 35.4 172.6 33.7 172.8Z" fill="#D3DBE2" stroke="#1A1718" stroke-width="0.25" stroke-miterlimit="10"/>
<path d="M90 175.4L97.5 167.9L105 175.4L112.5 167.9L120 175.4H90Z" fill="#CEF4B5" stroke="#1A1718" stroke-width="0.25" stroke-miterlimit="10"/>
<path d="M17.2001 137.8V137C17.2001 136.9 17.2001 136.8 17.3001 136.7C17.3001 136.6 17.4001 136.6 17.5001 136.6C17.6001 136.6 17.7001 136.7 17.8001 136.8C17.8001 136.9 17.9001 137 17.9001 137C18.0001 137.2 18.2001 137.3 18.4001 137.4C18.6001 137.5 18.9001 137.5 19.2001 137.5C19.5001 137.5 19.8001 137.4 19.9001 137.3C20.0001 137.2 20.2001 137 20.2001 136.8C20.2001 136.6 20.1001 136.4 20.0001 136.4C19.8001 136.3 19.6001 136.3 19.2001 136.3H19.0001C18.4001 136.3 17.9001 136.2 17.6001 136C17.3001 135.8 17.1001 135.5 17.1001 135.1C17.1001 134.7 17.3001 134.4 17.6001 134.2C17.9001 134 18.3001 133.9 18.9001 133.9C19.1001 133.9 19.4001 133.9 19.6001 134C19.8001 134.1 20.0001 134.1 20.0001 134.1C20.0001 134.1 20.1001 134.1 20.2001 134C20.3001 133.9 20.4001 133.9 20.5001 133.9C20.6001 133.9 20.7001 133.9 20.7001 134C20.7001 134.1 20.8001 134.2 20.8001 134.3V134.8C20.8001 135 20.8001 135.1 20.7001 135.1C20.7001 135.2 20.6001 135.2 20.5001 135.2C20.4001 135.2 20.3001 135.1 20.2001 135C20.1001 134.9 20.0001 134.8 20.0001 134.8C19.8001 134.7 19.7001 134.6 19.5001 134.5C19.3001 134.4 19.1001 134.4 18.9001 134.4C18.6001 134.4 18.4001 134.5 18.2001 134.6C18.0001 134.7 17.9001 134.9 17.9001 135.1C17.9001 135.3 18.0001 135.4 18.2001 135.5C18.4001 135.6 18.7001 135.6 19.3001 135.6C19.9001 135.6 20.4001 135.7 20.6001 135.9C20.9001 136.1 21.0001 136.4 21.0001 136.8C21.0001 137.2 20.8001 137.5 20.5001 137.7C20.2001 137.9 19.8001 138.1 19.2001 138.1C19.0001 138.1 18.8001 138.1 18.6001 138.1C18.4001 138.1 18.1001 138 17.8001 137.9C17.7001 138 17.6001 138 17.5001 138.1C17.4001 138.1 17.4001 138.1 17.3001 138.1C17.2001 138.1 17.1001 138.1 17.1001 138C17.1001 137.9 17.2001 137.9 17.2001 137.8Z" fill="#EF6788"/>
<path d="M25.8 134.3C25.9 134.3 26.0001 134.3 26.1 134.4C26.2 134.4 26.2001 134.5 26.2001 134.6C26.2001 134.7 26.2 134.8 26.1 134.8C26.0001 134.9 25.9 134.9 25.8 134.9H24V136.4C24 136.9 24.1001 137.2 24.2001 137.3C24.3001 137.5 24.5 137.5 24.8 137.5C25.1 137.5 25.4 137.4 25.8 137.3C26.2 137.1 26.4 137.1 26.5 137.1C26.6 137.1 26.7001 137.1 26.7001 137.2C26.8001 137.3 26.8 137.3 26.8 137.4C26.8 137.5 26.8001 137.6 26.7001 137.7C26.6001 137.8 26.5 137.8 26.3 137.9C26 138 25.8 138.1 25.5 138.2C25.2 138.3 25.1 138.3 24.9 138.3C24.6 138.3 24.3 138.2 24 138.1C23.8 138 23.6 137.8 23.5 137.6C23.4 137.5 23.4 137.4 23.4 137.2C23.4 137.1 23.4 136.8 23.4 136.5V136.4V134.9H22.7001C22.6001 134.9 22.5 134.9 22.4 134.8C22.3 134.8 22.3 134.7 22.3 134.6C22.3 134.5 22.3 134.4 22.4 134.4C22.5 134.4 22.6 134.3 22.9 134.3H23.4V133.4V133.2C23.4 133.1 23.4 133 23.5 132.9C23.6 132.8 23.6 132.8 23.8 132.8C23.9 132.8 24 132.8 24.1 132.9C24.2 133 24.2001 133.1 24.2001 133.4V134.3H25.8Z" fill="#EF6788"/>
<path d="M31 137.5C30.8 137.7 30.5001 137.9 30.2001 138C29.9001 138.1 29.6 138.2 29.3 138.2C28.9 138.2 28.5001 138.1 28.2001 137.8C27.9001 137.6 27.8 137.2 27.8 136.9C27.8 136.4 28 136.1 28.3 135.8C28.7 135.5 29.2 135.4 29.8 135.4C30 135.4 30.1 135.4 30.3 135.4C30.5 135.4 30.6 135.5 30.8 135.5C30.8 135.2 30.7 134.9 30.6 134.8C30.4 134.6 30.2 134.6 29.8 134.6C29.6 134.6 29.3 134.7 29 134.8C28.7 134.9 28.5 135 28.4 135C28.3 135 28.2001 135 28.2001 134.9C28.1001 134.8 28.1 134.7 28.1 134.6C28.1 134.4 28.3 134.3 28.6 134.2C28.9 134.1 29.3 134 29.8 134C30.3 134 30.7 134.1 31 134.4C31.3 134.7 31.4 135 31.4 135.6V137.6H31.6C31.8 137.6 31.9 137.6 32 137.7C32.1 137.8 32.1 137.8 32.1 137.9C32.1 138 32.1 138.1 32 138.1C31.9 138.1 31.9001 138.2 31.7001 138.2H31C30.9 138.2 30.9 138.2 30.8 138.1C30.7 138 30.7001 138 30.7001 137.9L31 137.5ZM30.9 136.1C30.7 136 30.6 136 30.4 136C30.2 136 30.1 136 29.9 136C29.4 136 29.1 136.1 28.8 136.2C28.5 136.3 28.4 136.6 28.4 136.8C28.4 137 28.5 137.2 28.6 137.3C28.8001 137.4 29.0001 137.5 29.2001 137.5C29.6001 137.5 29.9001 137.4 30.2001 137.2C30.5001 137 30.7001 136.8 30.7001 136.6V136.1H30.9Z" fill="#EF6788"/>
<path d="M34.9001 137.5H36.4001C36.5001 137.5 36.6001 137.5 36.7001 137.6C36.8001 137.6 36.8001 137.7 36.8001 137.8C36.8001 137.9 36.8001 138 36.7001 138C36.6001 138 36.6001 138.1 36.4001 138.1H33.5001C33.4001 138.1 33.3001 138.1 33.2001 138C33.1001 137.9 33.1001 137.9 33.1001 137.8C33.1001 137.7 33.1001 137.6 33.2001 137.6C33.3001 137.6 33.4001 137.5 33.5001 137.5H34.3001V134.7H34.0001C33.7001 134.7 33.5001 134.7 33.5001 134.6C33.5001 134.5 33.4001 134.5 33.4001 134.4C33.4001 134.3 33.4001 134.2 33.5001 134.2C33.6001 134.1 33.6001 134.1 33.8001 134.1H34.8001C34.9001 134.1 34.9001 134.1 35.0001 134.1L35.1001 134.2V134.9C35.4001 134.6 35.7001 134.3 36.0001 134.1C36.3001 133.9 36.6001 133.8 37.0001 133.8C37.3001 133.8 37.5001 133.9 37.6001 134C37.8001 134.1 37.8001 134.2 37.8001 134.4C37.8001 134.5 37.8001 134.6 37.7001 134.7C37.6001 134.8 37.5001 134.8 37.4001 134.8C37.3001 134.8 37.2001 134.8 37.1001 134.7C36.9001 134.6 36.8001 134.6 36.7001 134.6C36.5001 134.6 36.2001 134.7 36.0001 134.8C35.7001 135 35.5001 135.2 35.2001 135.6V137.5H34.9001Z" fill="#EF6788"/>
<path d="M42 134.3C42.1 134.3 42.2 134.3 42.3 134.4C42.4 134.4 42.4 134.5 42.4 134.6C42.4 134.7 42.4 134.8 42.3 134.8C42.2 134.9 42.1 134.9 42 134.9H40.2V136.4C40.2 136.9 40.3 137.2 40.4 137.3C40.5 137.4 40.7 137.5 41 137.5C41.3 137.5 41.6 137.4 42 137.3C42.4 137.2 42.6 137.1 42.7 137.1C42.8 137.1 42.9 137.1 42.9 137.2C43 137.3 43 137.3 43 137.4C43 137.5 43 137.6 42.9 137.7C42.8 137.8 42.7 137.8 42.5 137.9C42.2 138 42 138.1 41.7 138.2C41.5 138.3 41.3 138.3 41.1 138.3C40.8 138.3 40.5 138.2 40.2 138.1C40 138 39.8 137.8 39.7 137.6C39.6 137.5 39.6 137.4 39.6 137.2C39.6 137 39.6 136.8 39.6 136.5V136.4V134.9H38.9C38.8 134.9 38.7 134.9 38.6 134.8C38.5 134.8 38.5 134.7 38.5 134.6C38.5 134.5 38.5 134.4 38.6 134.4C38.7 134.4 38.8 134.3 39.1 134.3H39.6V133.4V133.2C39.6 133.1 39.6 133 39.7 132.9C39.8 132.8 39.8 132.8 40 132.8C40.1 132.8 40.2 132.8 40.3 132.9C40.4 133 40.4 133.1 40.4 133.4V134.3H42Z" fill="#EF6788"/>
<path d="M45.1001 136.5C45.1001 136.9 45.2001 137.1 45.3001 137.3C45.5001 137.5 45.7001 137.6 46.0001 137.6C46.3001 137.6 46.6001 137.5 46.8001 137.3C47.0001 137.1 47.1001 136.8 47.1001 136.5V134.7H46.5001C46.4001 134.7 46.3001 134.7 46.3001 134.6C46.2001 134.6 46.2001 134.5 46.2001 134.4C46.2001 134.3 46.2001 134.2 46.3001 134.2C46.4001 134.1 46.4001 134.1 46.6001 134.1H47.5001C47.6001 134.1 47.7001 134.1 47.7001 134.2C47.7001 134.2 47.8001 134.4 47.8001 134.6V137.6H48.0001C48.1001 137.6 48.2001 137.6 48.3001 137.7C48.4001 137.8 48.4001 137.8 48.4001 137.9C48.4001 138 48.4001 138.1 48.3001 138.1C48.2001 138.2 48.2001 138.2 48.0001 138.2H47.3001C47.2001 138.2 47.2001 138.2 47.1001 138.2C47.0001 138.2 47.0001 138.1 47.0001 138.1V137.8C46.7001 138 46.5001 138.2 46.3001 138.2C46.1001 138.2 45.9001 138.3 45.7001 138.3C45.2001 138.3 44.9001 138.2 44.6001 137.9C44.4001 137.6 44.2001 137.3 44.2001 136.7V134.7H44.1001C43.9001 134.7 43.8001 134.7 43.7001 134.6C43.6001 134.6 43.6001 134.5 43.6001 134.4C43.6001 134.3 43.6001 134.2 43.7001 134.2C43.8001 134.1 43.8001 134.1 44.0001 134.1H44.7001C44.8001 134.1 44.9001 134.1 44.9001 134.2C44.9001 134.2 45.0001 134.3 45.0001 134.5V136.5H45.1001Z" fill="#EF6788"/>
<path d="M50.4001 139.2H51.5001C51.6001 139.2 51.7001 139.2 51.7001 139.3C51.8001 139.4 51.8001 139.4 51.8001 139.5C51.8001 139.6 51.8001 139.7 51.7001 139.7C51.6001 139.7 51.5001 139.8 51.4001 139.8H49.5001C49.4001 139.8 49.3001 139.8 49.2001 139.7C49.1001 139.6 49.1001 139.6 49.1001 139.5C49.1001 139.4 49.1001 139.3 49.2001 139.3C49.3001 139.3 49.4001 139.2 49.6001 139.2H49.7001V134.6H49.6001C49.4001 134.6 49.3001 134.6 49.2001 134.5C49.1001 134.5 49.1001 134.4 49.1001 134.3C49.1001 134.2 49.1001 134.1 49.2001 134.1C49.3001 134 49.3001 134 49.5001 134H50.2001C50.3001 134 50.4001 134 50.4001 134L50.5001 134.1V134.5C50.7001 134.3 50.9001 134.1 51.2001 134C51.4001 133.9 51.7001 133.8 52.0001 133.8C52.6001 133.8 53.1001 134 53.5001 134.4C53.9001 134.8 54.1001 135.3 54.1001 135.9C54.1001 136.5 53.9001 137 53.5001 137.3C53.1001 137.6 52.6001 137.9 52.1001 137.9C51.8001 137.9 51.5001 137.8 51.2001 137.7C50.9001 137.6 50.7001 137.4 50.5001 137.2V139.2H50.4001ZM51.8001 137.4C52.2001 137.4 52.5001 137.3 52.8001 137C53.1001 136.7 53.2001 136.4 53.2001 136C53.2001 135.6 53.1001 135.3 52.8001 135C52.5001 134.7 52.2001 134.6 51.8001 134.6C51.4001 134.6 51.1001 134.7 50.8001 135C50.5001 135.3 50.4001 135.6 50.4001 136C50.4001 136.4 50.5001 136.7 50.8001 137C51.0001 137.3 51.4001 137.4 51.8001 137.4Z" fill="#EF6788"/>
<path d="M57.4001 137.8V137C57.4001 136.9 57.4 136.8 57.5 136.7C57.5 136.6 57.6001 136.6 57.7001 136.6C57.8001 136.6 57.9 136.7 58 136.8C58 136.9 58.1 137 58.1 137C58.2 137.2 58.4 137.3 58.6 137.4C58.8 137.5 59.1001 137.5 59.4001 137.5C59.7001 137.5 60 137.4 60.1 137.3C60.2 137.2 60.4001 137 60.4001 136.8C60.4001 136.6 60.3001 136.4 60.2001 136.4C60.0001 136.3 59.8001 136.3 59.4001 136.3H59.2001C58.6001 136.3 58.1 136.2 57.8 136C57.5 135.8 57.3 135.5 57.3 135.1C57.3 134.7 57.5 134.4 57.8 134.2C58.1 134 58.5 133.9 59.1 133.9C59.3 133.9 59.6 133.9 59.8 134C60 134.1 60.2001 134.1 60.2001 134.1C60.2001 134.1 60.3001 134.1 60.4001 134C60.5001 133.9 60.6001 133.9 60.7001 133.9C60.8001 133.9 60.9001 133.9 60.9001 134C60.9001 134.1 61 134.2 61 134.3V134.8C61 135 61.0001 135.1 60.9001 135.1C60.9001 135.2 60.8001 135.2 60.7001 135.2C60.6001 135.2 60.5001 135.1 60.4001 135C60.3001 134.9 60.2001 134.8 60.2001 134.8C60.0001 134.7 59.9001 134.6 59.7001 134.5C59.5001 134.4 59.3 134.4 59.1 134.4C58.8 134.4 58.6001 134.5 58.4001 134.6C58.2001 134.7 58.1 134.9 58.1 135.1C58.1 135.3 58.2001 135.4 58.4001 135.5C58.6001 135.6 58.9 135.6 59.5 135.6C60.1 135.6 60.6 135.7 60.8 135.9C61.1 136.1 61.2001 136.4 61.2001 136.8C61.2001 137.2 61.0001 137.5 60.7001 137.7C60.4001 137.9 60.0001 138.1 59.4001 138.1C59.2001 138.1 59 138.1 58.8 138.1C58.6 138.1 58.3 138 58 137.9C57.9 138 57.8001 138 57.7001 138.1C57.6001 138.1 57.6 138.1 57.5 138.1C57.4 138.1 57.3 138.1 57.3 138C57.3 137.9 57.4001 137.9 57.4001 137.8Z" fill="#EF6788"/>
<path d="M66 134.3C66.1 134.3 66.2 134.3 66.3 134.4C66.4 134.4 66.4 134.5 66.4 134.6C66.4 134.7 66.4 134.8 66.3 134.8C66.2 134.9 66.1 134.9 66 134.9H64.2V136.4C64.2 136.9 64.3 137.2 64.4 137.3C64.5 137.5 64.7 137.5 65 137.5C65.3 137.5 65.6 137.4 66 137.3C66.4 137.1 66.6 137.1 66.7 137.1C66.8 137.1 66.9 137.1 66.9 137.2C67 137.3 67 137.3 67 137.4C67 137.5 67 137.6 66.9 137.7C66.8 137.8 66.7 137.8 66.5 137.9C66.2 138 66 138.1 65.7 138.2C65.4 138.3 65.3 138.3 65.1 138.3C64.8 138.3 64.5 138.2 64.2 138.1C64 138 63.8 137.8 63.7 137.6C63.6 137.5 63.6 137.4 63.6 137.2C63.6 137.1 63.6 136.8 63.6 136.5V136.4V134.9H62.9C62.8 134.9 62.7 134.9 62.6 134.8C62.5 134.8 62.5 134.7 62.5 134.6C62.5 134.5 62.5 134.4 62.6 134.4C62.7 134.4 62.8 134.3 63.1 134.3H63.6V133.4V133.2C63.6 133.1 63.6 133 63.7 132.9C63.8 132.8 63.8 132.8 64 132.8C64.1 132.8 64.2 132.8 64.3 132.9C64.4 133 64.4 133.1 64.4 133.4V134.3H66Z" fill="#EF6788"/>
<path d="M72.5001 136.1C72.5001 136.7 72.3001 137.2 71.9001 137.6C71.5001 138 70.9001 138.2 70.2001 138.2C69.5001 138.2 69.0001 138 68.5001 137.6C68.0001 137.2 67.9001 136.7 67.9001 136.1C67.9001 135.5 68.1001 135 68.5001 134.6C68.9001 134.2 69.5001 134 70.2001 134C70.9001 134 71.4001 134.2 71.9001 134.6C72.4001 135 72.5001 135.4 72.5001 136.1ZM70.2001 137.6C70.7001 137.6 71.0001 137.5 71.3001 137.2C71.6001 136.9 71.7001 136.6 71.7001 136.1C71.7001 135.6 71.6001 135.3 71.3001 135C71.0001 134.7 70.6001 134.6 70.2001 134.6C69.8001 134.6 69.4001 134.7 69.1001 135C68.8001 135.3 68.7001 135.7 68.7001 136.1C68.7001 136.5 68.8001 136.9 69.1001 137.2C69.3001 137.4 69.7001 137.6 70.2001 137.6Z" fill="#EF6788"/>
<path d="M75.1 137.5H76.6C76.7 137.5 76.8 137.5 76.9 137.6C77 137.6 77 137.7 77 137.8C77 137.9 77 138 76.9 138C76.8 138 76.8 138.1 76.6 138.1H73.7C73.6 138.1 73.5 138.1 73.4 138C73.3 137.9 73.3 137.9 73.3 137.8C73.3 137.7 73.3 137.6 73.4 137.6C73.5 137.6 73.6 137.5 73.7 137.5H74.5V134.7H74.2C73.9 134.7 73.7 134.7 73.7 134.6C73.7 134.5 73.6 134.5 73.6 134.4C73.6 134.3 73.6 134.2 73.7 134.2C73.8 134.1 73.8 134.1 74 134.1H75C75.1 134.1 75.1 134.1 75.2 134.1L75.3 134.2V134.9C75.6 134.6 75.9 134.3 76.2 134.1C76.5 133.9 76.8 133.8 77.2 133.8C77.5 133.8 77.7 133.9 77.8 134C78 134.1 78 134.2 78 134.4C78 134.5 78 134.6 77.9 134.7C77.8 134.8 77.7 134.8 77.6 134.8C77.5 134.8 77.4 134.8 77.3 134.7C77.1 134.6 77 134.6 76.9 134.6C76.7 134.6 76.4 134.7 76.2 134.8C75.9 135 75.7 135.2 75.4 135.6V137.5H75.1Z" fill="#EF6788"/>
<path d="M80.6 139.2H80.8C81 139.2 81.2 139.2 81.2 139.3C81.3 139.3 81.3 139.4 81.3 139.5C81.3 139.6 81.3 139.7 81.2 139.7C81.1 139.7 81.1 139.8 80.9 139.8H78.9C78.8 139.8 78.7 139.8 78.6 139.7C78.5 139.6 78.5 139.6 78.5 139.5C78.5 139.4 78.5 139.3 78.6 139.3C78.7 139.2 78.7 139.2 78.9 139.2H79.9L80.6 137.8L79 134.6C78.8 134.6 78.7 134.6 78.6 134.5C78.5 134.5 78.5 134.4 78.5 134.3C78.5 134.2 78.5 134.1 78.6 134.1C78.7 134.1 78.7 134 78.9 134H80.1C80.3 134 80.4 134 80.4 134.1C80.5 134.1 80.5 134.2 80.5 134.3C80.5 134.4 80.5 134.5 80.4 134.5C80.3 134.5 80.2 134.6 80 134.6H79.8L81 137L82.2 134.6H82C81.8 134.6 81.7 134.6 81.6 134.5C81.5 134.5 81.5 134.4 81.5 134.3C81.5 134.2 81.5 134.1 81.6 134.1C81.7 134.1 81.8 134 81.9 134H83C83.1 134 83.2 134 83.3 134.1C83.4 134.2 83.4 134.2 83.4 134.3C83.4 134.4 83.4 134.5 83.3 134.5C83.2 134.5 83.1 134.6 83 134.6L80.6 139.2Z" fill="#EF6788"/>
<path d="M84.5 137.4C84.5 137.2 84.6 137 84.7 136.8C84.9 136.7 85.1 136.6 85.3 136.6C85.6 136.6 85.8 136.7 85.9 136.8C86 136.9 86.1 137.1 86.1 137.4C86.1 137.7 86 137.8 85.9 138C85.7 138.1 85.5 138.2 85.3 138.2C85.1 138.2 84.8 138.1 84.7 138C84.6 137.9 84.5 137.6 84.5 137.4Z" fill="#EF6788"/>
<path d="M7.3 127.5C7.4 127.5 7.5 127.5 7.6 127.6C7.7 127.7 7.7 127.7 7.7 127.8C7.7 127.9 7.7 128 7.6 128C7.5 128.1 7.5 128.1 7.3 128.1H4.4C4.3 128.1 4.2 128.1 4.1 128C4 127.9 4 127.9 4 127.8C4 127.7 4 127.6 4.1 127.6C4.2 127.6 4.2 127.5 4.4 127.5H5.1V124.8H4.4C4.3 124.8 4.2 124.8 4.1 124.7C4 124.6 4 124.6 4 124.5C4 124.4 4 124.3 4.1 124.3C4.2 124.3 4.3 124.2 4.4 124.2H5.1V123.9C5.1 123.4 5.3 123 5.6 122.7C5.9 122.5 6.4 122.3 7.1 122.3C7.4 122.3 7.7 122.3 7.8 122.4C8 122.5 8 122.6 8 122.7C8 122.8 8 122.9 7.9 122.9C7.8 122.9 7.7 123 7.6 123C7.5 123 7.4 123 7.2 122.9C7 122.8 6.9 123 6.7 123C6.4 123 6.1 123.1 6 123.2C5.9 123.3 5.8 123.6 5.8 123.9V124.1H7.4C7.5 124.1 7.6 124.1 7.7 124.2C7.8 124.3 7.8 124.3 7.8 124.4C7.8 124.5 7.8 124.6 7.7 124.6C7.6 124.7 7.5 124.7 7.4 124.7H5.9V127.4H7.3V127.5Z" fill="#EF6788"/>
<path d="M13.7 126.1C13.7 126.7 13.5 127.2 13.1 127.6C12.7 128 12.1 128.2 11.4 128.2C10.7 128.2 10.2 128 9.7 127.6C9.2 127.2 9 126.7 9 126.1C9 125.5 9.2 125 9.6 124.6C10 124.2 10.6 124 11.3 124C12 124 12.5 124.2 13 124.6C13.5 125 13.7 125.4 13.7 126.1ZM11.3 127.6C11.8 127.6 12.1 127.5 12.4 127.2C12.7 126.9 12.8 126.6 12.8 126.1C12.8 125.6 12.7 125.3 12.4 125C12.1 124.7 11.7 124.6 11.3 124.6C10.9 124.6 10.5 124.7 10.2 125C9.9 125.3 9.8 125.7 9.8 126.1C9.8 126.5 9.9 126.9 10.2 127.2C10.5 127.4 10.9 127.6 11.3 127.6Z" fill="#EF6788"/>
<path d="M16.3 127.5H17.8C17.9 127.5 18 127.5 18.1 127.6C18.2 127.6 18.2 127.7 18.2 127.8C18.2 127.9 18.2 128 18.1 128C18 128 18 128.1 17.8 128.1H14.9C14.8 128.1 14.7 128.1 14.6 128C14.5 127.9 14.5 127.9 14.5 127.8C14.5 127.7 14.5 127.6 14.6 127.6C14.7 127.6 14.8 127.5 14.9 127.5H15.7V124.7H15.4C15.1 124.7 14.9 124.7 14.9 124.6C14.9 124.5 14.8 124.5 14.8 124.4C14.8 124.3 14.8 124.2 14.9 124.2C15 124.1 15 124.1 15.2 124.1H16.2C16.3 124.1 16.3 124.1 16.4 124.1L16.5 124.2V124.9C16.8 124.6 17.1 124.3 17.4 124.1C17.7 123.9 18 123.8 18.4 123.8C18.7 123.8 18.9 123.9 19 124C19.2 124.1 19.2 124.2 19.2 124.4C19.2 124.5 19.2 124.6 19.1 124.7C19 124.8 18.9 124.8 18.8 124.8C18.7 124.8 18.6 124.8 18.5 124.7C18.3 124.6 18.2 124.6 18.1 124.6C17.9 124.6 17.6 124.7 17.4 124.8C17.1 125 16.9 125.2 16.6 125.6V127.5H16.3Z" fill="#EF6788"/>
<path d="M24.2001 129.2H24.4001C24.6001 129.2 24.8001 129.2 24.8001 129.3C24.9001 129.3 24.9001 129.4 24.9001 129.5C24.9001 129.6 24.9001 129.7 24.8001 129.7C24.7001 129.7 24.7001 129.8 24.5001 129.8H22.5001C22.4001 129.8 22.3001 129.8 22.2001 129.7C22.1001 129.6 22.1001 129.6 22.1001 129.5C22.1001 129.4 22.1001 129.3 22.2001 129.3C22.3001 129.2 22.3001 129.2 22.5001 129.2H23.5001L24.2001 127.8L22.6001 124.6C22.4001 124.6 22.3001 124.6 22.2001 124.5C22.1001 124.5 22.1001 124.4 22.1001 124.3C22.1001 124.2 22.1001 124.1 22.2001 124.1C22.3001 124.1 22.3001 124 22.5001 124H23.7001C23.9001 124 24.0001 124 24.0001 124.1C24.0001 124.2 24.1001 124.2 24.1001 124.3C24.1001 124.4 24.1001 124.5 24.0001 124.5C23.9001 124.5 23.8001 124.6 23.6001 124.6H23.4001L24.6001 127L25.8001 124.6H25.6001C25.4001 124.6 25.3001 124.6 25.2001 124.5C25.1001 124.5 25.1001 124.4 25.1001 124.3C25.1001 124.2 25.1001 124.1 25.2001 124.1C25.3001 124.1 25.4001 124 25.5001 124H26.6001C26.7001 124 26.8001 124 26.9001 124.1C27.0001 124.2 27.0001 124.2 27.0001 124.3C27.0001 124.4 27.0001 124.5 26.9001 124.5C26.8001 124.5 26.7001 124.6 26.6001 124.6L24.2001 129.2Z" fill="#EF6788"/>
<path d="M32.3002 126.1C32.3002 126.7 32.1002 127.2 31.7002 127.6C31.3002 128 30.7002 128.2 30.0002 128.2C29.3002 128.2 28.8002 128 28.3002 127.6C27.8002 127.2 27.7002 126.7 27.7002 126.1C27.7002 125.5 27.9002 125 28.3002 124.6C28.7002 124.2 29.3002 124 30.0002 124C30.7002 124 31.2002 124.2 31.7002 124.6C32.2002 125 32.3002 125.4 32.3002 126.1ZM29.9002 127.6C30.4002 127.6 30.7002 127.5 31.0002 127.2C31.3002 126.9 31.4002 126.6 31.4002 126.1C31.4002 125.6 31.3002 125.3 31.0002 125C30.7002 124.7 30.3002 124.6 29.9002 124.6C29.5002 124.6 29.1002 124.7 28.8002 125C28.5002 125.3 28.4002 125.7 28.4002 126.1C28.4002 126.5 28.5002 126.9 28.8002 127.2C29.1002 127.4 29.5002 127.6 29.9002 127.6Z" fill="#EF6788"/>
<path d="M34.3 126.5C34.3 126.9 34.4 127.1 34.5 127.3C34.6 127.5 34.9001 127.6 35.2001 127.6C35.5001 127.6 35.8 127.5 36 127.3C36.2 127.1 36.3 126.8 36.3 126.5V124.7H35.7001C35.6001 124.7 35.5 124.7 35.5 124.6C35.4 124.6 35.4001 124.5 35.4001 124.4C35.4001 124.3 35.4 124.2 35.5 124.2C35.6 124.1 35.6 124.1 35.8 124.1H36.7001C36.8001 124.1 36.9001 124.1 36.9001 124.2C36.9001 124.2 37 124.4 37 124.6V127.6H37.2001C37.3001 127.6 37.4 127.6 37.5 127.7C37.6 127.7 37.6 127.8 37.6 127.9C37.6 128 37.6 128.1 37.5 128.1C37.4 128.2 37.4001 128.2 37.2001 128.2H36.5C36.4 128.2 36.4 128.2 36.3 128.2C36.2 128.2 36.2001 128.1 36.2001 128.1V127.8C35.9001 128 35.7 128.2 35.5 128.2C35.3 128.3 35.1001 128.3 34.9001 128.3C34.4001 128.3 34.1 128.2 33.8 127.9C33.6 127.6 33.4001 127.3 33.4001 126.7V124.7H33.3C33.1 124.7 33.0001 124.7 32.9001 124.6C32.8001 124.6 32.8 124.5 32.8 124.4C32.8 124.3 32.8001 124.2 32.9001 124.2C33.0001 124.1 33.0001 124.1 33.2001 124.1H34C34.1 124.1 34.2001 124.1 34.2001 124.2C34.2001 124.2 34.3 124.3 34.3 124.5V126.5Z" fill="#EF6788"/>
<path d="M40.3 127.5H41.8C41.9 127.5 42 127.5 42.1 127.6C42.2 127.6 42.2 127.7 42.2 127.8C42.2 127.9 42.2 128 42.1 128C42 128 42 128.1 41.8 128.1H38.9C38.8 128.1 38.7 128.1 38.6 128C38.5 127.9 38.5 127.9 38.5 127.8C38.5 127.7 38.5 127.6 38.6 127.6C38.7 127.6 38.8 127.5 38.9 127.5H39.7V124.7H39.4C39.1 124.7 38.9 124.7 38.9 124.6C38.9 124.5 38.8 124.5 38.8 124.4C38.8 124.3 38.8 124.2 38.9 124.2C39 124.1 39 124.1 39.2 124.1H40.2C40.3 124.1 40.3 124.1 40.4 124.1L40.5 124.2V124.9C40.8 124.6 41.1 124.3 41.4 124.1C41.7 123.9 42 123.8 42.4 123.8C42.7 123.8 42.9 123.9 43 124C43.2 124.1 43.2 124.2 43.2 124.4C43.2 124.5 43.2 124.6 43.1 124.7C43 124.8 42.9 124.8 42.8 124.8C42.7 124.8 42.6 124.8 42.5 124.7C42.3 124.6 42.2 124.6 42.1 124.6C41.9 124.6 41.6 124.7 41.4 124.8C41.1 125 40.9 125.2 40.6 125.6V127.5H40.3Z" fill="#EF6788"/>
<path d="M46.6 127.8V127C46.6 126.9 46.6 126.8 46.7 126.7C46.7 126.6 46.8 126.6 46.9 126.6C47 126.6 47.1 126.7 47.2 126.8C47.2 126.9 47.3 127 47.3 127C47.4 127.2 47.6 127.3 47.8 127.4C48 127.5 48.3 127.5 48.6 127.5C48.9 127.5 49.2 127.4 49.3 127.3C49.4 127.2 49.6 127 49.6 126.8C49.6 126.6 49.5 126.4 49.4 126.4C49.2 126.3 49 126.3 48.6 126.3H48.4C47.8 126.3 47.3 126.2 47 126C46.7 125.8 46.5 125.5 46.5 125.1C46.5 124.7 46.7 124.4 47 124.2C47.3 124 47.7 123.9 48.3 123.9C48.5 123.9 48.8 123.9 49 124C49.2 124.1 49.4 124.1 49.4 124.1C49.4 124.1 49.5 124.1 49.6 124C49.7 123.9 49.8 123.9 49.9 123.9C50 123.9 50.1 123.9 50.1 124C50.1 124.1 50.2 124.2 50.2 124.3V124.8C50.2 125 50.2 125.1 50.1 125.1C50.1 125.2 50 125.2 49.9 125.2C49.8 125.2 49.7 125.1 49.6 125C49.5 124.9 49.4 124.8 49.4 124.8C49.2 124.7 49.1 124.6 48.9 124.5C48.7 124.4 48.5 124.4 48.3 124.4C48 124.4 47.8 124.5 47.6 124.6C47.4 124.7 47.3 124.9 47.3 125.1C47.3 125.3 47.4 125.4 47.6 125.5C47.8 125.6 48.1 125.6 48.7 125.6C49.3 125.6 49.8 125.7 50 125.9C50.3 126.1 50.4 126.4 50.4 126.8C50.4 127.2 50.2 127.5 49.9 127.7C49.6 127.9 49.2 128.1 48.6 128.1C48.4 128.1 48.2 128.1 48 128.1C47.8 128.1 47.5 128 47.2 127.9C47.1 128 47 128 46.9 128.1C46.8 128.1 46.8 128.1 46.7 128.1C46.6 128.1 46.5 128.1 46.5 128C46.5 127.9 46.6 127.9 46.6 127.8Z" fill="#EF6788"/>
<path d="M55.2001 124.3C55.3001 124.3 55.4001 124.3 55.5001 124.4C55.6001 124.4 55.6001 124.5 55.6001 124.6C55.6001 124.7 55.6001 124.8 55.5001 124.8C55.4001 124.9 55.3001 124.9 55.2001 124.9H53.4001V126.4C53.4001 126.9 53.5001 127.2 53.6001 127.3C53.7001 127.4 53.9001 127.5 54.2001 127.5C54.5001 127.5 54.8001 127.4 55.2001 127.3C55.6001 127.2 55.8001 127.1 55.9001 127.1C56.0001 127.1 56.1001 127.1 56.1001 127.2C56.2001 127.3 56.2001 127.3 56.2001 127.4C56.2001 127.5 56.2001 127.6 56.1001 127.7C56.0001 127.8 55.9001 127.8 55.7001 127.9C55.4001 128 55.2001 128.1 54.9001 128.2C54.7001 128.3 54.5001 128.3 54.3001 128.3C54.0001 128.3 53.7001 128.2 53.4001 128.1C53.2001 128 53.0001 127.8 52.9001 127.6C52.8001 127.5 52.8001 127.4 52.8001 127.2C52.8001 127 52.8001 126.8 52.8001 126.5V126.4V124.9H52.0001C51.9001 124.9 51.8001 124.9 51.7001 124.8C51.6001 124.8 51.6001 124.7 51.6001 124.6C51.6001 124.5 51.6001 124.4 51.7001 124.4C51.8001 124.4 51.9001 124.3 52.2001 124.3H52.7001V123.4V123.2C52.7001 123.1 52.7001 123 52.8001 122.9C52.9001 122.8 52.9001 122.8 53.1001 122.8C53.2001 122.8 53.3001 122.8 53.4001 122.9C53.5001 123 53.5001 123.1 53.5001 123.4V124.3H55.2001Z" fill="#EF6788"/>
<path d="M60.4 127.5C60.2 127.7 59.8999 127.9 59.5999 128C59.2999 128.1 59 128.2 58.7 128.2C58.3 128.2 57.8999 128.1 57.5999 127.8C57.2999 127.6 57.2 127.2 57.2 126.9C57.2 126.4 57.4 126.1 57.7 125.8C58.1 125.5 58.6 125.4 59.2 125.4C59.4 125.4 59.5 125.4 59.7 125.4C59.9 125.4 60.1 125.5 60.2 125.5C60.2 125.2 60.1 124.9 60 124.8C59.9 124.7 59.6 124.6 59.2 124.6C59 124.6 58.7 124.7 58.4 124.8C58.1 124.9 57.8999 125 57.7999 125C57.6999 125 57.5999 125 57.5999 124.9C57.4999 124.8 57.5 124.7 57.5 124.6C57.5 124.4 57.7 124.3 58 124.2C58.3 124.1 58.7 124 59.2 124C59.7 124 60.1 124.1 60.4 124.4C60.7 124.7 60.7999 125 60.7999 125.6V127.6H61C61.2 127.6 61.3 127.6 61.4 127.7C61.5 127.8 61.5 127.8 61.5 127.9C61.5 128 61.5 128.1 61.4 128.1C61.3 128.2 61.2999 128.2 61.0999 128.2H60.4C60.3 128.2 60.3 128.2 60.2 128.1C60.1 128.1 60.0999 128 60.0999 127.9L60.4 127.5ZM60.2999 126.1C60.0999 126 59.9999 126 59.7999 126C59.5999 126 59.4999 126 59.2999 126C58.7999 126 58.5 126.1 58.2 126.2C57.9 126.3 57.7999 126.6 57.7999 126.8C57.7999 127 57.9 127.2 58 127.3C58.2 127.4 58.3999 127.5 58.5999 127.5C58.9999 127.5 59.2999 127.4 59.5999 127.2C59.8999 127 60.0999 126.8 60.0999 126.6V126.1H60.2999Z" fill="#EF6788"/>
<path d="M64.3 127.5H65.8C65.9 127.5 66 127.5 66.1 127.6C66.2 127.6 66.2 127.7 66.2 127.8C66.2 127.9 66.2 128 66.1 128C66 128 66 128.1 65.8 128.1H62.9C62.8 128.1 62.7 128.1 62.6 128C62.5 127.9 62.5 127.9 62.5 127.8C62.5 127.7 62.5 127.6 62.6 127.6C62.7 127.6 62.8 127.5 62.9 127.5H63.7V124.7H63.4C63.1 124.7 62.9 124.7 62.9 124.6C62.9 124.5 62.8 124.5 62.8 124.4C62.8 124.3 62.8 124.2 62.9 124.2C63 124.1 63 124.1 63.2 124.1H64.2C64.3 124.1 64.3 124.1 64.4 124.1L64.5 124.2V124.9C64.8 124.6 65.1 124.3 65.4 124.1C65.7 123.9 66 123.8 66.4 123.8C66.7 123.8 66.9 123.9 67 124C67.2 124.1 67.2 124.2 67.2 124.4C67.2 124.5 67.2 124.6 67.1 124.7C67 124.8 66.9 124.8 66.8 124.8C66.7 124.8 66.6 124.8 66.5 124.7C66.3 124.6 66.2 124.6 66.1 124.6C65.9 124.6 65.6 124.7 65.4 124.8C65.1 125 64.9 125.2 64.6 125.6V127.5H64.3Z" fill="#EF6788"/>
<path d="M71.3999 124.3C71.4999 124.3 71.5999 124.3 71.6999 124.4C71.7999 124.4 71.7999 124.5 71.7999 124.6C71.7999 124.7 71.7999 124.8 71.6999 124.8C71.5999 124.9 71.4999 124.9 71.3999 124.9H69.5999V126.4C69.5999 126.9 69.6999 127.2 69.7999 127.3C69.8999 127.4 70.0999 127.5 70.3999 127.5C70.6999 127.5 70.9999 127.4 71.3999 127.3C71.7999 127.2 71.9999 127.1 72.0999 127.1C72.1999 127.1 72.2999 127.1 72.2999 127.2C72.3999 127.3 72.3999 127.3 72.3999 127.4C72.3999 127.5 72.3999 127.6 72.2999 127.7C72.1999 127.8 72.0999 127.8 71.8999 127.9C71.5999 128 71.3999 128.1 71.0999 128.2C70.8999 128.3 70.6999 128.3 70.4999 128.3C70.1999 128.3 69.8999 128.2 69.5999 128.1C69.3999 128 69.1999 127.8 69.0999 127.6C68.9999 127.5 68.9999 127.4 68.9999 127.2C68.9999 127 68.9999 126.8 68.9999 126.5V126.4V124.9H68.2999C68.1999 124.9 68.0999 124.9 67.9999 124.8C67.8999 124.8 67.8999 124.7 67.8999 124.6C67.8999 124.5 67.8999 124.4 67.9999 124.4C68.0999 124.4 68.1999 124.3 68.4999 124.3H68.9999V123.4V123.2C68.9999 123.1 68.9999 123 69.0999 122.9C69.1999 122.8 69.1999 122.8 69.3999 122.8C69.4999 122.8 69.5999 122.8 69.6999 122.9C69.7999 123 69.7999 123.1 69.7999 123.4V124.3H71.3999Z" fill="#EF6788"/>
<path d="M74.5001 126.5C74.5001 126.9 74.6001 127.1 74.7001 127.3C74.8001 127.5 75.1001 127.6 75.4001 127.6C75.7001 127.6 76.0001 127.5 76.2001 127.3C76.4001 127.1 76.5001 126.8 76.5001 126.5V124.7H76.0001C75.9001 124.7 75.8001 124.7 75.8001 124.6C75.7001 124.6 75.7001 124.5 75.7001 124.4C75.7001 124.3 75.7001 124.2 75.8001 124.2C75.9001 124.1 75.9001 124.1 76.1001 124.1H77.0001C77.1001 124.1 77.2001 124.1 77.2001 124.2C77.2001 124.2 77.3001 124.4 77.3001 124.6V127.6H77.5001C77.6001 127.6 77.7001 127.6 77.8001 127.7C77.9001 127.7 77.9001 127.8 77.9001 127.9C77.9001 128 77.9001 128.1 77.8001 128.1C77.7001 128.2 77.7001 128.2 77.5001 128.2H76.8001C76.7001 128.2 76.7001 128.2 76.6001 128.2C76.5001 128.2 76.5001 128.1 76.5001 128.1V127.8C76.2001 128 76.0001 128.2 75.8001 128.2C75.6001 128.3 75.4001 128.3 75.2001 128.3C74.7001 128.3 74.4001 128.2 74.1001 127.9C73.9001 127.6 73.7001 127.3 73.7001 126.7V124.7H73.6001C73.4001 124.7 73.3001 124.7 73.2001 124.6C73.1001 124.6 73.1001 124.5 73.1001 124.4C73.1001 124.3 73.1001 124.2 73.2001 124.2C73.3001 124.1 73.3001 124.1 73.5001 124.1H74.2001C74.3001 124.1 74.4001 124.1 74.4001 124.2C74.4001 124.2 74.5001 124.3 74.5001 124.5V126.5Z" fill="#EF6788"/>
<path d="M79.8001 129.2H80.9001C81.0001 129.2 81.1001 129.2 81.2001 129.3C81.3001 129.4 81.3001 129.4 81.3001 129.5C81.3001 129.6 81.3001 129.7 81.2001 129.7C81.1001 129.7 81.0001 129.8 80.9001 129.8H79.0001C78.9001 129.8 78.8001 129.8 78.7001 129.7C78.6001 129.6 78.6001 129.6 78.6001 129.5C78.6001 129.4 78.6001 129.3 78.7001 129.3C78.8001 129.3 78.9001 129.2 79.1001 129.2H79.2001V124.6H79.1001C78.9001 124.6 78.8001 124.6 78.7001 124.5C78.6001 124.5 78.6001 124.4 78.6001 124.3C78.6001 124.2 78.6001 124.1 78.7001 124.1C78.8001 124 78.8001 124 79.0001 124H79.7001C79.8001 124 79.9001 124 79.9001 124L80.0001 124.1V124.5C80.2001 124.3 80.4001 124.1 80.7001 124C80.9001 123.9 81.2001 123.8 81.5001 123.8C82.1001 123.8 82.6001 124 83.0001 124.4C83.4001 124.8 83.6001 125.3 83.6001 125.9C83.6001 126.5 83.4001 127 83.0001 127.3C82.6001 127.6 82.1001 127.9 81.6001 127.9C81.3001 127.9 81.0001 127.8 80.7001 127.7C80.4001 127.6 80.2001 127.4 80.0001 127.2V129.2H79.8001ZM81.2001 127.4C81.6001 127.4 81.9001 127.3 82.2001 127C82.5001 126.7 82.6001 126.4 82.6001 126C82.6001 125.6 82.5001 125.3 82.2001 125C81.9001 124.7 81.6001 124.6 81.2001 124.6C80.8001 124.6 80.5001 124.7 80.2001 125C79.9001 125.3 79.8001 125.6 79.8001 126C79.8001 126.4 79.9001 126.7 80.2001 127C80.4001 127.3 80.8001 127.4 81.2001 127.4Z" fill="#EF6788"/>
<path d="M84.8 126.9C84.8 126.8 84.9 126.7 84.9 126.7C84.9 126.7 85 126.7 85.1 126.7H86.1H86.2C86.2 126.7 86.2 126.7 86.2 126.8C86.2 126.8 86.2 126.8 86.2 126.9C86.2 127 86.2 126.9 86.2 127L85 129.5C85 129.5 85 129.6 84.9 129.6C84.8 129.6 84.8 129.6 84.8 129.6C84.8 129.6 84.8 129.6 84.7 129.6L84.4 129.5C84.4 129.5 84.3 129.5 84.3 129.4C84.3 129.3 84.3 129.3 84.3 129.3V129.2L84.8 126.9Z" fill="#EF6788"/>
<path d="M68.5999 171.3L62.2 160.4L68.5999 149.4H81.1999L87.5 160.4L81.1999 171.3H68.5999Z" fill="#FFE4F2"/>
<path d="M81.1 149.5L87.4 160.3L81.1 171.1H68.6L62.3 160.3L68.6 149.5H81.1ZM81.3 149.3H81.2H68.6H68.5L68.4 149.4L62.1 160.2L62 160.3L62.1 160.4L68.4 171.2L68.5 171.3H68.6H81.1H81.2L81.3 171.2L87.6 160.4L87.7 160.3L87.6 160.2L81.3 149.4V149.3Z" fill="#1A1718"/>
<path d="M65.5893 150.059L63.3376 151.359L78.4376 177.512L80.6893 176.212L65.5893 150.059Z" fill="#FFF0F9"/>
<path d="M62.1235 151.656L60.5647 152.556L75.6647 178.709L77.2235 177.809L62.1235 151.656Z" fill="#FFF0F9"/>
<path d="M105 161.8C107.872 161.8 110.2 159.472 110.2 156.6C110.2 153.728 107.872 151.4 105 151.4C102.128 151.4 99.8 153.728 99.8 156.6C99.8 159.472 102.128 161.8 105 161.8Z" fill="#FFE8D5" stroke="#1A1718" stroke-width="0.25" stroke-miterlimit="10"/>
<path d="M16 108.7V99.1999H54V108.7H16ZM15.7 86.1999L16.9 86.0999C19.2 85.8999 21.3 85.1999 23.1 83.8999C24.9 82.5999 26.4 80.7999 27.5 78.5999C28.6 76.3999 29.2 73.7999 29.3 70.9999V69.9999H40.5999V70.9999C40.6999 73.7999 41.3 76.3999 42.4 78.5999C43.5 80.7999 44.9 82.5999 46.7999 83.8999C48.5999 85.1999 50.7 85.8999 53 86.0999L54.2 86.1999L51.5999 95.1999L50.7999 95.0999C47.2999 94.7999 44.0999 93.8999 41.2999 92.2999C38.7999 90.8999 36.7 89.1999 34.9 87.0999C33.1 89.1999 31 90.9999 28.5 92.2999C25.6 93.8999 22.4 94.7999 19 95.0999L18.2 95.1999L15.7 86.1999Z" fill="#EF6788"/>
<path d="M39.6999 71.2C39.7999 74.2 40.3999 76.8 41.5999 79.2C42.7999 81.6 44.2999 83.4 46.2999 84.8C48.2999 86.2 50.4999 87 53.0999 87.2L51.0999 94.2C47.7999 93.9 44.6999 93 41.9999 91.5C39.1999 90 36.9999 88 35.0999 85.5C33.2999 88 30.9999 90 28.1999 91.5C25.3999 93 22.3999 93.9 19.0999 94.2L17.0999 87.2C19.5999 87 21.8999 86.2 23.8999 84.8C25.8999 83.4 27.3999 81.5 28.5999 79.2C29.7999 76.8 30.3999 74.2 30.4999 71.2H39.6999ZM52.9999 100.2V107.7H16.9999V100.2H52.9999ZM41.5999 69.2H39.6999H30.2999H28.3999L28.2999 71.1C28.1999 73.8 27.5999 76.2 26.5999 78.3C25.5999 80.3 24.1999 82 22.5999 83.2C20.8999 84.4 19.0999 85 16.8999 85.2L14.3999 85.4L15.0999 87.8L17.0999 94.8L17.4999 96.4L19.0999 96.3C22.6999 96 25.9999 95 28.9999 93.4C31.1999 92.2 33.1999 90.6 34.8999 88.8C36.5999 90.6 38.5999 92.2 40.7999 93.4C43.7999 95 47.0999 96 50.6999 96.3L52.2999 96.4L52.6999 94.8L54.6999 87.8L55.3999 85.4L52.8999 85.2C50.6999 85.1 48.7999 84.4 47.1999 83.2C45.4999 82 44.1999 80.4 43.1999 78.3C42.1999 76.2 41.5999 73.8 41.4999 71.1L41.5999 69.2ZM54.9999 98.2H52.9999H16.9999H14.9999V100.2V107.7V109.7H16.9999H52.9999H54.9999V107.7V100.2V98.2Z" fill="#F4BAC5"/>
<path d="M83.6 110.2V70.2H95V84.7H98.8V94.2H95V110.3H83.6V110.2ZM58 108.7V70.6H81.4V80.1H69.4V84.7H81.4V94.2H69.4V99.3H82.4V108.8H58V108.7Z" fill="#EF6788"/>
<path d="M94 71.2V85.7H97.8V93.2H94V109.3H84.6V71.3H94V71.2ZM80.4 71.6V79.1H68.4V85.7H80.4V93.2H68.4V100.3H81.4V107.8H59V71.6H80.4ZM96 69.2H94H84.6H82.6V71.2V98.2H81.3H70.3V95.1H80.3H82.3V93.1V85.6V83.6H80.3H70.3V81H80.3H82.3V79V71.5V69.5H80.3H59H57V71.5V107.6V109.6H59H81.4H82.7V111.1H84.7H94H96V109.1V95.1H97.8H99.8V93.1V85.6V83.6H97.8H96V71.2V69.2Z" fill="#F4BAC5"/>
<path d="M99.7998 108.7V99.6H137.8V108.7H99.7998ZM100.8 97.6V70.7H136.8V79.8H136.3V88.5H136.8V97.6H100.8Z" fill="#EF6788"/>
<path d="M135.8 71.7V78.8H111.2V80.6H135.3V87.7H111.2V89.5H135.8V96.6H101.8V71.7H135.8ZM136.8 100.6V107.7H100.8V100.6H136.8ZM137.8 69.7H135.8H101.8H99.7998V71.7V96.6V98.6H101.8H135.8H137.8V96.6V89.5V87.5H137.3V80.8H137.8V78.8V71.7V69.7ZM138.8 98.6H136.8H100.8H98.7998V100.6V107.7V109.7H100.8H136.8H138.8V107.7V100.6V98.6Z" fill="#F4BAC5"/>
<path d="M142.9 110.2V92.4H148.9C147.5 91.9 146.2 91.2 145.2 90.3C143 88.4 141.9 85.7 141.9 82.4V80.9C141.9 77.5 143 74.9 145.2 73C147.4 71.1 150.4 70.2 154.1 70.2C157.1 70.2 159.6 70.8 161.6 72C163.5 73.1 164.8 74.7 165.6 76.6H167.6V70H179V110.1H142.9V110.2ZM167.6 94.3V92.9H167.5V86.4H165.7C165 88.5 163.6 90.1 161.8 91.3C159.8 92.5 157.3 93.2 154.3 93.2V94.3H167.6ZM154.1 79.7C153.7 79.7 153.6 79.8 153.5 79.9C153.4 80 153.3 80.2 153.3 80.5V83C153.3 83.3 153.4 83.5 153.5 83.6C153.6 83.7 153.7 83.8 154.1 83.8C154.4 83.8 154.6 83.7 154.7 83.6C154.7 83.6 154.9 83.4 154.9 83V80.5C154.9 80.3 154.9 80 154.7 79.9C154.5 79.8 154.3 79.7 154.1 79.7Z" fill="#EF6788"/>
<path d="M177.9 71.1V91.9H168.5V85.4H165C164.4 87.6 163.2 89.2 161.3 90.4C159.4 91.6 157 92.2 154.1 92.2C150.6 92.2 147.8 91.3 145.8 89.6C143.8 87.9 142.8 85.5 142.8 82.4V80.9C142.8 77.8 143.8 75.4 145.8 73.7C147.8 72 150.5 71.1 154.1 71.1C156.9 71.1 159.2 71.7 161.1 72.8C163 73.9 164.2 75.5 164.9 77.6H168.6V71H177.9V71.1ZM154.1 84.7C154.7 84.7 155.1 84.5 155.4 84.2C155.7 83.9 155.9 83.5 155.9 82.9V80.4C155.9 79.8 155.7 79.4 155.4 79.1C155.1 78.8 154.7 78.6 154.1 78.6C153.6 78.6 153.1 78.7 152.8 79.1C152.5 79.4 152.3 79.8 152.3 80.4V82.9C152.3 83.4 152.5 83.9 152.8 84.2C153.1 84.5 153.5 84.7 154.1 84.7ZM177.9 93.4V109.2H143.9V93.4H153.3V95.3H168.6V93.4H177.9ZM153.3 103.2H168.6V101.3H153.3V103.2ZM179.9 69.1H177.9H168.5H166.5V71.1V75.7H166.2C165.3 73.8 163.9 72.3 162.1 71.2C159.9 69.9 157.2 69.2 154.1 69.2C150.1 69.2 146.9 70.2 144.5 72.3C142.1 74.4 140.8 77.3 140.8 81V82.5C140.8 86.2 142 89.1 144.5 91.2C144.6 91.3 144.8 91.4 144.9 91.5H144H142V93.5V109.3V111.3H144H178H180V109.3V93.4V91.4V71.1V69.1H179.9ZM166.4 87.4H166.5V91.9V93.3H159.8C160.7 93 161.5 92.6 162.3 92.1C164.2 90.9 165.6 89.4 166.4 87.4Z" fill="#F4BAC5"/>
<path d="M182.9 108.7V99.1999H220.9V108.7H182.9ZM182.6 86.1999L183.8 86.0999C186.1 85.8999 188.2 85.1999 190 83.8999C191.8 82.5999 193.3 80.7999 194.4 78.5999C195.5 76.3999 196.1 73.7999 196.2 70.9999V69.9999H207.5V70.9999C207.6 73.7999 208.2 76.3999 209.3 78.5999C210.4 80.7999 211.8 82.5999 213.7 83.8999C215.5 85.1999 217.6 85.8999 219.9 86.0999L221.1 86.1999L218.5 95.1999L217.7 95.0999C214.2 94.7999 211 93.8999 208.2 92.2999C205.7 90.8999 203.6 89.1999 201.8 87.0999C200 89.1999 197.9 90.9999 195.4 92.2999C192.5 93.8999 189.3 94.7999 185.9 95.0999L185.1 95.1999L182.6 86.1999Z" fill="#EF6788"/>
<path d="M206.7 71.2C206.8 74.2 207.4 76.8 208.6 79.2C209.8 81.6 211.3 83.4 213.3 84.8C215.3 86.2 217.5 87 220.1 87.2L218.1 94.2C214.8 93.9 211.7 93 209 91.5C206.2 90 204 88 202.1 85.5C200.3 88 198 90 195.2 91.5C192.4 93 189.4 93.9 186.1 94.2L184.1 87.2C186.6 87 188.9 86.2 190.9 84.8C192.9 83.4 194.4 81.5 195.6 79.2C196.8 76.8 197.4 74.2 197.5 71.2H206.7ZM220 100.2V107.7H184V100.2H220ZM208.6 69.2H206.7H197.3H195.4L195.3 71.1C195.2 73.8 194.6 76.2 193.6 78.3C192.6 80.3 191.2 82 189.6 83.2C187.9 84.4 186.1 85 183.9 85.2L181.4 85.4L182.1 87.8L184.1 94.8L184.5 96.4L186.1 96.3C189.7 96 193 95 196 93.4C198.2 92.2 200.2 90.6 201.9 88.8C203.6 90.6 205.6 92.2 207.8 93.4C210.8 95 214.1 96 217.7 96.3L219.3 96.4L219.7 94.8L221.7 87.8L222.4 85.4L219.9 85.2C217.7 85.1 215.8 84.4 214.2 83.2C212.5 82 211.2 80.4 210.2 78.3C209.2 76.2 208.6 73.8 208.5 71.1L208.6 69.2ZM222 98.2H220H184H182V100.2V107.7V109.7H184H220H222V107.7V100.2V98.2Z" fill="#F4BAC5"/>
<path d="M225 108.7V99.6H238.3V96.1H226V70.7H262V79.3H261.5V87.5H262V96.1H249.7V99.6H263V108.7H225Z" fill="#EF6788"/>
<path d="M261 71.7V78.3H236.4V80.1H260.5V86.7H236.4V88.5H261V95.1H227V71.7H261ZM248.7 96.6V100.6H262V107.7H226V100.6H239.3V96.6H248.7ZM263 69.7H261H227H225V71.7V95.1V97.1H227H237.3V98.6H226H224V100.6V107.7V109.7H226H262H264V107.7V100.6V98.6H262H250.7V97.1H261H263V95.1V88.5V86.5H262.5V80.3H263V78.3V71.7V69.7Z" fill="#F4BAC5"/>
<path d="M292.6 110.2V70.2H304V110.2H292.6ZM267 108.7V84.7H278.9V80.2H267V70.7H290.3V94.2H278.4V99.2H291.3V108.7H267Z" fill="#EF6788"/>
<path d="M303 71.2V109.2H293.6V71.2H303ZM289.3 71.7V93.2H277.4V100.2H290.3V107.7H268V85.7H279.9V79.2H268V71.7H289.3ZM305 69.2H303H293.6H291.6V71.2V98.2H290.2H279.3V95.2H289.2H291.2V93.2V71.7V69.7H289.2H268H266V71.7V79.2V81.2H268H277.9V83.7H268H266V85.7V107.7V109.7H268H290.3H291.7V111.2H293.7H303.1H305.1V109.2V71.2V69.2H305Z" fill="#F4BAC5"/>
<path d="M287.4 28H284.4C278.7 28 274.1 32.6 274.1 38.3C274.1 41.6 275.7 44.5 278.1 46.4C277.9 48.2 277.4 50.8 276.2 52.2C276.2 52.2 279.7 51.9 282.3 48.4C283 48.6 283.7 48.6 284.5 48.6H287.5C293.2 48.6 297.8 44 297.8 38.3C297.7 32.6 293.1 28 287.4 28Z" fill="#EAEAEA" stroke="#1A1718" stroke-width="0.25" stroke-miterlimit="10"/>
<path d="M290.5 39.3C291.108 39.3 291.6 38.8075 291.6 38.2C291.6 37.5925 291.108 37.1 290.5 37.1C289.893 37.1 289.4 37.5925 289.4 38.2C289.4 38.8075 289.893 39.3 290.5 39.3Z" fill="#282828"/>
<path d="M285.9 39.3C286.508 39.3 287 38.8075 287 38.2C287 37.5925 286.508 37.1 285.9 37.1C285.293 37.1 284.8 37.5925 284.8 38.2C284.8 38.8075 285.293 39.3 285.9 39.3Z" fill="#282828"/>
<path d="M281.4 39.3C282.008 39.3 282.5 38.8075 282.5 38.2C282.5 37.5925 282.008 37.1 281.4 37.1C280.793 37.1 280.3 37.5925 280.3 38.2C280.3 38.8075 280.793 39.3 281.4 39.3Z" fill="#282828"/>
</g>
<defs>
<linearGradient id="paint0_linear" x1="42.3613" y1="150.938" x2="44.5203" y2="173.338" gradientUnits="userSpaceOnUse">
<stop stop-color="#D3DBE2"/>
<stop offset="0.9897" stop-color="#9DAAB2"/>
</linearGradient>
<clipPath id="clip0">
<rect width="320" height="200" fill="white"/>
</clipPath>
</defs>
</svg>
