<svg width="320" height="200" viewBox="0 0 320 200" fill="none" xmlns="http://www.w3.org/2000/svg">
<g clip-path="url(#clip0)">
<path d="M320 0H0V200H320V0Z" fill="#D3F4CF"/>
<path d="M2.10004 219.4C55.0089 219.4 97.9001 165.943 97.9001 100C97.9001 34.0572 55.0089 -19.4 2.10004 -19.4C-50.8088 -19.4 -93.7 34.0572 -93.7 100C-93.7 165.943 -50.8088 219.4 2.10004 219.4Z" fill="#E5FCE3"/>
<path d="M95.1001 50.2999C94.8001 50.2999 94.6001 50.2999 94.3001 50.2999H43.5001C39.3001 50.2999 35.9001 53.6999 35.9001 57.8999V132.6C35.9001 136.8 39.3001 140.2 43.5001 140.2H94.3001C94.6001 140.2 94.8001 140.2 95.1001 140.2C99.0001 139.8 102 136.6 102 132.6V57.8999C102 53.8999 99.0001 50.6999 95.1001 50.2999Z" fill="#08C879"/>
<path d="M68.9002 60C59.6002 60 52.0002 67.5 52.0002 76.9C52.0002 86.2 59.5002 93.8 68.9002 93.8C78.2002 93.8 85.8002 86.3 85.8002 76.9C85.8002 67.5 78.2002 60 68.9002 60Z" fill="#FFD221"/>
<path d="M77.0001 86.1L74.4001 85.3C74.4001 85.3 73.6001 85.1 73.4001 85C72.6001 84.7 72.0001 84.5 71.9001 84C71.8001 83.6 71.7001 83.3 71.7001 82.9C72.0001 82.7 72.3001 82.5 72.7001 82.2C74.1001 81.1 75.4001 79.9 75.4001 78.5C75.4001 78.3 75.4001 78.1 75.4001 77.7C75.5001 77.7 75.6001 77.7 75.7001 77.7C76.0001 77.5 76.3001 76.3 76.4001 75.9C76.5001 75.5 76.5001 74.9 76.1001 74.5C76.0001 74.4 75.9001 74.4 75.7001 74.4C75.7001 74.3 75.7001 74.2 75.7001 74.1C75.8001 73.1 77.1001 69.7 75.3001 67.4C74.6001 66.5 73.7001 66.1 72.7001 66.2C72.0001 65.2 70.1001 64.9 68.3001 65.1C66.3001 65.4 65.2001 65.7 63.7001 66.7C62.9001 67.3 61.5001 68.6 61.2001 70.2C61.0001 71.7 61.4001 73.3 61.7001 74.4C61.6001 74.4 61.5001 74.4 61.3001 74.5C60.8001 74.9 60.9001 75.5 61.0001 75.9C61.1001 76.3 61.4001 77.6 61.7001 77.7C62.0001 77.8 62.3001 77.6 62.4001 77.6C62.4001 77.8 62.4001 78 62.4001 78.2C62.4001 79.8 63.4001 80.9 64.9001 82C65.3001 82.3 65.7001 82.6 66.2001 82.9C66.2001 83.3 66.1001 83.6 66.0001 84C65.9001 84.3 65.6001 84.5 65.1001 84.7C64.8001 84.8 63.0001 85.4 63.0001 85.4L60.8001 86.1C59.2001 86.6 58.0001 88 57.9001 89.6C60.9001 92.1 64.7001 93.7 68.9001 93.7C73.1001 93.7 76.9001 92.2 79.9001 89.6C79.7001 88 78.6001 86.6 77.0001 86.1Z" fill="white"/>
<path d="M91.6002 99.7H48.8002C47.8002 99.7 47.0002 100.5 47.0002 101.5C47.0002 102.5 47.8002 103.3 48.8002 103.3H91.6002C92.6002 103.3 93.4002 102.5 93.4002 101.5C93.4002 100.5 92.6002 99.7 91.6002 99.7Z" fill="white"/>
<path d="M91.6002 111.8H48.8002C47.8002 111.8 47.0002 112.6 47.0002 113.6C47.0002 114.6 47.8002 115.4 48.8002 115.4H91.6002C92.6002 115.4 93.4002 114.6 93.4002 113.6C93.4002 112.6 92.6002 111.8 91.6002 111.8Z" fill="white"/>
<path d="M91.6002 124H48.8002C47.8002 124 47.0002 124.8 47.0002 125.8C47.0002 126.8 47.8002 127.6 48.8002 127.6H91.6002C92.6002 127.6 93.4002 126.8 93.4002 125.8C93.4002 124.8 92.6002 124 91.6002 124Z" fill="white"/>
<path d="M125.6 98.2C121.7 97.2 118.6 94.1 117.6 90.2L117.4 89.5L117.2 90.2C116.2 94.1 113.1 97.2 109.2 98.2L108.5 98.4L109.2 98.6C113.1 99.6 116.2 102.7 117.2 106.6L117.4 107.3L117.6 106.6C118.6 102.7 121.6 99.6 125.6 98.6L126.3 98.4L125.6 98.2Z" fill="#488EFF"/>
<path d="M115.8 120.8C113.4 120.2 111.5 118.3 110.9 115.9L110.8 115.5L110.7 115.9C110.1 118.3 108.2 120.2 105.8 120.8L105.4 120.9L105.8 121C108.2 121.6 110.1 123.5 110.7 125.9L110.8 126.3L110.9 125.9C111.5 123.5 113.4 121.6 115.8 121L116.2 120.9L115.8 120.8Z" fill="#488EFF"/>
<path d="M39.6 45.7C35 44.6 31.5 41 30.3 36.4L30.1 35.6L29.9 36.4C28.8 41 25.2 44.5 20.6 45.7L19.8 45.9L20.6 46.1C25.2 47.2 28.7 50.8 29.9 55.4L30.1 56.2L30.3 55.4C31.4 50.8 35 47.3 39.6 46.1L40.4001 45.9L39.6 45.7Z" fill="#FFD221"/>
<path d="M56.4001 40.5C53.7001 39.8 51.6001 37.7 51.0001 35.1L50.9001 34.6L50.8001 35.1C50.1001 37.8 48.0001 39.9 45.4001 40.5L44.9001 40.6L45.4001 40.7C48.1001 41.4 50.2001 43.5 50.8001 46.1L50.9001 46.6L51.0001 46.1C51.7001 43.4 53.8001 41.3 56.4001 40.7L56.9001 40.6L56.4001 40.5Z" fill="#FFD221"/>
<path d="M27.7001 73.8C24.6001 73 22.2001 70.6 21.4001 67.5L21.3001 67L21.2001 67.5C20.4001 70.6 18.0001 73 14.9001 73.8L14.4001 73.9L14.9001 74C18.0001 74.8 20.4001 77.2 21.2001 80.3L21.3001 80.8L21.4001 80.3C22.2001 77.2 24.6001 74.8 27.7001 74L28.2001 73.9L27.7001 73.8Z" fill="#FFD221"/>
<path d="M84.9002 153.7C79.8002 152.4 75.8002 148.5 74.6002 143.4L74.4002 142.5L74.2002 143.4C72.9002 148.5 69.0002 152.5 63.9002 153.7L63.0002 154L63.9002 154.2C69.0002 155.5 73.0002 159.4 74.2002 164.5L74.4002 165.4L74.6002 164.5C75.9002 159.4 79.8002 155.4 84.9002 154.2L85.8002 154L84.9002 153.7Z" fill="#00599F"/>
<path d="M141.7 77.9V72.9H168.2V77.9H141.7ZM143 69.4V64.4H146.4V58H143.2V53H166.7V58H163.5V64.4H166.9V69.4H143ZM157.6 58H152.3V64.4H157.6V58Z" fill="#00599F"/>
<path d="M170.2 77.9V72.9H180.2V70.2H171.9V59.2H189.1V57.6H171.9V52.9H195V63.8H177.8V65.4H195.3V70.3H186.7V73H196.7V78H170.2V77.9Z" fill="#00599F"/>
<path d="M198.7 64.4V60.2H200.7V56.9H198.8V52.7H216.7V56.9H214.5V60.2H216.8V64.4H198.7ZM201.6 78.9V70.4H218.4V69.5H201.6V65.5H224.2V73.9H207.4V74.9H224.5V78.9H201.6ZM208.8 56.9H206.4V60.2H208.8V56.9ZM218.4 64.7V52.4H224.3V64.7H218.4Z" fill="#00599F"/>
<path d="M141.8 97.7V96H150.5V97.7H141.8ZM146.1 103.2C144 103.2 142.5 102.1 142.5 100.6C142.5 99.2 143.9 98 146.1 98C148.2 98 149.7 99.2 149.7 100.6C149.7 102.1 148.2 103.2 146.1 103.2ZM153.4 103.7V108.4H151.2V105.4H143.5V103.7H153.4ZM143.9 93.8H148.3V95.5H143.9V93.8ZM146.1 101.6C146.9 101.6 147.5 101.1 147.5 100.6C147.5 100.1 146.9 99.6 146.1 99.6C145.3 99.6 144.7 100.1 144.7 100.6C144.7 101.2 145.3 101.6 146.1 101.6ZM153.4 99.7V103.2H151.2V93.6H153.4V97.9H155.3V99.7H153.4Z" fill="#303030"/>
<path d="M162.4 101.7C161.4 101.3 160.2 100.2 159.9 99.2C159.5 100.4 158.3 101.8 157.1 102.3L155.9 100.6C157.8 99.8 158.8 97.9 158.8 95.9V94.7H160.9V95.8C160.9 97.8 161.9 99.3 163.6 100L162.4 101.7ZM163.4 108.4C160.2 108.4 158.2 107.3 158.2 105.5C158.2 103.7 160.2 102.6 163.4 102.6C166.7 102.6 168.7 103.7 168.7 105.5C168.7 107.3 166.7 108.4 163.4 108.4ZM163.4 104.3C161.6 104.3 160.4 104.8 160.4 105.5C160.4 106.3 161.6 106.7 163.4 106.7C165.3 106.7 166.4 106.3 166.4 105.5C166.5 104.8 165.3 104.3 163.4 104.3ZM166.7 102.6V98.9H165.7V102H163.7V93.9H165.7V97.2H166.7V93.6H168.8V102.6H166.7Z" fill="#303030"/>
<path d="M171.1 105.3H173.4L172.2 108.7H170.5L171.1 105.3Z" fill="#303030"/>
<path d="M184.4 103.2C183.9 104.5 183 105.5 181.6 105.5C179.2 105.5 178.4 102.7 178.4 100C178.4 97.4 179.3 94.6 181.6 94.6C182.9 94.6 183.8 95.5 184.3 96.7H185.8V93.8H187.8V107.7H185.8V103.1H184.4V103.2ZM181.6 96.7C180.7 96.7 180.4 98.3 180.4 100C180.4 101.8 180.7 103.3 181.6 103.3C182.5 103.3 182.8 101.7 182.8 100C182.9 98.3 182.6 96.7 181.6 96.7ZM184.8 101.4H185.9V98.5H184.8C184.9 99 184.9 99.5 184.9 100C184.9 100.5 184.9 101 184.8 101.4ZM188.8 108.4V93.6H190.9V108.4H188.8Z" fill="#303030"/>
<path d="M200.1 102.5C198.8 102.2 197.4 101 196.8 100C196.3 101.1 194.9 102.3 193.4 102.7L192.4 101C194.1 100.5 195.4 99.5 195.6 98.1H192.8V96.4H200.6V98.1H198C198.3 99.5 199.8 100.5 201.1 100.8L200.1 102.5ZM199.2 108.4C195.9 108.4 194 107.3 194 105.6C194 103.9 195.9 102.8 199.2 102.8C202.5 102.8 204.4 103.9 204.4 105.6C204.4 107.3 202.5 108.4 199.2 108.4ZM194.7 94.1H199V95.7H194.7V94.1ZM196.3 105.6C196.3 106.3 197.4 106.7 199.2 106.7C201 106.7 202.1 106.3 202.1 105.6C202.1 104.9 201.1 104.5 199.2 104.5C197.3 104.5 196.3 104.9 196.3 105.6ZM204.2 99.4V102.7H202V93.7H204.2V97.7H206.3V99.5H204.2V99.4Z" fill="#303030"/>
<path d="M209.8 101.9C209 101.9 208.5 101.9 207.8 101.9V94.7H214.8V96.4H209.9V97.4H214.6V99H209.9V100.1C210.2 100.1 210.5 100.1 210.9 100.1C212.5 100.1 214.6 100 215.8 99.8C215.8 100.4 215.9 100.9 215.9 101.5C214.8 101.8 211.8 101.9 209.8 101.9ZM209.3 108.2V102.8H219.2V108.2H209.3ZM217 104.5H211.5V106.5H217V104.5ZM217 102.3V93.7H219.2V102.3H217Z" fill="#303030"/>
<path d="M221.9 105.3H224.2L223 108.7H221.3L221.9 105.3Z" fill="#303030"/>
<path d="M229.1 106.5V104.8H242.5V106.5H229.1ZM241.1 102.1C239.3 101.7 236.6 100.3 235.7 98.2C234.9 100.4 232.3 101.8 230.4 102.1L229.4 100.3C231.8 100 234.5 98.2 234.5 95.5V94.6H236.9V95.5C236.9 98.2 239.6 100 242 100.3L241.1 102.1Z" fill="#303030"/>
<path d="M246.2 103.1C246.4 103.1 246.7 103.1 246.9 103.1C248.5 103.1 250.7 102.9 252 102.7C252 103.3 252.1 103.8 252.2 104.4C250.4 104.7 248.3 104.9 246.1 104.9C245.4 104.9 244.7 104.9 244 104.9V94.9H250.8V96.6H246.2V98.8H250.6V100.6H246.2V103.1ZM255.1 99.1H257.1V100.9H255.1V108.4H252.9V93.6H255.1V99.1Z" fill="#303030"/>
<path d="M271.2 106.6H257.8V104.9H271.2V106.6ZM261.7 99.7V101.2H269.7V102.9H259.5V94.8H269.5V96.5H261.7V98H269.1V99.7H261.7Z" fill="#303030"/>
<path d="M276.1 94.5C278.3 94.5 280 95.9 280 97.9C280 100 278.3 101.4 276.1 101.4C273.9 101.4 272.2 100 272.2 97.9C272.3 95.9 273.9 94.5 276.1 94.5ZM276.1 99.6C277.1 99.6 277.9 98.9 277.9 97.9C277.9 96.9 277.1 96.2 276.1 96.2C275.1 96.2 274.3 96.9 274.3 97.9C274.3 98.9 275.1 99.6 276.1 99.6ZM274.5 108.2V102.3H276.7V103.6H282.2V102.3H284.4V108.2H274.5ZM282.2 105.3H276.7V106.5H282.2V105.3ZM282.2 101.7V98.7H280.5V96.9H282.2V93.6H284.4V101.7H282.2Z" fill="#303030"/>
<path d="M287.1 105.3H289.4L288.2 108.7H286.5L287.1 105.3Z" fill="#303030"/>
<path d="M142.4 116.7H150.2V118.5H147.5C147.5 120.8 149 122.2 150.8 122.8L149.6 124.5C148.5 124.1 146.9 122.9 146.3 121.6C145.9 122.9 144.2 124.3 142.8 124.8L141.7 123.1C143.9 122.3 145.1 120.8 145.1 118.5H142.3V116.7H142.4ZM144 130.1V125.4H146.2V128.4H154.3V130.1H144ZM151.9 126.3V121.2H149.8V119.5H151.9V115.6H154.1V126.3H151.9Z" fill="#303030"/>
<path d="M161.8 127.1V124.5H156.2V122.8H169.6V124.5H164V127.1H161.8ZM157.9 130.1V125.8H160.1V128.4H168V130.1H157.9ZM167.8 121.8H157.9V116.4H167.8V121.8ZM165.6 118.1H160.2V120.1H165.6V118.1Z" fill="#303030"/>
<path d="M178.2 117.1C178.1 121.4 176.3 125.2 171.5 127.8L170.3 126.1C173.5 124.6 175.6 121.7 175.9 118.9H171.2V117.1H178.2ZM182.1 123V130.4H179.9V115.6H182.1V121.2H184.2V123H182.1Z" fill="#303030"/>
<path d="M184.9 123.2V121.5H198.3V123.2H184.9ZM186.5 130.4V126.5H194.4V125.8H186.6V124H196.6V127.9H188.7V128.5H197V130.3H186.5V130.4ZM186.6 120.7V115.8H196.5V117.6H188.8V118.9H196.6V120.6H186.6V120.7Z" fill="#303030"/>
<path d="M203.5 116.6C206 116.6 207.4 118.8 207.4 121.9C207.4 124.9 206 127.2 203.5 127.2C201.1 127.2 199.6 125 199.6 121.9C199.6 118.8 201.1 116.6 203.5 116.6ZM203.5 118.5C202.5 118.5 201.7 119.7 201.7 121.9C201.7 124.1 202.5 125.3 203.5 125.3C204.6 125.3 205.3 124.1 205.3 121.9C205.3 119.7 204.5 118.5 203.5 118.5ZM209.3 130.4V115.6H211.5V130.4H209.3Z" fill="#303030"/>
<path d="M217.8 119.9V118.2H226.4V119.9H217.8ZM222.2 125.8C220.1 125.8 218.6 124.6 218.6 123C218.6 121.4 220 120.2 222.2 120.2C224.3 120.2 225.8 121.4 225.8 123C225.7 124.6 224.3 125.8 222.2 125.8ZM219.7 130.2V126.3H221.9V128.5H229.8V130.2H219.7ZM220 116H224.4V117.6H220V116ZM222.2 124.1C223 124.1 223.6 123.6 223.6 122.9C223.6 122.3 223 121.7 222.2 121.7C221.4 121.7 220.8 122.3 220.8 122.9C220.8 123.6 221.3 124.1 222.2 124.1ZM229.6 120.6H231.6V122.4H229.6V126.8H227.4V115.7H229.6V120.6Z" fill="#303030"/>
<path d="M236.7 124V122.3H241.7V119.7H243.9V122.3H250.1V124H236.7ZM247.9 130.5C245.7 130.1 244 129.1 243.1 127.8C242.4 129.1 240.3 130.3 238.3 130.5L237.3 128.8C239.7 128.6 242.1 127.2 242.1 125.1V124.9H244.3V125.1C244.3 127.3 246.5 128.5 248.9 128.8L247.9 130.5ZM248.3 116.2C248.3 119.3 248.1 120.3 247.9 121.6L245.8 121.4C246 120.6 246.2 119 246.2 118H238.2V116.3H248.3V116.2Z" fill="#303030"/>
<path d="M258.5 129.7V122.9H257.6C257.4 125.2 256.5 127.5 254.4 127.5C252 127.5 251.2 124.7 251.2 122C251.2 119.4 252.1 116.6 254.4 116.6C256.5 116.6 257.4 118.7 257.6 120.9H258.6V115.8H260.6V129.6H258.5V129.7ZM254.4 118.7C253.5 118.7 253.2 120.3 253.2 122C253.2 123.8 253.5 125.3 254.4 125.3C255.3 125.3 255.6 123.7 255.6 122C255.6 120.3 255.3 118.7 254.4 118.7ZM261.6 130.4V115.6H263.6V130.4H261.6Z" fill="#303030"/>
<path d="M265.8 126.7H268V128.8H265.8V126.7Z" fill="#303030"/>
<path d="M178.5 164.7H149.8C145.1 164.7 141.3 160.9 141.3 156.2C141.3 151.5 145.1 147.7 149.8 147.7H178.5C183.2 147.7 187 151.5 187 156.2C187 160.9 183.2 164.7 178.5 164.7Z" fill="#E5FCE3"/>
<path d="M148.5 158.6H147.7V152.6H151.7V153.7H149V157.6C149.1 157.6 149.2 157.6 149.3 157.6C150.2 157.6 151.3 157.5 152.1 157.3C152.2 157.6 152.2 158 152.2 158.3C151.5 158.5 150 158.6 148.5 158.6ZM153.4 160.7V155.9H151.4V154.8H153.4V151.8H154.7V160.7H153.4Z" fill="#08C879"/>
<path d="M156 159.6V158.5H159.4V157H157V152.4H158.3V153.7H161.8V152.4H163.1V157H160.7V158.6H164.1V159.7H156V159.6ZM161.8 154.7H158.3V155.9H161.8V154.7Z" fill="#08C879"/>
<path d="M165.3 159.2L164.5 158.2C166.4 157.3 167.7 155.6 167.9 153.9H165.1V152.8H169.3C169.3 155.4 168.2 157.6 165.3 159.2ZM170.7 160.7V151.8H172V160.7H170.7Z" fill="#08C879"/>
<path d="M179 159.6C178.8 159.6 178.7 159.5 178.6 159.4C178.4 159.2 178.4 158.8 178.6 158.6L180.9 156.3L178.5 153.9C178.3 153.7 178.3 153.3 178.5 153.1C178.7 152.9 179.1 152.9 179.3 153.1L182.1 155.9C182.3 156.1 182.3 156.5 182.1 156.7L179.4 159.4C179.3 159.5 179.1 159.6 179 159.6Z" fill="#08C879"/>
<path d="M181.7 156.8H175.6C175.3 156.8 175 156.5 175 156.2C175 155.9 175.3 155.6 175.6 155.6H181.7C182 155.6 182.3 155.9 182.3 156.2C182.3 156.6 182.1 156.8 181.7 156.8Z" fill="#08C879"/>
</g>
<defs>
<clipPath id="clip0">
<rect width="320" height="200" fill="white"/>
</clipPath>
</defs>
</svg>
