<svg width="320" height="200" viewBox="0 0 320 200" fill="none" xmlns="http://www.w3.org/2000/svg">
<g clip-path="url(#clip0)">
<path d="M320 0H0V200H320V0Z" fill="#D3F4CF"/>
<path d="M2.0998 219.4C55.0087 219.4 97.8998 165.943 97.8998 100C97.8998 34.0572 55.0087 -19.4 2.0998 -19.4C-50.8091 -19.4 -93.7002 34.0572 -93.7002 100C-93.7002 165.943 -50.8091 219.4 2.0998 219.4Z" fill="#E5FCE3"/>
<path d="M142.3 67V52.6H158.4V56.7H148.2V57.7H158.2V61.6H148.2V62.7H159.6V67H142.3ZM161.3 78.9V76.2L158.7 78.9H144.4V68.1H167.3V78.9H161.3ZM161.3 72.6H150.2V74.5H161.3V72.6ZM161.4 67.3V52.4H167.3V67.2H161.4V67.3Z" fill="#00599F"/>
<path d="M178.5 77.9V72.9H188.5V69.2H180.2V53H203.3V69.1H195V72.8H205V77.8H178.5V77.9ZM197.4 58H186V64.1H197.3V58H197.4Z" fill="#00599F"/>
<path d="M222.9 65.5C220.3 64.4 218.4 63.5 216.2 62.1C214.3 63.5 211 64.8 208.6 65.7L206.3 61.5C208.4 60.7 210.6 59.6 212.2 58.6C212.7 58.2 212.9 57.9 212.9 57.4H207.6V52.8H224.5V57.4H219.2C219.2 57.9 219.3 58.2 219.7 58.5C221.3 59.6 223.3 60.7 225.3 61.6L222.9 65.5ZM209.9 78.9V66.2H215.8V68.2H226.7V66.2H232.6V78.9H209.9ZM226.6 72.3H215.7V74.4H226.6V72.3ZM226.6 65.3V52.4H232.5V65.3H226.6Z" fill="#00599F"/>
<path d="M149.5 95.1C149.4 99.4 147.6 103.2 142.8 105.8L141.6 104.1C144.8 102.6 146.9 99.7 147.2 96.9H142.5V95.1H149.5ZM153.3 101V108.4H151.1V93.6H153.3V99.2H155.4V101H153.3Z" fill="#303030"/>
<path d="M156.4 94.5H164.2V96.3H161.5C161.7 98.4 163.1 99.6 164.8 100.2L163.6 101.9C162.5 101.5 160.9 100.2 160.3 99C159.9 100.3 158.2 101.7 156.8 102.2L155.7 100.5C157.8 99.8 159 98.4 159.2 96.3H156.4V94.5ZM162.7 108.3C159.5 108.3 157.5 107.1 157.5 105.3C157.5 103.4 159.5 102.3 162.7 102.3C166 102.3 167.9 103.5 167.9 105.3C167.9 107.2 166 108.3 162.7 108.3ZM159.7 105.3C159.7 106 160.8 106.5 162.7 106.5C164.6 106.5 165.7 106 165.7 105.3C165.7 104.6 164.6 104 162.7 104C160.8 104.1 159.7 104.6 159.7 105.3ZM167.8 99V102.1H165.6V93.6H167.8V97.2H169.8V99H167.8Z" fill="#303030"/>
<path d="M175.1 97.8V96.1H183.9V97.8H175.1ZM179.5 103.1C177.3 103.1 175.8 102 175.8 100.6C175.8 99.2 177.3 98.1 179.5 98.1C181.7 98.1 183.2 99.2 183.2 100.6C183.2 102 181.7 103.1 179.5 103.1ZM177 108.2V103.6H187.2V108.2H177ZM177.3 94H181.8V95.7H177.3V94ZM179.5 101.6C180.4 101.6 181 101.2 181 100.6C181 100.1 180.4 99.7 179.5 99.7C178.7 99.7 178 100.1 178 100.6C178.1 101.2 178.6 101.6 179.5 101.6ZM185 105.3H179.3V106.6H185V105.3ZM185 103V93.6H187.2V103H185Z" fill="#303030"/>
<path d="M189.2 102.7V101H202.6V102.7H189.2ZM190.8 108.1V103.8H193V106.4H201V108.1H190.8ZM191 99.8V94.3H200.9V96H193.2V98H200.9V99.7H191V99.8Z" fill="#303030"/>
<path d="M210.8 101.9C210 101.9 209.5 101.9 208.8 101.9V94.7H215.8V96.4H210.9V97.4H215.6V99H210.9V100.1C211.2 100.1 211.5 100.1 211.9 100.1C213.5 100.1 215.6 100 216.8 99.8C216.8 100.4 216.9 100.9 216.9 101.5C215.8 101.8 212.8 101.9 210.8 101.9ZM210.3 108.2V102.8H220.2V108.2H210.3ZM218 104.5H212.5V106.5H218V104.5ZM218 102.3V93.7H220.2V102.3H218Z" fill="#303030"/>
<path d="M226.2 104.6V106.4H235V108.1H224V103.8H225.8V102C224.5 102 223.3 102.1 222.3 102.1L222 100.4C225.9 100.4 229.7 100.2 231.7 99.9C231.7 100.5 231.8 101 231.8 101.6C230.7 101.8 229.4 101.9 228 102V104.6H226.2ZM227.1 99.8C224.9 99.8 223.4 98.7 223.4 97C223.4 95.3 224.9 94.2 227.1 94.2C229.3 94.2 230.9 95.4 230.9 97C230.8 98.7 229.3 99.8 227.1 99.8ZM227.1 95.9C226.2 95.9 225.6 96.4 225.6 97.1C225.6 97.8 226.3 98.3 227.1 98.3C227.9 98.3 228.6 97.8 228.6 97.1C228.6 96.3 228 95.9 227.1 95.9ZM230 102.3H232.7V93.6H234.9V105H232.7V103.8H230V102.3Z" fill="#303030"/>
<path d="M252.8 94.4C252.9 96.7 252.6 99.3 252.3 100.8H254.4V102.5H248.8V108.4H246.6V102.5H241V100.8H250.2C250.5 99.6 250.7 97.6 250.6 96.1H242.6V94.3H252.8V94.4Z" fill="#303030"/>
<path d="M255.3 98.9V97.2H263.9V98.9H255.3ZM259.6 99.4C261.6 99.4 263.2 100.7 263.2 102.6C263.2 104.5 261.6 105.8 259.6 105.8C257.6 105.8 256 104.5 256 102.6C256 100.6 257.6 99.4 259.6 99.4ZM257.4 94.5H262V96.2H257.4V94.5ZM259.6 104.2C260.5 104.2 261.3 103.6 261.3 102.6C261.3 101.6 260.6 101 259.6 101C258.7 101 257.9 101.7 257.9 102.6C258 103.5 258.7 104.2 259.6 104.2ZM267 99.6H269V101.4H267V108.4H264.8V93.6H267V99.6Z" fill="#303030"/>
<path d="M277.6 95.1C277.5 99.4 275.7 103.2 270.9 105.8L269.7 104.1C272.9 102.6 275 99.7 275.3 96.9H270.6V95.1H277.6ZM279.8 108.4V93.6H282V108.4H279.8Z" fill="#303030"/>
<path d="M284.6 105.3H286.9L285.7 108.7H284L284.6 105.3Z" fill="#303030"/>
<path d="M146.2 125.3V125.9H152.1V124.7H154.3V130.1H144V124.7H145.6V123.4C144.2 123.4 142.8 123.5 142 123.5L141.7 121.8C143.3 121.8 144.9 121.8 146.6 121.7C148.3 121.6 150 121.5 151.3 121.4L151.5 123.1C150.1 123.3 149.2 123.4 147.8 123.4V125.3H146.2ZM150 120.9C148.8 120.8 147.2 119.9 146.6 118.9C146 120.1 144.6 121.1 143 121.4L142 119.7C144.4 119.2 145.4 118 145.4 116.8V116.2H147.7V116.9C147.7 118.1 149.3 119.3 150.9 119.5L150 120.9ZM152 127.6H146.1V128.5H152V127.6ZM154.2 124.2H152V115.6H154.2V124.2Z" fill="#303030"/>
<path d="M156.2 128.5V126.8H169.6V128.5H156.2ZM168.2 124.1C166.4 123.7 163.7 122.3 162.8 120.2C162 122.4 159.4 123.8 157.5 124.1L156.5 122.3C158.9 122 161.6 120.2 161.6 117.5V116.6H164V117.5C164 120.2 166.7 122 169.1 122.3L168.2 124.1Z" fill="#303030"/>
<path d="M178 129.7V122.9H177.1C176.9 125.2 176 127.5 173.9 127.5C171.5 127.5 170.7 124.7 170.7 122C170.7 119.4 171.6 116.6 173.9 116.6C176 116.6 176.9 118.7 177.1 120.9H178.1V115.8H180.1V129.6H178V129.7ZM173.9 118.7C173 118.7 172.7 120.3 172.7 122C172.7 123.8 173 125.3 173.9 125.3C174.8 125.3 175.1 123.7 175.1 122C175.1 120.3 174.8 118.7 173.9 118.7ZM181.1 130.4V115.6H183.1V130.4H181.1Z" fill="#303030"/>
<path d="M192.599 127C191.399 126.3 189.699 124.8 189.199 123.3C188.799 124.8 187.099 126.7 185.799 127.4L184.399 125.7C186.899 124.2 187.999 122 187.999 118.9V116.9H190.299V118.9C190.299 122 191.499 124 193.799 125.3L192.599 127ZM194.999 130.4V122.4H192.299V120.6H194.999V115.6H197.199V130.4H194.999Z" fill="#303030"/>
<path d="M199.2 124.5V122.8H212.6V124.5H199.2ZM200.8 130V125.6H203V128.3H211V130H200.8ZM201 121.5V116.1H203.2V119.8H211V121.5H201Z" fill="#303030"/>
<path d="M222.299 125.3V125.9H228.199V124.7H230.399V130.1H220.199V124.7H221.799V123.4C220.399 123.4 218.999 123.5 218.199 123.5L217.899 121.8C219.499 121.8 221.099 121.8 222.799 121.7C224.499 121.6 226.199 121.5 227.499 121.4L227.699 123.1C226.299 123.3 225.399 123.4 223.999 123.4V125.3H222.299ZM226.199 120.9C224.999 120.8 223.399 119.9 222.799 118.9C222.199 120.1 220.799 121.1 219.199 121.4L218.199 119.7C220.599 119.2 221.599 118 221.599 116.8V116.2H223.899V116.9C223.899 118.1 225.499 119.3 227.099 119.5L226.199 120.9ZM228.099 127.6H222.199V128.5H228.099V127.6ZM230.299 124.2H228.099V115.6H230.299V124.2Z" fill="#303030"/>
<path d="M232.3 123.8V122.1H245.7V123.8H232.3ZM233.7 121.4L232.9 119.7C235.5 119.4 237.8 118.1 237.8 116V115.9H240V116C240 118.2 242.2 119.4 244.9 119.7L244.1 121.4C242.1 121.2 239.7 120.2 238.9 118.4C238.1 120.1 235.7 121.2 233.7 121.4ZM234 130.2V124.6H236.2V125.9H241.8V124.6H244V130.2H234ZM241.8 127.5H236.2V128.5H241.8V127.5Z" fill="#303030"/>
<path d="M248.8 126.9H247.3V117.1H249.5V125H250.1C251.6 125 253.8 124.8 255.5 124.5C255.6 125.1 255.6 125.7 255.7 126.3C253.9 126.7 250.7 126.9 248.8 126.9ZM258.9 130.4H256.7V115.6H258.9V130.4Z" fill="#303030"/>
<path d="M264.1 125.2C265.7 125.2 268 125 269.4 124.8L269.6 126.6C268.2 126.9 265.399 127.1 262.799 127.1H261.5V117H268.299V118.8H263.7V125.3H264.1V125.2ZM272.6 121.1H274.6V122.9H272.6V130.4H270.4V115.6H272.6V121.1Z" fill="#303030"/>
<path d="M275.8 126.7H278V128.8H275.8V126.7Z" fill="#303030"/>
<path d="M178.5 164.7H149.8C145.1 164.7 141.3 160.9 141.3 156.2C141.3 151.5 145.1 147.7 149.8 147.7H178.5C183.2 147.7 187 151.5 187 156.2C187 160.9 183.2 164.7 178.5 164.7Z" fill="#E5FCE3"/>
<path d="M148.5 158.6H147.7V152.6H151.7V153.7H149V157.6C149.1 157.6 149.2 157.6 149.3 157.6C150.2 157.6 151.3 157.5 152.1 157.3C152.1 157.6 152.2 158 152.2 158.3C151.5 158.5 150 158.6 148.5 158.6ZM153.4 160.7V155.9H151.4V154.8H153.4V151.8H154.7V160.7H153.4Z" fill="#08C879"/>
<path d="M156 159.6V158.5H159.4V157H157V152.4H158.3V153.7H161.8V152.4H163.1V157H160.7V158.6H164.1V159.7H156V159.6ZM161.8 154.7H158.3V155.9H161.8V154.7Z" fill="#08C879"/>
<path d="M165.3 159.2L164.5 158.2C166.4 157.3 167.7 155.6 167.9 153.9H165.1V152.8H169.3C169.3 155.4 168.2 157.6 165.3 159.2ZM170.7 160.7V151.8H172V160.7H170.7Z" fill="#08C879"/>
<path d="M179 159.6C178.8 159.6 178.7 159.5 178.6 159.4C178.4 159.2 178.4 158.8 178.6 158.6L180.9 156.3L178.5 153.9C178.3 153.7 178.3 153.3 178.5 153.1C178.7 152.9 179.1 152.9 179.3 153.1L182.1 155.9C182.2 156 182.3 156.2 182.3 156.3C182.3 156.4 182.2 156.6 182.1 156.7L179.4 159.4C179.3 159.5 179.1 159.6 179 159.6Z" fill="#08C879"/>
<path d="M181.7 156.8H175.6C175.3 156.8 175 156.5 175 156.2C175 155.9 175.3 155.6 175.6 155.6H181.7C182 155.6 182.3 155.9 182.3 156.2C182.3 156.6 182.1 156.8 181.7 156.8Z" fill="#08C879"/>
<path d="M102.2 101.2C102.1 101 102.1 100.8 102 100.7C101.9 100.5 101.8 100.4 101.8 100.2C101.7 100.1 101.6 99.9 101.5 99.8C101.5 99.8 101.5 99.8 101.5 99.7C101.4 99.6 101.3 99.4 101.2 99.3C101.2 99.3 101.2 99.2 101.1 99.2C101 99.1 100.9 99 100.8 98.9L100.7 98.8C100.6 98.7 100.5 98.6 100.4 98.5L100.3 98.4C100.2 98.3 100.1 98.2 99.8998 98.2L99.7998 98.1C99.5998 98 99.4998 97.9 99.2998 97.8C99.2998 97.8 91.7998 93.3 84.2998 90C78.5998 87.5 71.1998 85 67.6998 84.7C66.1998 84.6 63.5998 84.4 61.9998 85.8C61.0998 86.6 59.9998 90.5 58.6998 91.8C55.9998 94.3 52.8998 94.8 51.1998 94.5C49.8998 94.3 50.4998 90.4 50.4998 90.4C50.4998 90.4 52.5998 81.4 54.3998 77.4C52.3998 77.8 50.3998 78.2 49.2998 78.1C48.0998 78 45.4998 76.9 42.8998 75.7L32.7998 101.8C34.2998 102.5 35.5998 103.3 36.4998 103.9C39.3998 105.9 40.3998 109 42.2998 112.5C42.4998 112.9 42.9998 113.4 43.5998 114L46.2998 109.1C47.3998 107.1 50.0998 106.5 52.3998 107.7C54.0998 108.7 54.9998 110.4 54.8998 112.1C56.2998 110.1 58.8998 109.4 60.9998 110.6C63.1998 111.8 63.9998 114.5 62.7998 116.8C64.0998 115.4 66.3998 115 68.3998 116.1C70.5998 117.4 71.4998 120.1 70.2998 122.1V122.2C71.4998 121.4 73.2998 121.3 74.8998 122.2C76.9998 123.4 77.8998 125.7 76.8998 127.4L74.5998 131.5L78.3998 133.6C80.8998 134.9 83.8998 133.9 85.1998 131.4C86.0998 129.7 85.8998 127.7 84.8998 126.2C87.3998 127.2 90.2998 126.1 91.5998 123.7C92.6998 121.6 92.2998 119.2 90.7998 117.6C93.4998 118.9 96.6998 117.8 97.9998 115.2C99.2998 112.6 98.1998 109.5 95.6998 108.1C98.2998 108.8 101.1 107.6 102.3 105.1C102.6 103.8 102.6 102.4 102.2 101.2Z" fill="#FFD221"/>
<path d="M74.6996 122.2C73.0996 121.3 71.2996 121.4 70.0996 122.2V122.1C71.2996 120 70.3996 117.3 68.1996 116.1C66.2996 115 63.9996 115.4 62.5996 116.8C63.6996 114.5 62.8996 111.8 60.7996 110.6C58.6996 109.4 55.9996 110.1 54.6996 112.1C54.8996 110.4 53.8996 108.6 52.1996 107.7C49.9996 106.4 47.1996 107.1 46.0996 109.1L42.3996 115.6C41.2996 117.6 42.1996 120.2 44.3996 121.5C46.1996 122.5 48.3996 122.3 49.6996 121.1C49.0996 123.1 49.9996 125.4 51.8996 126.4C53.8996 127.5 56.4996 126.9 57.8996 125.1C57.2996 127 58.1996 129.3 60.1996 130.4C62.0996 131.5 64.3996 131.1 65.6996 129.7C65.3996 131.3 66.2996 133 67.9996 134C70.0996 135.2 72.4996 134.7 73.4996 133L76.5996 127.4C77.6996 125.7 76.7996 123.4 74.6996 122.2Z" fill="#FFE267"/>
<path d="M99.8 71.8L92.7 74.2L91.2 74.4C91.2 74.4 75.9 71.8 72 71.8C68.1 71.8 57.3 74 55.3 75.7C53.3 77.4 50.3 90.4 50.3 90.4C50.3 90.4 49.6 94.3 51 94.5C52.7 94.8 55.9 94.2 58.5 91.8C59.8 90.6 60.9 86.7 61.8 85.8C63.4 84.4 66 84.6 67.5 84.7C71 85 78.5 87.5 84.1 90C91.6 93.2 99.1 97.8 99.1 97.8C100.6 98.5 101.6 99.7 102.1 101.2C102.1 101.2 102.7 99.4 103.8 98.7C104.2 98.4 106.7 97.6 109.4 96.9L99.8 71.8Z" fill="#FFE48A"/>
<path d="M74.6996 122.2C73.0996 121.3 71.2996 121.4 70.0996 122.2V122.1C71.2996 120 70.3996 117.3 68.1996 116.1C66.2996 115 63.9996 115.4 62.5996 116.8C63.6996 114.5 62.8996 111.8 60.7996 110.6C58.6996 109.4 55.9996 110.1 54.6996 112.1C54.8996 110.4 53.8996 108.6 52.1996 107.7C49.9996 106.4 47.1996 107.1 46.0996 109.1L42.3996 115.6C41.2996 117.6 42.1996 120.2 44.3996 121.5C46.1996 122.5 48.3996 122.3 49.6996 121.1C49.0996 123.1 49.9996 125.4 51.8996 126.4C53.8996 127.5 56.4996 126.9 57.8996 125.1C57.2996 127 58.1996 129.3 60.1996 130.4C62.0996 131.5 64.3996 131.1 65.6996 129.7C65.3996 131.3 66.2996 133 67.9996 134C70.0996 135.2 72.4996 134.7 73.4996 133L76.5996 127.4C77.6996 125.7 76.7996 123.4 74.6996 122.2Z" fill="#FFE48A"/>
<path d="M126.6 95.4L114.4 63.8C113.8 62.2 111.9 61.3 110.3 62L100.9 65.6C99.3 66.2 98.4 68.1 99.1 69.7L111.3 101.3C111.9 102.9 113.8 103.8 115.4 103.1L124.8 99.5C126.4 98.9 127.2 97.1 126.6 95.4Z" fill="#08C879"/>
<path d="M107.9 69.5C107.4 68.2 106 67.6 104.7 68.1C103.4 68.6 102.8 70 103.3 71.3C103.8 72.6 105.2 73.2 106.5 72.7C107.8 72.2 108.4 70.8 107.9 69.5Z" fill="white"/>
<path d="M41.9997 68.8L32.5997 65.2C30.9997 64.6 29.0997 65.4 28.4997 67L16.1997 98.6C15.5997 100.2 16.3997 102.1 17.9997 102.7L27.3997 106.3C28.9997 106.9 30.8997 106.1 31.4997 104.5L43.7997 73C44.3997 71.3 43.5997 69.5 41.9997 68.8Z" fill="#00599F"/>
<path d="M38 71.3C36.7 70.8 35.3 71.4 34.8 72.7C34.3 74 34.9 75.4 36.2 75.9C37.5 76.4 38.9 75.8 39.4 74.5C39.9 73.2 39.3 71.8 38 71.3Z" fill="white"/>
<path d="M97.9996 59.9C93.6996 58.8 90.3996 55.5 89.2996 51.2L89.0996 50.5L88.9996 51.2C87.8996 55.5 84.5996 58.8 80.2996 59.9L79.5996 60.1L80.2996 60.3C84.5996 61.4 87.8996 64.7 88.9996 69L89.1996 69.7L89.3996 69C90.4996 64.7 93.7996 61.4 98.0996 60.3L98.7996 60.1L97.9996 59.9Z" fill="#488EFF"/>
<path d="M33.6998 121C29.5998 120 26.3998 116.8 25.2998 112.6L25.0998 111.9L24.8998 112.6C23.8998 116.7 20.6998 119.9 16.4998 121L15.7998 121.2L16.4998 121.4C20.5998 122.4 23.7998 125.6 24.8998 129.8L25.0998 130.5L25.2998 129.8C26.2998 125.7 29.4998 122.5 33.6998 121.4L34.3998 121.2L33.6998 121Z" fill="#00599F"/>
<path d="M40.6998 56.5C37.9998 55.8 35.7998 53.7 35.0998 50.9L34.9998 50.4L34.8998 50.9C34.1998 53.6 32.0998 55.8 29.2998 56.5L28.7998 56.6L29.2998 56.7C31.9998 57.4 34.1998 59.5 34.8998 62.3L34.9998 62.8L35.0998 62.3C35.7998 59.6 37.8998 57.4 40.6998 56.7L41.1998 56.6L40.6998 56.5Z" fill="#00599F"/>
<path d="M95.8998 137.4C92.8998 136.6 90.4998 134.3 89.6998 131.2L89.5998 130.7L89.4998 131.2C88.6998 134.2 86.3998 136.6 83.2998 137.4L82.7998 137.5L83.2998 137.6C86.3998 138.4 88.6998 140.7 89.4998 143.8L89.5998 144.3L89.6998 143.8C90.4998 140.8 92.7998 138.4 95.8998 137.6L96.3998 137.5L95.8998 137.4Z" fill="#FFD221"/>
<path d="M104.5 126.4C102.6 125.9 101.2 124.5 100.7 122.6L100.6 122.3L100.5 122.6C99.9999 124.5 98.5999 125.9 96.6999 126.4L96.3999 126.5L96.6999 126.6C98.5999 127.1 99.9999 128.5 100.5 130.4L100.6 130.7L100.7 130.4C101.2 128.5 102.6 127.1 104.5 126.6L104.8 126.5L104.5 126.4Z" fill="#FFD221"/>
</g>
<defs>
<clipPath id="clip0">
<rect width="320" height="200" fill="white"/>
</clipPath>
</defs>
</svg>
