<svg width="320" height="200" viewBox="0 0 320 200" fill="none" xmlns="http://www.w3.org/2000/svg">
<g clip-path="url(#clip0)">
<path d="M320.1 -0.0999756H0.100098V199.9H320.1V-0.0999756Z" fill="white"/>
<path d="M54.2001 174.6C45.4001 177.3 46.5001 187.5 53.4001 186.5C69.0001 184.2 73.5001 199 80.9001 194.2C90.2001 188 79.7001 166.9 54.2001 174.6Z" fill="#BBBDBF"/>
<path d="M9.9001 199.9H55.5001C55.5001 192 52.3001 169.4 33.4001 158.7C23.4001 153 8.2001 150.1 0.100098 149.8V168.7C26.6001 176.8 17.4001 194 9.9001 199.9Z" fill="#41E587"/>
<path d="M265.9 63.9C264.5 53.7 237.8 49.8 235.1 59C231.6 70.9 267.3 74.3 265.9 63.9Z" fill="#BBBDBF"/>
<path d="M276.7 74.4C275 69.5 263.9 75.6 265.4 80.3C267.3 86.2 280.5 84.9 276.7 74.4Z" fill="#BBBDBF"/>
<path d="M320.2 169.8C318 173.5 314.5 176.7 309.9 178.8C286.6 189.6 257.1 181.3 245.7 170.3C232.7 157.8 219.2 160.5 216.7 170.3C214.3 179.5 223.5 192.6 232 199.8H320.2V169.8Z" fill="#41E587"/>
<path d="M13.6001 -0.0999756C17.4001 7.90002 17.2001 15 10.8001 30.2C0.900136 54 23.3001 76.4 49.6001 60.4C64.8001 51.2 74.3001 36.7 89.9001 25.5C114.6 7.80002 134.1 12.2 152.9 7.40002C162.5 4.90002 165.3 -0.0999756 165.3 -0.0999756H13.6001Z" fill="#41E587"/>
<path d="M307.1 47.7001C304.7 51.8001 295.6 54.7001 292.5 52.8001C291 51.9001 288.6 49.2001 291.9 46.6001C295.3 44.0001 298.5 48.8001 304 45.1001C307.2 43.0001 308.2 45.9001 307.1 47.7001Z" fill="#F9E547"/>
<path d="M315.6 28.6C313.1 39.9 287.5 45.4 258.6 35.9C232.6 27.3 227.3 15.6 233.4 10.9C240.9 5.10002 246.8 20.1 275.9 13.1C312.5 4.40002 317.2 21.3 315.6 28.6Z" fill="#F9E547"/>
<path d="M38.6003 47.7L37.9003 39.5L42.0003 46.8L46.7003 41.8L44.7003 48.3L52.8003 45.6L48.0003 50.7L55.2003 53.8L46.0003 53.7L49.7003 60.2L44.9003 57.5L44.3003 62.9L41.5003 56.5L37.8003 62.5L38.5003 56.6L32.0003 60.4L38.7003 53L30.6003 52.6L37.1003 50.4L31.2003 44.9L38.6003 47.7Z" fill="white"/>
<path d="M42.6138 51.9425L42.1167 51.996L48.2906 109.367L48.7877 109.314L42.6138 51.9425Z" fill="#231F20"/>
<path d="M49.5098 115.784L49.0127 115.838L49.1946 117.528L49.6917 117.475L49.5098 115.784Z" fill="#231F20"/>
<path d="M50.6099 126.285L50.1128 126.338L50.2947 128.028L50.7918 127.975L50.6099 126.285Z" fill="#231F20"/>
<path d="M51.554 135.031L51.0569 135.085L52.9508 152.684L53.4479 152.63L51.554 135.031Z" fill="#231F20"/>
<path d="M59.7003 48.1L50.2003 46.3L60.7003 37.5L44.7003 45.2L46.1003 39.3L42.6003 44.7L39.6003 27.4H40.0003L42.8003 43.7L46.9003 37.4L45.2003 44.6L63.2003 35.8L51.0003 46.1L59.8003 47.7L59.7003 48.1Z" fill="#231F20"/>
<path d="M34.1002 63.5L37.1002 55.3L26.1002 58.2L36.1002 49.2L23.5002 46.5V46.1L36.9002 46.3L35.5002 42.6L35.9002 42.5L37.4002 46.6L25.4002 46.5L36.8002 48.9L27.5002 57.5L37.6002 54.8L35.1002 61.9L39.8002 56.8L40.0002 57.1L34.1002 63.5Z" fill="#231F20"/>
<path d="M49.4002 63.5L44.5002 51.3L50.4002 55.5L47.9002 50.5L61.7002 53.7V54.1L48.6002 51L51.4002 56.6L45.3002 52.3L49.7002 63.3L49.4002 63.5Z" fill="#231F20"/>
<path d="M58.2575 25.8807L51.0908 36.4868L51.4223 36.7108L58.589 26.1047L58.2575 25.8807Z" fill="#231F20"/>
<path d="M45.6475 25.7218L44.9697 34.5959L45.3686 34.6264L46.0463 25.7522L45.6475 25.7218Z" fill="#231F20"/>
<path d="M27.0002 142L26.8002 141.7C32.5002 138.8 35.7002 134.5 37.0002 128.3C37.3002 126.7 37.0002 125 36.7002 123.3C36.6002 122.6 36.5002 121.9 36.4002 121.3V121.2L36.5002 121.1C38.1002 119.6 43.4002 114.3 45.8002 110.2C47.5002 107.3 47.9002 105 47.2002 102C46.7002 99.7 45.5002 98.4 44.2002 98.5C43.2002 98.6 42.8002 99.6 42.1002 101C41.5002 102.3 40.8002 104 39.3002 105.4C37.9002 106.7 35.7002 108.3 33.4002 110C31.5002 111.4 29.5002 112.9 28.0002 114.2C24.3002 117.3 21.2002 121.1 19.6002 124.5C18.9002 125.9 18.5002 127.1 18.1002 128.3C17.5002 130 16.9002 131.6 15.8002 133.4C14.2002 135.9 9.1002 139.9 6.6002 141.9L6.4002 142L6.2002 141.7L6.4002 141.6C8.8002 139.7 13.9002 135.6 15.5002 133.2C16.6002 131.5 17.2002 129.9 17.8002 128.2C18.2002 127 18.7002 125.8 19.3002 124.4C21.0002 121 24.0002 117.2 27.8002 114C29.3002 112.7 31.3002 111.2 33.3002 109.8C35.6002 108.1 37.7002 106.5 39.2002 105.2C40.6002 103.9 41.4002 102.3 41.9002 101C42.6002 99.5 43.1002 98.4 44.3002 98.3C45.8002 98.2 47.1002 99.7 47.7002 102.1C48.4002 105.1 48.0002 107.5 46.3002 110.5C44.0002 114.5 38.7002 119.8 37.0002 121.4C37.1002 122 37.2002 122.7 37.3002 123.3C37.6002 125 37.9002 126.8 37.6002 128.5C36.1002 134.7 32.8002 139 27.0002 142Z" fill="#231F20"/>
<path d="M57.7002 107.2C57.4002 105 55.9002 101.6 54.7002 100C53.5002 98.3 51.7002 96.5 49.7002 97.6C48.9002 98 48.4002 98.6 48.2002 99.2C48.0002 100.1 48.2001 101.2 49.0001 102.5C49.7001 103.6 50.3001 104.3 51.0001 105C51.3001 105.3 51.6001 105.6 52.0001 106L51.7002 106.2C51.4002 105.8 51.0002 105.5 50.7002 105.2C50.0002 104.5 49.3001 103.8 48.6001 102.7C47.8001 101.3 47.5001 100.1 47.8001 99.1C48.0001 98.3 48.6002 97.7 49.4002 97.2C51.1002 96.3 53.0002 97.1 54.9002 99.7C56.1002 101.4 57.6002 104.8 58.0001 107.1L57.7002 107.2Z" fill="#231F20"/>
<path d="M60.7001 116.8L60.3001 116.7C60.9001 114 60.5001 111.1 59.3001 109C57.6001 106.2 54.5001 106.1 52.1001 107.3C49.6001 108.6 47.8001 109.9 47.0001 112.3C46.8001 113 46.8001 113.7 47.2001 114.3C47.6001 114.9 48.4001 115.4 49.3001 115.5C50.5001 115.6 52.2001 115.1 53.8001 114.7C54.4001 114.5 55.0001 114.4 55.5001 114.3L55.6001 114.7C55.1001 114.8 54.5001 115 53.9001 115.1C52.4001 115.5 50.6001 116 49.3001 115.9C48.3001 115.8 47.5001 115.3 47.0001 114.6C46.6001 113.9 46.5001 113.1 46.7001 112.3C47.4001 110.1 48.9001 108.6 52.0001 107.1C54.5001 105.8 57.9001 105.9 59.7001 109C60.9001 111 61.3001 114 60.7001 116.8Z" fill="#231F20"/>
<path d="M43.6002 128C43.4002 128 43.2002 128 43.1002 128C42.0002 127.9 41.0002 127.2 40.7002 126.2C40.5002 125.6 40.2002 124.3 41.6002 122.8C43.1002 121.1 45.8002 118.8 48.3002 117.9C51.7002 116.7 56.4002 115 60.5002 116.7C61.4002 117.1 62.3002 118 62.7002 119.2C63.3002 120.6 63.3002 122.1 62.8002 123.2C62.1002 124.9 60.4002 126.6 60.3002 126.7L60.0002 126.5C60.0002 126.5 61.7002 124.7 62.4002 123.1C62.9002 122 62.9002 120.6 62.3002 119.3C61.8002 118.2 61.1002 117.3 60.3002 117C56.4002 115.4 51.8002 117.1 48.4002 118.2C46.0002 119 43.4002 121.3 41.8002 123C40.9002 124 40.6002 125.1 41.0002 126C41.3002 126.9 42.2002 127.5 43.1002 127.6C45.6002 127.8 50.7002 126.2 52.4002 125.5L52.5002 125.8C50.8002 126.4 46.3002 128 43.6002 128Z" fill="#231F20"/>
<path d="M14.9002 168L14.7002 167.7C18.5002 164.6 30.1002 155.7 34.0002 153.5H34.1002C34.7002 153.4 35.3002 153.2 36.0002 153.1C39.5002 152.4 43.4002 151.5 47.0002 150C54.5002 146.8 58.6002 143.8 61.3002 139.7C62.7002 137.6 63.6002 134.7 63.5002 132.5C63.4002 129.7 61.5002 127.4 59.8002 126.4C57.3002 125 54.9002 126 52.6002 127.2C50.1002 128.5 48.5002 130.1 47.6002 131.9C47.3002 132.6 47.3002 133.4 47.7002 134C48.1002 134.6 48.9002 135 49.7002 135C51.2002 135 53.4002 134.3 55.4002 133.8C56.1002 133.6 56.7002 133.4 57.3002 133.3L57.4002 133.7C56.8002 133.8 56.2002 134 55.5002 134.2C53.5002 134.8 51.2002 135.4 49.7002 135.5C48.7002 135.5 47.8002 135.1 47.4002 134.4C46.9002 133.7 46.9002 132.8 47.3002 131.9C48.2002 130 49.9002 128.4 52.5002 127C54.1002 126.2 57.1002 124.6 60.1002 126.2C61.9002 127.2 63.9002 129.6 64.0002 132.6C64.1002 134.9 63.2002 137.8 61.7002 140C59.0002 144.1 54.8002 147.1 47.2002 150.4C43.6002 152 39.6002 152.8 36.2002 153.5C35.6002 153.6 35.0002 153.8 34.4002 153.9C30.2002 156.1 18.7002 164.9 14.9002 168Z" fill="#231F20"/>
<path d="M54.9408 133.981L54.7966 134.354L57.9681 135.58L58.1123 135.206L54.9408 133.981Z" fill="#231F20"/>
<path d="M50.7001 107.9H50.3001C50.4001 106.7 50.2001 105.9 50.0001 104.8C50.0001 104.6 49.9001 104.5 49.9001 104.3L50.3001 104.2C50.3001 104.4 50.4001 104.5 50.4001 104.7C50.6001 105.7 50.8001 106.6 50.7001 107.9Z" fill="#231F20"/>
<path d="M53.5001 116.7C53.5001 116.7 52.8001 115.9 52.6001 115.2L52.9001 115.1C53.1001 115.7 53.8001 116.5 53.8001 116.5L53.5001 116.7Z" fill="#231F20"/>
<path d="M33.9001 153.8C31.6001 153 30.0001 150.8 29.9001 150.7L30.2001 150.5C30.2001 150.5 31.8001 152.7 34.0001 153.5L33.9001 153.8Z" fill="#231F20"/>
<path d="M48.9003 114.3L48.7003 114C48.7003 114 49.7003 113.1 49.8003 112.2C49.8003 111.8 49.7003 111.5 49.5003 111.2C48.8003 110.4 47.5003 111.4 47.5003 111.4L47.3003 111.1C47.8003 110.7 49.1003 110 49.8003 110.9C50.1003 111.3 50.3003 111.7 50.2003 112.1C50.0003 113.4 48.9003 114.3 48.9003 114.3Z" fill="#231F20"/>
<path d="M42.7002 127L42.5002 126.7C42.5002 126.7 44.1002 125.3 43.5002 124.1C43.3002 123.7 43.0002 123.4 42.7002 123.3C42.1002 123.1 41.4002 123.6 41.4002 123.6L41.2002 123.3C41.2002 123.3 42.0002 122.7 42.8002 122.9C43.3002 123 43.6002 123.3 43.9002 123.9C44.5002 125.4 42.8002 126.9 42.7002 127Z" fill="#231F20"/>
<path d="M52.1002 131L51.5002 128.8L51.9002 129.2C52.6002 129.7 53.7002 130.4 53.9002 130.1C53.9002 130.1 54.0002 130 54.0002 129.9C54.0002 129.4 52.9002 128.4 52.2002 127.9L52.4002 127.6C52.6002 127.7 54.3002 129 54.3002 129.9C54.3002 130.1 54.3002 130.2 54.1002 130.3C53.6002 130.7 52.6002 130.1 52.0002 129.7L52.3002 130.8L52.1002 131Z" fill="#231F20"/>
<path d="M49.5003 122.7C48.9003 122.7 48.1003 121.8 47.5003 121L47.6003 121.5L47.2003 121.6L46.8003 119.5L47.3003 120.2C48.1003 121.4 49.2003 122.5 49.5003 122.3C49.8003 122.1 49.2003 120.8 48.5003 119.7L48.8003 119.5C49.2003 120.1 50.4003 122.2 49.7003 122.6C49.7003 122.7 49.6003 122.7 49.5003 122.7Z" fill="#231F20"/>
<path d="M55.6001 109.4C55.0001 109.4 54.2001 108.9 53.7001 108.6L53.9001 109.1L53.6001 109.2L53.1001 107.6L53.6001 107.9C54.4001 108.5 55.7001 109.2 55.9001 108.9C55.9001 108.9 55.9001 108.9 55.9001 108.8C55.9001 108.5 55.0001 107.8 54.4001 107.4L54.6001 107.1C54.9001 107.3 56.2001 108.1 56.3001 108.8C56.3001 108.9 56.3001 109.1 56.2001 109.2C56.0001 109.3 55.8001 109.4 55.6001 109.4Z" fill="#231F20"/>
<path d="M49.3001 134.1L49.0001 133.9C49.0001 133.9 49.8001 133.1 49.7001 132.3C49.7001 132 49.6001 131.8 49.4001 131.6C48.6001 130.9 47.7001 131.7 47.6001 131.8L47.4001 131.5C47.8001 131.1 48.8001 130.6 49.6001 131.3C49.9001 131.6 50.0001 131.9 50.1001 132.3C50.2001 133.2 49.3001 134.1 49.3001 134.1Z" fill="#231F20"/>
<path d="M281.9 134.5C281.7 134.5 275.9 134.4 273.1 133.7C266.9 132 264 128.9 261.4 126.1C260.3 124.9 259.3 123.8 258.1 122.9C255.1 120.7 250.8 119.8 246.9 119.1C245.2 118.8 243.5 118.4 242.2 118C239.3 117.1 235.6 114.3 234.5 112.2C234.1 111.5 233.6 110.1 234.1 108.8C234.5 107.9 235.4 107.3 236.7 106.9C238 106.5 241.2 107.5 243.8 108.4C244.9 108.7 245.8 109 246.4 109.2C252.3 110.4 268.4 110.7 268.6 110.7V111C268.4 111 252.3 110.7 246.3 109.5C245.7 109.4 244.8 109.1 243.7 108.7C241.3 107.9 238 106.9 236.8 107.2C235.6 107.5 234.7 108.1 234.4 108.9C233.9 110 234.4 111.3 234.8 112C235.8 114 239.5 116.8 242.3 117.7C243.6 118.1 245.2 118.4 247 118.8C250.9 119.6 255.3 120.4 258.3 122.7C259.5 123.6 260.6 124.7 261.7 125.9C264.2 128.6 267.1 131.7 273.2 133.4C275.9 134.1 281.8 134.2 281.9 134.2V134.5Z" fill="#231F20"/>
<path d="M298.4 121.6C298.4 121.6 295.1 121 291.5 118.6C289.7 117.4 287.4 115.7 285 113.8C279.7 109.6 273.6 104.9 268.9 103.6C267.4 103.2 265 103.4 261.7 103.6C258 103.9 253.3 104.2 247.6 103.9C246.7 103.8 245.7 103.8 244.8 103.7C239.6 103.3 235.5 103.1 234.3 105.4C233.5 107 234.4 108 234.4 108.1L234.2 108.3C234.2 108.3 233.1 107.1 234 105.3C235.3 102.8 239.5 103.1 244.8 103.4C245.7 103.5 246.6 103.5 247.5 103.6C253.2 103.9 257.8 103.6 261.5 103.3C264.8 103.1 267.3 102.9 268.9 103.3C273.7 104.6 279.7 109.3 285.1 113.5C287.5 115.4 289.7 117.1 291.5 118.3C295.1 120.6 298.2 121.3 298.3 121.3L298.4 121.6Z" fill="#231F20"/>
<path d="M291.3 145.3C291.2 145.3 285 143.2 281 142.6C280 142.4 278.8 142.3 277.5 142.2C274.4 141.9 270.4 141.5 267.2 140.3C261.5 138.2 256.3 132.8 253.8 130.2C253.2 129.6 252.8 129.2 252.6 129C250.7 127.4 249.5 127.1 248.2 126.8C247.7 126.7 247.2 126.5 246.7 126.4C246.4 126.3 246 126.2 245.6 126C242.8 125.1 238.6 123.8 237.8 121.9C237.6 121.4 237.6 121 237.9 120.5C239 118.3 243.5 119.6 246.8 120.5C247 120.6 247.2 120.6 247.4 120.7C249.9 121.4 253.3 123.1 253.4 123.1L253.3 123.4C253.3 123.4 249.9 121.7 247.4 121.1C247.2 121 247 121 246.8 120.9C243.8 120.1 239.3 118.8 238.3 120.7C238.1 121.1 238.1 121.5 238.2 121.8C238.9 123.5 243.2 124.9 245.8 125.7C246.2 125.8 246.6 126 246.9 126.1C247.5 126.3 247.9 126.4 248.4 126.5C249.8 126.9 251 127.2 253 128.8C253.2 129 253.7 129.4 254.2 130C256.7 132.6 261.9 138 267.5 140C270.7 141.2 274.6 141.6 277.7 141.9C279 142 280.2 142.2 281.3 142.3C285.3 143 291.6 145 291.6 145.1L291.3 145.3Z" fill="#231F20"/>
<path d="M235.3 117.2C235.2 117.1 233.4 115.9 233.3 114.2C233.1 112.3 234.7 111.9 234.7 111.9L234.8 112.2V112V112.2C234.7 112.2 233.5 112.5 233.7 114.2C233.8 115.8 235.6 117 235.6 117L235.3 117.2Z" fill="#231F20"/>
<path d="M264.5 110.7C263.3 109 260.4 109.2 260.3 109.2V108.9C260.4 108.9 263.5 108.7 264.8 110.5L264.5 110.7Z" fill="#231F20"/>
<path d="M237.7 120.9C237.6 120.9 236.3 120.2 235.5 119.2C234.9 118.4 234.7 117.4 235.2 116.6C235.7 115.7 236.9 115.4 238.4 115.6L238.3 115.9C236.9 115.6 235.9 115.9 235.4 116.7C235 117.3 235.1 118.2 235.7 118.9C236.4 119.8 237.8 120.5 237.8 120.5L237.7 120.9Z" fill="#231F20"/>
<path d="M238.1 111.7C236.7 111.7 234.3 110.7 234.2 110.6L234.3 110.3C235.2 110.7 237.8 111.6 238.7 111.2C239.6 110.8 239.9 110.1 240 109.7C240.1 109.3 240.1 108.8 239.9 108.5C239.7 108.2 238.2 107.8 237.2 107.6L237.3 107.3C237.7 107.4 239.9 107.8 240.2 108.3C240.4 108.7 240.5 109.2 240.3 109.7C240.1 110.4 239.6 111 238.8 111.4C238.7 111.6 238.4 111.7 238.1 111.7Z" fill="#231F20"/>
<path d="M232.5 57L231.1 50L229.5 57.1L224.3 54.2L227.7 59L220.3 58.8L225.5 61.8L220.4 66.2L227.9 63.8L226.4 70.1L229.7 66.6L231.6 71L232.3 65L236.9 69L234.9 64.3L241.2 65.8L233.8 61.4L240.3 59.1L234.4 58.8L237.9 52.8L232.5 57Z" fill="#F2E03D"/>
<path d="M230.72 61.4558L230.228 61.5485L238.789 106.949L239.28 106.857L230.72 61.4558Z" fill="#231F20"/>
<path d="M241.284 117.32L240.793 117.413L246.426 147.287L246.917 147.194L241.284 117.32Z" fill="#231F20"/>
<path d="M215.2 62.6L215 62.3L221.9 58.7L209.2 53.3L226.2 56.1L223.1 50.5L228 54.8L226.3 40.6L226.6 40.5L228.4 55.6L224.3 52L226.9 56.5L211.8 54.1L222.6 58.7L215.2 62.6Z" fill="#231F20"/>
<path d="M240.2 68.9L233.7 65.1L233.8 64.8L238.9 67.8L235.1 62.6L244.1 62.3L234.3 57.6L243.1 52.7L233.3 55.8L233.5 52H233.8L233.6 55.4L244.6 51.9L244.7 52.2L235 57.6L245.5 62.6L235.7 62.9L240.2 68.9Z" fill="#231F20"/>
<path d="M227.6 72.7H227.2L228.2 62.5L224.2 67.6L225.1 62.2L215.1 68L214.9 67.7L225.5 61.6L224.7 66.4L228.6 61.4L227.6 72.7Z" fill="#231F20"/>
<path d="M210.902 43.9239L210.713 44.1566L219.245 51.0998L219.435 50.8671L210.902 43.9239Z" fill="#231F20"/>
<path d="M221.197 40.706L220.917 40.8145L223.7 47.9939L223.979 47.8855L221.197 40.706Z" fill="#231F20"/>
<path d="M246 114.1C245.9 114.1 245.9 114.1 245.8 114.1C245.6 114 245.5 113.9 245.4 113.8C245 112.9 245.9 110.7 246 110.4L246.3 110.5C246 111.2 245.4 113 245.7 113.6C245.7 113.7 245.8 113.7 245.9 113.8C246.4 113.9 246.8 113.2 247.2 112.5C247.6 111.8 248.1 111.1 248.6 111.4C248.8 111.5 248.9 111.6 248.9 111.8C249 112.2 248.8 112.7 248.4 113.2L248.1 113C248.5 112.5 248.6 112.1 248.5 111.8C248.5 111.7 248.4 111.6 248.4 111.6C248.1 111.5 247.8 112.1 247.4 112.6C247.1 113.4 246.6 114.1 246 114.1Z" fill="#231F20"/>
<path d="M246.5 109.1L246.2 109C246.2 109 246.6 107.7 246.5 106.4H246.8C246.9 107.8 246.5 109 246.5 109.1Z" fill="#231F20"/>
<path d="M242.9 123.9L242.6 123.7C242.6 123.7 243.4 122.3 243.5 120.9H243.8C243.7 122.4 242.9 123.9 242.9 123.9Z" fill="#231F20"/>
<path d="M247.6 125.3L247.3 125.2C247.3 125.2 248 123.9 248.1 122.6H248.4C248.3 124 247.6 125.3 247.6 125.3Z" fill="#231F20"/>
<path d="M254.3 110.2C254.2 109 254.4 107.9 254.4 107.8L254.7 107.9C254.7 107.9 254.5 109 254.6 110.2H254.3Z" fill="#231F20"/>
<path d="M290 147.2C289.9 147.2 289.8 147.2 289.7 147.2C289 147 288.5 146 288.4 144.3H288.7C288.8 145.9 289.2 146.8 289.8 146.9C290.6 147.1 291.9 145.9 293.2 143.5C294.6 141 296 137.6 297.1 133.8C299.5 125.4 299.5 119.3 297.9 118.8C297.5 118.7 296.5 118.9 295.4 120.5L295.1 120.3C296.2 118.7 297.4 118.3 298 118.5C300 119.1 299.7 125.8 297.4 133.9C296.3 137.7 294.9 141.2 293.5 143.7C292.5 145.3 291.2 147.2 290 147.2Z" fill="#231F20"/>
<path d="M290.2 146C290.1 146 290.1 146 290 146C289.4 145.8 289.3 144.6 289.3 144.5H289.6C289.6 144.9 289.8 145.6 290.1 145.7C291.3 146 294.2 141.1 296.4 133.6C298.6 126.1 298.8 120.5 297.6 120C297.3 119.9 296.7 120.5 296.4 120.8L296.1 120.6C296.2 120.5 297 119.4 297.7 119.7C299.2 120.4 298.8 126.4 296.6 133.7C294.9 139.8 292 146 290.2 146Z" fill="#231F20"/>
<path d="M302.2 151.5C302.1 151.5 302 151.5 301.9 151.5C301.2 151.3 290.2 147.4 289.7 147.2L289.8 146.9C289.9 146.9 301.3 151 301.9 151.2C302.7 151.4 304.2 150.2 305.7 148C307.4 145.5 308.9 142.1 309.9 138.5C312.2 130.6 311.8 124.2 310 123.1C309.1 122.5 298 118.9 297.9 118.8L298 118.5C298.5 118.7 309.2 122.2 310.2 122.8C312.4 124.1 312.4 131.2 310.2 138.5C309.1 142.1 307.6 145.5 305.9 148.1C304.5 150.3 303.2 151.5 302.2 151.5Z" fill="#231F20"/>
<path d="M299.6 147.7C299.4 147.7 299.2 147.7 299 147.6C298.6 147.5 298.3 147.2 298.1 146.9C297.9 146.6 297.8 146.2 297.9 145.8C298 145.5 298.3 145.2 298.6 145C299 144.9 299.4 144.8 299.8 145C300.6 145.3 301.1 146.1 300.9 146.8C300.8 147.3 300.2 147.7 299.6 147.7ZM299.3 145.3C299.1 145.3 299 145.3 298.8 145.4C298.5 145.5 298.3 145.7 298.2 146C298.1 146.3 298.2 146.5 298.3 146.8C298.5 147.1 298.7 147.3 299.1 147.4C299.8 147.6 300.4 147.4 300.6 146.8C300.8 146.3 300.4 145.7 299.7 145.4C299.6 145.3 299.4 145.3 299.3 145.3Z" fill="#231F20"/>
<path d="M310.2 154.2C305.5 152.1 303 151 303 151L303.1 150.7C303.1 150.7 305.6 151.8 310.3 153.9L310.2 154.2Z" fill="#231F20"/>
<path d="M310.79 123.56L310.71 123.849L316.013 125.31L316.092 125.02L310.79 123.56Z" fill="#231F20"/>
<path d="M50.7 181.6C48 181.6 45.2 181.1 42.7 180.1C37.6 178.2 34.6 175 34.5 171.5C34.5 168.7 35.7 166.3 38.2 164.7C41.7 162.3 46.9 161.9 49.6 163C55.3 165.4 59.1 168.8 59.9 172.5C60.4 174.8 59.8 177.1 58 179.1C56.5 180.8 53.8 181.6 50.7 181.6ZM46 162.9C43.5 162.9 40.5 163.6 38.3 165.1C36 166.7 34.8 168.9 34.8 171.6C34.8 174.9 37.8 178 42.7 179.8C47.9 181.7 54.9 182 57.5 179C59.2 177.1 59.8 174.9 59.3 172.7C58.5 169.1 54.8 165.8 49.2 163.5C48.5 163.1 47.3 162.9 46 162.9Z" fill="#231F20"/>
<path d="M292.2 164.5C290.3 159.2 278.3 165.8 279.9 170.8C281.9 177.3 296.2 175.9 292.2 164.5Z" fill="#41E587"/>
<path d="M82.0001 12L84.6001 9.59998L83.5001 13L86.8001 14.7L83.0001 14.8L82.3001 18.5L81.1001 14.8L76.9001 15L80.5001 13L79.3001 9.59998L82.0001 12Z" fill="#F9E547"/>
<path d="M305.6 97.6001L308.2 95.2001L307.1 98.7001L310.4 100.3L306.6 100.4L305.9 104.1L304.7 100.4L300.5 100.6L304.1 98.7001L302.9 95.2001L305.6 97.6001Z" fill="#F9E547"/>
<path d="M72.4 159.2L75 156.8L73.9 160.2L77.2 161.8L73.4 162L72.7 165.7L71.5 162L67.3 162.2L70.9 160.2L69.7 156.8L72.4 159.2Z" fill="#F9E547"/>
<path d="M147.3 107.3C147 107.3 146.7 107.2 146.5 107L142 103.9C141.3 103.4 141.1 102.5 141.6 101.8C142.1 101.1 143 100.9 143.7 101.4L148.2 104.5C148.9 105 149.1 105.9 148.6 106.6C148.2 107 147.8 107.3 147.3 107.3Z" fill="#F9E547"/>
<path d="M113.2 59.4C113.3 59.1 113.5 58.9 113.8 58.8L118.6 56.2C119.3 55.8 120.2 56.1 120.6 56.8C121 57.5 120.7 58.4 120 58.8L115.2 61.4C114.5 61.8 113.6 61.5 113.2 60.8C113 60.3 113 59.8 113.2 59.4Z" fill="#F9E547"/>
<path d="M102.9 178.1C102.5 178.1 102.1 177.9 101.8 177.6C101.3 177 101.3 176 102 175.5L106.1 171.9C106.7 171.4 107.7 171.4 108.2 172.1C108.7 172.7 108.7 173.7 108 174.2L103.9 177.8C103.6 178 103.2 178.1 102.9 178.1Z" fill="#1A75BB"/>
<path d="M283 94.5001C282.5 94.5001 282 94.2001 281.7 93.7001C281.3 93.0001 281.6 92.1001 282.3 91.7001L287.1 89.1001C287.8 88.7001 288.7 89.0001 289.1 89.7001C289.5 90.4001 289.2 91.3001 288.5 91.7001L283.7 94.3001C283.5 94.5001 283.2 94.5001 283 94.5001Z" fill="#41E587"/>
<path d="M74.5002 84.7C74.0002 84.7 73.5002 84.4 73.2002 83.9C72.8002 83.2 73.1002 82.3 73.8002 81.9L78.6002 79.3C79.3002 78.9 80.2002 79.2 80.6002 79.9C81.0002 80.6 80.7002 81.5 80.0002 81.9L75.2002 84.5C75.0002 84.7 74.7002 84.7 74.5002 84.7Z" fill="#41E587"/>
<path d="M152.1 159.2C152.2 159.7 152.1 160.3 151.7 160.7C151.1 161.3 150.2 161.3 149.6 160.7L145.8 156.8C145.2 156.2 145.2 155.3 145.8 154.7C146.4 154.1 147.3 154.1 147.9 154.7L151.7 158.6C151.9 158.8 152 159 152.1 159.2Z" fill="#41E587"/>
<path d="M204.5 20.2C204.6 20.7 204.5 21.3 204.1 21.7C203.5 22.3 202.6 22.3 202 21.7L198.2 17.8C197.6 17.2 197.6 16.3 198.2 15.7C198.8 15.1 199.7 15.1 200.3 15.7L204.1 19.6C204.3 19.7 204.4 20 204.5 20.2Z" fill="#41E587"/>
<path d="M216.4 158.3C215.9 158.3 215.4 158 215.1 157.5C214.7 156.8 215 155.9 215.7 155.5L220.5 152.9C221.2 152.5 222.1 152.8 222.5 153.5C222.9 154.2 222.6 155.1 221.9 155.5L217.1 158.1C216.9 158.2 216.7 158.3 216.4 158.3Z" fill="#F9E547"/>
<path d="M145 29.5001C144.5 29.5001 144 29.2001 143.7 28.7001C143.3 28.0001 143.6 27.1001 144.3 26.7001L149.1 24.1001C149.8 23.7001 150.7 24.0001 151.1 24.7001C151.5 25.4001 151.2 26.3001 150.5 26.7001L145.7 29.3001C145.5 29.4001 145.3 29.5001 145 29.5001Z" fill="#1A75BB"/>
<path d="M24.6001 86.5C24.1001 86.5 23.6001 86.2 23.3001 85.7L20.6001 80.9C20.2001 80.2 20.5001 79.3 21.2001 78.9C21.9001 78.5 22.8001 78.8 23.2001 79.5L25.9001 84.3C26.3001 85 26.0001 85.9 25.3001 86.3C25.1001 86.4 24.9001 86.5 24.6001 86.5Z" fill="#1A75BB"/>
<path d="M106.3 35.5H111.4L109 50.7H102.7L101.6 45.1H101.3L100.2 50.7H93.9L91.5 35.6H96.6L97.7 44.1H97.8L99.6 35.6H103.3L105 44H105.1L106.3 35.5Z" fill="#41E587"/>
<path d="M122.3 45H117.5V46.8H123.4V50.7H112.6V35.5H123.3L122.7 39.4H117.5V41.4H122.3V45Z" fill="#41E587"/>
<path d="M135.1 50.7H125.4V35.5H130.2V46.8H135V50.7H135.1Z" fill="#41E587"/>
<path d="M146.5 46.3L146.9 50.4C145.9 50.8 144.6 51 143.1 51C141.7 51 140.5 50.8 139.5 50.5C138.6 50.2 137.8 49.7 137.3 49.1C136.7 48.5 136.4 47.6 136.1 46.6C135.9 45.6 135.8 44.4 135.8 43.1C135.8 41.8 135.9 40.6 136.1 39.6C136.3 38.6 136.7 37.8 137.2 37.1C137.7 36.4 138.5 35.9 139.4 35.6C140.3 35.3 141.5 35.1 142.9 35.1C143.2 35.1 143.6 35.1 143.9 35.2C144.3 35.2 144.7 35.3 145 35.3C145.4 35.4 145.7 35.4 146.1 35.5C146.4 35.6 146.7 35.7 146.9 35.8L146.2 39.5C145.1 39.3 144.2 39.2 143.3 39.2C142.4 39.2 141.8 39.3 141.5 39.4C141.2 39.6 141 39.9 141 40.4V46.7C141.3 46.8 141.6 46.8 141.9 46.9C142.2 46.9 142.5 47 142.9 47C144.2 46.9 145.4 46.7 146.5 46.3Z" fill="#41E587"/>
<path d="M147.9 43.1C147.9 41.7 148 40.5 148.3 39.5C148.5 38.5 148.9 37.7 149.5 37C150.1 36.4 150.8 35.9 151.7 35.6C152.6 35.3 153.7 35.1 155.1 35.1C156.5 35.1 157.6 35.3 158.5 35.6C159.4 35.9 160.1 36.4 160.7 37C161.3 37.6 161.7 38.5 161.9 39.5C162.1 40.5 162.3 41.7 162.3 43.1C162.3 44.4 162.2 45.6 162 46.6C161.8 47.6 161.4 48.4 160.9 49.1C160.4 49.8 159.6 50.3 158.7 50.6C157.8 50.9 156.6 51.1 155.2 51.1C153.8 51.1 152.6 50.9 151.7 50.6C150.8 50.3 150 49.8 149.5 49.1C149 48.4 148.6 47.6 148.4 46.6C148 45.6 147.9 44.4 147.9 43.1ZM153.1 40.6V46.9H155.1C155.8 46.9 156.3 46.8 156.5 46.7C156.8 46.5 156.9 46.2 156.9 45.6V39.3H154.9C154.3 39.3 153.8 39.4 153.5 39.5C153.2 39.7 153.1 40 153.1 40.6Z" fill="#41E587"/>
<path d="M168.3 50.7H163.2L164.1 35.6H170.4L172.3 43.3H172.5L174.4 35.6H180.7L181.6 50.7H176.5L176.2 43.3H176L174.1 50.7H170.4L168.5 43.3H168.4L168.3 50.7Z" fill="#41E587"/>
<path d="M193.2 45H188.4V46.8H194.3V50.7H183.5V35.5H194.2L193.6 39.4H188.4V41.4H193.2V45Z" fill="#41E587"/>
<path d="M213.2 39.4H209.7V50.7H204.9V39.4H201.4V35.5H213.3V39.4H213.2Z" fill="#41E587"/>
<path d="M213.8 43.1C213.8 41.7 213.9 40.5 214.2 39.5C214.4 38.5 214.8 37.7 215.4 37C216 36.4 216.7 35.9 217.6 35.6C218.5 35.3 219.6 35.1 221 35.1C222.4 35.1 223.5 35.3 224.4 35.6C225.3 35.9 226 36.4 226.6 37C227.2 37.6 227.6 38.5 227.8 39.5C228 40.5 228.2 41.7 228.2 43.1C228.2 44.4 228.1 45.6 227.9 46.6C227.7 47.6 227.3 48.4 226.8 49.1C226.3 49.8 225.5 50.3 224.6 50.6C223.7 50.9 222.5 51.1 221.1 51.1C219.7 51.1 218.5 50.9 217.6 50.6C216.7 50.3 215.9 49.8 215.4 49.1C214.9 48.4 214.5 47.6 214.3 46.6C213.9 45.6 213.8 44.4 213.8 43.1ZM219 40.6V46.9H221C221.7 46.9 222.2 46.8 222.4 46.7C222.7 46.5 222.8 46.2 222.8 45.6V39.3H220.8C220.2 39.3 219.7 39.4 219.4 39.5C219.2 39.7 219 40 219 40.6Z" fill="#41E587"/>
<path d="M118.8 72.3L119.5 68.3C121 68.7 122.3 68.8 123.5 68.8C124.1 68.8 124.6 68.8 125.1 68.8C125.6 68.8 126 68.7 126.3 68.7V67.5L124.1 67.3C123.1 67.2 122.3 67 121.6 66.8C120.9 66.6 120.4 66.3 120 65.9C119.6 65.5 119.3 65 119.2 64.5C119 63.9 118.9 63.3 118.9 62.5C118.9 61.5 119 60.6 119.2 59.9C119.4 59.2 119.8 58.6 120.2 58.2C120.7 57.8 121.3 57.5 122 57.3C122.7 57.1 123.7 57 124.7 57C126.8 57 128.8 57.2 130.5 57.6L129.9 61.5C128.4 61.3 127.2 61.1 126.3 61.1C125.4 61.1 124.6 61.1 124 61.2V62.4L125.7 62.6C126.8 62.7 127.7 62.9 128.4 63.1C129.1 63.3 129.7 63.7 130.1 64.1C130.5 64.5 130.8 65 131 65.5C131.2 66.1 131.3 66.7 131.3 67.4C131.3 68.4 131.2 69.3 130.9 70C130.6 70.7 130.3 71.2 129.9 71.6C129.6 71.9 129.2 72.1 128.7 72.3C128.2 72.5 127.8 72.6 127.2 72.7C126.7 72.8 126.2 72.8 125.7 72.9C125.2 72.9 124.7 72.9 124.3 72.9C123.2 72.9 122.2 72.8 121.3 72.7C120.6 72.7 119.7 72.5 118.8 72.3Z" fill="#41E587"/>
<path d="M141.9 72.6V67.2H138.3V72.6H133.5V57.4H138.3V62.8H141.9V57.4H146.7V72.5L141.9 72.6Z" fill="#41E587"/>
<path d="M158.8 66.8H154V68.6H159.9V72.5H149.1V57.4H159.8L159.2 61.3H154V63.3H158.8V66.8Z" fill="#41E587"/>
<path d="M171.7 66.8H166.9V68.6H172.8V72.5H162V57.4H172.7L172.1 61.3H166.9V63.3H171.7V66.8Z" fill="#41E587"/>
<path d="M182.8 68.9H179.6V72.6H174.8V57.4H182.4C185.9 57.4 187.6 59.3 187.6 63C187.6 63.8 187.5 64.6 187.4 65.3C187.2 66 187 66.6 186.6 67.2C186.2 67.7 185.7 68.2 185.1 68.5C184.5 68.7 183.7 68.9 182.8 68.9ZM180.8 61.3H179.7V65H180.8C181.4 65 181.8 64.9 182.1 64.8C182.4 64.7 182.5 64.4 182.5 64V62.3C182.5 61.9 182.4 61.6 182.1 61.5C181.8 61.3 181.4 61.3 180.8 61.3Z" fill="#41E587"/>
<path d="M188.5 72.3L189.2 68.3C190.7 68.7 192 68.8 193.2 68.8C193.8 68.8 194.3 68.8 194.8 68.8C195.3 68.8 195.7 68.7 196 68.7V67.5L193.8 67.3C192.8 67.2 192 67 191.3 66.8C190.6 66.6 190.1 66.3 189.7 65.9C189.3 65.5 189 65 188.9 64.5C188.7 63.9 188.6 63.3 188.6 62.5C188.6 61.5 188.7 60.6 188.9 59.9C189.1 59.2 189.5 58.6 189.9 58.2C190.4 57.8 191 57.5 191.7 57.3C192.4 57.1 193.4 57 194.4 57C196.5 57 198.5 57.2 200.2 57.6L199.6 61.5C198.1 61.3 196.9 61.1 196 61.1C195.1 61.1 194.3 61.1 193.7 61.2V62.4L195.4 62.6C196.5 62.7 197.4 62.9 198.1 63.1C198.8 63.3 199.4 63.7 199.8 64.1C200.2 64.5 200.5 65 200.7 65.5C200.9 66.1 201 66.7 201 67.4C201 68.4 200.9 69.3 200.6 70C200.3 70.7 200 71.2 199.6 71.6C199.3 71.9 198.9 72.1 198.4 72.3C197.9 72.5 197.5 72.6 196.9 72.7C196.4 72.8 195.9 72.8 195.4 72.9C194.9 72.9 194.4 72.9 194 72.9C192.9 72.9 191.9 72.8 191 72.7C190.4 72.7 189.4 72.5 188.5 72.3Z" fill="#41E587"/>
<path d="M66.5 88H70.3V86.5H74.9V88H78.7V91.3H74.8V91.9C74.8 94.6 76.4 95.3 78.9 95.4V98.9C76.1 98.8 73.7 98 72.6 96.4C71.5 98.1 69.1 99 66.2 99.1V95.6C68.7 95.4 70.3 94.5 70.3 91.8V91.2H66.4L66.5 88ZM74.2 99.7H79V99.8C79 101.8 81.5 103 86 103V106.7C80.8 106.7 78.1 105.2 76.6 103.6C75 105.3 72.3 106.7 67.2 106.7V103C71.8 103 74.3 101.9 74.3 99.8V99.7H74.2ZM77.7 91.8H80.7V87H85.4V100.6H80.7V95H77.7V91.8Z" fill="#00589B"/>
<path d="M93.7 103.1L98.2 102.8V100.1H103V102.5L107.7 102.2V105.8L93.7 106.6V103.1ZM93.9 88.1H98V86.6H103V88.1H107.1V91.4H93.8L93.9 88.1ZM97.2 99.5C95.6 99.5 94.1 97.8 94.1 95.7C94.1 93.6 95.6 91.9 97.2 91.9H103.8C105.4 91.9 106.9 93.6 106.9 95.7C106.9 97.8 105.4 99.5 103.8 99.5H97.2ZM98.6 96.4H102.6C102.9 96.4 103.2 96 103.2 95.7C103.2 95.3 102.9 95 102.6 95H98.6C98.3 95 98 95.3 98 95.7C97.9 96.1 98.2 96.4 98.6 96.4ZM108.2 87H113V106.7H108.2V87Z" fill="#00589B"/>
<path d="M114.9 94.5H129V97.7H123.4L122.7 101.4H120.5V103.6H134.4V106.7H116.1V100.4H118.5L119 97.7H114.8V94.5C114.8 94.5 114.9 94.5 114.9 94.5ZM118.7 87.2H124.6C126.6 87.2 128 88.7 128 90.6C128 92.4 126.6 93.9 124.6 93.9H118.7C116.7 93.9 115.3 92.4 115.3 90.6C115.3 88.7 116.7 87.2 118.7 87.2ZM120 91.2H123.3C123.6 91.2 123.9 90.9 123.9 90.6C123.9 90.2 123.6 89.9 123.3 89.9H120C119.7 89.9 119.5 90.2 119.5 90.6C119.5 90.9 119.8 91.2 120 91.2ZM124.4 98.4H129.6V87H134.3V102.4H129.6V101.3H124.4V98.4Z" fill="#00589B"/>
<path d="M136.6 92.5C136.6 89.4 139.3 87.3 142.6 87.3C145.9 87.3 148.6 89.4 148.6 92.5V101.1C148.6 104.2 145.9 106.3 142.6 106.3C139.3 106.3 136.6 104.2 136.6 101.1V92.5ZM141.1 101.3C141.1 102 141.7 102.7 142.6 102.7C143.5 102.7 144.2 102 144.2 101.3V92.3C144.2 91.6 143.6 90.8 142.6 90.8C141.7 90.8 141.1 91.6 141.1 92.3V101.3ZM150.7 87H155.5V106.7H150.7V87Z" fill="#00589B"/>
<path d="M163.8 102.9L168.3 102.6V98.8H172.9V102.3L177.9 102V105.8L163.9 106.6L163.8 102.9ZM176.8 98.3H164.4V87.3H176.6V91H169.1V94.6H176.8V98.3ZM178.3 87H183.1V106.7H178.3V87Z" fill="#00589B"/>
<path d="M185.2 95C188.1 94.2 189.4 91.7 189.4 89V87.1H194.1V89C194.1 91.7 195.4 94.2 198.3 95V99C195.3 98.3 193.2 96.9 191.7 94.8C190.3 97 188.2 98.4 185.2 99V95ZM204.7 106.7H186.4V99.9H191.2V103.2H204.7V106.7ZM199.6 87H204.4V101.4H199.6V87Z" fill="#00589B"/>
<path d="M227.3 95.1H223.2C221.1 98 217 99.2 212.9 99.2V95.8C218.1 95.8 220.5 93.2 220.5 90.7H213V87.3H224.9V89.6C224.9 90.3 224.8 90.9 224.8 91.4H227.3V87H232V99.8H227.3V95.1ZM213.8 103C218.3 103 220.9 101.4 220.9 99.4V98.9H225.7V99.4C225.7 101.4 228.2 103 232.7 103V106.7C227.5 106.7 224.7 105.1 223.3 103.3C221.8 105.1 219 106.7 213.9 106.7L213.8 103Z" fill="#00589B"/>
<path d="M233.9 94.4H253.4V97.5H233.9V94.4ZM238 86.9H249.4C251.4 86.9 253 88.4 253 90.3C253 92.1 251.4 93.6 249.4 93.6H238C236 93.6 234.5 92.1 234.5 90.3C234.4 88.4 236 86.9 238 86.9ZM234.6 98.4H252.7V103.5H239.3V104.3H253V106.8H234.6V101.4H248V100.7H234.6V98.4ZM239.4 90.8H248C248.3 90.8 248.5 90.5 248.5 90.3C248.5 90 248.3 89.8 248 89.8H239.4C239.1 89.8 238.9 90.1 238.9 90.3C238.9 90.5 239.1 90.8 239.4 90.8Z" fill="#00589B"/>
<path d="M64.9 130.9H92.8V135.3H82V137.6H91.7V146.3H85.1V141.9H65.7V137.7H75.5V135.4H64.8V130.9H64.9ZM82.3 123.5C82.9 124.9 85.5 125.8 92 125.7V129.9C85.1 129.9 81 128.9 78.8 126.8C76.6 129 72.5 129.9 65.6 129.9V125.7C72.1 125.8 74.7 124.8 75.3 123.5H65.9V119.3H75.4V117.2H82.3V119.3H91.7V123.5H82.3Z" fill="#00589B"/>
<path d="M95.5 120.5H100.8V117.5H107.5V120.5H112.8V125.7H95.6L95.5 120.5ZM95.8 133.9C95.8 129.5 99.4 126.7 104.1 126.7C108.8 126.7 112.4 129.4 112.4 133.9V138.3C112.4 142.8 108.8 145.5 104.1 145.5C99.5 145.5 95.8 142.8 95.8 138.3V133.9ZM101.9 138.7C101.9 139.9 102.9 140.8 104.1 140.8C105.3 140.8 106.3 140 106.3 138.7V133.7C106.3 132.5 105.2 131.6 104.1 131.6C102.9 131.6 101.9 132.5 101.9 133.7V138.7ZM115.3 117.8H122V128H125.2V133.8H122V146H115.3V117.8Z" fill="#00589B"/>
<path d="M125.6 139.7H153.5V145.5H125.6V139.7ZM152.8 135H126.7V118.2H152.5V123.7H133.5V129.3H152.8V135Z" fill="#00589B"/>
<path d="M156.6 118.2H173.7V127.9H163V129.6L176 129.1V133.3L156.6 134V124H167.3V122.3H156.6V118.2ZM157.8 134.9H164.5V136.7H176.8V134.9H183.5V145.9H176.8V145.1L157.8 145.9V134.9ZM164.5 141.9L176.8 141.5V140.3H164.5V141.9ZM176.7 117.8H183.5V134.2H176.7V117.8Z" fill="#00589B"/>
<path d="M186.9 118.5H193.9V139L206.3 138.2V143.8L186.9 145V118.5ZM207.1 117.8H213.9V146H207.1V117.8Z" fill="#00589B"/>
<path d="M235.3 143.8L217.2 145V118.6H234V123.8H224V139.2L235.4 138.3V143.8H235.3ZM236.1 117.8H242.8V128H246.6V133.8H242.8V146H236.1V117.8Z" fill="#00589B"/>
<path d="M247.6 117.8H254V129.6L253.7 138.1H247.9L247.6 129.6V117.8ZM247.9 140.2H253.7V145.9H247.9V140.2Z" fill="#00589B"/>
<path d="M87.0001 107.6H86.9001C82.5001 107.6 79.4001 106.6 77.5001 104.5C75.5001 106.5 72.3001 107.6 68.1001 107.6H68.0001V103.6H68.1001C72.6001 103.6 75.0001 102.5 75.0001 100.6V100.3H80.1001V100.6C80.1001 102.6 82.5001 103.6 87.0001 103.6H87.1001V107.6H87.0001ZM77.4001 104.2L77.5001 104.3C79.3001 106.3 82.4001 107.3 86.7001 107.4V104C82.2001 104 79.7001 102.8 79.7001 100.7H75.2001C75.2001 102.8 72.7001 104 68.1001 104V107.4C72.3001 107.4 75.4001 106.3 77.3001 104.3L77.4001 104.2ZM86.3001 101.5H81.3001V96H78.4001C78.8001 96.1 79.2001 96.1 79.6001 96.1H79.7001V99.9H79.5001C76.6001 99.8 74.4001 99 73.2001 97.5C72.0001 99.1 69.7001 100 66.8001 100.1H66.6001V96.3H66.7001C69.5001 96.1 70.6001 95 70.6001 92.7V92.3H66.7001V88.7H70.5001V87.2H75.4001V88.7H79.2001V92.3H75.3001V92.7C75.3001 94.8 76.2001 95.6 77.8001 95.9V92.4H80.8001V87.5H85.8001V101.5H86.3001ZM81.6001 101.2H86.0001V87.9H81.6001V92.8H78.6001V95.7H81.6001V101.2ZM67.2001 96.6V99.8C70.0001 99.7 72.2001 98.8 73.3001 97.2L73.4001 97L73.5001 97.2C74.5001 98.7 76.7001 99.5 79.5001 99.6V96.4C78.1001 96.3 77.2001 96 76.6001 95.5C75.8001 94.9 75.4001 94 75.4001 92.7V92H79.3001V89H75.5001V87.5H71.2001V89H67.4001V92H71.3001V92.7C71.3001 95.2 70.0001 96.4 67.2001 96.6Z" fill="black"/>
<path d="M94.3 107.7V103.8L98.8 103.5V100.8H103.9V103.2L108.6 102.9V106.8L94.3 107.7ZM94.6 104V107.3L108.3 106.5V103.2L103.6 103.5V101.1H99.1V103.8L94.6 104ZM113.9 107.6H108.8V87.6H113.9V107.6ZM109.1 107.3H113.6V87.9H109.1V107.3ZM104.6 100.5H98C96.2 100.5 94.7 98.7 94.7 96.5C94.7 94.3 96.2 92.5 98 92.5H104.6C106.4 92.5 107.9 94.3 107.9 96.5C107.9 98.7 106.4 100.5 104.6 100.5ZM98 92.8C96.4 92.8 95 94.5 95 96.5C95 98.5 96.4 100.2 98 100.2H104.6C106.2 100.2 107.6 98.5 107.6 96.5C107.6 94.5 106.2 92.8 104.6 92.8H98ZM103.4 97.4H99.4C99 97.4 98.6 96.9 98.6 96.5C98.6 96 98.9 95.6 99.4 95.6H103.4C103.8 95.6 104.1 96 104.1 96.5C104.1 96.9 103.8 97.4 103.4 97.4ZM99.4 95.9C99.1 95.9 98.9 96.2 98.9 96.5C98.9 96.8 99.1 97.1 99.4 97.1H103.4C103.6 97.1 103.8 96.8 103.8 96.5C103.8 96.2 103.6 95.9 103.4 95.9H99.4ZM108.1 92.3H94.5V88.7H98.6V87.2H103.9V88.7H108V92.3H108.1ZM94.8 92H107.8V89H103.7V87.5H99V89H94.9V92H94.8Z" fill="black"/>
<path d="M135.5 107.6H116.9V101H119.4L119.8 98.6H115.6V95.1H130V98.6H124.4L123.7 102.3H121.5V104.2H135.4V107.6H135.5ZM117.2 107.3H135.2V104.5H121.3V102H123.5L124.2 98.3H129.8V95.4H116V98.3H120.3L119.8 101.3H117.4V107.3H117.2ZM135.2 103.3H130.2V102.2H125V99.1H130.2V87.6H135.2V103.3ZM130.5 103H134.9V87.9H130.5V99.4H125.3V101.9H130.5V103ZM125.4 94.8H119.5C117.5 94.8 116 93.3 116 91.3C116 89.3 117.5 87.8 119.5 87.8H125.4C127.4 87.8 128.9 89.3 128.9 91.3C128.9 93.3 127.4 94.8 125.4 94.8ZM119.5 88.1C117.7 88.1 116.3 89.5 116.3 91.3C116.3 93.1 117.7 94.5 119.5 94.5H125.4C127.2 94.5 128.6 93.1 128.6 91.3C128.6 89.5 127.2 88.1 125.4 88.1H119.5ZM124.1 92.2H120.8C120.4 92.2 120.1 91.8 120.1 91.4C120.1 91 120.4 90.6 120.8 90.6H124.1C124.5 90.6 124.8 91 124.8 91.4C124.8 91.8 124.5 92.2 124.1 92.2ZM120.8 90.9C120.6 90.9 120.4 91.1 120.4 91.4C120.4 91.7 120.6 91.9 120.8 91.9H124.1C124.3 91.9 124.5 91.7 124.5 91.4C124.5 91.1 124.3 90.9 124.1 90.9H120.8Z" fill="black"/>
<path d="M156.4 107.6H151.3V87.6H156.4V107.6ZM151.6 107.3H156.1V87.9H151.6V107.3ZM143.4 107.3C139.9 107.3 137.3 105 137.3 101.9V93.3C137.3 90.2 139.9 87.9 143.4 87.9C146.9 87.9 149.6 90.2 149.6 93.3V101.9C149.6 105 146.9 107.3 143.4 107.3ZM143.4 88.2C140.1 88.2 137.6 90.4 137.6 93.3V101.9C137.6 104.8 140.1 107 143.4 107C146.8 107 149.3 104.8 149.3 101.9V93.3C149.3 90.4 146.7 88.2 143.4 88.2ZM143.4 103.7C142.3 103.7 141.7 102.9 141.7 102.1V93.1C141.7 92.3 142.4 91.5 143.4 91.5C144.4 91.5 145.1 92.4 145.1 93.1V102.1C145.1 103 144.4 103.7 143.4 103.7ZM143.4 91.8C142.6 91.8 142 92.5 142 93.1V102.1C142 102.7 142.5 103.4 143.4 103.4C144.3 103.4 144.8 102.7 144.8 102.1V93.1C144.8 92.5 144.3 91.8 143.4 91.8Z" fill="black"/>
<path d="M164.4 107.7V103.6L168.9 103.3V99.5H173.8V103L178.8 102.7V106.8L164.4 107.7ZM164.7 103.8V107.3L178.4 106.5V103L173.4 103.3V99.8H169.1V103.6L164.7 103.8ZM184 107.6H179V87.6H184.1L184 107.6ZM179.3 107.3H183.8V87.9H179.3V107.3ZM177.8 99.2H165.1V87.9H177.6V91.9H170.1V95.2H177.8V99.2ZM165.4 98.9H177.5V95.5H169.8V91.6H177.3V88.2H165.4V98.9Z" fill="black"/>
<path d="M205.6 107.6H187V100.5H192.1V103.8H205.6V107.6ZM187.3 107.3H205.3V104.1H191.8V100.8H187.3V107.3ZM205.3 102.3H200.2V87.6H205.3V102.3ZM200.5 102H205V87.9H200.5V102ZM185.9 99.9V95.6H186C188.6 94.8 190.1 92.6 190.1 89.7V87.6H195.1V89.7C195.1 92.6 196.6 94.8 199.2 95.6H199.3V99.9H199.1C196.2 99.3 194 97.9 192.6 95.8C191.1 97.9 189 99.3 186.1 99.9H185.9ZM192.6 95.2L192.7 95.4C194.1 97.5 196.2 98.9 199 99.5V95.8C196.4 95 194.8 92.7 194.8 89.7V88H190.4V89.8C190.4 92.8 188.8 95.1 186.2 95.9V99.6C189 98.9 191.1 97.6 192.5 95.5L192.6 95.2Z" fill="black"/>
<path d="M233.6 107.6H233.4C230.4 107.6 226.3 107 224 104.3C222 106.5 218.9 107.6 214.6 107.6H214.4V103.6H214.6C218.7 103.6 221.5 102.2 221.5 100.1V99.4H226.6V100.1C226.6 102.2 229.4 103.6 233.5 103.6H233.7L233.6 107.6ZM214.7 104V107.4C218.9 107.4 222 106.3 223.9 104.1L224 104L224.1 104.1C225.3 105.6 227.9 107.4 233.3 107.4V104C229 104 226.3 102.5 226.3 100.2V99.8H221.8V100.2C221.8 102.5 219 104 214.7 104ZM232.9 100.7H227.9V96H224.1C222.1 98.6 218.4 100.1 213.8 100.1H213.6V96.4H213.8C218.8 96.4 221.2 94 221.3 91.6H213.8V87.9H226V90.4C226 90.9 226 91.5 225.9 92.1H228.1V87.6H233.1V100.7H232.9ZM228.2 100.4H232.6V87.9H228.2V92.4H225.4V92.2C225.5 91.5 225.5 91 225.5 90.4V88.2H214V91.3H221.5V91.5C221.5 94 219.1 96.7 213.9 96.7V99.8C218.4 99.8 222 98.3 223.9 95.8V95.7H228.2V100.4Z" fill="black"/>
<path d="M254 107.6H235.3V102H248.7V101.6H235.3V99H253.7V104.4H240.3V104.9H254V107.6ZM235.6 107.3H253.7V105.1H240V104H253.4V99.2H235.6V101.1H249V102.1H235.6V107.3ZM254.4 98.4H234.6V95H254.4V98.4ZM234.8 98.1H254V95.3H234.8V98.1ZM250.1 94.5H238.7C236.7 94.5 235 92.9 235 91C235 89.1 236.7 87.5 238.7 87.5H250.1C252.2 87.5 253.8 89.1 253.8 91C253.9 93 252.2 94.5 250.1 94.5ZM238.8 87.8C236.9 87.8 235.4 89.2 235.4 91C235.4 92.8 236.9 94.2 238.8 94.2H250.2C252.1 94.2 253.6 92.8 253.6 91C253.6 89.2 252.1 87.8 250.2 87.8H238.8ZM248.8 91.7H240.2C239.9 91.7 239.6 91.4 239.6 91C239.6 90.6 239.9 90.3 240.2 90.3H248.8C249.1 90.3 249.4 90.6 249.4 91C249.5 91.4 249.2 91.7 248.8 91.7ZM240.2 90.7C240 90.7 239.9 90.9 239.9 91.1C239.9 91.3 240.1 91.5 240.2 91.5H248.8C249 91.5 249.1 91.3 249.1 91.1C249.1 90.9 248.9 90.7 248.8 90.7H240.2Z" fill="black"/>
<path d="M92.7 147.2H85.8V142.8H66.4V138.3H76.2V136.3H65.5V131.6H93.7V136.3H83V138.3H92.7V147.2ZM86.1 146.9H92.4V138.5H82.7V136H93.5V131.9H65.9V136H76.6V138.6H66.8V142.5H86.2L86.1 146.9ZM93 130.9H92.9C86 130.9 81.9 130 79.7 127.8C77.5 129.9 73.4 130.9 66.5 130.9H66.4V126.4H66.6C70.4 126.5 75 126.2 76.1 124.5H66.8V120H76.3V117.9H83.5V120H92.9V124.5H83.6C84.4 125.9 87.6 126.5 93.1 126.4H93.3V130.9H93ZM66.6 126.7V130.6C73.4 130.6 77.4 129.6 79.5 127.5L79.6 127.4L79.7 127.5C81.8 129.6 85.8 130.6 92.6 130.6V126.7C86.8 126.8 83.6 126 82.9 124.4L82.8 124.2H92.3V120.3H83V118.2H76.4V120.3H66.9V124.2H76.4L76.3 124.4C75.6 125.9 72.4 126.7 66.6 126.7Z" fill="black"/>
<path d="M122.9 146.9H115.9V118.4H122.9V128.6H126.1V134.7H122.9V146.9ZM116.2 146.6H122.6V134.4H125.8V128.9H122.6V118.7H116.2V146.6ZM104.9 146.4C100 146.4 96.5 143.4 96.5 139.1V134.7C96.5 130.4 100 127.4 104.9 127.4C109.9 127.4 113.3 130.4 113.3 134.7V139.1C113.3 143.4 109.9 146.4 104.9 146.4ZM104.9 127.7C100.1 127.7 96.8 130.6 96.8 134.7V139.1C96.8 143.2 100.1 146.1 104.9 146.1C109.7 146.1 113 143.2 113 139.1V134.7C113 130.6 109.7 127.7 104.9 127.7ZM105 141.7C103.7 141.7 102.6 140.7 102.6 139.5V134.5C102.6 133.2 103.7 132.2 105 132.2C106.3 132.2 107.4 133.2 107.4 134.5V139.5C107.4 140.7 106.3 141.7 105 141.7ZM105 132.5C103.9 132.5 102.9 133.4 102.9 134.5V139.5C102.9 140.6 103.8 141.4 105 141.4C106 141.4 107.1 140.7 107.1 139.5V134.5C107.1 133.4 106.1 132.5 105 132.5ZM113.7 126.6H96.2V121.1H101.5V118.1H108.5V121.1H113.8L113.7 126.6ZM96.5 126.3H113.4V121.4H108.1V118.4H101.7V121.4H96.4L96.5 126.3Z" fill="black"/>
<path d="M154.5 146.4H126.3V140.3H154.5V146.4ZM126.5 146.1H154.1V140.6H126.5V146.1ZM153.7 135.9H127.3V118.8H153.4V124.6H134.4V129.9H153.7V135.9ZM127.6 135.6H153.4V130.3H134.1V124.4H153.1V119.2H127.6V135.6Z" fill="black"/>
<path d="M158.5 146.9V135.5H165.5V137.3H177.5V135.5H184.5V146.8H177.5V146L158.5 146.9ZM177.8 146.6H184.2V135.9H177.8V137.7H165.2V135.9H158.8V146.6L177.8 145.8V146.6ZM165.2 142.9V140.9H177.8V142.4L165.2 142.9ZM165.5 141.2V142.6L177.5 142.2V141.3H165.5V141.2ZM184.5 135.1H177.4V118.4H184.5V135.1ZM177.7 134.8H184.2V118.7H177.7V134.8ZM157.2 134.9V124.7H167.9V123.3H157.2V118.8H174.6V128.8H163.9V130.2L176.9 129.7V134.2H176.8L157.2 134.9ZM157.5 125V134.6L176.6 133.9V130L163.6 130.5V128.5H174.3V119.1H157.5V123H168.2V125H157.5Z" fill="black"/>
<path d="M214.8 146.9H207.7V118.4H214.8V146.9ZM208 146.6H214.5V118.7H208V146.6ZM187.6 146V119.2H194.9V139.7L207.3 138.9V144.8L187.6 146ZM187.9 119.5V145.7L207 144.5V139.2L194.6 140V119.5H187.9Z" fill="black"/>
<path d="M243.7 146.9H236.7V118.4H243.7V128.6H247.5V134.7H243.7V146.9ZM237 146.6H243.4V134.4H247.2V128.9H243.4V118.7H237V146.6ZM217.9 146V119.3H234.9V124.8H224.9V139.8L236.3 139V144.8L217.9 146ZM218.2 119.6V145.7L236 144.5V139.3L224.6 140.2V124.5H234.6V119.6H218.2Z" fill="black"/>
<path d="M254.6 146.9H248.5V140.9H254.6V146.9ZM248.9 146.6H254.4V141.2H248.9V146.6ZM254.6 139H248.5L248.2 130.4V118.4H254.9V130.4L254.6 139ZM248.9 138.7H254.4L254.7 130.3V118.6H248.6V130.3L248.9 138.7Z" fill="black"/>
<path d="M154.5 178C146.3 177.2 136.2 177.9 134.6 189.5C133 200.6 164.5 211.2 176.3 206C187.9 200.9 200 161.7 182.9 166C165.9 170.2 166.4 179.2 154.5 178Z" fill="#F9E547"/>
</g>
<defs>
<clipPath id="clip0">
<rect width="320" height="200" fill="white"/>
</clipPath>
</defs>
</svg>
