<svg width="12" height="12" viewBox="0 0 12 12" fill="none" xmlns="http://www.w3.org/2000/svg">
<path d="M6 12C5.1875 12 4.41016 11.8418 3.66797 11.5254C2.92578 11.209 2.28711 10.7832 1.75195 10.248C1.2168 9.71289 0.791016 9.07422 0.474609 8.33203C0.158203 7.58984 0 6.8125 0 6C0 5.1875 0.158203 4.41016 0.474609 3.66797C0.791016 2.92578 1.2168 2.28711 1.75195 1.75195C2.28711 1.2168 2.92578 0.791016 3.66797 0.474609C4.41016 0.158203 5.1875 0 6 0C6.8125 0 7.58984 0.158203 8.33203 0.474609C9.07422 0.791016 9.71289 1.2168 10.248 1.75195C10.7832 2.28711 11.209 2.92578 11.5254 3.66797C11.8418 4.41016 12 5.1875 12 6C12 6.8125 11.8418 7.58984 11.5254 8.33203C11.209 9.07422 10.7832 9.71289 10.248 10.248C9.71289 10.7832 9.07422 11.209 8.33203 11.5254C7.58984 11.8418 6.8125 12 6 12ZM8.76562 4.32422C8.92188 4.17578 9 3.99219 9 3.77344C9 3.55469 8.92383 3.36914 8.77148 3.2168C8.61914 3.06445 8.43359 2.98828 8.21484 2.98828C7.99609 2.98828 7.8125 3.06641 7.66406 3.22266L5.98828 4.88672L4.32422 3.22266C4.17578 3.06641 3.99219 2.98828 3.77344 2.98828C3.55469 2.98828 3.36914 3.06445 3.2168 3.2168C3.06445 3.36914 2.98828 3.55469 2.98828 3.77344C2.98828 3.99219 3.06641 4.17578 3.22266 4.32422L4.88672 6L3.22266 7.66406C3.06641 7.8125 2.98828 7.99609 2.98828 8.21484C2.98828 8.43359 3.06445 8.61914 3.2168 8.77148C3.36914 8.92383 3.55469 9 3.77344 9C3.99219 9 4.17578 8.92188 4.32422 8.76562L5.98828 7.10156L7.66406 8.76562C7.8125 8.92188 7.99609 9 8.21484 9C8.43359 9 8.61914 8.92383 8.77148 8.77148C8.92383 8.61914 9 8.43359 9 8.21484C9 7.99609 8.92188 7.8125 8.76562 7.66406L7.10156 6L8.76562 4.32422Z" fill="#CCCCCC"/>
</svg>
