<svg width="12" height="12" viewBox="0 0 12 12" fill="none" xmlns="http://www.w3.org/2000/svg">
<path d="M3.68975 10.5049C3.74781 10.5631 3.81678 10.6092 3.89271 10.6408C3.96864 10.6723 4.05005 10.6885 4.13225 10.6885C4.21446 10.6885 4.29586 10.6723 4.3718 10.6408C4.44773 10.6092 4.5167 10.5631 4.57475 10.5049L8.72975 6.34986C8.77611 6.3036 8.81288 6.24866 8.83797 6.18817C8.86306 6.12769 8.87598 6.06284 8.87598 5.99736C8.87598 5.93188 8.86306 5.86703 8.83797 5.80655C8.81288 5.74606 8.77611 5.69112 8.72975 5.64486L4.57475 1.48986C4.32975 1.24486 3.93475 1.24486 3.68975 1.48986C3.44475 1.73486 3.44475 2.12986 3.68975 2.37486L7.30975 5.99986L3.68475 9.62486C3.44475 9.86486 3.44475 10.2649 3.68975 10.5049Z" fill="#CCCCCC"/>
</svg>
