<svg width="28" height="28" viewBox="0 0 28 28" fill="none" xmlns="http://www.w3.org/2000/svg">
<path d="M23.2167 14.7698C23.0297 14.5569 22.9265 14.2832 22.9265 13.9998C22.9265 13.7164 23.0297 13.4427 23.2167 13.2298L24.71 11.5498C24.8746 11.3662 24.9768 11.1353 25.0019 10.8901C25.0271 10.6448 24.9739 10.3979 24.85 10.1848L22.5167 6.14813C22.3941 5.93524 22.2074 5.76649 21.9833 5.66593C21.7591 5.56537 21.5089 5.53815 21.2684 5.58813L19.075 6.03146C18.796 6.08913 18.5054 6.04265 18.2582 5.9008C18.0111 5.75894 17.8244 5.53153 17.7334 5.26146L17.0217 3.12646C16.9434 2.89474 16.7943 2.69347 16.5954 2.55111C16.3966 2.40875 16.158 2.3325 15.9134 2.33313H11.2467C10.9923 2.31985 10.7405 2.39021 10.5299 2.53346C10.3192 2.67671 10.1612 2.88499 10.08 3.12646L9.42671 5.26146C9.33571 5.53153 9.14901 5.75894 8.90184 5.9008C8.65467 6.04265 8.36413 6.08913 8.08504 6.03146L5.83338 5.58813C5.60535 5.55591 5.37289 5.59189 5.16528 5.69154C4.95767 5.7912 4.78419 5.95006 4.66671 6.14813L2.33338 10.1848C2.2064 10.3956 2.1493 10.6411 2.17025 10.8862C2.19121 11.1314 2.28914 11.3636 2.45004 11.5498L3.93171 13.2298C4.11875 13.4427 4.2219 13.7164 4.2219 13.9998C4.2219 14.2832 4.11875 14.5569 3.93171 14.7698L2.45004 16.4498C2.28914 16.6359 2.19121 16.8682 2.17025 17.1134C2.1493 17.3585 2.2064 17.604 2.33338 17.8148L4.66671 21.8515C4.78932 22.0644 4.97601 22.2331 5.20017 22.3337C5.42432 22.4342 5.6745 22.4614 5.91504 22.4115L8.10838 21.9681C8.38746 21.9105 8.678 21.9569 8.92517 22.0988C9.17234 22.2406 9.35904 22.4681 9.45004 22.7381L10.1617 24.8731C10.2429 25.1146 10.4009 25.3229 10.6115 25.4661C10.8222 25.6094 11.074 25.6797 11.3284 25.6665H15.995C16.2396 25.6671 16.4782 25.5908 16.6771 25.4485C16.876 25.3061 17.0251 25.1049 17.1034 24.8731L17.815 22.7381C17.906 22.4681 18.0927 22.2406 18.3399 22.0988C18.5871 21.9569 18.8776 21.9105 19.1567 21.9681L21.35 22.4115C21.5906 22.4614 21.8408 22.4342 22.0649 22.3337C22.2891 22.2331 22.4758 22.0644 22.5984 21.8515L24.9317 17.8148C25.0556 17.6017 25.1088 17.3548 25.0836 17.1095C25.0584 16.8643 24.9563 16.6333 24.7917 16.4498L23.2167 14.7698ZM21.4784 16.3331L22.4117 17.3831L20.9184 19.9731L19.5417 19.6931C18.7015 19.5214 17.8274 19.6641 17.0854 20.0942C16.3434 20.5244 15.7852 21.2119 15.5167 22.0265L15.0734 23.3331H12.0867L11.6667 22.0031C11.3982 21.1886 10.84 20.501 10.098 20.0709C9.35604 19.6408 8.48197 19.498 7.64171 19.6698L6.26504 19.9498L4.74838 17.3715L5.68171 16.3215C6.25566 15.6798 6.57296 14.849 6.57296 13.9881C6.57296 13.1272 6.25566 12.2965 5.68171 11.6548L4.74838 10.6048L6.24171 8.03813L7.61838 8.31813C8.45863 8.48989 9.33271 8.34716 10.0747 7.91703C10.8167 7.4869 11.3749 6.79931 11.6434 5.9848L12.0867 4.66646H15.0734L15.5167 5.99646C15.7852 6.81098 16.3434 7.49857 17.0854 7.92869C17.8274 8.35882 18.7015 8.50155 19.5417 8.3298L20.9184 8.0498L22.4117 10.6398L21.4784 11.6898C20.9109 12.33 20.5975 13.1559 20.5975 14.0115C20.5975 14.867 20.9109 15.6929 21.4784 16.3331ZM13.58 9.33313C12.6571 9.33313 11.7548 9.60682 10.9874 10.1196C10.22 10.6324 9.62181 11.3612 9.2686 12.2139C8.9154 13.0667 8.82298 14.005 9.00304 14.9102C9.18311 15.8155 9.62757 16.647 10.2802 17.2996C10.9329 17.9523 11.7644 18.3967 12.6696 18.5768C13.5749 18.7569 14.5132 18.6644 15.3659 18.3112C16.2186 17.958 16.9475 17.3599 17.4602 16.5925C17.973 15.825 18.2467 14.9228 18.2467 13.9998C18.2467 12.7621 17.755 11.5751 16.8799 10.7C16.0047 9.82479 14.8177 9.33313 13.58 9.33313ZM13.58 16.3331C13.1186 16.3331 12.6674 16.1963 12.2837 15.9399C11.9 15.6835 11.6009 15.3191 11.4243 14.8927C11.2477 14.4664 11.2015 13.9972 11.2915 13.5446C11.3816 13.092 11.6038 12.6762 11.9301 12.3499C12.2564 12.0236 12.6722 11.8013 13.1248 11.7113C13.5775 11.6213 14.0466 11.6675 14.473 11.8441C14.8993 12.0207 15.2637 12.3198 15.5201 12.7035C15.7765 13.0872 15.9134 13.5383 15.9134 13.9998C15.9134 14.6186 15.6675 15.2121 15.23 15.6497C14.7924 16.0873 14.1989 16.3331 13.58 16.3331Z" fill="white"/>
</svg>
