<svg width="11" height="10" viewBox="0 0 11 10" fill="none" xmlns="http://www.w3.org/2000/svg">
<path d="M7.18022 7.49173C7.18022 7.57973 7.14517 7.66412 7.08277 7.72634C7.02037 7.78857 6.93574 7.82352 6.8475 7.82352H2.18934C2.11614 7.82352 2.04627 7.88988 1.98638 7.93302L0.858439 8.81891V3.51017C0.858439 3.42217 0.893494 3.33778 0.955892 3.27555C1.01829 3.21333 1.10292 3.17837 1.19116 3.17837H2.47548V2.51478H1.19116C0.926431 2.51478 0.672541 2.61965 0.485347 2.80632C0.298152 2.99299 0.192988 3.24617 0.192988 3.51017V9.48251C0.193483 9.54413 0.211177 9.60439 0.244086 9.65655C0.276996 9.70871 0.323821 9.75069 0.379314 9.77781C0.432776 9.80205 0.491721 9.81175 0.55016 9.80592C0.608599 9.8001 0.66445 9.77895 0.712039 9.74463L2.42558 8.48712H6.89741C7.02351 8.49083 7.14904 8.46869 7.26622 8.42207C7.38339 8.37544 7.48972 8.30532 7.57862 8.21605C7.66752 8.12678 7.73709 8.02026 7.78302 7.90309C7.82896 7.78591 7.85028 7.66058 7.84567 7.53486V7.15993H7.18022V7.49173Z" fill="white"/>
<path fill-rule="evenodd" clip-rule="evenodd" d="M1.87008 7.7795L1.87334 7.77715C1.8758 7.77538 1.88104 7.77138 1.88809 7.766C1.91025 7.74908 1.9503 7.71851 1.97806 7.70062C2.02178 7.67244 2.09624 7.63122 2.18934 7.63122H6.8475C6.88452 7.63122 6.92005 7.61655 6.94626 7.59041C6.97249 7.56426 6.98724 7.52877 6.98724 7.49173V6.96762H8.03866V7.53152C8.04368 7.6823 8.01787 7.83253 7.96277 7.97307C7.90723 8.11474 7.82311 8.24355 7.7156 8.35151C7.6081 8.45946 7.4795 8.54427 7.33778 8.60066C7.19698 8.65669 7.04621 8.68349 6.89468 8.67942H2.48897L0.825188 9.90042C0.749996 9.95465 0.661734 9.98806 0.569376 9.99728C0.477016 10.0065 0.383861 9.99115 0.299379 9.95284L0.294325 9.95055C0.206636 9.90771 0.132698 9.8413 0.0807159 9.75891C0.0287351 9.67653 0.000794355 9.58135 1.23653e-05 9.48405L0 9.48251L6.18264e-06 3.51017C6.18264e-06 3.19522 0.12547 2.89313 0.34884 2.67039C0.572215 2.44764 0.875206 2.32247 1.19116 2.32247H2.66847V3.37068H1.19116C1.15415 3.37068 1.11862 3.38534 1.0924 3.41149C1.06618 3.43764 1.05142 3.47313 1.05142 3.51017V8.42249L1.87008 7.7795ZM0.858439 8.81891V3.51017C0.858439 3.42217 0.893494 3.33778 0.955892 3.27555C1.01829 3.21333 1.10292 3.17837 1.19116 3.17837H2.47548V2.51478H1.19116C0.926431 2.51478 0.672541 2.61965 0.485347 2.80632C0.298152 2.99299 0.192988 3.24617 0.192988 3.51017V9.48251C0.193483 9.54413 0.211177 9.60439 0.244086 9.65655C0.276996 9.70871 0.323821 9.75069 0.379314 9.77781C0.432776 9.80205 0.491721 9.81175 0.55016 9.80592C0.608599 9.8001 0.66445 9.77895 0.712039 9.74463L2.42558 8.48712H6.89741C7.02351 8.49083 7.14904 8.46869 7.26622 8.42207C7.38339 8.37544 7.48972 8.30532 7.57862 8.21605C7.66752 8.12678 7.73709 8.02026 7.78302 7.90309C7.82896 7.78591 7.85028 7.66058 7.84567 7.53486V7.15993H7.18022V7.49173C7.18022 7.57973 7.14517 7.66412 7.08277 7.72634C7.02037 7.78857 6.93574 7.82352 6.8475 7.82352H2.18934C2.12962 7.82352 2.07212 7.86769 2.02045 7.90738C2.00878 7.91634 1.99741 7.92507 1.98638 7.93302L0.858439 8.81891Z" fill="white"/>
<path d="M9.84211 0.192185H4.18578C3.92105 0.192185 3.66716 0.297056 3.47996 0.483728C3.29277 0.6704 3.18761 0.923581 3.18761 1.18757V5.16913C3.18761 5.43313 3.29277 5.68631 3.47996 5.87298C3.66716 6.05965 3.92105 6.16452 4.18578 6.16452H8.69421L10.2846 7.39549C10.3319 7.43035 10.3876 7.45209 10.4461 7.4585C10.5045 7.46491 10.5636 7.45576 10.6174 7.43198C10.674 7.40509 10.7218 7.36279 10.7554 7.30996C10.7889 7.25712 10.8068 7.19591 10.807 7.13337V1.18757C10.8072 0.929231 10.7066 0.680951 10.5265 0.495204C10.3465 0.309457 10.101 0.200797 9.84211 0.192185ZM10.1748 6.47641L9.0103 5.57061C8.95222 5.52566 8.88085 5.50116 8.80734 5.50093H4.18578C4.09754 5.50093 4.01291 5.46597 3.95051 5.40375C3.88811 5.34152 3.85306 5.25713 3.85306 5.16913V1.18757C3.85306 1.09958 3.88811 1.01518 3.95051 0.952959C4.01291 0.890735 4.09754 0.855778 4.18578 0.855778H9.84211C9.93105 0.863828 10.014 0.904028 10.0753 0.968806C10.1365 1.03359 10.172 1.11847 10.1748 1.20748V6.47641Z" fill="white"/>
<path fill-rule="evenodd" clip-rule="evenodd" d="M10.2846 7.39549L8.69421 6.16452H4.18578C3.92105 6.16452 3.66716 6.05965 3.47996 5.87298C3.29277 5.68631 3.18761 5.43313 3.18761 5.16913V1.18757C3.18761 0.923581 3.29277 0.6704 3.47996 0.483728C3.66716 0.297056 3.92105 0.192185 4.18578 0.192185H9.84211C10.101 0.200797 10.3465 0.309457 10.5265 0.495204C10.7066 0.680951 10.8072 0.929231 10.807 1.18757V7.13337C10.8068 7.19591 10.7889 7.25712 10.7554 7.30996C10.7218 7.36279 10.674 7.40509 10.6174 7.43198C10.5636 7.45576 10.5045 7.46491 10.4461 7.4585C10.3876 7.45209 10.3319 7.43035 10.2846 7.39549ZM11 1.18768C11.0002 0.879468 10.8802 0.583236 10.6653 0.361595C10.4505 0.139949 10.1576 0.0102627 9.84855 -1.50544e-05L9.84211 0.192185V-0.00012207H4.18578C3.86982 -0.00012207 3.56683 0.125043 3.34346 0.347794C3.12009 0.570541 2.99462 0.872622 2.99462 1.18757V5.16913C2.99462 5.48409 3.12009 5.78617 3.34346 6.00891C3.56683 6.23166 3.86982 6.35683 4.18578 6.35683H8.62807L10.1663 7.54736L10.1699 7.55008C10.2446 7.60516 10.3326 7.63952 10.4249 7.64965C10.5173 7.65978 10.6107 7.64532 10.6957 7.60775L10.7004 7.60558C10.7899 7.56309 10.8655 7.49625 10.9185 7.4128C10.9715 7.32935 10.9997 7.23267 11 7.13391V1.18768ZM8.80734 5.50093C8.88085 5.50116 8.95222 5.52566 9.0103 5.57061L10.1748 6.47641V1.20748C10.172 1.11847 10.1365 1.03359 10.0753 0.968806C10.014 0.904028 9.93105 0.863828 9.84211 0.855778H4.18578C4.09754 0.855778 4.01291 0.890735 3.95051 0.952959C3.88811 1.01518 3.85306 1.09958 3.85306 1.18757V5.16913C3.85306 5.25713 3.88811 5.34152 3.95051 5.40375C4.01291 5.46597 4.09754 5.50093 4.18578 5.50093H8.80734ZM9.83174 1.04809H4.18578C4.14876 1.04809 4.11323 1.06275 4.08702 1.08889C4.06079 1.11504 4.04604 1.15054 4.04604 1.18757V5.16913C4.04604 5.20617 4.06079 5.24167 4.08702 5.26781C4.11323 5.29396 4.14876 5.30862 4.18578 5.30862H8.80794C8.92413 5.30898 9.03691 5.34771 9.12867 5.41872L9.98186 6.08235V1.21116C9.97992 1.16993 9.96324 1.13075 9.93484 1.10072C9.90749 1.07182 9.87106 1.05328 9.83174 1.04809Z" fill="white"/>
</svg>
