<svg width="10" height="10" viewBox="0 0 10 10" fill="none" xmlns="http://www.w3.org/2000/svg">
<path d="M8.90248 7.349C8.5896 7.03587 8.22402 6.7803 7.82248 6.594C8.38873 6.13525 8.74998 5.43526 8.74998 4.65026C8.74998 3.26527 7.59498 2.12903 6.20999 2.15028C4.84625 2.17153 3.74751 3.28277 3.74751 4.65026C3.74751 5.43526 4.11001 6.13525 4.675 6.594C4.27339 6.78016 3.90778 7.03575 3.59501 7.349C2.91251 8.03274 2.52502 8.93524 2.50002 9.89773C2.49968 9.91107 2.50202 9.92435 2.5069 9.93677C2.51177 9.94919 2.51909 9.96051 2.52841 9.97006C2.53773 9.97962 2.54886 9.98721 2.56116 9.99239C2.57346 9.99757 2.58667 10.0002 2.60002 10.0002H3.30001C3.35376 10.0002 3.39876 9.95773 3.40001 9.90398C3.42376 9.17899 3.71751 8.50024 4.23376 7.98524C4.49793 7.71967 4.81215 7.50912 5.15824 7.36579C5.50432 7.22247 5.8754 7.14921 6.24999 7.15025C7.01124 7.15025 7.72748 7.4465 8.26623 7.98524C8.78123 8.50024 9.07498 9.17899 9.09997 9.90398C9.10122 9.95773 9.14622 10.0002 9.19997 10.0002H9.89997C9.91331 10.0002 9.92653 9.99757 9.93882 9.99239C9.95112 9.98721 9.96226 9.97962 9.97158 9.97006C9.9809 9.96051 9.98821 9.94919 9.99309 9.93677C9.99796 9.92435 10.0003 9.91107 9.99997 9.89773C9.97497 8.93524 9.58747 8.03274 8.90248 7.349ZM6.24999 6.25025C5.82249 6.25025 5.42 6.08401 5.11875 5.78151C4.96757 5.63152 4.84815 5.45261 4.76761 5.25546C4.68708 5.05831 4.64708 4.84696 4.65 4.63401C4.65375 4.22402 4.8175 3.82777 5.10375 3.53402C5.40375 3.22652 5.805 3.05527 6.23374 3.05027C6.65749 3.04652 7.06874 3.21152 7.37124 3.50777C7.68123 3.81152 7.85123 4.21777 7.85123 4.65026C7.85123 5.07776 7.68498 5.47901 7.38248 5.78151C7.23408 5.93063 7.05757 6.04883 6.86318 6.12929C6.66879 6.20975 6.46038 6.25087 6.24999 6.25025ZM3.11876 4.98026C3.10751 4.87151 3.10126 4.76151 3.10126 4.65026C3.10126 4.45152 3.12001 4.25777 3.15501 4.06902C3.16376 4.02402 3.14001 3.97777 3.09876 3.95902C2.92876 3.88277 2.77251 3.77777 2.63751 3.64527C2.47844 3.49103 2.35326 3.30533 2.26997 3.1C2.18668 2.89468 2.14711 2.67425 2.15377 2.45278C2.16502 2.05153 2.32627 1.67028 2.60752 1.38278C2.91626 1.06654 3.33126 0.894038 3.77251 0.899038C4.17126 0.902788 4.55625 1.05654 4.8475 1.32904C4.94625 1.42153 5.03125 1.52403 5.1025 1.63403C5.1275 1.67278 5.17625 1.68903 5.21875 1.67403C5.43875 1.59778 5.67125 1.54403 5.90999 1.51903C5.97999 1.51153 6.01999 1.43653 5.98874 1.37403C5.5825 0.57029 4.7525 0.0152932 3.79251 0.000293295C2.40627 -0.0209566 1.25127 1.11529 1.25127 2.49903C1.25127 3.28402 1.61252 3.98402 2.17877 4.44277C1.78127 4.62651 1.41502 4.88026 1.09752 5.19776C0.412529 5.88151 0.0250311 6.784 3.12573e-05 7.74774C-0.000302372 7.76109 0.00203765 7.77436 0.0069135 7.78678C0.0117894 7.7992 0.0191023 7.81052 0.0284216 7.82008C0.0377408 7.82963 0.0488778 7.83722 0.0611762 7.8424C0.0734745 7.84758 0.0866855 7.85025 0.100031 7.85024H0.801276C0.855026 7.85024 0.900026 7.80774 0.901276 7.75399C0.925026 7.029 1.21877 6.35025 1.73502 5.83526C2.10252 5.46776 2.55252 5.21276 3.04376 5.08901C3.09251 5.07651 3.12501 5.03026 3.11876 4.98026Z" fill="white"/>
</svg>
