<svg width="11" height="10" viewBox="0 0 11 10" fill="none" xmlns="http://www.w3.org/2000/svg">
<path d="M0 0.551667C0.00100652 0.405766 0.0587952 0.266121 0.160882 0.162899C0.262969 0.0596766 0.401159 0.00116369 0.5456 0H10.4544C10.7558 0 11 0.247222 11 0.551667V9.44833C10.999 9.59423 10.9412 9.73388 10.8391 9.8371C10.737 9.94032 10.5988 9.99884 10.4544 10H0.5456C0.400847 9.99985 0.262073 9.94167 0.159769 9.83822C0.0574651 9.73478 -7.34003e-08 9.59455 0 9.44833V0.551667ZM1.1 1.11111V8.88889H9.9V1.11111H1.1ZM2.2 2.22222H5.5V5.55556H2.2V2.22222ZM3.3 3.33333V4.44444H4.4V3.33333H3.3ZM2.2 6.66667H8.8V7.77778H2.2V6.66667ZM6.6 2.22222H8.8V3.33333H6.6V2.22222ZM6.6 4.44444H8.8V5.55556H6.6V4.44444Z" fill="white"/>
</svg>
