<svg width="16" height="16" viewBox="0 0 16 16" fill="none" xmlns="http://www.w3.org/2000/svg">
<path d="M5.14659 10.9702L6.32059 10.6316L13.3893 3.47824C13.445 3.4211 13.4761 3.34433 13.4757 3.2645C13.4753 3.18466 13.4435 3.10818 13.3873 3.05157L12.9639 2.62357C12.9366 2.59546 12.9039 2.57308 12.8678 2.55774C12.8317 2.5424 12.7929 2.5344 12.7537 2.53422C12.7144 2.53403 12.6756 2.54166 12.6393 2.55666C12.6031 2.57166 12.5702 2.59372 12.5426 2.62157L5.49259 9.75624L5.14592 10.9696L5.14659 10.9702ZM13.8019 1.77557L14.2253 2.20424C14.8093 2.79557 14.8146 3.74957 14.2359 4.33491L6.95192 11.7069L4.44259 12.4296C4.28938 12.4725 4.12543 12.4528 3.98669 12.3749C3.84796 12.2971 3.74578 12.1674 3.70259 12.0142C3.67044 11.9042 3.66998 11.7872 3.70125 11.6769L4.43125 9.11691L11.6959 1.76424C11.8341 1.62514 11.9985 1.51495 12.1797 1.44007C12.3609 1.3652 12.5551 1.32715 12.7512 1.32814C12.9472 1.32914 13.1411 1.36915 13.3215 1.44586C13.5019 1.52256 13.6652 1.63442 13.8019 1.77491V1.77557ZM6.12259 2.54424C6.45325 2.54424 6.72125 2.81557 6.72125 3.15024C6.72178 3.22935 6.70671 3.30779 6.6769 3.38107C6.64709 3.45436 6.60313 3.52105 6.54753 3.57733C6.49193 3.63361 6.42578 3.67838 6.35286 3.70908C6.27995 3.73978 6.2017 3.7558 6.12259 3.75624H3.72792C3.06659 3.75624 2.53059 4.29891 2.53059 4.96757V12.2382C2.53059 12.9076 3.06659 13.4502 3.72792 13.4502H10.9119C11.5733 13.4502 12.1099 12.9076 12.1099 12.2382V9.81491C12.1099 9.48024 12.3779 9.20891 12.7086 9.20891C13.0393 9.20891 13.3073 9.48024 13.3073 9.81557V12.2382C13.3073 13.5769 12.2346 14.6622 10.9119 14.6622H3.72792C2.40525 14.6622 1.33325 13.5769 1.33325 12.2382V4.96757C1.33325 3.62957 2.40525 2.54424 3.72792 2.54424H6.12259Z" fill="#61C680"/>
</svg>
