<svg width="12" height="12" viewBox="0 0 12 12" fill="none" xmlns="http://www.w3.org/2000/svg">
<path d="M10 4H7.194L7.7555 2.3165C7.8565 2.0125 7.8055 1.6755 7.618 1.4155C7.4305 1.1555 7.1265 1 6.806 1H6C5.8515 1 5.711 1.066 5.6155 1.18L3.2655 4H2C1.4485 4 1 4.4485 1 5V9.5C1 10.0515 1.4485 10.5 2 10.5H8.6535C8.85694 10.4993 9.05539 10.4369 9.22261 10.321C9.38982 10.2052 9.51793 10.0413 9.59 9.851L10.9685 6.1755C10.9894 6.11936 11.0001 6.05992 11 6V5C11 4.4485 10.5515 4 10 4ZM2 5H3V9.5H2V5ZM10 5.9095L8.6535 9.5H4V4.681L6.234 2H6.807L6.026 4.3415C6.00065 4.41666 5.99357 4.49678 6.00537 4.57521C6.01717 4.65365 6.04749 4.72815 6.09383 4.79252C6.14017 4.8569 6.20119 4.9093 6.27182 4.94538C6.34246 4.98146 6.42068 5.00019 6.5 5H10V5.9095Z" fill="#61C680"/>
</svg>
