<svg width="9" height="10" viewBox="0 0 9 10" fill="none" xmlns="http://www.w3.org/2000/svg">
<path fill-rule="evenodd" clip-rule="evenodd" d="M6 1.5H8.25V2.25H7.5V9L6.75 9.75H1.5L0.75 9V2.25H0V1.5H2.25V0.75C2.25 0.551088 2.32902 0.360322 2.46967 0.21967C2.61032 0.0790176 2.80109 0 3 0H5.25C5.44891 0 5.63968 0.0790176 5.78033 0.21967C5.92098 0.360322 6 0.551088 6 0.75V1.5ZM5.25 0.75H3V1.5H5.25V0.75ZM1.5 9H6.75V2.25H1.5V9ZM3 3H2.25V8.25H3V3ZM3.75 3H4.5V8.25H3.75V3ZM5.25 3H6V8.25H5.25V3Z" fill="white"/>
</svg>
