<svg width="24" height="24" viewBox="0 0 24 24" fill="none" xmlns="http://www.w3.org/2000/svg">
<path d="M7.48187 18.2847L3.00128 20.999L3 20.9983L3 6C3 5.46957 3.21071 4.96086 3.58579 4.58579C3.96086 4.21071 4.46957 4 5 4H19C19.5304 4 20.0391 4.21071 20.4142 4.58579C20.7893 4.96086 21 5.46957 21 6V16C21 16.5304 20.7893 17.0391 20.4142 17.4142C20.0391 17.7893 19.5304 18 19 18H8.56594C8.1876 17.9897 7.81393 18.087 7.48847 18.2807L7.48845 18.2807L7.48187 18.2847Z" stroke="white" stroke-width="2"/>
<mask id="path-2-inside-1" fill="white">
<path d="M12 12C12.5523 12 13 11.5523 13 11C13 10.4477 12.5523 10 12 10C11.4477 10 11 10.4477 11 11C11 11.5523 11.4477 12 12 12Z"/>
</mask>
<path d="M12 12C12.5523 12 13 11.5523 13 11C13 10.4477 12.5523 10 12 10C11.4477 10 11 10.4477 11 11C11 11.5523 11.4477 12 12 12Z" fill="white"/>
<path d="M11 11C11 10.4477 11.4477 10 12 10V14C13.6569 14 15 12.6569 15 11H11ZM12 10C12.5523 10 13 10.4477 13 11H9C9 12.6569 10.3431 14 12 14V10ZM13 11C13 11.5523 12.5523 12 12 12V8C10.3431 8 9 9.34315 9 11H13ZM12 12C11.4477 12 11 11.5523 11 11H15C15 9.34315 13.6569 8 12 8V12Z" fill="white" mask="url(#path-2-inside-1)"/>
<mask id="path-4-inside-2" fill="white">
<path d="M16 12C16.5523 12 17 11.5523 17 11C17 10.4477 16.5523 10 16 10C15.4477 10 15 10.4477 15 11C15 11.5523 15.4477 12 16 12Z"/>
</mask>
<path d="M16 12C16.5523 12 17 11.5523 17 11C17 10.4477 16.5523 10 16 10C15.4477 10 15 10.4477 15 11C15 11.5523 15.4477 12 16 12Z" fill="white"/>
<path d="M15 11C15 10.4477 15.4477 10 16 10V14C17.6569 14 19 12.6569 19 11H15ZM16 10C16.5523 10 17 10.4477 17 11H13C13 12.6569 14.3431 14 16 14V10ZM17 11C17 11.5523 16.5523 12 16 12V8C14.3431 8 13 9.34315 13 11H17ZM16 12C15.4477 12 15 11.5523 15 11H19C19 9.34315 17.6569 8 16 8V12Z" fill="white" mask="url(#path-4-inside-2)"/>
<mask id="path-6-inside-3" fill="white">
<path d="M8 12C8.55229 12 9 11.5523 9 11C9 10.4477 8.55229 10 8 10C7.44772 10 7 10.4477 7 11C7 11.5523 7.44772 12 8 12Z"/>
</mask>
<path d="M8 12C8.55229 12 9 11.5523 9 11C9 10.4477 8.55229 10 8 10C7.44772 10 7 10.4477 7 11C7 11.5523 7.44772 12 8 12Z" fill="white"/>
<path d="M7 11C7 10.4477 7.44772 10 8 10V14C9.65685 14 11 12.6569 11 11H7ZM8 10C8.55228 10 9 10.4477 9 11H5C5 12.6569 6.34315 14 8 14V10ZM9 11C9 11.5523 8.55228 12 8 12V8C6.34315 8 5 9.34314 5 11H9ZM8 12C7.44772 12 7 11.5523 7 11H11C11 9.34314 9.65685 8 8 8V12Z" fill="white" mask="url(#path-6-inside-3)"/>
<circle cx="8" cy="11" r="1" fill="white"/>
<circle cx="12" cy="11" r="1" fill="white"/>
<circle cx="16" cy="11" r="1" fill="white"/>
</svg>
