<svg width="16" height="16" viewBox="0 0 16 16" fill="none" xmlns="http://www.w3.org/2000/svg">
<rect width="16" height="16" rx="4" fill="#61C680"/>
<path d="M8 7.60754C8.52003 7.60754 9.01877 7.81412 9.38649 8.18184C9.7542 8.54956 9.96079 9.04829 9.96079 9.56832V11.9213H9.17647V9.56832C9.17649 9.26824 9.06184 8.97949 8.85597 8.76116C8.6501 8.54283 8.36859 8.41142 8.06902 8.39381L8 8.39185C7.69992 8.39184 7.41117 8.50649 7.19284 8.71236C6.97451 8.91822 6.8431 9.19974 6.82549 9.4993L6.82353 9.56832V11.9213H6.03922V9.56832C6.03922 9.04829 6.2458 8.54956 6.61352 8.18184C6.98124 7.81412 7.47997 7.60754 8 7.60754ZM5.45098 8.78401C5.56039 8.78401 5.66667 8.79695 5.76863 8.82087C5.70158 9.02048 5.66187 9.22825 5.65059 9.43852L5.64706 9.56832V9.60205C5.60198 9.58592 5.55509 9.57538 5.50745 9.57068L5.45098 9.56832C5.30475 9.56833 5.16377 9.6228 5.05552 9.72112C4.94728 9.81943 4.87953 9.95454 4.86549 10.1001L4.86274 10.1566V11.9213H4.07843V10.1566C4.07843 9.79254 4.22304 9.44342 4.48044 9.18602C4.73784 8.92862 5.08696 8.78401 5.45098 8.78401ZM10.549 8.78401C10.913 8.78401 11.2622 8.92862 11.5196 9.18602C11.777 9.44342 11.9216 9.79254 11.9216 10.1566V11.9213H11.1373V10.1566C11.1373 10.0103 11.0828 9.86935 10.9845 9.7611C10.8862 9.65286 10.751 9.58511 10.6055 9.57107L10.549 9.56832C10.4804 9.56832 10.4145 9.58009 10.3529 9.60166V9.56832C10.3529 9.30715 10.3106 9.05617 10.2318 8.82166C10.3356 8.79651 10.4421 8.78387 10.549 8.78401ZM5.45098 6.43107C5.711 6.43107 5.96036 6.53436 6.14422 6.71822C6.32808 6.90208 6.43137 7.15144 6.43137 7.41146C6.43137 7.67148 6.32808 7.92084 6.14422 8.1047C5.96036 8.28856 5.711 8.39185 5.45098 8.39185C5.19096 8.39185 4.9416 8.28856 4.75774 8.1047C4.57388 7.92084 4.47059 7.67148 4.47059 7.41146C4.47059 7.15144 4.57388 6.90208 4.75774 6.71822C4.9416 6.53436 5.19096 6.43107 5.45098 6.43107ZM10.549 6.43107C10.809 6.43107 11.0584 6.53436 11.2423 6.71822C11.4261 6.90208 11.5294 7.15144 11.5294 7.41146C11.5294 7.67148 11.4261 7.92084 11.2423 8.1047C11.0584 8.28856 10.809 8.39185 10.549 8.39185C10.289 8.39185 10.0396 8.28856 9.85578 8.1047C9.67192 7.92084 9.56863 7.67148 9.56863 7.41146C9.56863 7.15144 9.67192 6.90208 9.85578 6.71822C10.0396 6.53436 10.289 6.43107 10.549 6.43107ZM5.45098 7.21538C5.39898 7.21538 5.3491 7.23604 5.31233 7.27281C5.27556 7.30958 5.2549 7.35946 5.2549 7.41146C5.2549 7.46346 5.27556 7.51334 5.31233 7.55011C5.3491 7.58688 5.39898 7.60754 5.45098 7.60754C5.50298 7.60754 5.55286 7.58688 5.58963 7.55011C5.6264 7.51334 5.64706 7.46346 5.64706 7.41146C5.64706 7.35946 5.6264 7.30958 5.58963 7.27281C5.55286 7.23604 5.50298 7.21538 5.45098 7.21538ZM10.549 7.21538C10.497 7.21538 10.4471 7.23604 10.4104 7.27281C10.3736 7.30958 10.3529 7.35946 10.3529 7.41146C10.3529 7.46346 10.3736 7.51334 10.4104 7.55011C10.4471 7.58688 10.497 7.60754 10.549 7.60754C10.601 7.60754 10.6509 7.58688 10.6877 7.55011C10.7244 7.51334 10.7451 7.46346 10.7451 7.41146C10.7451 7.35946 10.7244 7.30958 10.6877 7.27281C10.6509 7.23604 10.601 7.21538 10.549 7.21538ZM8 4.07812C8.41603 4.07812 8.81501 4.24339 9.10919 4.53757C9.40336 4.83174 9.56863 5.23073 9.56863 5.64675C9.56863 6.06278 9.40336 6.46177 9.10919 6.75594C8.81501 7.05012 8.41603 7.21538 8 7.21538C7.58398 7.21538 7.18499 7.05012 6.89081 6.75594C6.59664 6.46177 6.43137 6.06278 6.43137 5.64675C6.43137 5.23073 6.59664 4.83174 6.89081 4.53757C7.18499 4.24339 7.58398 4.07813 8 4.07812ZM8 4.86244C7.79199 4.86244 7.59249 4.94507 7.44541 5.09216C7.29832 5.23925 7.21569 5.43874 7.21569 5.64675C7.21569 5.85477 7.29832 6.05426 7.44541 6.20135C7.59249 6.34843 7.79199 6.43107 8 6.43107C8.20801 6.43107 8.40751 6.34843 8.55459 6.20135C8.70168 6.05426 8.78432 5.85477 8.78432 5.64675C8.78432 5.43874 8.70168 5.23925 8.55459 5.09216C8.40751 4.94507 8.20801 4.86244 8 4.86244Z" fill="white"/>
<path fill-rule="evenodd" clip-rule="evenodd" d="M10.0392 12H9.09804V9.56863C9.09806 9.28855 8.99105 9.01905 8.79891 8.81528C8.60703 8.61178 8.34475 8.48919 8.06559 8.47249L7.9989 8.47059C7.71922 8.47086 7.45016 8.57784 7.24665 8.76973C7.04315 8.9616 6.92056 9.22389 6.90386 9.50305L6.90196 9.56975V12H5.96079V9.56863C5.96079 9.0278 6.17563 8.50911 6.55806 8.12669C6.94049 7.74426 7.45917 7.52941 8 7.52941C8.54084 7.52941 9.05952 7.74426 9.44195 8.12669C9.82437 8.50911 10.0392 9.0278 10.0392 9.56863V12ZM6.82353 9.56863L6.82549 9.49961C6.8431 9.20005 6.97451 8.91853 7.19284 8.71266C7.41117 8.5068 7.69992 8.39214 8 8.39216L8.06902 8.39412C8.36859 8.41173 8.6501 8.54314 8.85597 8.76147C9.06184 8.9798 9.17649 9.26855 9.17647 9.56863V11.9216H9.96079V9.56863C9.96079 9.0486 9.75421 8.54986 9.38649 8.18215C9.01877 7.81443 8.52003 7.60785 8 7.60785C7.47997 7.60785 6.98124 7.81443 6.61352 8.18215C6.2458 8.54986 6.03922 9.0486 6.03922 9.56863V11.9216H6.82353V9.56863ZM5.87041 8.7645L5.84298 8.84615C5.77829 9.03873 5.73994 9.23916 5.72896 9.44201L5.72549 9.5697V9.71372L5.62064 9.6762C5.58228 9.66248 5.5424 9.65343 5.50188 9.64925L5.44941 9.64706C5.32324 9.64746 5.20168 9.69463 5.10825 9.77948C5.01488 9.86428 4.95628 9.98067 4.94374 10.1061L4.94118 10.1588V12H4V10.1569C4 9.77204 4.15287 9.40298 4.42498 9.13087C4.69709 8.85876 5.06616 8.70589 5.45098 8.70589C5.5666 8.70589 5.67889 8.71956 5.78654 8.74482L5.87041 8.7645ZM4.86275 10.1569L4.86549 10.1004C4.87953 9.95484 4.94728 9.81974 5.05552 9.72142C5.16377 9.62311 5.30475 9.56864 5.45098 9.56863L5.50745 9.57098C5.52801 9.57302 5.54843 9.57613 5.56863 9.58032C5.59523 9.58583 5.62144 9.59319 5.64706 9.60236V9.56863L5.65059 9.43883C5.66047 9.25476 5.69212 9.07261 5.74484 8.89617C5.75234 8.87106 5.76027 8.84605 5.76863 8.82118C5.7431 8.81519 5.7173 8.80989 5.69124 8.80531C5.61325 8.79159 5.533 8.78432 5.45098 8.78432C5.08696 8.78432 4.73785 8.92892 4.48044 9.18633C4.22304 9.44373 4.07843 9.79284 4.07843 10.1569V11.9216H4.86275V10.1569ZM10.309 8.80566C10.3882 8.79137 10.4685 8.78421 10.549 8.78432C10.913 8.78432 11.2622 8.92892 11.5196 9.18633C11.777 9.44373 11.9216 9.79284 11.9216 10.1569V11.9216H11.1373V10.1569C11.1373 10.0106 11.0828 9.86965 10.9845 9.76141C10.8862 9.65316 10.751 9.58541 10.6055 9.57138L10.549 9.56863C10.5088 9.56863 10.4694 9.57268 10.4314 9.58039C10.4046 9.58581 10.3784 9.59305 10.3529 9.60196V9.56863C10.3529 9.55225 10.3528 9.5359 10.3524 9.5196C10.348 9.30351 10.3146 9.09475 10.2555 8.89692C10.248 8.87175 10.2401 8.84677 10.2318 8.82196C10.2574 8.81577 10.2831 8.81033 10.309 8.80566ZM10.5472 9.64707C10.4883 9.64727 10.4318 9.65746 10.3789 9.67598L10.2745 9.71254V9.56863C10.2745 9.31599 10.2336 9.07344 10.1574 8.84695L10.1302 8.76586L10.2133 8.74573C10.3233 8.71912 10.436 8.70574 10.5491 8.70589M10.5472 9.64707L10.5998 9.64962C10.7252 9.66217 10.8416 9.72077 10.9264 9.81414C11.0116 9.90795 11.0588 10.0301 11.0588 10.1569V12H12V10.1569C12 9.77204 11.8471 9.40298 11.575 9.13087C11.3029 8.85878 10.9339 8.70591 10.5491 8.70589M5.45098 6.35294C5.7318 6.35294 6.00111 6.4645 6.19968 6.66306C6.39825 6.86163 6.50981 7.13095 6.50981 7.41177C6.50981 7.69258 6.39825 7.9619 6.19968 8.16047C6.00111 8.35904 5.7318 8.47059 5.45098 8.47059C5.17016 8.47059 4.90085 8.35904 4.70228 8.16047C4.50371 7.9619 4.39216 7.69258 4.39216 7.41177C4.39216 7.13095 4.50371 6.86163 4.70228 6.66306C4.90085 6.4645 5.17016 6.35294 5.45098 6.35294ZM10.549 6.35294C10.8298 6.35294 11.0992 6.4645 11.2977 6.66306C11.4963 6.86163 11.6078 7.13095 11.6078 7.41177C11.6078 7.69258 11.4963 7.9619 11.2977 8.16047C11.0992 8.35904 10.8298 8.47059 10.549 8.47059C10.2682 8.47059 9.99889 8.35904 9.80032 8.16047C9.60175 7.9619 9.4902 7.69258 9.4902 7.41177C9.4902 7.13095 9.60175 6.86163 9.80032 6.66306C9.99889 6.4645 10.2682 6.35294 10.549 6.35294ZM8 4C8.43683 4 8.85577 4.17353 9.16465 4.48241C9.47353 4.7913 9.64706 5.21023 9.64706 5.64706C9.64706 6.08389 9.47353 6.50282 9.16465 6.81171C8.85577 7.12059 8.43683 7.29412 8 7.29412C7.56317 7.29412 7.14424 7.12059 6.83536 6.81171C6.52647 6.50282 6.35294 6.08389 6.35294 5.64706C6.35294 5.21023 6.52647 4.7913 6.83536 4.48241C7.14424 4.17353 7.56317 4 8 4ZM8 4.94118C7.81279 4.94118 7.63325 5.01555 7.50087 5.14793C7.36849 5.2803 7.29412 5.45985 7.29412 5.64706C7.29412 5.83427 7.36849 6.01382 7.50087 6.14619C7.63325 6.27857 7.81279 6.35294 8 6.35294C8.18721 6.35294 8.36676 6.27857 8.49914 6.14619C8.63152 6.01382 8.70589 5.83427 8.70589 5.64706C8.70589 5.45985 8.63152 5.2803 8.49914 5.14793C8.36676 5.01555 8.18721 4.94118 8 4.94118ZM6.14422 6.71852C5.96036 6.53467 5.711 6.43137 5.45098 6.43137C5.19097 6.43137 4.9416 6.53467 4.75774 6.71852C4.57388 6.90238 4.47059 7.15175 4.47059 7.41177C4.47059 7.67178 4.57388 7.92115 4.75774 8.10501C4.9416 8.28887 5.19097 8.39216 5.45098 8.39216C5.711 8.39216 5.96036 8.28887 6.14422 8.10501C6.32808 7.92115 6.43137 7.67178 6.43137 7.41177C6.43137 7.15175 6.32808 6.90238 6.14422 6.71852ZM11.2423 6.71852C11.0584 6.53467 10.809 6.43137 10.549 6.43137C10.289 6.43137 10.0396 6.53467 9.85578 6.71852C9.67192 6.90238 9.56863 7.15175 9.56863 7.41177C9.56863 7.67178 9.67192 7.92115 9.85578 8.10501C10.0396 8.28887 10.289 8.39216 10.549 8.39216C10.809 8.39216 11.0584 8.28887 11.2423 8.10501C11.4261 7.92115 11.5294 7.67178 11.5294 7.41177C11.5294 7.15175 11.4261 6.90238 11.2423 6.71852ZM9.10919 4.53787C8.81502 4.2437 8.41603 4.07843 8 4.07843C7.58398 4.07843 7.18499 4.2437 6.89081 4.53787C6.59664 4.83205 6.43137 5.23103 6.43137 5.64706C6.43137 6.06309 6.59664 6.46207 6.89081 6.75625C7.18499 7.05042 7.58398 7.21569 8 7.21569C8.41603 7.21569 8.81502 7.05042 9.10919 6.75625C9.40337 6.46207 9.56863 6.06309 9.56863 5.64706C9.56863 5.23103 9.40337 4.83205 9.10919 4.53787ZM7.44541 5.09247C7.5925 4.94538 7.79199 4.86275 8 4.86275C8.20802 4.86275 8.40751 4.94538 8.5546 5.09247C8.70168 5.23955 8.78432 5.43905 8.78432 5.64706C8.78432 5.85507 8.70168 6.05457 8.5546 6.20165C8.40751 6.34874 8.20802 6.43137 8 6.43137C7.79199 6.43137 7.5925 6.34874 7.44541 6.20165C7.29832 6.05457 7.21569 5.85507 7.21569 5.64706C7.21569 5.43905 7.29832 5.23955 7.44541 5.09247Z" fill="white"/>
</svg>
