<svg fill="none" height="16" viewBox="0 0 16 16" width="16" xmlns="http://www.w3.org/2000/svg"><path d="m8 0c-4.41786 0-8 3.58214-8 8 0 4.4179 3.58214 8 8 8 4.4179 0 8-3.5821 8-8 0-4.41786-3.5821-8-8-8zm3.4554 5.3875-3.76076 5.2143c-.05256.0733-.12185.1331-.20213.1744-.08027.0412-.16922.0627-.25947.0627s-.1792-.0215-.25948-.0627c-.08028-.0413-.14957-.1011-.20213-.1744l-2.22679-3.08573c-.06785-.09464 0-.22678.11607-.22678h.8375c.18215 0 .35536.0875.4625.2375l1.27143 1.76428 2.80716-3.89286c.1071-.14821.2786-.2375.4625-.2375h.8375c.1161 0 .1839.13215.1161.22679z" fill="#ccc"/></svg>