<svg width="16" height="16" viewBox="0 0 16 16" fill="none" xmlns="http://www.w3.org/2000/svg">
<path fill-rule="evenodd" clip-rule="evenodd" d="M4.00039 7.2001V5.6001C4.00039 4.53923 4.42182 3.52182 5.17196 2.77167C5.92211 2.02152 6.93953 1.6001 8.00039 1.6001C9.06126 1.6001 10.0787 2.02152 10.8288 2.77167C11.579 3.52182 12.0004 4.53923 12.0004 5.6001V7.2001C12.4247 7.2001 12.8317 7.36867 13.1318 7.66873C13.4318 7.96878 13.6004 8.37575 13.6004 8.8001V12.8001C13.6004 13.2244 13.4318 13.6314 13.1318 13.9315C12.8317 14.2315 12.4247 14.4001 12.0004 14.4001H4.00039C3.57604 14.4001 3.16908 14.2315 2.86902 13.9315C2.56896 13.6314 2.40039 13.2244 2.40039 12.8001V8.8001C2.40039 8.37575 2.56896 7.96878 2.86902 7.66873C3.16908 7.36867 3.57604 7.2001 4.00039 7.2001ZM10.4004 5.6001V7.2001H5.60039V5.6001C5.60039 4.96358 5.85325 4.35313 6.30333 3.90304C6.75342 3.45295 7.36387 3.2001 8.00039 3.2001C8.63691 3.2001 9.24736 3.45295 9.69745 3.90304C10.1475 4.35313 10.4004 4.96358 10.4004 5.6001Z" fill="#CCCCCC"/>
</svg>
