<svg fill="none" height="28" viewBox="0 0 28 28" width="28" xmlns="http://www.w3.org/2000/svg"><path d="m0 0h28v28h-28z" fill="#fff"/><path d="m16.0002 12 .7924-.61c-.1893-.2459-.4821-.39-.7924-.39-.3104 0-.6031.1441-.7924.39zm8.6602 11.25v1c.3811 0 .729-.2165.8972-.5584.1683-.3419.1277-.7497-.1048-1.0516zm-13.3695-5.1325-.8058.5921c.1861.2533.4804.4043.7947.4078.3142.0035.6118-.1409.8035-.3899zm-2.29073-3.1175.80583-.5921c-.18842-.2565-.48763-.4079-.80583-.4079-.31821 0-.61742.1514-.80584.4079zm-6.06218 8.25-.80584-.5921c-.22324.3038-.25664.7073-.08639 1.0437s.51522.5484.89223.5484zm12.26981-10.64 8.6602 11.25 1.5848-1.22-8.6602-11.25zm-3.1245 6.1175 4.7093-6.1175-1.5848-1.22-4.7093 6.1175zm-3.88897-3.1354 2.29077 3.1175 1.6117-1.1843-2.2908-3.1174zm-4.4505 8.25 6.06217-8.25-1.61167-1.1842-6.06218 8.25zm3.59608-1.5921h-4.40192v2h4.40192zm7.72239 0h-7.72239v2h7.72239zm9.5981 0h-9.5981v2h9.5981z" fill="#888"/><g fill="#fff"><path d="m1 22h25v3h-25z"/><path d="m2 17h4v5h-4z"/><path d="m22 17h4v7h-4z"/></g><rect height="18" rx="1" stroke="#888" stroke-width="2" width="18" x="5" y="5"/><circle cx="9.5" cy="9.5" fill="#888" r="1.5"/></svg>