<svg width="150" height="28" viewBox="0 0 150 28" fill="none" xmlns="http://www.w3.org/2000/svg">
<path d="M8.8983 7.63636H17.7051H19.0678C21.1742 7.63636 22.8814 5.92709 22.8814 3.81818C22.8814 1.70927 21.1742 0 19.0678 0H8.8983C3.9839 0 0 3.98873 0 8.90909C0 12.5542 2.18771 15.6864 5.31864 17.066C6.41441 17.5484 7.62458 17.8182 8.8983 17.8182H13.9831C14.6847 17.8182 15.2542 18.3884 15.2542 19.0909C15.2542 19.7935 14.6847 20.3636 13.9831 20.3636H5.17627H3.81356C1.7072 20.3636 0 22.0729 0 24.1818C0 26.2907 1.7072 28 3.81356 28H13.9831C18.8975 28 22.8814 24.0113 22.8814 19.0909C22.8814 15.4458 20.6936 12.3136 17.5627 10.934C16.4669 10.4516 15.2568 10.1818 13.9831 10.1818H8.8983C8.19661 10.1818 7.62712 9.61164 7.62712 8.90909C7.62712 8.20654 8.19661 7.63636 8.8983 7.63636Z" fill="#61C680"/>
<path d="M144.681 10.934C143.586 10.4516 142.375 10.1818 141.102 10.1818H136.017C135.315 10.1818 134.746 9.61164 134.746 8.90909C134.746 8.20654 135.315 7.63636 136.017 7.63636H144.824H146.186C148.293 7.63636 150 5.92709 150 3.81818C150 1.70927 148.293 0 146.186 0H136.017C131.103 0 127.119 3.98873 127.119 8.90909C127.119 12.5542 129.306 15.6864 132.437 17.066C133.533 17.5484 134.743 17.8182 136.017 17.8182H141.102C141.803 17.8182 142.373 18.3884 142.373 19.0909C142.373 19.7935 141.803 20.3636 141.102 20.3636H132.295H130.932C128.826 20.3636 127.119 22.0729 127.119 24.1818C127.119 26.2907 128.826 28 130.932 28H141.102C146.016 28 150 24.0113 150 19.0909C150 15.4458 147.812 12.3136 144.681 10.934Z" fill="#61C680"/>
<path d="M44.4915 0C42.3851 0 40.6779 1.70927 40.6779 3.81818V10.1818H33.0508V3.81818C33.0508 1.70927 31.3436 0 29.2373 0C27.1309 0 25.4237 1.70927 25.4237 3.81818V10.1818V17.8182V24.1818C25.4237 26.2907 27.1309 28 29.2373 28C31.3436 28 33.0508 26.2907 33.0508 24.1818V17.8182H40.6779V24.1818C40.6779 26.2907 42.3851 28 44.4915 28C46.5979 28 48.3051 26.2907 48.3051 24.1818V17.8182V10.1818V3.81818C48.3051 1.70927 46.5979 0 44.4915 0Z" fill="#61C680"/>
<path d="M69.9152 7.63636C72.0216 7.63636 73.7288 5.92709 73.7288 3.81818C73.7288 1.70927 72.0216 0 69.9152 0H54.661C52.5546 0 50.8474 1.70927 50.8474 3.81818V10.1818V17.8182V24.1818C50.8474 26.2907 52.5546 28 54.661 28H69.9152C72.0216 28 73.7288 26.2907 73.7288 24.1818C73.7288 22.0729 72.0216 20.3636 69.9152 20.3636H58.4745V17.8182H66.1017C68.208 17.8182 69.9152 16.1089 69.9152 14C69.9152 11.8911 68.208 10.1818 66.1017 10.1818H58.4745V7.63636H69.9152Z" fill="#61C680"/>
<path d="M95.339 7.63636C97.4454 7.63636 99.1526 5.92709 99.1526 3.81818C99.1526 1.70927 97.4454 0 95.339 0H80.0848C77.9784 0 76.2712 1.70927 76.2712 3.81818V10.1818V17.8182V24.1818C76.2712 26.2907 77.9784 28 80.0848 28H95.339C97.4454 28 99.1526 26.2907 99.1526 24.1818C99.1526 22.0729 97.4454 20.3636 95.339 20.3636H83.8984V17.8182H91.5255C93.6318 17.8182 95.339 16.1089 95.339 14C95.339 11.8911 93.6318 10.1818 91.5255 10.1818H83.8984V7.63636H95.339Z" fill="#61C680"/>
<path d="M115.678 0H110.593C105.679 0 101.695 3.98873 101.695 8.90909V24.1818C101.695 26.2907 103.402 28 105.508 28C107.615 28 109.322 26.2907 109.322 24.1818V17.7265C109.738 17.7864 110.161 17.8182 110.593 17.8182H115.678C120.592 17.8182 124.576 13.8295 124.576 8.90909C124.576 3.98873 120.592 0 115.678 0ZM115.678 10.1818H110.593C109.891 10.1818 109.322 9.61164 109.322 8.90909C109.322 8.20654 109.891 7.63636 110.593 7.63636H115.678C116.38 7.63636 116.949 8.20654 116.949 8.90909C116.949 9.61164 116.38 10.1818 115.678 10.1818Z" fill="#61C680"/>
</svg>
