<svg width="145" height="105" viewBox="0 0 145 105" fill="none" xmlns="http://www.w3.org/2000/svg">
<path d="M86.875 22.555C86.4 23.095 85.715 23.405 85 23.405C84.285 23.405 83.6 23.095 83.125 22.555C81.695 20.93 79.645 20 77.5 20C75.355 20 73.305 20.93 71.875 22.555C71.4 23.095 70.715 23.405 70 23.405C69.285 23.405 68.6 23.095 68.125 22.555C66.695 20.93 64.645 20 62.5 20C58.365 20 55 23.365 55 27.5C55 31.635 58.365 35 62.5 35C64.645 35 66.695 34.07 68.125 32.445C68.6 31.905 69.285 31.595 70 31.595C70.715 31.595 71.4 31.905 71.875 32.445C73.305 34.07 75.355 35 77.5 35C79.645 35 81.695 34.07 83.125 32.445C83.6 31.905 84.285 31.595 85 31.595C85.715 31.595 86.4 31.905 86.875 32.445C88.305 34.07 90.355 35 92.5 35C96.635 35 100 31.635 100 27.5C100 23.365 96.635 20 92.5 20C90.355 20 88.305 20.93 86.875 22.555Z" fill="#61C680"/>
<path d="M110 42.5C110 40.485 108.625 40.03 107.47 40H102.54C103.225 41.51 103.785 43.175 104.2 45H107.5C108.625 44.97 110 44.515 110 42.5Z" fill="#61C680"/>
<path d="M102.5 20H102.495C104.07 22.09 105 24.69 105 27.5C105 30.31 104.065 32.91 102.495 35H102.5H107.5C110.515 35 115 36.995 115 42.5C115 48.005 110.515 50 107.5 50H104.915C104.97 50.81 105 51.64 105 52.5C105 79.685 77.775 80 77.5 80H62.5C61.12 80 60 78.88 60 77.5C60 76.12 61.12 75 62.5 75H77.5C77.675 75 78.61 74.985 80 74.81V64.635C76.385 63.515 75 60.005 75 57.5C75 56.12 76.12 55 77.5 55C78.87 55 79.985 56.105 80 57.475C80.03 58.63 80.49 60 82.5 60C84.515 60 84.97 58.625 85 57.47C85 56.09 86.12 54.985 87.5 54.985C88.88 54.985 90 56.12 90 57.5C90 60.005 88.615 63.51 85 64.635V73.73C91.55 71.685 100 66.36 100 52.505C100 47.24 98.8 42.855 96.445 39.365C95.205 39.77 93.88 40 92.5 40C89.775 40 87.15 39.105 85 37.49C82.85 39.105 80.225 40 77.5 40C74.775 40 72.15 39.105 70 37.49C67.85 39.105 65.225 40 62.5 40C55.605 40 50 34.395 50 27.5C50 20.605 55.605 15 62.5 15C65.225 15 67.85 15.895 70 17.51C72.15 15.895 74.775 15 77.5 15C80.225 15 82.85 15.895 85 17.51C86.365 16.485 87.925 15.75 89.58 15.35C79.81 5.62 66.485 0 52.5 0C23.55 0 0 23.55 0 52.5C0 81.45 23.55 105 52.5 105H102.5C125.935 105 145 85.935 145 62.5C145 39.065 125.935 20 102.5 20ZM37.53 45H42.5C43.88 45 45 46.12 45 47.5C45 48.88 43.88 50 42.5 50H37.5C34.485 50 30 48.005 30 42.5C30 36.995 34.485 35 37.5 35H42.5C43.88 35 45 36.12 45 37.5C45 38.88 43.88 40 42.5 40H37.5C36.375 40.03 35 40.485 35 42.5C35 44.515 36.375 44.97 37.53 45ZM55 47.5C55 46.12 56.12 45 57.5 45C58.87 45 59.985 46.105 60 47.475C60.03 48.63 60.49 50 62.5 50C64.515 50 64.97 48.625 65 47.47C65 46.09 66.12 44.985 67.5 44.985C68.88 44.985 70 46.12 70 47.5C70 50.515 68 55 62.5 55C57 55 55 50.515 55 47.5Z" fill="#61C680"/>
</svg>
