<svg width="10" height="10" viewBox="0 0 10 10" fill="none" xmlns="http://www.w3.org/2000/svg">
<path fill-rule="evenodd" clip-rule="evenodd" d="M6.81818 1.45455H9V2.18182H8.27273V8.72727L7.54545 9.45455H2.45455L1.72727 8.72727V2.18182H1V1.45455H3.18182V0.727273C3.18182 0.534388 3.25844 0.349403 3.39483 0.213013C3.53122 0.0766231 3.71621 0 3.90909 0H6.09091C6.28379 0 6.46878 0.0766231 6.60517 0.213013C6.74156 0.349403 6.81818 0.534388 6.81818 0.727273V1.45455ZM6.09091 0.727273H3.90909V1.45455H6.09091V0.727273ZM2.45455 8.72727H7.54545V2.18182H2.45455V8.72727ZM3.90909 2.90909H3.18182V8H3.90909V2.90909ZM4.63636 2.90909H5.36364V8H4.63636V2.90909ZM6.09091 2.90909H6.81818V8H6.09091V2.90909Z" fill="white"/>
</svg>
