<svg width="87" height="63" viewBox="0 0 87 63" fill="none" xmlns="http://www.w3.org/2000/svg">
<path d="M61.5 12H61.497C62.442 13.254 63 14.814 63 16.5C63 18.186 62.439 19.746 61.497 21H61.5H64.5C66.309 21 69 22.197 69 25.5C69 28.803 66.309 30 64.5 30H62.949C62.982 30.486 63 30.984 63 31.5C63 47.811 46.665 48 46.5 48H37.5C36.672 48 36 47.328 36 46.5C36 45.672 36.672 45 37.5 45H46.5C46.605 45 47.166 44.991 48 44.886V38.781C45.831 38.109 45 36.003 45 34.5C45 33.672 45.672 33 46.5 33C47.322 33 47.991 33.663 48 34.485C48.018 35.178 48.294 36 49.5 36C50.709 36 50.982 35.175 51 34.482C51 33.654 51.672 32.991 52.5 32.991C53.328 32.991 54 33.672 54 34.5C54 36.003 53.169 38.106 51 38.781V44.238C54.93 43.011 60 39.816 60 31.503C60 28.344 59.28 25.713 57.867 23.619C57.123 23.862 56.328 24 55.5 24C53.865 24 52.29 23.463 51 22.494C49.71 23.463 48.135 24 46.5 24C44.865 24 43.29 23.463 42 22.494C40.71 23.463 39.135 24 37.5 24C33.363 24 30 20.637 30 16.5C30 12.363 33.363 9 37.5 9C39.135 9 40.71 9.537 42 10.506C43.29 9.537 44.865 9 46.5 9C48.135 9 49.71 9.537 51 10.506C51.819 9.891 52.755 9.45 53.748 9.21C47.886 3.372 39.891 0 31.5 0C14.13 0 0 14.13 0 31.5C0 48.87 14.13 63 31.5 63H61.5C75.561 63 87 51.561 87 37.5C87 23.439 75.561 12 61.5 12ZM22.518 27H25.5C26.328 27 27 27.672 27 28.5C27 29.328 26.328 30 25.5 30H22.5C20.691 30 18 28.803 18 25.5C18 22.197 20.691 21 22.5 21H25.5C26.328 21 27 21.672 27 22.5C27 23.328 26.328 24 25.5 24H22.5C21.825 24.018 21 24.291 21 25.5C21 26.709 21.825 26.982 22.518 27ZM34.938 30.438L36.126 29.25L34.938 28.062C34.353 27.477 34.353 26.526 34.938 25.941C35.523 25.356 36.474 25.356 37.059 25.941L38.247 27.129L39.435 25.941C40.02 25.356 40.971 25.356 41.556 25.941C42.141 26.526 42.141 27.477 41.556 28.062L40.368 29.25L41.556 30.438C42.141 31.023 42.141 31.974 41.556 32.559C41.262 32.853 40.878 32.997 40.494 32.997C40.11 32.997 39.726 32.85 39.432 32.559L38.244 31.371L37.056 32.559C36.762 32.853 36.378 32.997 35.994 32.997C35.61 32.997 35.226 32.85 34.932 32.559C34.353 31.974 34.353 31.026 34.938 30.438Z" fill="#CCCCCC"/>
<path d="M52.125 13.901C51.84 14.2226 51.429 14.4072 51 14.4072C50.571 14.4072 50.16 14.2226 49.875 13.901C49.017 12.9332 47.787 12.3794 46.5 12.3794C45.213 12.3794 43.983 12.9332 43.125 13.901C42.84 14.2226 42.429 14.4072 42 14.4072C41.571 14.4072 41.16 14.2226 40.875 13.901C40.017 12.9332 38.787 12.3794 37.5 12.3794C35.019 12.3794 33 14.3834 33 16.8459C33 19.3085 35.019 21.3124 37.5 21.3124C38.787 21.3124 40.017 20.7586 40.875 19.7908C41.16 19.4692 41.571 19.2846 42 19.2846C42.429 19.2846 42.84 19.4692 43.125 19.7908C43.983 20.7586 45.213 21.3124 46.5 21.3124C47.787 21.3124 49.017 20.7586 49.875 19.7908C50.16 19.4692 50.571 19.2846 51 19.2846C51.429 19.2846 51.84 19.4692 52.125 19.7908C52.983 20.7586 54.213 21.3124 55.5 21.3124C57.981 21.3124 60 19.3085 60 16.8459C60 14.3834 57.981 12.3794 55.5 12.3794C54.213 12.3794 52.983 12.9332 52.125 13.901Z" fill="#CCCCCC"/>
<path d="M66.0004 25.7789C66.0004 24.5789 65.1754 24.3079 64.4824 24.29H61.5244C61.9354 25.1893 62.2714 26.1809 62.5204 27.2677H64.5004C65.1754 27.2498 66.0004 26.9789 66.0004 25.7789Z" fill="#CCCCCC"/>
</svg>
