<svg width="16" height="16" viewBox="0 0 16 16" fill="none" xmlns="http://www.w3.org/2000/svg">
<rect x="0.5" y="0.5" width="15" height="15" rx="3.5" stroke="#61C680"/>
<path d="M11.969 5.27958L7.64925 11.7077C7.58888 11.7981 7.50929 11.8718 7.41708 11.9226C7.32487 11.9735 7.2227 12 7.11903 12C7.01537 12 6.91319 11.9735 6.82099 11.9226C6.72878 11.8718 6.64919 11.7981 6.58881 11.7077L4.03103 7.90365C3.95308 7.78697 4.03103 7.62407 4.16435 7.62407H5.12634C5.33556 7.62407 5.53452 7.73194 5.65759 7.91686L7.11801 10.0918L10.3424 5.29279C10.4655 5.11007 10.6624 5 10.8737 5H11.8356C11.969 5 12.0469 5.1629 11.969 5.27958Z" fill="#61C680"/>
</svg>
