<svg width="16" height="16" viewBox="0 0 16 16" fill="none" xmlns="http://www.w3.org/2000/svg">
<path d="M4.92 14.0067C4.99741 14.0843 5.08937 14.1459 5.19061 14.1879C5.29185 14.2299 5.40039 14.2515 5.51 14.2515C5.61961 14.2515 5.72815 14.2299 5.82939 14.1879C5.93063 14.1459 6.02259 14.0843 6.1 14.0067L11.64 8.4667C11.7018 8.40503 11.7508 8.33177 11.7843 8.25112C11.8177 8.17047 11.835 8.08402 11.835 7.9967C11.835 7.90939 11.8177 7.82294 11.7843 7.74229C11.7508 7.66164 11.7018 7.58838 11.64 7.5267L6.1 1.9867C5.77333 1.66004 5.24666 1.66004 4.92 1.9867C4.59333 2.31337 4.59333 2.84004 4.92 3.1667L9.74666 8.00004L4.91333 12.8334C4.59333 13.1534 4.59333 13.6867 4.92 14.0067Z" fill="#888888"/>
</svg>
