<svg width="28" height="28" viewBox="0 0 28 28" fill="none" xmlns="http://www.w3.org/2000/svg">
<path fill-rule="evenodd" clip-rule="evenodd" d="M18.0002 10.9997C18.0002 12.0606 17.5788 13.078 16.8286 13.8281C16.0785 14.5783 15.0611 14.9997 14.0002 14.9997C12.9394 14.9997 11.9219 14.5783 11.1718 13.8281C10.4217 13.078 10.0002 12.0606 10.0002 10.9997C10.0002 9.93887 10.4217 8.92146 11.1718 8.17132C11.9219 7.42118 12.9394 6.99976 14.0002 6.99976C15.0611 6.99976 16.0785 7.42118 16.8286 8.17132C17.5788 8.92146 18.0002 9.93887 18.0002 10.9997ZM16.0002 10.9997C16.0002 11.5302 15.7895 12.0389 15.4144 12.4139C15.0393 12.789 14.5306 12.9997 14.0002 12.9997C13.4698 12.9997 12.9611 12.789 12.586 12.4139C12.2109 12.0389 12.0002 11.5302 12.0002 10.9997C12.0002 10.4693 12.2109 9.96059 12.586 9.58552C12.9611 9.21045 13.4698 8.99974 14.0002 8.99974C14.5306 8.99974 15.0393 9.21045 15.4144 9.58552C15.7895 9.96059 16.0002 10.4693 16.0002 10.9997Z" fill="#888888"/>
<path fill-rule="evenodd" clip-rule="evenodd" d="M13.9999 3C7.92496 3 3 7.92496 3 13.9999C3 20.0749 7.92496 24.9998 13.9999 24.9998C20.0749 24.9998 24.9998 20.0749 24.9998 13.9999C24.9998 7.92496 20.0749 3 13.9999 3ZM4.99999 13.9999C4.99999 16.0899 5.71298 18.0139 6.90797 19.5419C7.7472 18.4398 8.82986 17.5466 10.0714 16.9322C11.3129 16.3178 12.6797 15.9987 14.0649 15.9999C15.4322 15.9986 16.7818 16.3094 18.0108 16.9087C19.2398 17.5079 20.3158 18.3798 21.1569 19.4579C22.0233 18.3215 22.6067 16.9951 22.8587 15.5885C23.1108 14.1819 23.0243 12.7355 22.6063 11.3689C22.1884 10.0024 21.4511 8.75501 20.4554 7.73C19.4596 6.705 18.2341 5.93184 16.8803 5.47449C15.5264 5.01714 14.0831 4.88876 12.6698 5.09996C11.2565 5.31116 9.91374 5.85587 8.75273 6.68903C7.59171 7.52218 6.64578 8.61983 5.99321 9.89114C5.34063 11.1625 5.00017 12.5709 4.99999 13.9999ZM13.9999 22.9999C11.9339 23.003 9.93021 22.2922 8.32796 20.9879C8.97289 20.0646 9.83129 19.3108 10.8301 18.7906C11.829 18.2703 12.9387 17.9991 14.0649 17.9999C15.1771 17.999 16.2734 18.2635 17.2628 18.7713C18.2523 19.2792 19.1062 20.0157 19.7539 20.9199C18.1392 22.2666 16.1025 23.0028 13.9999 22.9999Z" fill="#888888"/>
</svg>
