<svg width="22" height="22" viewBox="0 0 22 22" fill="none" xmlns="http://www.w3.org/2000/svg">
<path d="M8.66667 0.5V2.83333H2.83333V19.1667H19.1667V13.3333H21.5V20.3333C21.5 20.6428 21.3771 20.9395 21.1583 21.1583C20.9395 21.3771 20.6428 21.5 20.3333 21.5H1.66667C1.35725 21.5 1.0605 21.3771 0.841709 21.1583C0.622916 20.9395 0.5 20.6428 0.5 20.3333V1.66667C0.5 1.35725 0.622916 1.0605 0.841709 0.841709C1.0605 0.622916 1.35725 0.5 1.66667 0.5H8.66667ZM17.517 2.83333H12.1667V0.5H21.5V9.83333H19.1667V4.483L11 12.6497L9.35033 11L17.517 2.83333Z" fill="#888888"/>
</svg>
