<svg width="12" height="12" viewBox="0 0 12 12" fill="none" xmlns="http://www.w3.org/2000/svg">
<path d="M1.4949 3.68975C1.43669 3.74781 1.39051 3.81678 1.35901 3.89271C1.3275 3.96864 1.31128 4.05005 1.31128 4.13225C1.31128 4.21446 1.3275 4.29586 1.35901 4.3718C1.39051 4.44773 1.43669 4.5167 1.4949 4.57475L5.6499 8.72975C5.69615 8.77611 5.7511 8.81288 5.81158 8.83797C5.87207 8.86306 5.93691 8.87598 6.0024 8.87598C6.06788 8.87598 6.13272 8.86306 6.19321 8.83797C6.2537 8.81288 6.30864 8.77611 6.3549 8.72975L10.5099 4.57475C10.7549 4.32975 10.7549 3.93475 10.5099 3.68975C10.2649 3.44475 9.8699 3.44475 9.6249 3.68975L5.9999 7.30975L2.3749 3.68475C2.1349 3.44475 1.7349 3.44475 1.4949 3.68975Z" fill="#888888"/>
</svg>
