<svg width="20" height="20" viewBox="0 0 20 20" fill="none" xmlns="http://www.w3.org/2000/svg">
<path d="M16.6667 6.66699H11.9901L12.9259 3.86116C13.0942 3.35449 13.0092 2.79283 12.6967 2.35949C12.3842 1.92616 11.8776 1.66699 11.3434 1.66699H10.0001C9.75258 1.66699 9.51841 1.77699 9.35925 1.96699L5.44258 6.66699H3.33341C2.41425 6.66699 1.66675 7.41449 1.66675 8.33366V15.8337C1.66675 16.7528 2.41425 17.5003 3.33341 17.5003H14.4226C14.7617 17.4992 15.0924 17.3952 15.3711 17.2021C15.6498 17.0089 15.8633 16.7357 15.9834 16.4187L18.2809 10.2928C18.3158 10.1993 18.3336 10.1002 18.3334 10.0003V8.33366C18.3334 7.41449 17.5859 6.66699 16.6667 6.66699ZM3.33341 8.33366H5.00008V15.8337H3.33341V8.33366ZM16.6667 9.84949L14.4226 15.8337H6.66675V7.80199L10.3901 3.33366H11.3451L10.0434 7.23616C10.0012 7.36142 9.98937 7.49495 10.009 7.62568C10.0287 7.75641 10.0792 7.88057 10.1565 7.98786C10.2337 8.09515 10.3354 8.18249 10.4531 8.24263C10.5708 8.30276 10.7012 8.33397 10.8334 8.33366H16.6667V9.84949Z" fill="#888888"/>
</svg>
