<svg width="28" height="28" viewBox="0 0 28 28" fill="none" xmlns="http://www.w3.org/2000/svg">
<path fill-rule="evenodd" clip-rule="evenodd" d="M20.7446 7.25536C20.8261 7.33663 20.8908 7.43319 20.9349 7.5395C20.979 7.6458 21.0017 7.75976 21.0017 7.87486C21.0017 7.98995 20.979 8.10391 20.9349 8.21021C20.8908 8.31652 20.8261 8.41308 20.7446 8.49436L8.49463 20.7444C8.33033 20.9087 8.10749 21.001 7.87513 21.001C7.64277 21.001 7.41993 20.9087 7.25563 20.7444C7.09133 20.5801 6.99902 20.3572 6.99902 20.1249C6.99902 19.8925 7.09133 19.6697 7.25563 19.5054L19.5056 7.25536C19.5869 7.17387 19.6835 7.10922 19.7898 7.06511C19.8961 7.021 20.01 6.99829 20.1251 6.99829C20.2402 6.99829 20.3542 7.021 20.4605 7.06511C20.5668 7.10922 20.6633 7.17387 20.7446 7.25536Z" fill="#888888"/>
<path fill-rule="evenodd" clip-rule="evenodd" d="M7.25609 7.25536C7.1746 7.33663 7.10995 7.43319 7.06584 7.5395C7.02173 7.6458 6.99902 7.75976 6.99902 7.87486C6.99902 7.98995 7.02173 8.10391 7.06584 8.21021C7.10995 8.31652 7.1746 8.41308 7.25609 8.49436L19.5061 20.7444C19.6704 20.9087 19.8932 21.001 20.1256 21.001C20.3579 21.001 20.5808 20.9087 20.7451 20.7444C20.9094 20.5801 21.0017 20.3572 21.0017 20.1249C21.0017 19.8925 20.9094 19.6697 20.7451 19.5054L8.49509 7.25536C8.41381 7.17387 8.31725 7.10922 8.21095 7.06511C8.10464 7.021 7.99068 6.99829 7.87559 6.99829C7.76049 6.99829 7.64653 7.021 7.54023 7.06511C7.43392 7.10922 7.33737 7.17387 7.25609 7.25536Z" fill="#888888"/>
</svg>
