<svg fill="none" height="138" viewBox="0 0 192 138" width="192" xmlns="http://www.w3.org/2000/svg"><g fill="#eee"><path d="m115.034 29.6436c-.629.7098-1.536 1.1172-2.482 1.1172-.947 0-1.854-.4074-2.483-1.1172-1.894-2.1357-4.608-3.358-7.448-3.358-2.8407 0-5.5551 1.2223-7.4487 3.358-.6289.7098-1.536 1.1172-2.4827 1.1172-.9468 0-1.8538-.4074-2.4828-1.1172-1.8935-2.1357-4.608-3.358-7.4482-3.358-5.4754 0-9.9311 4.4226-9.9311 9.8572s4.4557 9.8571 9.9311 9.8571c2.8402 0 5.5547-1.2223 7.4482-3.358.629-.7097 1.536-1.1171 2.4828-1.1171.9467 0 1.8538.4074 2.4827 1.1171 1.8936 2.1357 4.608 3.358 7.4487 3.358 2.84 0 5.554-1.2223 7.448-3.358.629-.7097 1.536-1.1171 2.483-1.1171.946 0 1.853.4074 2.482 1.1171 1.894 2.1357 4.608 3.358 7.449 3.358 5.475 0 9.931-4.4225 9.931-9.8571s-4.456-9.8572-9.931-9.8572c-2.841 0-5.555 1.2223-7.449 3.358z"/><path d="m145.655 55.857c0-2.6483-1.821-3.2463-3.35-3.2857h-6.528c.907 1.9846 1.649 4.1728 2.198 6.5714h4.37c1.489-.0394 3.31-.6374 3.31-3.2857z"/><path d="m135.724 26.2857h-.006c2.085 2.7469 3.316 6.164 3.316 9.8572 0 3.6931-1.238 7.1102-3.316 9.8571h.006 6.621c3.992 0 9.931 2.622 9.931 9.8571 0 7.2352-5.939 9.8572-9.931 9.8572h-3.423c.073 1.0646.112 2.1554.112 3.2857 0 35.729-36.049 36.143-36.413 36.143h-19.8624c-1.8273 0-3.3103-1.472-3.3103-3.286s1.483-3.2856 3.3103-3.2856h19.8624c.231 0 1.469-.0197 3.31-.2497v-13.3728c-4.787-1.472-6.6207-6.0852-6.6207-9.3775 0-1.8137 1.4827-3.2857 3.3107-3.2857 1.814 0 3.29 1.4523 3.31 3.2529.04 1.518.649 3.3185 3.31 3.3185 2.669 0 3.271-1.8071 3.311-3.3251 0-1.8137 1.483-3.266 3.31-3.266s3.31 1.4917 3.31 3.3054c0 3.2923-1.834 7.8989-6.62 9.3775v11.9534c8.673-2.6877 19.862-9.6863 19.862-27.8957 0-6.9197-1.589-12.6829-4.708-17.2697-1.641.5322-3.396.8345-5.223.8345-3.609 0-7.084-1.1763-9.931-3.2988-2.847 2.1225-6.323 3.2988-9.931 3.2988-3.6086 0-7.0844-1.1763-9.9313-3.2988-2.8469 2.1225-6.3228 3.2988-9.9311 3.2988-9.1299 0-16.5517-7.3665-16.5517-16.4285s7.4218-16.4286 16.5517-16.4286c3.6083 0 7.0842 1.1763 9.9311 3.2988 2.8469-2.1225 6.3227-3.2988 9.9313-3.2988 3.608 0 7.084 1.1763 9.931 3.2988 1.807-1.3471 3.873-2.3131 6.064-2.8388-12.937-12.78801-30.5807-20.1743-49.0988-20.1743-38.3338 0-69.5172 30.9514-69.5172 69 0 38.049 31.1834 69 69.5172 69h66.2068c31.031 0 56.276-25.057 56.276-55.8571 0-30.8003-25.245-55.8572-56.276-55.8572zm-86.0291 32.8572h6.581c1.8273 0 3.3103 1.472 3.3103 3.2857s-1.483 3.2857-3.3103 3.2857h-6.6207c-3.9923 0-9.9311-2.622-9.9311-9.8572 0-7.2351 5.9388-9.8571 9.9311-9.8571h6.6207c1.8273 0 3.3103 1.472 3.3103 3.2857s-1.483 3.2857-3.3103 3.2857h-6.6207c-1.4897.0395-3.3104.6375-3.3104 3.2857 0 2.6483 1.8207 3.2463 3.3501 3.2858zm27.4097 7.5308 2.6217-2.6023-2.6217-2.6023c-1.2911-1.2814-1.2911-3.3645 0-4.646 1.291-1.2814 3.3897-1.2814 4.6808 0l2.6218 2.6023 2.6218-2.6023c1.291-1.2814 3.3898-1.2814 4.6808 0 1.291 1.2815 1.291 3.3646 0 4.646l-2.6218 2.6023 2.6218 2.6023c1.291 1.2814 1.291 3.3646 0 4.646-.6488.644-1.4963.9594-2.3437.9594-.8475 0-1.6949-.322-2.3438-.9594l-2.6217-2.6023-2.6218 2.6023c-.6489.644-1.4963.9594-2.3438.9594-.8474 0-1.6949-.322-2.3437-.9594-1.2778-1.2814-1.2778-3.358.0133-4.646z"/></g></svg>