<svg width="87" height="63" viewBox="0 0 87 63" fill="none" xmlns="http://www.w3.org/2000/svg">
<path d="M52.125 13.533C51.84 13.857 51.429 14.043 51 14.043C50.571 14.043 50.16 13.857 49.875 13.533C49.017 12.558 47.787 12 46.5 12C45.213 12 43.983 12.558 43.125 13.533C42.84 13.857 42.429 14.043 42 14.043C41.571 14.043 41.16 13.857 40.875 13.533C40.017 12.558 38.787 12 37.5 12C35.019 12 33 14.019 33 16.5C33 18.981 35.019 21 37.5 21C38.787 21 40.017 20.442 40.875 19.467C41.16 19.143 41.571 18.957 42 18.957C42.429 18.957 42.84 19.143 43.125 19.467C43.983 20.442 45.213 21 46.5 21C47.787 21 49.017 20.442 49.875 19.467C50.16 19.143 50.571 18.957 51 18.957C51.429 18.957 51.84 19.143 52.125 19.467C52.983 20.442 54.213 21 55.5 21C57.981 21 60 18.981 60 16.5C60 14.019 57.981 12 55.5 12C54.213 12 52.983 12.558 52.125 13.533Z" fill="#CCCCCC"/>
<path d="M65.9999 25.5C65.9999 24.291 65.1749 24.018 64.4819 24H61.5239C61.9349 24.906 62.2709 25.905 62.5199 27H64.4999C65.1749 26.982 65.9999 26.709 65.9999 25.5Z" fill="#CCCCCC"/>
<path d="M61.5 12H61.497C62.442 13.254 63 14.814 63 16.5C63 18.186 62.439 19.746 61.497 21H61.5H64.5C66.309 21 69 22.197 69 25.5C69 28.803 66.309 30 64.5 30H62.949C62.982 30.486 63 30.984 63 31.5C63 47.811 46.665 48 46.5 48H37.5C36.672 48 36 47.328 36 46.5C36 45.672 36.672 45 37.5 45H46.5C46.605 45 47.166 44.991 48 44.886V38.781C45.831 38.109 45 36.003 45 34.5C45 33.672 45.672 33 46.5 33C47.322 33 47.991 33.663 48 34.485C48.018 35.178 48.294 36 49.5 36C50.709 36 50.982 35.175 51 34.482C51 33.654 51.672 32.991 52.5 32.991C53.328 32.991 54 33.672 54 34.5C54 36.003 53.169 38.106 51 38.781V44.238C54.93 43.011 60 39.816 60 31.503C60 28.344 59.28 25.713 57.867 23.619C57.123 23.862 56.328 24 55.5 24C53.865 24 52.29 23.463 51 22.494C49.71 23.463 48.135 24 46.5 24C44.865 24 43.29 23.463 42 22.494C40.71 23.463 39.135 24 37.5 24C33.363 24 30 20.637 30 16.5C30 12.363 33.363 9 37.5 9C39.135 9 40.71 9.537 42 10.506C43.29 9.537 44.865 9 46.5 9C48.135 9 49.71 9.537 51 10.506C51.819 9.891 52.755 9.45 53.748 9.21C47.886 3.372 39.891 0 31.5 0C14.13 0 0 14.13 0 31.5C0 48.87 14.13 63 31.5 63H61.5C75.561 63 87 51.561 87 37.5C87 23.439 75.561 12 61.5 12ZM22.518 27H25.5C26.328 27 27 27.672 27 28.5C27 29.328 26.328 30 25.5 30H22.5C20.691 30 18 28.803 18 25.5C18 22.197 20.691 21 22.5 21H25.5C26.328 21 27 21.672 27 22.5C27 23.328 26.328 24 25.5 24H22.5C21.825 24.018 21 24.291 21 25.5C21 26.709 21.825 26.982 22.518 27ZM33 28.5C33 27.672 33.672 27 34.5 27C35.322 27 35.991 27.663 36 28.485C36.018 29.178 36.294 30 37.5 30C38.709 30 38.982 29.175 39 28.482C39 27.654 39.672 26.991 40.5 26.991C41.328 26.991 42 27.672 42 28.5C42 30.309 40.8 33 37.5 33C34.2 33 33 30.309 33 28.5Z" fill="#CCCCCC"/>
</svg>
