<svg width="12" height="14" viewBox="0 0 12 14" fill="none" xmlns="http://www.w3.org/2000/svg">
<path fill-rule="evenodd" clip-rule="evenodd" d="M2.00039 6.2001V4.6001C2.00039 3.53923 2.42182 2.52182 3.17196 1.77167C3.92211 1.02152 4.93953 0.600098 6.00039 0.600098C7.06126 0.600098 8.07867 1.02152 8.82882 1.77167C9.57896 2.52182 10.0004 3.53923 10.0004 4.6001V6.2001C10.4247 6.2001 10.8317 6.36867 11.1318 6.66873C11.4318 6.96878 11.6004 7.37575 11.6004 7.8001V11.8001C11.6004 12.2244 11.4318 12.6314 11.1318 12.9315C10.8317 13.2315 10.4247 13.4001 10.0004 13.4001H2.00039C1.57604 13.4001 1.16908 13.2315 0.86902 12.9315C0.568962 12.6314 0.400391 12.2244 0.400391 11.8001V7.8001C0.400391 7.37575 0.568962 6.96878 0.86902 6.66873C1.16908 6.36867 1.57604 6.2001 2.00039 6.2001ZM8.40039 4.6001V6.2001H3.60039V4.6001C3.60039 3.96358 3.85325 3.35313 4.30333 2.90304C4.75342 2.45295 5.36387 2.2001 6.00039 2.2001C6.63691 2.2001 7.24736 2.45295 7.69745 2.90304C8.14754 3.35313 8.40039 3.96358 8.40039 4.6001Z" fill="#CCCCCC"/>
</svg>
