<svg width="97" height="96" viewBox="0 0 97 96" fill="none" xmlns="http://www.w3.org/2000/svg">
<path d="M57.9061 14.532C57.6 14.88 57.1587 15.0797 56.698 15.0797C56.2373 15.0797 55.796 14.88 55.4899 14.532C54.5686 13.4851 53.2478 12.8859 51.8658 12.8859C50.4838 12.8859 49.163 13.4851 48.2416 14.532C47.9356 14.88 47.4942 15.0797 47.0336 15.0797C46.5729 15.0797 46.1316 14.88 45.8255 14.532C44.9042 13.4851 43.5834 12.8859 42.2014 12.8859C39.5372 12.8859 37.3691 15.0539 37.3691 17.7181C37.3691 20.3822 39.5372 22.5503 42.2014 22.5503C43.5834 22.5503 44.9042 21.9511 45.8255 20.9041C46.1316 20.5562 46.5729 20.3565 47.0336 20.3565C47.4942 20.3565 47.9356 20.5562 48.2416 20.9041C49.163 21.9511 50.4838 22.5503 51.8658 22.5503C53.2478 22.5503 54.5686 21.9511 55.4899 20.9041C55.796 20.5562 56.2373 20.3565 56.698 20.3565C57.1587 20.3565 57.6 20.5562 57.9061 20.9041C58.8274 21.9511 60.1482 22.5503 61.5302 22.5503C64.1944 22.5503 66.3624 20.3822 66.3624 17.7181C66.3624 15.0539 64.1944 12.8859 61.5302 12.8859C60.1482 12.8859 58.8274 13.4851 57.9061 14.532Z" fill="white" fill-opacity="0.2"/>
<path d="M72.8055 27.3826C72.8055 26.0843 71.9196 25.7912 71.1754 25.7719H67.999C68.4404 26.7447 68.8012 27.8175 69.0686 28.9933H71.1947C71.9196 28.974 72.8055 28.6808 72.8055 27.3826Z" fill="white" fill-opacity="0.2"/>
<path d="M67.9731 12.8859H67.9699C68.9847 14.2325 69.5839 15.9077 69.5839 17.7181C69.5839 19.5286 68.9815 21.2038 67.9699 22.5503H67.9731H71.1946C73.1372 22.5503 76.0268 23.8357 76.0268 27.3826C76.0268 30.9294 73.1372 32.2148 71.1946 32.2148H69.5291C69.5645 32.7366 69.5839 33.2714 69.5839 33.8255C69.5839 51.3407 52.0429 51.5436 51.8657 51.5436H42.2013C41.3122 51.5436 40.5906 50.822 40.5906 49.9329C40.5906 49.0438 41.3122 48.3222 42.2013 48.3222H51.8657C51.9785 48.3222 52.5809 48.3125 53.4765 48.1997V41.644C51.1474 40.9224 50.255 38.6609 50.255 37.047C50.255 36.1579 50.9766 35.4362 51.8657 35.4362C52.7484 35.4362 53.4668 36.1482 53.4765 37.0309C53.4958 37.775 53.7922 38.6577 55.0872 38.6577C56.3855 38.6577 56.6786 37.7718 56.698 37.0277C56.698 36.1385 57.4196 35.4266 58.3087 35.4266C59.1978 35.4266 59.9194 36.1579 59.9194 37.047C59.9194 38.6609 59.0271 40.9192 56.698 41.644V47.5039C60.9181 46.1863 66.3624 42.7554 66.3624 33.8287C66.3624 30.4365 65.5892 27.6113 64.0719 25.3627C63.273 25.6236 62.4193 25.7718 61.5302 25.7718C59.7745 25.7718 58.0832 25.1952 56.698 24.1546C55.3127 25.1952 53.6215 25.7718 51.8657 25.7718C50.11 25.7718 48.4188 25.1952 47.0335 24.1546C45.6483 25.1952 43.957 25.7718 42.2013 25.7718C37.7589 25.7718 34.1476 22.1605 34.1476 17.7181C34.1476 13.2757 37.7589 9.66443 42.2013 9.66443C43.957 9.66443 45.6483 10.2411 47.0335 11.2816C48.4188 10.2411 50.11 9.66443 51.8657 9.66443C53.6215 9.66443 55.3127 10.2411 56.698 11.2816C57.5774 10.6212 58.5825 10.1477 59.6488 9.88993C53.3541 3.62094 44.7688 0 35.7584 0C17.106 0 1.93286 15.1732 1.93286 33.8255C1.93286 52.4779 17.106 67.651 35.7584 67.651H67.9731C83.0722 67.651 95.3557 55.3675 95.3557 40.2685C95.3557 25.1694 83.0722 12.8859 67.9731 12.8859ZM26.1133 28.9933H29.3154C30.2045 28.9933 30.9262 29.7149 30.9262 30.604C30.9262 31.4932 30.2045 32.2148 29.3154 32.2148H26.0939C24.1514 32.2148 21.2617 30.9294 21.2617 27.3826C21.2617 23.8357 24.1514 22.5503 26.0939 22.5503H29.3154C30.2045 22.5503 30.9262 23.2719 30.9262 24.1611C30.9262 25.0502 30.2045 25.7718 29.3154 25.7718H26.0939C25.3691 25.7911 24.4832 26.0843 24.4832 27.3826C24.4832 28.6808 25.3691 28.974 26.1133 28.9933ZM37.3691 30.604C37.3691 29.7149 38.0907 28.9933 38.9798 28.9933C39.8625 28.9933 40.5809 29.7052 40.5906 30.5879C40.6099 31.3321 40.9063 32.2148 42.2013 32.2148C43.4996 32.2148 43.7927 31.3289 43.8121 30.5847C43.8121 29.6956 44.5337 28.9836 45.4228 28.9836C46.3119 28.9836 47.0335 29.7149 47.0335 30.604C47.0335 32.5466 45.7449 35.4362 42.2013 35.4362C38.6577 35.4362 37.3691 32.5466 37.3691 30.604Z" fill="white" fill-opacity="0.2"/>
<g clip-path="url(#clip0)">
<path d="M5.73314 82.8798H11.4073H12.2853C13.6424 82.8798 14.7424 81.7785 14.7424 80.4198C14.7424 79.061 13.6424 77.9597 12.2853 77.9597H5.73314C2.56681 77.9597 0 80.5296 0 83.6998C0 86.0483 1.40953 88.0664 3.42678 88.9553C4.13277 89.266 4.91248 89.4399 5.73314 89.4399H9.00921C9.46131 89.4399 9.82823 89.8073 9.82823 90.2599C9.82823 90.7125 9.46131 91.0799 9.00921 91.0799H3.33505H2.45706C1.09994 91.0799 0 92.1812 0 93.5399C0 94.8987 1.09994 96 2.45706 96H9.00921C12.1755 96 14.7424 93.4301 14.7424 90.2599C14.7424 87.9114 13.3328 85.8933 11.3156 85.0044C10.6096 84.6937 9.82987 84.5198 9.00921 84.5198H5.73314C5.28104 84.5198 4.91412 84.1524 4.91412 83.6998C4.91412 83.2472 5.28104 82.8798 5.73314 82.8798Z" fill="white" fill-opacity="0.2"/>
<path d="M93.2174 85.0044C92.5114 84.6937 91.7317 84.5198 90.9111 84.5198H87.635C87.1829 84.5198 86.816 84.1524 86.816 83.6998C86.816 83.2472 87.1829 82.8798 87.635 82.8798H93.3092H94.1871C95.5443 82.8798 96.6442 81.7785 96.6442 80.4198C96.6442 79.061 95.5443 77.9597 94.1871 77.9597H87.635C84.4687 77.9597 81.9019 80.5296 81.9019 83.6998C81.9019 86.0483 83.3114 88.0664 85.3286 88.9553C86.0346 89.266 86.8143 89.4399 87.635 89.4399H90.9111C91.3632 89.4399 91.7301 89.8073 91.7301 90.2599C91.7301 90.7125 91.3632 91.0799 90.9111 91.0799H85.2369H84.3589C83.0018 91.0799 81.9019 92.1812 81.9019 93.5399C81.9019 94.8987 83.0018 96 84.3589 96H90.9111C94.0774 96 96.6442 93.4301 96.6442 90.2599C96.6442 87.9114 95.2347 85.8933 93.2174 85.0044Z" fill="white" fill-opacity="0.2"/>
<path d="M28.6657 77.9597C27.3085 77.9597 26.2086 79.061 26.2086 80.4198V84.5198H21.2945V80.4198C21.2945 79.061 20.1945 77.9597 18.8374 77.9597C17.4803 77.9597 16.3804 79.061 16.3804 80.4198V84.5198V89.4399V93.5399C16.3804 94.8987 17.4803 96 18.8374 96C20.1945 96 21.2945 94.8987 21.2945 93.5399V89.4399H26.2086V93.5399C26.2086 94.8987 27.3085 96 28.6657 96C30.0228 96 31.1227 94.8987 31.1227 93.5399V89.4399V84.5198V80.4198C31.1227 79.061 30.0228 77.9597 28.6657 77.9597Z" fill="white" fill-opacity="0.2"/>
<path d="M45.046 82.8798C46.4032 82.8798 47.5031 81.7785 47.5031 80.4198C47.5031 79.061 46.4032 77.9597 45.046 77.9597H35.2178C33.8607 77.9597 32.7607 79.061 32.7607 80.4198V84.5198V89.4399V93.5399C32.7607 94.8987 33.8607 96 35.2178 96H45.046C46.4032 96 47.5031 94.8987 47.5031 93.5399C47.5031 92.1812 46.4032 91.0799 45.046 91.0799H37.6749V89.4399H42.589C43.9461 89.4399 45.046 88.3386 45.046 86.9799C45.046 85.6211 43.9461 84.5198 42.589 84.5198H37.6749V82.8798H45.046Z" fill="white" fill-opacity="0.2"/>
<path d="M61.4264 82.8798C62.7835 82.8798 63.8835 81.7785 63.8835 80.4198C63.8835 79.061 62.7835 77.9597 61.4264 77.9597H51.5982C50.2411 77.9597 49.1411 79.061 49.1411 80.4198V84.5198V89.4399V93.5399C49.1411 94.8987 50.2411 96 51.5982 96H61.4264C62.7835 96 63.8835 94.8987 63.8835 93.5399C63.8835 92.1812 62.7835 91.0799 61.4264 91.0799H54.0552V89.4399H58.9693C60.3265 89.4399 61.4264 88.3386 61.4264 86.9799C61.4264 85.6211 60.3265 84.5198 58.9693 84.5198H54.0552V82.8798H61.4264Z" fill="white" fill-opacity="0.2"/>
<path d="M74.5307 77.9597H71.2546C68.0883 77.9597 65.5215 80.5296 65.5215 83.6998V93.5399C65.5215 94.8987 66.6214 96 67.9785 96C69.3357 96 70.4356 94.8987 70.4356 93.5399V89.3808C70.7034 89.4194 70.9762 89.4399 71.2546 89.4399H74.5307C77.697 89.4399 80.2638 86.87 80.2638 83.6998C80.2638 80.5296 77.697 77.9597 74.5307 77.9597ZM74.5307 84.5198H71.2546C70.8025 84.5198 70.4356 84.1524 70.4356 83.6998C70.4356 83.2472 70.8025 82.8798 71.2546 82.8798H74.5307C74.9828 82.8798 75.3497 83.2472 75.3497 83.6998C75.3497 84.1524 74.9828 84.5198 74.5307 84.5198Z" fill="white" fill-opacity="0.2"/>
</g>
<defs>
<clipPath id="clip0">
<rect width="96.6443" height="18.0403" fill="white" transform="translate(0 77.9597)"/>
</clipPath>
</defs>
</svg>
