<svg width="160" height="160" viewBox="0 0 160 160" fill="none" xmlns="http://www.w3.org/2000/svg">
<rect width="160" height="160" rx="4" fill="#F8F8F8"/>
<path d="M88.125 61.533C87.84 61.857 87.429 62.043 87 62.043C86.571 62.043 86.16 61.857 85.875 61.533C85.017 60.558 83.787 60 82.5 60C81.213 60 79.983 60.558 79.125 61.533C78.84 61.857 78.429 62.043 78 62.043C77.571 62.043 77.16 61.857 76.875 61.533C76.017 60.558 74.787 60 73.5 60C71.019 60 69 62.019 69 64.5C69 66.981 71.019 69 73.5 69C74.787 69 76.017 68.442 76.875 67.467C77.16 67.143 77.571 66.957 78 66.957C78.429 66.957 78.84 67.143 79.125 67.467C79.983 68.442 81.213 69 82.5 69C83.787 69 85.017 68.442 85.875 67.467C86.16 67.143 86.571 66.957 87 66.957C87.429 66.957 87.84 67.143 88.125 67.467C88.983 68.442 90.213 69 91.5 69C93.981 69 96 66.981 96 64.5C96 62.019 93.981 60 91.5 60C90.213 60 88.983 60.558 88.125 61.533Z" fill="#CCCCCC"/>
<path d="M102 73.5C102 72.291 101.175 72.018 100.482 72H97.5239C97.9349 72.906 98.2709 73.905 98.5199 75H100.5C101.175 74.982 102 74.709 102 73.5Z" fill="#CCCCCC"/>
<path d="M97.5 60H97.497C98.442 61.254 99 62.814 99 64.5C99 66.186 98.439 67.746 97.497 69H97.5H100.5C102.309 69 105 70.197 105 73.5C105 76.803 102.309 78 100.5 78H98.949C98.982 78.486 99 78.984 99 79.5C99 95.811 82.665 96 82.5 96H73.5C72.672 96 72 95.328 72 94.5C72 93.672 72.672 93 73.5 93H82.5C82.605 93 83.166 92.991 84 92.886V86.781C81.831 86.109 81 84.003 81 82.5C81 81.672 81.672 81 82.5 81C83.322 81 83.991 81.663 84 82.485C84.018 83.178 84.294 84 85.5 84C86.709 84 86.982 83.175 87 82.482C87 81.654 87.672 80.991 88.5 80.991C89.328 80.991 90 81.672 90 82.5C90 84.003 89.169 86.106 87 86.781V92.238C90.93 91.011 96 87.816 96 79.503C96 76.344 95.28 73.713 93.867 71.619C93.123 71.862 92.328 72 91.5 72C89.865 72 88.29 71.463 87 70.494C85.71 71.463 84.135 72 82.5 72C80.865 72 79.29 71.463 78 70.494C76.71 71.463 75.135 72 73.5 72C69.363 72 66 68.637 66 64.5C66 60.363 69.363 57 73.5 57C75.135 57 76.71 57.537 78 58.506C79.29 57.537 80.865 57 82.5 57C84.135 57 85.71 57.537 87 58.506C87.819 57.891 88.755 57.45 89.748 57.21C83.886 51.372 75.891 48 67.5 48C50.13 48 36 62.13 36 79.5C36 96.87 50.13 111 67.5 111H97.5C111.561 111 123 99.561 123 85.5C123 71.439 111.561 60 97.5 60ZM58.518 75H61.5C62.328 75 63 75.672 63 76.5C63 77.328 62.328 78 61.5 78H58.5C56.691 78 54 76.803 54 73.5C54 70.197 56.691 69 58.5 69H61.5C62.328 69 63 69.672 63 70.5C63 71.328 62.328 72 61.5 72H58.5C57.825 72.018 57 72.291 57 73.5C57 74.709 57.825 74.982 58.518 75ZM69 76.5C69 75.672 69.672 75 70.5 75C71.322 75 71.991 75.663 72 76.485C72.018 77.178 72.294 78 73.5 78C74.709 78 74.982 77.175 75 76.482C75 75.654 75.672 74.991 76.5 74.991C77.328 74.991 78 75.672 78 76.5C78 78.309 76.8 81 73.5 81C70.2 81 69 78.309 69 76.5Z" fill="#CCCCCC"/>
</svg>
