<svg width="100" height="100" viewBox="0 0 100 100" fill="none" xmlns="http://www.w3.org/2000/svg">
<path d="M50 6.25C25.8398 6.25 6.25 25.8398 6.25 50C6.25 74.1602 25.8398 93.75 50 93.75C74.1602 93.75 93.75 74.1602 93.75 50C93.75 25.8398 74.1602 6.25 50 6.25ZM68.8965 35.7129L48.3301 64.2285C48.0426 64.6297 47.6637 64.9566 47.2247 65.1822C46.7857 65.4077 46.2992 65.5253 45.8057 65.5253C45.3121 65.5253 44.8257 65.4077 44.3867 65.1822C43.9476 64.9566 43.5687 64.6297 43.2812 64.2285L31.1035 47.3535C30.7324 46.8359 31.1035 46.1133 31.7383 46.1133H36.3184C37.3145 46.1133 38.2617 46.5918 38.8477 47.4121L45.8008 57.0605L61.1523 35.7715C61.7383 34.9609 62.6758 34.4727 63.6816 34.4727H68.2617C68.8965 34.4727 69.2676 35.1953 68.8965 35.7129Z" fill="#61C680"/>
</svg>
