<svg width="260" height="210" viewBox="0 0 260 210" fill="none" xmlns="http://www.w3.org/2000/svg">
<g opacity="0.2">
<path d="M173.75 45.11C172.8 46.19 171.43 46.81 170 46.81C168.57 46.81 167.2 46.19 166.25 45.11C163.39 41.86 159.29 40 155 40C150.71 40 146.61 41.86 143.75 45.11C142.8 46.19 141.43 46.81 140 46.81C138.57 46.81 137.2 46.19 136.25 45.11C133.39 41.86 129.29 40 125 40C116.73 40 110 46.73 110 55C110 63.27 116.73 70 125 70C129.29 70 133.39 68.14 136.25 64.89C137.2 63.81 138.57 63.19 140 63.19C141.43 63.19 142.8 63.81 143.75 64.89C146.61 68.14 150.71 70 155 70C159.29 70 163.39 68.14 166.25 64.89C167.2 63.81 168.57 63.19 170 63.19C171.43 63.19 172.8 63.81 173.75 64.89C176.61 68.14 180.71 70 185 70C193.27 70 200 63.27 200 55C200 46.73 193.27 40 185 40C180.71 40 176.61 41.86 173.75 45.11Z" fill="#61C680"/>
<path d="M220 85C220 80.97 217.25 80.06 214.94 80H205.08C206.45 83.02 207.57 86.35 208.4 90H215C217.25 89.94 220 89.03 220 85Z" fill="#61C680"/>
<path d="M173.75 45.11C172.8 46.19 171.43 46.81 170 46.81C168.57 46.81 167.2 46.19 166.25 45.11C163.39 41.86 159.29 40 155 40C150.71 40 146.61 41.86 143.75 45.11C142.8 46.19 141.43 46.81 140 46.81C138.57 46.81 137.2 46.19 136.25 45.11C133.39 41.86 129.29 40 125 40C116.73 40 110 46.73 110 55C110 63.27 116.73 70 125 70C129.29 70 133.39 68.14 136.25 64.89C137.2 63.81 138.57 63.19 140 63.19C141.43 63.19 142.8 63.81 143.75 64.89C146.61 68.14 150.71 70 155 70C159.29 70 163.39 68.14 166.25 64.89C167.2 63.81 168.57 63.19 170 63.19C171.43 63.19 172.8 63.81 173.75 64.89C176.61 68.14 180.71 70 185 70C193.27 70 200 63.27 200 55C200 46.73 193.27 40 185 40C180.71 40 176.61 41.86 173.75 45.11Z" fill="#61C680"/>
<path d="M220 85C220 80.97 217.25 80.06 214.94 80H205.08C206.45 83.02 207.57 86.35 208.4 90H215C217.25 89.94 220 89.03 220 85Z" fill="#61C680"/>
<path d="M205 40H204.99C208.14 44.18 210 49.38 210 55C210 60.62 208.13 65.82 204.99 70H205H215C221.03 70 230 73.99 230 85C230 96.01 221.03 100 215 100H209.83C209.94 101.62 210 103.28 210 105C210 159.37 155.55 160 155 160H125C122.24 160 120 157.76 120 155C120 152.24 122.24 150 125 150H155C155.35 150 157.22 149.97 160 149.62V129.27C152.77 127.03 150 120.01 150 115C150 112.24 152.24 110 155 110C157.74 110 159.97 112.21 160 114.95C160.06 117.26 160.98 120 165 120C169.03 120 169.94 117.25 170 114.94C170 112.18 172.24 109.97 175 109.97C177.76 109.97 180 112.24 180 115C180 120.01 177.23 127.02 170 129.27V147.46C183.1 143.37 200 132.72 200 105.01C200 94.48 197.6 85.71 192.89 78.73C190.41 79.54 187.76 80 185 80C179.55 80 174.3 78.21 170 74.98C165.7 78.21 160.45 80 155 80C149.55 80 144.3 78.21 140 74.98C135.7 78.21 130.45 80 125 80C111.21 80 100 68.79 100 55C100 41.21 111.21 30 125 30C130.45 30 135.7 31.79 140 35.02C144.3 31.79 149.55 30 155 30C160.45 30 165.7 31.79 170 35.02C172.73 32.97 175.85 31.5 179.16 30.7C159.62 11.25 132.97 0 105 0C47.1 0 0 47.1 0 105C0 162.9 47.1 210 105 210H205C251.87 210 290 171.87 290 125C290 78.13 251.87 40 205 40ZM75.06 90H85C87.76 90 90 92.24 90 95C90 97.76 87.76 100 85 100H75C68.97 100 60 96.01 60 85C60 73.99 68.97 70 75 70H85C87.76 70 90 72.24 90 75C90 77.76 87.76 80 85 80H75C72.75 80.06 70 80.97 70 85C70 89.03 72.75 89.94 75.06 90ZM115 110C113.17 110 111.4 108.99 110.52 107.24C109.28 104.77 110.29 101.77 112.76 100.53L123.82 95L112.76 89.47C110.29 88.24 109.29 85.23 110.52 82.76C111.76 80.29 114.76 79.29 117.23 80.52L137.23 90.52C138.92 91.37 139.99 93.1 139.99 94.99C139.99 96.88 138.92 98.62 137.23 99.46L117.23 109.46C116.52 109.83 115.76 110 115 110Z" fill="#61C680"/>
</g>
</svg>
