<svg width="48" height="48" viewBox="0 0 48 48" fill="none" xmlns="http://www.w3.org/2000/svg">
<path d="M10.6666 25.3333V14.6667H6.66663C5.60576 14.6667 4.58834 15.0881 3.8382 15.8382C3.08805 16.5884 2.66663 17.6058 2.66663 18.6667V42.6667C2.66861 42.9143 2.73952 43.1565 2.87139 43.3661C3.00327 43.5756 3.19092 43.7444 3.41329 43.8533C3.62753 43.9508 3.86374 43.9897 4.09793 43.9663C4.33211 43.9429 4.55592 43.8579 4.74663 43.72L11.6133 38.6667H29.5333C30.0386 38.6816 30.5417 38.5926 31.0112 38.4053C31.4808 38.2179 31.9069 37.9361 32.2631 37.5774C32.6194 37.2186 32.8982 36.7906 33.0822 36.3197C33.2663 35.8489 33.3518 35.3452 33.3333 34.84V33.3333H18.6666C16.5449 33.3333 14.5101 32.4905 13.0098 30.9902C11.5095 29.4899 10.6666 27.4551 10.6666 25.3333Z" fill="#61C680"/>
<path d="M41.3333 5.33334H18.6666C17.6058 5.33334 16.5883 5.75477 15.8382 6.50492C15.0881 7.25506 14.6666 8.27248 14.6666 9.33334V25.3333C14.6666 26.3942 15.0881 27.4116 15.8382 28.1618C16.5883 28.9119 17.6058 29.3333 18.6666 29.3333H36.7333L43.1066 34.28C43.2961 34.4201 43.5193 34.5075 43.7535 34.5332C43.9877 34.559 44.2246 34.5222 44.44 34.4267C44.6669 34.3186 44.8586 34.1486 44.9931 33.9363C45.1275 33.724 45.1993 33.478 45.2 33.2267V9.33334C45.2005 8.29518 44.7975 7.29746 44.0759 6.55103C43.3544 5.8046 42.3709 5.36795 41.3333 5.33334Z" fill="#61C680"/>
</svg>
