<svg width="48" height="48" viewBox="0 0 48 48" fill="none" xmlns="http://www.w3.org/2000/svg">
<path d="M31.568 31.686C31.568 31.686 37.278 25.976 39.23 24.028C45.356 17.902 42.292 5.646 42.292 5.646C42.292 5.646 30.036 2.58201 23.91 8.71C19.33 13.29 16.278 16.444 16.278 16.444C16.278 16.444 8.592 14.836 3.996 19.432L28.506 43.942C33.102 39.346 31.568 31.686 31.568 31.686ZM28.564 13.716C28.9352 13.3442 29.376 13.0493 29.8612 12.848C30.3465 12.6468 30.8667 12.5432 31.392 12.5432C31.9173 12.5432 32.4375 12.6468 32.9228 12.848C33.408 13.0493 33.8489 13.3442 34.22 13.716C34.7795 14.2754 35.1606 14.9881 35.3151 15.7641C35.4695 16.54 35.3904 17.3443 35.0876 18.0753C34.7849 18.8063 34.2722 19.4311 33.6144 19.8707C32.9566 20.3102 32.1832 20.5449 31.392 20.5449C30.6008 20.5449 29.8274 20.3102 29.1696 19.8707C28.5118 19.4311 27.9991 18.8063 27.6964 18.0753C27.3937 17.3443 27.3145 16.54 27.4689 15.7641C27.6234 14.9881 28.0045 14.2754 28.564 13.716ZM5.938 41.938C5.938 41.938 11.938 41.938 15.938 37.938L9.938 31.938C5.938 33.938 5.938 41.938 5.938 41.938Z" fill="#61C680"/>
</svg>
