<svg width="48" height="48" viewBox="0 0 48 48" fill="none" xmlns="http://www.w3.org/2000/svg">
<path d="M41.5 0H5.5C3.025 0 1 2.025 1 4.5V43.5C1 45.975 3.025 48 5.5 48H41.5C43.975 48 46 45.975 46 43.5V4.5C46 2.025 43.975 0 41.5 0ZM40 42H7V6H40V42ZM13 27H34V30H13V27ZM13 33H34V36H13V33ZM16 13.5C16.0002 12.9089 16.1168 12.3235 16.3432 11.7775C16.5696 11.2314 16.9014 10.7353 17.3195 10.3174C17.7377 9.89953 18.234 9.56812 18.7802 9.34208C19.3265 9.11604 19.9119 8.9998 20.503 9C21.0941 9.0002 21.6795 9.11683 22.2255 9.34323C22.7716 9.56963 23.2677 9.90138 23.6856 10.3195C24.1035 10.7377 24.4349 11.234 24.6609 11.7802C24.887 12.3265 25.0032 12.9119 25.003 13.503C25.0026 14.6969 24.528 15.8417 23.6835 16.6856C22.839 17.5295 21.6939 18.0034 20.5 18.003C19.3061 18.0026 18.1613 17.528 17.3174 16.6835C16.4735 15.839 15.9996 14.6939 16 13.5ZM23.5 18H17.5C15.025 18 13 19.35 13 21V24H28V21C28 19.35 25.975 18 23.5 18Z" fill="#61C680"/>
</svg>
