<svg width="48" height="48" viewBox="0 0 48 48" fill="none" xmlns="http://www.w3.org/2000/svg">
<path d="M24 22C26.6522 22 29.1957 23.0536 31.0711 24.9289C32.9464 26.8043 34 29.3478 34 32V44H14V32C14 29.3478 15.0536 26.8043 16.9289 24.9289C18.8043 23.0536 21.3478 22 24 22ZM10.576 28.012C10.2577 29.0856 10.0697 30.1935 10.016 31.312L10 32V44H4V35C3.99961 33.2751 4.63606 31.6109 5.78727 30.3264C6.93848 29.042 8.5234 28.2278 10.238 28.04L10.578 28.012H10.576ZM37.424 28.012C39.2038 28.1205 40.8752 28.9039 42.0972 30.2025C43.3192 31.501 43.9997 33.2169 44 35V44H38V32C38 30.614 37.8 29.276 37.424 28.012ZM11 16C12.3261 16 13.5979 16.5268 14.5355 17.4645C15.4732 18.4021 16 19.6739 16 21C16 22.3261 15.4732 23.5979 14.5355 24.5355C13.5979 25.4732 12.3261 26 11 26C9.67392 26 8.40215 25.4732 7.46447 24.5355C6.52678 23.5979 6 22.3261 6 21C6 19.6739 6.52678 18.4021 7.46447 17.4645C8.40215 16.5268 9.67392 16 11 16ZM37 16C38.3261 16 39.5979 16.5268 40.5355 17.4645C41.4732 18.4021 42 19.6739 42 21C42 22.3261 41.4732 23.5979 40.5355 24.5355C39.5979 25.4732 38.3261 26 37 26C35.6739 26 34.4021 25.4732 33.4645 24.5355C32.5268 23.5979 32 22.3261 32 21C32 19.6739 32.5268 18.4021 33.4645 17.4645C34.4021 16.5268 35.6739 16 37 16ZM24 4C26.1217 4 28.1566 4.84285 29.6569 6.34315C31.1571 7.84344 32 9.87827 32 12C32 14.1217 31.1571 16.1566 29.6569 17.6569C28.1566 19.1571 26.1217 20 24 20C21.8783 20 19.8434 19.1571 18.3431 17.6569C16.8429 16.1566 16 14.1217 16 12C16 9.87827 16.8429 7.84344 18.3431 6.34315C19.8434 4.84285 21.8783 4 24 4Z" fill="#61C680"/>
</svg>
