<svg width="22" height="20" viewBox="0 0 22 20" fill="none" xmlns="http://www.w3.org/2000/svg">
<path d="M14.3604 14.9837C14.3604 15.1597 14.2903 15.3285 14.1655 15.4529C14.0407 15.5774 13.8715 15.6473 13.695 15.6473H4.37868C4.23228 15.6473 4.09254 15.78 3.97276 15.8663L1.71688 17.6381V7.02058C1.71688 6.84459 1.78699 6.6758 1.91178 6.55135C2.03658 6.4269 2.20584 6.35699 2.38233 6.35699H4.95097V5.0298H2.38233C1.85286 5.0298 1.34508 5.23954 0.970694 5.61289C0.596305 5.98623 0.385975 6.49259 0.385975 7.02058V18.9653C0.386966 19.0885 0.422354 19.209 0.488173 19.3133C0.553992 19.4177 0.647642 19.5016 0.758628 19.5559C0.865552 19.6043 0.983442 19.6237 1.10032 19.6121C1.2172 19.6004 1.3289 19.5581 1.42408 19.4895L4.85115 16.9745H13.7948C14.047 16.9819 14.2981 16.9376 14.5324 16.8444C14.7668 16.7511 14.9794 16.6109 15.1572 16.4323C15.335 16.2538 15.4742 16.0408 15.566 15.8064C15.6579 15.5721 15.7006 15.3214 15.6913 15.07V14.3201H14.3604V14.9837Z" fill="#222222"/>
<path fill-rule="evenodd" clip-rule="evenodd" d="M3.74016 15.5592L3.74667 15.5546C3.75159 15.551 3.76207 15.543 3.77617 15.5322C3.8205 15.4984 3.9006 15.4373 3.95612 15.4015C4.04356 15.3451 4.19247 15.2627 4.37868 15.2627H13.695C13.769 15.2627 13.8401 15.2333 13.8925 15.1811C13.945 15.1288 13.9745 15.0578 13.9745 14.9837V13.9355H16.0773V15.0633C16.0874 15.3648 16.0357 15.6653 15.9255 15.9464C15.8145 16.2297 15.6462 16.4873 15.4312 16.7033C15.2162 16.9192 14.959 17.0888 14.6756 17.2016C14.394 17.3136 14.0924 17.3672 13.7894 17.3591H4.97793L1.65038 19.8011C1.49999 19.9095 1.32347 19.9764 1.13875 19.9948C0.954032 20.0132 0.767722 19.9825 0.598757 19.9059L0.58865 19.9013C0.413272 19.8157 0.265395 19.6828 0.161432 19.5181C0.0574702 19.3533 0.00158871 19.163 2.47306e-05 18.9683L0 18.9653L1.23653e-05 7.02058C1.23653e-05 6.39068 0.25094 5.78651 0.697681 5.34102C1.14443 4.89552 1.75041 4.64519 2.38233 4.64519H5.33693V6.7416H2.38233C2.30829 6.7416 2.23723 6.77093 2.1848 6.82322C2.13235 6.87552 2.10284 6.9465 2.10284 7.02058V16.8452L3.74016 15.5592ZM1.71688 17.6381V7.02058C1.71688 6.84459 1.78699 6.6758 1.91178 6.55135C2.03658 6.4269 2.20584 6.35699 2.38233 6.35699H4.95097V5.0298H2.38233C1.85286 5.0298 1.34508 5.23954 0.970694 5.61289C0.596305 5.98623 0.385975 6.49259 0.385975 7.02058V18.9653C0.386966 19.0885 0.422354 19.209 0.488173 19.3133C0.553992 19.4177 0.647642 19.5016 0.758628 19.5559C0.865552 19.6043 0.983442 19.6237 1.10032 19.6121C1.2172 19.6004 1.3289 19.5581 1.42408 19.4895L4.85115 16.9745H13.7948C14.047 16.9819 14.2981 16.9376 14.5324 16.8444C14.7668 16.7511 14.9794 16.6109 15.1572 16.4323C15.335 16.2538 15.4742 16.0408 15.566 15.8064C15.6579 15.5721 15.7006 15.3214 15.6913 15.07V14.3201H14.3604V14.9837C14.3604 15.1597 14.2903 15.3285 14.1655 15.4529C14.0407 15.5774 13.8715 15.6473 13.695 15.6473H4.37868C4.25925 15.6473 4.14424 15.7356 4.04089 15.815C4.01756 15.8329 3.99482 15.8504 3.97276 15.8663L1.71688 17.6381Z" fill="#222222"/>
<path d="M19.6842 0.384615H8.37156C7.8421 0.384615 7.33432 0.594357 6.95993 0.9677C6.58554 1.34104 6.37521 1.84741 6.37521 2.37539V10.3385C6.37521 10.8665 6.58554 11.3729 6.95993 11.7462C7.33432 12.1195 7.8421 12.3293 8.37156 12.3293H17.3884L20.5693 14.7912C20.6638 14.8609 20.7752 14.9044 20.8921 14.9172C21.009 14.9301 21.1272 14.9118 21.2347 14.8642C21.348 14.8104 21.4437 14.7258 21.5108 14.6202C21.5779 14.5145 21.6137 14.3921 21.614 14.267V2.37539C21.6143 1.85871 21.4132 1.36215 21.053 0.990652C20.6929 0.619159 20.2021 0.401838 19.6842 0.384615ZM20.3497 12.9531L18.0206 11.1415C17.9044 11.0516 17.7617 11.0026 17.6147 11.0021H8.37156C8.19508 11.0021 8.02581 10.9322 7.90102 10.8077C7.77622 10.6833 7.70611 10.5145 7.70611 10.3385V2.37539C7.70611 2.1994 7.77622 2.03061 7.90102 1.90616C8.02581 1.78171 8.19508 1.7118 8.37156 1.7118H19.6842C19.8621 1.7279 20.0279 1.8083 20.1505 1.93786C20.2731 2.06741 20.3439 2.23719 20.3497 2.41521V12.9531Z" fill="#222222"/>
<path fill-rule="evenodd" clip-rule="evenodd" d="M20.5693 14.7912L17.3884 12.3293H8.37156C7.8421 12.3293 7.33432 12.1195 6.95993 11.7462C6.58554 11.3729 6.37521 10.8665 6.37521 10.3385V2.37539C6.37521 1.84741 6.58554 1.34104 6.95993 0.9677C7.33432 0.594357 7.8421 0.384615 8.37156 0.384615H19.6842C20.2021 0.401838 20.6929 0.619159 21.053 0.990652C21.4132 1.36215 21.6143 1.85871 21.614 2.37539V14.267C21.6137 14.3921 21.5779 14.5145 21.5108 14.6202C21.4437 14.7258 21.348 14.8104 21.2347 14.8642C21.1272 14.9118 21.009 14.9301 20.8921 14.9172C20.7752 14.9044 20.6638 14.8609 20.5693 14.7912ZM22 2.37561C22.0003 1.75918 21.7603 1.16672 21.3306 0.723434C20.9009 0.280142 20.3152 0.0207695 19.6971 0.000214032L19.6842 0.384615V0H8.37156C7.73965 0 7.13366 0.25033 6.68691 0.695832C6.24017 1.14133 5.98925 1.74549 5.98925 2.37539V10.3385C5.98925 10.9684 6.24017 11.5726 6.68691 12.0181C7.13367 12.4636 7.73965 12.7139 8.37156 12.7139H17.2561L20.3325 15.095L20.3397 15.1004C20.4891 15.2106 20.6652 15.2793 20.8499 15.2995C21.0346 15.3198 21.2215 15.2909 21.3913 15.2157L21.4008 15.2114C21.5797 15.1264 21.7309 14.9928 21.8369 14.8258C21.9429 14.6589 21.9994 14.4656 22 14.2681V2.37561ZM17.6147 11.0021C17.7617 11.0026 17.9044 11.0516 18.0206 11.1415L20.3497 12.9531V2.41521C20.3439 2.23719 20.2731 2.06741 20.1505 1.93786C20.0279 1.8083 19.8621 1.7279 19.6842 1.7118H8.37156C8.19508 1.7118 8.02581 1.78171 7.90102 1.90616C7.77622 2.03061 7.70611 2.1994 7.70611 2.37539V10.3385C7.70611 10.5145 7.77622 10.6833 7.90102 10.8077C8.02581 10.9322 8.19508 11.0021 8.37156 11.0021H17.6147ZM19.6635 2.09642H8.37156C8.29753 2.09642 8.22647 2.12574 8.17403 2.17803C8.12159 2.23033 8.09207 2.30132 8.09207 2.37539V10.3385C8.09207 10.4126 8.12159 10.4836 8.17403 10.5359C8.22647 10.5882 8.29753 10.6175 8.37156 10.6175H17.6159C17.8483 10.6182 18.0738 10.6957 18.2573 10.8377L19.9637 12.1649V2.42256C19.9598 2.34011 19.9265 2.26174 19.8697 2.20169C19.815 2.14388 19.7421 2.1068 19.6635 2.09642Z" fill="#222222"/>
</svg>
