<svg width="22" height="20" viewBox="0 0 22 20" fill="none" xmlns="http://www.w3.org/2000/svg">
<path d="M14.3604 14.9836C14.3604 15.1596 14.2903 15.3284 14.1655 15.4528C14.0407 15.5773 13.8715 15.6472 13.695 15.6472H4.37868C4.23228 15.6472 4.09254 15.7799 3.97276 15.8662L1.71688 17.6379V7.02046C1.71688 6.84446 1.78699 6.67568 1.91178 6.55123C2.03658 6.42678 2.20584 6.35687 2.38233 6.35687H4.95097V5.02968H2.38233C1.85286 5.02968 1.34508 5.23942 0.970694 5.61277C0.596305 5.98611 0.385975 6.49247 0.385975 7.02046V18.9651C0.386966 19.0884 0.422354 19.2089 0.488173 19.3132C0.553992 19.4175 0.647642 19.5015 0.758628 19.5557C0.865552 19.6042 0.983442 19.6236 1.10032 19.612C1.2172 19.6003 1.3289 19.558 1.42408 19.4894L4.85115 16.9744H13.7948C14.047 16.9818 14.2981 16.9375 14.5324 16.8443C14.7668 16.751 14.9794 16.6108 15.1572 16.4322C15.335 16.2537 15.4742 16.0406 15.566 15.8063C15.6579 15.572 15.7006 15.3213 15.6913 15.0698V14.32H14.3604V14.9836Z" fill="#D2D2D2"/>
<path fill-rule="evenodd" clip-rule="evenodd" d="M3.74016 15.5591L3.74667 15.5544C3.75159 15.5509 3.76207 15.5429 3.77617 15.5321C3.8205 15.4983 3.9006 15.4371 3.95612 15.4014C4.04356 15.345 4.19247 15.2626 4.37868 15.2626H13.695C13.769 15.2626 13.8401 15.2332 13.8925 15.1809C13.945 15.1286 13.9745 15.0577 13.9745 14.9836V13.9354H16.0773V15.0632C16.0874 15.3647 16.0357 15.6652 15.9255 15.9463C15.8145 16.2296 15.6462 16.4872 15.4312 16.7031C15.2162 16.919 14.959 17.0887 14.6756 17.2014C14.394 17.3135 14.0924 17.3671 13.7894 17.359H4.97793L1.65038 19.801C1.49999 19.9094 1.32347 19.9763 1.13875 19.9947C0.954032 20.0131 0.767722 19.9824 0.598757 19.9058L0.58865 19.9012C0.413272 19.8155 0.265395 19.6827 0.161432 19.5179C0.0574702 19.3532 0.00158871 19.1628 2.47306e-05 18.9682L0 18.9651L1.23653e-05 7.02046C1.23653e-05 6.39055 0.25094 5.78639 0.697681 5.3409C1.14443 4.8954 1.75041 4.64507 2.38233 4.64507H5.33693V6.74148H2.38233C2.30829 6.74148 2.23723 6.77081 2.1848 6.8231C2.13235 6.87539 2.10284 6.94638 2.10284 7.02046V16.8451L3.74016 15.5591ZM1.71688 17.6379V7.02046C1.71688 6.84446 1.78699 6.67568 1.91178 6.55123C2.03658 6.42678 2.20584 6.35687 2.38233 6.35687H4.95097V5.02968H2.38233C1.85286 5.02968 1.34508 5.23942 0.970694 5.61277C0.596305 5.98611 0.385975 6.49247 0.385975 7.02046V18.9651C0.386966 19.0884 0.422354 19.2089 0.488173 19.3132C0.553992 19.4175 0.647642 19.5015 0.758628 19.5557C0.865552 19.6042 0.983442 19.6236 1.10032 19.612C1.2172 19.6003 1.3289 19.558 1.42408 19.4894L4.85115 16.9744H13.7948C14.047 16.9818 14.2981 16.9375 14.5324 16.8443C14.7668 16.751 14.9794 16.6108 15.1572 16.4322C15.335 16.2537 15.4742 16.0406 15.566 15.8063C15.6579 15.572 15.7006 15.3213 15.6913 15.0698V14.32H14.3604V14.9836C14.3604 15.1596 14.2903 15.3284 14.1655 15.4528C14.0407 15.5773 13.8715 15.6472 13.695 15.6472H4.37868C4.25925 15.6472 4.14424 15.7355 4.04089 15.8149C4.01756 15.8328 3.99482 15.8503 3.97276 15.8662L1.71688 17.6379Z" fill="#D2D2D2"/>
<path d="M19.6842 0.384493H8.37156C7.8421 0.384493 7.33432 0.594235 6.95993 0.967578C6.58554 1.34092 6.37521 1.84728 6.37521 2.37527V10.3384C6.37521 10.8664 6.58554 11.3727 6.95993 11.7461C7.33432 12.1194 7.8421 12.3292 8.37156 12.3292H17.3884L20.5693 14.7911C20.6638 14.8608 20.7752 14.9043 20.8921 14.9171C21.009 14.9299 21.1272 14.9116 21.2347 14.8641C21.348 14.8103 21.4437 14.7257 21.5108 14.62C21.5779 14.5144 21.6137 14.3919 21.614 14.2669V2.37527C21.6143 1.85858 21.4132 1.36202 21.053 0.99053C20.6929 0.619037 20.2021 0.401715 19.6842 0.384493ZM20.3497 12.9529L18.0206 11.1413C17.9044 11.0514 17.7617 11.0024 17.6147 11.002H8.37156C8.19508 11.002 8.02581 10.9321 7.90102 10.8076C7.77622 10.6832 7.70611 10.5144 7.70611 10.3384V2.37527C7.70611 2.19928 7.77622 2.03049 7.90102 1.90604C8.02581 1.78159 8.19508 1.71168 8.37156 1.71168H19.6842C19.8621 1.72778 20.0279 1.80818 20.1505 1.93773C20.2731 2.06729 20.3439 2.23707 20.3497 2.41509V12.9529Z" fill="#D2D2D2"/>
<path fill-rule="evenodd" clip-rule="evenodd" d="M20.5693 14.7911L17.3884 12.3292H8.37156C7.8421 12.3292 7.33432 12.1194 6.95993 11.7461C6.58554 11.3727 6.37521 10.8664 6.37521 10.3384V2.37527C6.37521 1.84728 6.58554 1.34092 6.95993 0.967578C7.33432 0.594235 7.8421 0.384493 8.37156 0.384493H19.6842C20.2021 0.401715 20.6929 0.619037 21.053 0.99053C21.4132 1.36202 21.6143 1.85858 21.614 2.37527V14.2669C21.6137 14.3919 21.5779 14.5144 21.5108 14.62C21.4437 14.7257 21.348 14.8103 21.2347 14.8641C21.1272 14.9116 21.009 14.9299 20.8921 14.9171C20.7752 14.9043 20.6638 14.8608 20.5693 14.7911ZM22 2.37549C22.0003 1.75906 21.7603 1.16659 21.3306 0.723312C20.9009 0.28002 20.3152 0.0206474 19.6971 9.19615e-05L19.6842 0.384493V-0.00012207H8.37156C7.73965 -0.00012207 7.13366 0.250208 6.68691 0.69571C6.24017 1.1412 5.98925 1.74537 5.98925 2.37527V10.3384C5.98925 10.9683 6.24017 11.5725 6.68691 12.0179C7.13367 12.4635 7.73965 12.7138 8.37156 12.7138H17.2561L20.3325 15.0949L20.3397 15.1003C20.4891 15.2104 20.6652 15.2792 20.8499 15.2994C21.0346 15.3197 21.2215 15.2908 21.3913 15.2156L21.4008 15.2113C21.5797 15.1263 21.7309 14.9926 21.8369 14.8257C21.9429 14.6588 21.9994 14.4655 22 14.2679V2.37549ZM17.6147 11.002C17.7617 11.0024 17.9044 11.0514 18.0206 11.1413L20.3497 12.9529V2.41509C20.3439 2.23707 20.2731 2.06729 20.1505 1.93773C20.0279 1.80818 19.8621 1.72778 19.6842 1.71168H8.37156C8.19508 1.71168 8.02581 1.78159 7.90102 1.90604C7.77622 2.03049 7.70611 2.19928 7.70611 2.37527V10.3384C7.70611 10.5144 7.77622 10.6832 7.90102 10.8076C8.02581 10.9321 8.19508 11.002 8.37156 11.002H17.6147ZM19.6635 2.09629H8.37156C8.29753 2.09629 8.22647 2.12562 8.17403 2.17791C8.12159 2.23021 8.09207 2.3012 8.09207 2.37527V10.3384C8.09207 10.4125 8.12159 10.4835 8.17403 10.5358C8.22647 10.588 8.29753 10.6174 8.37156 10.6174H17.6159C17.8483 10.6181 18.0738 10.6955 18.2573 10.8376L19.9637 12.1648V2.42244C19.9598 2.33999 19.9265 2.26162 19.8697 2.20157C19.815 2.14375 19.7421 2.10668 19.6635 2.09629Z" fill="#D2D2D2"/>
</svg>
