<svg width="20" height="20" viewBox="0 0 20 20" fill="none" xmlns="http://www.w3.org/2000/svg">
<path d="M18 17.9662V6.9148L10 2.03378L2 6.9148V17.9662H6V15.1698C6 14.0911 6.42143 13.0565 7.17157 12.2937C7.92172 11.5308 8.93913 11.1023 10 11.1023C11.0609 11.1023 12.0783 11.5308 12.8284 12.2937C13.5786 13.0565 14 14.0911 14 15.1698V17.9662H18ZM12 20V15.1698C12 14.6304 11.7893 14.1131 11.4142 13.7317C11.0391 13.3503 10.5304 13.1361 10 13.1361C9.46957 13.1361 8.96086 13.3503 8.58579 13.7317C8.21071 14.1131 8 14.6304 8 15.1698V20H2C1.46957 20 0.960859 19.7857 0.585786 19.4043C0.210714 19.0229 0 18.5056 0 17.9662V6.9148C-3.32274e-06 6.5636 0.0894306 6.21838 0.259593 5.91276C0.429755 5.60714 0.674846 5.35154 0.971 5.17085L8.971 0.28983C9.28183 0.100181 9.63751 0 10 0C10.3625 0 10.7182 0.100181 11.029 0.28983L19.029 5.17085C19.3252 5.35154 19.5702 5.60714 19.7404 5.91276C19.9106 6.21838 20 6.5636 20 6.9148V17.9662C20 18.5056 19.7893 19.0229 19.4142 19.4043C19.0391 19.7857 18.5304 20 18 20H12Z" fill="#222222"/>
</svg>
