<svg width="22" height="20" viewBox="0 0 22 20" fill="none" xmlns="http://www.w3.org/2000/svg">
<path d="M0 1.10333C0.00201305 0.811531 0.11759 0.532242 0.321764 0.325797C0.525938 0.119353 0.802318 0.00232739 1.0912 0H20.9088C21.5116 0 22 0.494444 22 1.10333V18.8967C21.998 19.1885 21.8824 19.4678 21.6782 19.6742C21.4741 19.8806 21.1977 19.9977 20.9088 20H1.0912C0.801695 19.9997 0.524146 19.8833 0.319538 19.6764C0.11493 19.4696 -1.46801e-07 19.1891 0 18.8967V1.10333ZM2.2 2.22222V17.7778H19.8V2.22222H2.2ZM4.4 4.44444H11V11.1111H4.4V4.44444ZM6.6 6.66667V8.88889H8.8V6.66667H6.6ZM4.4 13.3333H17.6V15.5556H4.4V13.3333ZM13.2 4.44444H17.6V6.66667H13.2V4.44444ZM13.2 8.88889H17.6V11.1111H13.2V8.88889Z" fill="#D2D2D2"/>
</svg>
