<svg width="20" height="20" viewBox="0 0 20 20" fill="none" xmlns="http://www.w3.org/2000/svg">
<path d="M9.99997 9.01982C11.3 9.01982 12.5469 9.53627 13.4662 10.4556C14.3855 11.3749 14.9019 12.6217 14.9019 13.9218V19.8041H12.9411V13.9218C12.9412 13.1716 12.6545 12.4497 12.1399 11.9039C11.6252 11.358 10.9214 11.0295 10.1725 10.9855L9.99997 10.9806C9.24976 10.9806 8.52789 11.2672 7.98206 11.7819C7.43623 12.2965 7.1077 13.0003 7.06369 13.7492L7.05879 13.9218V19.8041H5.09801V13.9218C5.09801 12.6217 5.61446 11.3749 6.53376 10.4556C7.45305 9.53627 8.69989 9.01982 9.99997 9.01982ZM3.62742 11.961C3.90095 11.961 4.16663 11.9933 4.42154 12.0532C4.25391 12.5522 4.15464 13.0716 4.12644 13.5973L4.11761 13.9218V14.0061C4.00492 13.9658 3.8877 13.9394 3.76859 13.9277L3.62742 13.9218C3.26185 13.9218 2.90939 14.058 2.63877 14.3038C2.36816 14.5495 2.19879 14.8873 2.16369 15.2512L2.15683 15.3924V19.8041H0.196045V15.3924C0.196045 14.4823 0.557563 13.6095 1.20107 12.966C1.84458 12.3225 2.71736 11.961 3.62742 11.961ZM16.3725 11.961C17.2826 11.961 18.1554 12.3225 18.7989 12.966C19.4424 13.6095 19.8039 14.4823 19.8039 15.3924V19.8041H17.8431V15.3924C17.8431 15.0268 17.7069 14.6743 17.4611 14.4037C17.2153 14.1331 16.8776 13.9637 16.5137 13.9286L16.3725 13.9218C16.2009 13.9218 16.0362 13.9512 15.8823 14.0051V13.9218C15.8823 13.2688 15.7764 12.6414 15.5794 12.0551C15.8391 11.9922 16.1053 11.9607 16.3725 11.961ZM3.62742 6.07864C4.27746 6.07864 4.90087 6.33687 5.36052 6.79652C5.82017 7.25617 6.0784 7.87958 6.0784 8.52962C6.0784 9.17966 5.82017 9.80308 5.36052 10.2627C4.90087 10.7224 4.27746 10.9806 3.62742 10.9806C2.97738 10.9806 2.35396 10.7224 1.89431 10.2627C1.43466 9.80308 1.17644 9.17966 1.17644 8.52962C1.17644 7.87958 1.43466 7.25617 1.89431 6.79652C2.35396 6.33687 2.97738 6.07864 3.62742 6.07864ZM16.3725 6.07864C17.0226 6.07864 17.646 6.33687 18.1056 6.79652C18.5653 7.25617 18.8235 7.87958 18.8235 8.52962C18.8235 9.17966 18.5653 9.80308 18.1056 10.2627C17.646 10.7224 17.0226 10.9806 16.3725 10.9806C15.7225 10.9806 15.0991 10.7224 14.6394 10.2627C14.1798 9.80308 13.9215 9.17966 13.9215 8.52962C13.9215 7.87958 14.1798 7.25617 14.6394 6.79652C15.0991 6.33687 15.7225 6.07864 16.3725 6.07864ZM3.62742 8.03943C3.49741 8.03943 3.37273 8.09107 3.2808 8.183C3.18887 8.27493 3.13722 8.39961 3.13722 8.52962C3.13722 8.65963 3.18887 8.78431 3.2808 8.87624C3.37273 8.96817 3.49741 9.01982 3.62742 9.01982C3.75743 9.01982 3.88211 8.96817 3.97404 8.87624C4.06597 8.78431 4.11761 8.65963 4.11761 8.52962C4.11761 8.39961 4.06597 8.27493 3.97404 8.183C3.88211 8.09107 3.75743 8.03943 3.62742 8.03943ZM16.3725 8.03943C16.2425 8.03943 16.1178 8.09107 16.0259 8.183C15.934 8.27493 15.8823 8.39961 15.8823 8.52962C15.8823 8.65963 15.934 8.78431 16.0259 8.87624C16.1178 8.96817 16.2425 9.01982 16.3725 9.01982C16.5025 9.01982 16.6272 8.96817 16.7191 8.87624C16.8111 8.78431 16.8627 8.65963 16.8627 8.52962C16.8627 8.39961 16.8111 8.27493 16.7191 8.183C16.6272 8.09107 16.5025 8.03943 16.3725 8.03943ZM9.99997 0.196289C11.04 0.196289 12.0375 0.609453 12.7729 1.34489C13.5084 2.08033 13.9215 3.07779 13.9215 4.11786C13.9215 5.15792 13.5084 6.15539 12.7729 6.89083C12.0375 7.62626 11.04 8.03943 9.99997 8.03943C8.9599 8.03943 7.96243 7.62626 7.227 6.89083C6.49156 6.15539 6.0784 5.15792 6.0784 4.11786C6.0784 3.07779 6.49156 2.08033 7.227 1.34489C7.96243 0.609453 8.9599 0.196289 9.99997 0.196289ZM9.99997 2.15707C9.47993 2.15707 8.9812 2.36366 8.61348 2.73137C8.24576 3.09909 8.03918 3.59783 8.03918 4.11786C8.03918 4.63789 8.24576 5.13662 8.61348 5.50434C8.9812 5.87206 9.47993 6.07864 9.99997 6.07864C10.52 6.07864 11.0187 5.87206 11.3864 5.50434C11.7542 5.13662 11.9608 4.63789 11.9608 4.11786C11.9608 3.59783 11.7542 3.09909 11.3864 2.73137C11.0187 2.36366 10.52 2.15707 9.99997 2.15707Z" fill="#D2D2D2"/>
<path fill-rule="evenodd" clip-rule="evenodd" d="M15.098 20H12.7451V13.9216C12.7451 13.2214 12.4776 12.5476 11.9973 12.0382C11.5176 11.5295 10.8619 11.223 10.164 11.1812L9.99724 11.1765C9.29803 11.1771 8.62539 11.4446 8.11661 11.9243C7.60788 12.404 7.3014 13.0597 7.25964 13.7576L7.2549 13.9244V20H4.90196V13.9216C4.90196 12.5695 5.43907 11.2728 6.39514 10.3167C7.35121 9.36064 8.64792 8.82353 10 8.82353C11.3521 8.82353 12.6488 9.36064 13.6049 10.3167C14.5609 11.2728 15.098 12.5695 15.098 13.9216V20ZM7.05882 13.9216L7.06372 13.749C7.10774 13.0001 7.43627 12.2963 7.9821 11.7816C8.52793 11.267 9.24979 10.9803 10 10.9804L10.1725 10.9853C10.9215 11.0293 11.6253 11.3578 12.1399 11.9037C12.6546 12.4495 12.9412 13.1714 12.9412 13.9216V19.8039H14.902V13.9216C14.902 12.6215 14.3855 11.3747 13.4662 10.4554C12.5469 9.53606 11.3001 9.01961 10 9.01961C8.69992 9.01961 7.45309 9.53606 6.53379 10.4554C5.61449 11.3747 5.09804 12.6215 5.09804 13.9216V19.8039H7.05882V13.9216ZM4.67601 11.9112L4.60744 12.1154C4.44573 12.5968 4.34985 13.0979 4.3224 13.605L4.31372 13.9242V14.2843L4.05159 14.1905C3.95569 14.1562 3.856 14.1336 3.7547 14.1231L3.62352 14.1177C3.3081 14.1186 3.00419 14.2366 2.77063 14.4487C2.53721 14.6607 2.39071 14.9517 2.35934 15.2653L2.35294 15.3969V20H0V15.3922C0 14.4301 0.382177 13.5074 1.06246 12.8272C1.74273 12.1469 2.66539 11.7647 3.62745 11.7647C3.91651 11.7647 4.19722 11.7989 4.46635 11.862L4.67601 11.9112ZM2.15686 15.3922L2.16373 15.251C2.19882 14.8871 2.36819 14.5493 2.6388 14.3035C2.90942 14.0578 3.26188 13.9216 3.62745 13.9216L3.76863 13.9275C3.82003 13.9325 3.87108 13.9403 3.92157 13.9508C3.98807 13.9646 4.05359 13.983 4.11765 14.0059V13.9216L4.12647 13.5971C4.15116 13.1369 4.23031 12.6815 4.36209 12.2404C4.38085 12.1776 4.40068 12.1151 4.42157 12.0529C4.35774 12.038 4.29324 12.0247 4.2281 12.0133C4.03312 11.979 3.83249 11.9608 3.62745 11.9608C2.71739 11.9608 1.84461 12.3223 1.2011 12.9658C0.557597 13.6093 0.196078 14.4821 0.196078 15.3922V19.8039H2.15686V15.3922ZM15.7725 12.0141C15.9704 11.9784 16.1712 11.9605 16.3725 11.9608C17.2826 11.9608 18.1554 12.3223 18.7989 12.9658C19.4424 13.6093 19.8039 14.4821 19.8039 15.3922V19.8039H17.8431V15.3922C17.8431 15.0266 17.7069 14.6741 17.4612 14.4035C17.2154 14.1329 16.8776 13.9635 16.5137 13.9284L16.3725 13.9216C16.2719 13.9216 16.1736 13.9317 16.0784 13.951C16.0114 13.9645 15.946 13.9826 15.8824 14.0049V13.9216C15.8824 13.8806 15.8819 13.8397 15.8811 13.799C15.8701 13.2588 15.7865 12.7369 15.6389 12.2423C15.6201 12.1794 15.6003 12.1169 15.5794 12.0549C15.6434 12.0394 15.7078 12.0258 15.7725 12.0141ZM16.3679 14.1177C16.2206 14.1182 16.0794 14.1436 15.9472 14.19L15.6863 14.2814V13.9216C15.6863 13.29 15.5839 12.6836 15.3936 12.1174L15.3254 11.9146L15.5333 11.8643C15.8081 11.7978 16.09 11.7643 16.3728 11.7647M16.3679 14.1177L16.4994 14.124C16.813 14.1554 17.104 14.3019 17.316 14.5353C17.529 14.7699 17.647 15.0753 17.6471 15.3922V20H20V15.3922C20 14.4301 19.6178 13.5074 18.9375 12.8272C18.2573 12.1469 17.3348 11.7648 16.3728 11.7647M3.62745 5.88235C4.32949 5.88235 5.00278 6.16124 5.4992 6.65766C5.99562 7.15408 6.27451 7.82737 6.27451 8.52941C6.27451 9.23145 5.99562 9.90474 5.4992 10.4012C5.00278 10.8976 4.32949 11.1765 3.62745 11.1765C2.92541 11.1765 2.25212 10.8976 1.7557 10.4012C1.25928 9.90474 0.980392 9.23145 0.980392 8.52941C0.980392 7.82737 1.25928 7.15408 1.7557 6.65766C2.25212 6.16124 2.92541 5.88235 3.62745 5.88235ZM16.3725 5.88235C17.0746 5.88235 17.7479 6.16124 18.2443 6.65766C18.7407 7.15408 19.0196 7.82737 19.0196 8.52941C19.0196 9.23145 18.7407 9.90474 18.2443 10.4012C17.7479 10.8976 17.0746 11.1765 16.3725 11.1765C15.6705 11.1765 14.9972 10.8976 14.5008 10.4012C14.0044 9.90474 13.7255 9.23145 13.7255 8.52941C13.7255 7.82737 14.0044 7.15408 14.5008 6.65766C14.9972 6.16124 15.6705 5.88235 16.3725 5.88235ZM10 0C11.0921 0 12.1394 0.433822 12.9116 1.20603C13.6838 1.97824 14.1176 3.02558 14.1176 4.11765C14.1176 5.20971 13.6838 6.25705 12.9116 7.02926C12.1394 7.80147 11.0921 8.23529 10 8.23529C8.90793 8.23529 7.86059 7.80147 7.08838 7.02926C6.31617 6.25705 5.88235 5.20971 5.88235 4.11765C5.88235 3.02558 6.31617 1.97824 7.08838 1.20603C7.86059 0.433822 8.90793 0 10 0ZM10 2.35294C9.53197 2.35294 9.08311 2.53886 8.75216 2.86981C8.42122 3.20076 8.23529 3.64962 8.23529 4.11765C8.23529 4.58568 8.42122 5.03454 8.75216 5.36548C9.08311 5.69643 9.53197 5.88235 10 5.88235C10.468 5.88235 10.9169 5.69643 11.2478 5.36548C11.5788 5.03454 11.7647 4.58568 11.7647 4.11765C11.7647 3.64962 11.5788 3.20076 11.2478 2.86981C10.9169 2.53886 10.468 2.35294 10 2.35294ZM5.36056 6.79631C4.90091 6.33666 4.27749 6.07843 3.62745 6.07843C2.97741 6.07843 2.35399 6.33666 1.89435 6.79631C1.4347 7.25595 1.17647 7.87937 1.17647 8.52941C1.17647 9.17945 1.4347 9.80287 1.89435 10.2625C2.35399 10.7222 2.97741 10.9804 3.62745 10.9804C4.27749 10.9804 4.90091 10.7222 5.36056 10.2625C5.8202 9.80287 6.07843 9.17945 6.07843 8.52941C6.07843 7.87937 5.8202 7.25595 5.36056 6.79631ZM18.1057 6.79631C17.646 6.33666 17.0226 6.07843 16.3725 6.07843C15.7225 6.07843 15.0991 6.33666 14.6394 6.79631C14.1798 7.25595 13.9216 7.87937 13.9216 8.52941C13.9216 9.17945 14.1798 9.80287 14.6394 10.2625C15.0991 10.7222 15.7225 10.9804 16.3725 10.9804C17.0226 10.9804 17.646 10.7222 18.1057 10.2625C18.5653 9.80287 18.8235 9.17945 18.8235 8.52941C18.8235 7.87937 18.5653 7.25595 18.1057 6.79631ZM12.773 1.34468C12.0375 0.609243 11.0401 0.196078 10 0.196078C8.95993 0.196078 7.96247 0.609243 7.22703 1.34468C6.49159 2.08012 6.07843 3.07758 6.07843 4.11765C6.07843 5.15771 6.49159 6.15518 7.22703 6.89061C7.96247 7.62605 8.95993 8.03922 10 8.03922C11.0401 8.03922 12.0375 7.62605 12.773 6.89061C13.5084 6.15518 13.9216 5.15771 13.9216 4.11765C13.9216 3.07758 13.5084 2.08012 12.773 1.34468ZM8.61352 2.73116C8.98123 2.36344 9.47997 2.15686 10 2.15686C10.52 2.15686 11.0188 2.36344 11.3865 2.73116C11.7542 3.09888 11.9608 3.59761 11.9608 4.11765C11.9608 4.63768 11.7542 5.13641 11.3865 5.50413C11.0188 5.87185 10.52 6.07843 10 6.07843C9.47997 6.07843 8.98123 5.87185 8.61352 5.50413C8.2458 5.13641 8.03922 4.63768 8.03922 4.11765C8.03922 3.59761 8.2458 3.09888 8.61352 2.73116Z" fill="#D2D2D2"/>
</svg>
