<svg fill="none" height="16" viewBox="0 0 16 16" width="16" xmlns="http://www.w3.org/2000/svg"><path d="m8 7.4c.79565 0 1.55871.31607 2.1213.87868.5626.56261.8787 1.32567.8787 2.12132v3.6h-1.2v-3.6c.00003-.45913-.17539-.90091-.49037-1.23496-.31497-.33404-.74569-.5351-1.20403-.56204l-.1056-.003c-.45913-.00003-.90091.1754-1.23496.49037-.33404.31498-.5351.74569-.56204 1.20403l-.003.1056v3.6h-1.2v-3.6c0-.79565.31607-1.55871.87868-2.12132s1.32567-.87868 2.12132-.87868zm-3.9 1.8c.1674 0 .33.0198.486.0564-.10259.3054-.16334.62329-.1806.945l-.0054.1986v.0516c-.06897-.0247-.1407-.0408-.2136-.048l-.0864-.0036c-.22373 0-.43943.0834-.60505.2338s-.26927.3571-.29075.5798l-.0042.0864v2.7h-1.2v-2.7c0-.557.22125-1.0911.61508-1.48492.39382-.39383.92797-.61508 1.48492-.61508zm7.8 0c.557 0 1.0911.22125 1.4849.61508.3939.39382.6151.92792.6151 1.48492v2.7h-1.2v-2.7c0-.2237-.0834-.4394-.2338-.6051-.1504-.1656-.3571-.2692-.5798-.2907l-.0864-.0042c-.105 0-.2058.018-.3.051v-.051c0-.3996-.0648-.7836-.1854-1.1424.1589-.03847.3219-.05781.4854-.0576zm-7.8-3.6c.39782 0 .77936.15804 1.06066.43934s.43934.66284.43934 1.06066c0 .39783-.15804.77936-.43934 1.06066-.2813.28131-.66284.43934-1.06066.43934s-.77936-.15803-1.06066-.43934c-.2813-.2813-.43934-.66283-.43934-1.06066 0-.39782.15804-.77936.43934-1.06066s.66284-.43934 1.06066-.43934zm7.8 0c.3978 0 .7794.15804 1.0607.43934s.4393.66284.4393 1.06066c0 .39783-.158.77936-.4393 1.06066-.2813.28131-.6629.43934-1.0607.43934s-.7794-.15803-1.0607-.43934c-.2813-.2813-.4393-.66283-.4393-1.06066 0-.39782.158-.77936.4393-1.06066s.6629-.43934 1.0607-.43934zm-7.8 1.2c-.07956 0-.15587.03161-.21213.08787s-.08787.13257-.08787.21213.03161.15587.08787.21213.13257.08787.21213.08787.15587-.03161.21213-.08787.08787-.13257.08787-.21213-.03161-.15587-.08787-.21213-.13257-.08787-.21213-.08787zm7.8 0c-.0796 0-.1559.03161-.2121.08787-.0563.05626-.0879.13257-.0879.21213s.0316.15587.0879.21213c.0562.05626.1325.08787.2121.08787s.1559-.03161.2121-.08787c.0563-.05626.0879-.13257.0879-.21213s-.0316-.15587-.0879-.21213c-.0562-.05626-.1325-.08787-.2121-.08787zm-3.9-4.8c.63652 0 1.24697.25286 1.69706.70294.45004.45009.70294 1.06054.70294 1.69706s-.2529 1.24697-.70294 1.69706c-.45009.45008-1.06054.70294-1.69706.70294s-1.24697-.25286-1.69706-.70294c-.45008-.45009-.70294-1.06054-.70294-1.69706s.25286-1.24697.70294-1.69706c.45009-.45008 1.06054-.70294 1.69706-.70294zm0 1.2c-.31826 0-.62348.12643-.84853.35147-.22504.22505-.35147.53027-.35147.84853s.12643.62348.35147.84853c.22505.22504.53027.35147.84853.35147s.62348-.12643.84853-.35147c.22504-.22505.35147-.53027.35147-.84853s-.12643-.62348-.35147-.84853c-.22505-.22504-.53027-.35147-.84853-.35147z" fill="#61c680"/></svg>