<svg fill="none" height="16" viewBox="0 0 16 16" width="16" xmlns="http://www.w3.org/2000/svg"><path d="m8 1c-3.86562 0-7 3.13438-7 7 0 3.8656 3.13438 7 7 7 3.8656 0 7-3.1344 7-7 0-3.86562-3.1344-7-7-7zm3.0234 4.71406-3.29059 4.56254c-.04599.0642-.10662.1165-.17686.1525-.07024.0361-.14808.055-.22704.055-.07897 0-.1568-.0189-.22705-.055-.07024-.036-.13087-.0883-.17686-.1525l-1.94844-2.70004c-.05937-.08281 0-.19843.10156-.19843h.73282c.15937 0 .31093.07656.40468.20781l1.1125 1.54375 2.45626-3.40625c.09375-.12969.24372-.20782.40472-.20782h.7328c.1015 0 .1609.11563.1015.19844z" fill="#ccc"/></svg>