<svg width="28" height="28" viewBox="0 0 28 28" fill="none" xmlns="http://www.w3.org/2000/svg">
<path d="M22.1665 12.8335H8.32984L12.5648 7.74683C12.7629 7.50857 12.8581 7.20141 12.8297 6.89291C12.8013 6.58442 12.6514 6.29985 12.4132 6.10183C12.1749 5.9038 11.8678 5.80852 11.5593 5.83697C11.2508 5.86541 10.9662 6.01524 10.7682 6.25349L4.93484 13.2535C4.89559 13.3092 4.8605 13.3677 4.82984 13.4285C4.82984 13.4868 4.82984 13.5218 4.74817 13.5802C4.69529 13.7139 4.6676 13.8563 4.6665 14.0002C4.6676 14.144 4.69529 14.2864 4.74817 14.4202C4.74817 14.4785 4.74817 14.5135 4.82984 14.5718C4.8605 14.6327 4.89559 14.6911 4.93484 14.7468L10.7682 21.7468C10.8779 21.8785 11.0152 21.9844 11.1705 22.057C11.3258 22.1296 11.4951 22.1671 11.6665 22.1668C11.9391 22.1674 12.2033 22.0724 12.4132 21.8985C12.5313 21.8006 12.629 21.6803 12.7005 21.5445C12.7721 21.4088 12.8162 21.2603 12.8303 21.1075C12.8444 20.9547 12.8282 20.8006 12.7826 20.654C12.7371 20.5075 12.6631 20.3714 12.5648 20.2535L8.32984 15.1668H22.1665C22.4759 15.1668 22.7727 15.0439 22.9915 14.8251C23.2103 14.6063 23.3332 14.3096 23.3332 14.0002C23.3332 13.6907 23.2103 13.394 22.9915 13.1752C22.7727 12.9564 22.4759 12.8335 22.1665 12.8335Z" fill="white"/>
</svg>
